<svg xmlns="http://www.w3.org/2000/svg" width="297" height="297" viewBox="0 0 297 297">
  <g id="Group_36619" data-name="Group 36619" transform="translate(-65 -3926)">
    <circle id="Ellipse_662" data-name="Ellipse 662" cx="148.5" cy="148.5" r="148.5" transform="translate(65 3926)" fill="#e4e7ed"/>
    <g id="Group_36618" data-name="Group 36618" transform="translate(66 3836)">
      <path id="Path_41853" data-name="Path 41853" d="M262.978,388.149h40.343l.218,2.829-19.715,30.664-21.178-30.969.329-2.524Z" transform="translate(-134.122 -153.459)" fill="#b3b3b3"/>
      <path id="Path_41854" data-name="Path 41854" d="M232.392,371.339l-.359,17.3-29.346,16.048v58.823h98.8V404.685l-27.275-16.952-1.5-17.294-40.32.9v0Z" transform="translate(-104.325 -144.344)" fill="#f0ba7d"/>
      <path id="Path_41855" data-name="Path 41855" d="M227.363,222.181s-1.683-3.7-6.2-1.864.2,20.1,1.93,22.65,4.5.93,5.516.828c1.439,10.89,1.568,18.4,5.927,22.991,4.128,4.348,13.584,13.212,18.564,16.3a53.727,53.727,0,0,0,8.258,1.256,53.769,53.769,0,0,0,8.257-1.256c4.981-3.089,14.436-11.952,18.564-16.3,4.359-4.593,4.488-12.1,5.927-22.991,1.013.1,3.789,1.72,5.516-.828s6.449-20.818,1.93-22.65-6.2,1.864-6.2,1.864,4.467-14.347-3.473-28.47c-5.439-9.679-17.847-14.7-30.519-15.068-12.672.367-25.081,5.388-30.519,15.068-7.938,14.123-3.472,28.47-3.472,28.47Z" transform="translate(-112.855 -45.625)" fill="#fed298"/>
      <path id="Path_41856" data-name="Path 41856" d="M202.943,418.425c3.159,25.324,70.207,24.607,70.362,0L295.356,454.8l-17.463,91.95a153.785,153.785,0,0,1-72.465,1.722l-31.3-90.767,28.818-39.283Z" transform="translate(-89.625 -166.989)" fill="#21d0c3"/>
      <path id="Path_41857" data-name="Path 41857" d="M169.027,414.26C91.08,439.609,113.419,427.246,95.8,513.306a148.822,148.822,0,0,0,35.856,25.064l7.823-25.528a.628.628,0,0,1,.673-.44.621.621,0,0,1,.552.584l1.13,29.984a148.017,148.017,0,0,0,55.978,10.923V491.832l-28.78-77.575Z" transform="translate(-49.308 -166.897)" fill="#fff"/>
      <path id="Path_41858" data-name="Path 41858" d="M334.767,414.628c78.011,25.1,55.625,12.817,73.246,98.869a148.93,148.93,0,0,1-35.859,25.068l-7.824-25.528a.626.626,0,0,0-1.224.145l-1.125,29.983a148.026,148.026,0,0,1-55.975,10.923V492.025l28.764-77.4Z" transform="translate(-157.503 -167.088)" fill="#eef3f7"/>
      <path id="Path_41859" data-name="Path 41859" d="M404.675,556.536a10.649,10.649,0,1,1,12.3-8.682,10.646,10.646,0,0,1-12.3,8.682h0Z" transform="translate(-203.74 -229.247)" fill="#fefefe"/>
      <path id="Path_41860" data-name="Path 41860" d="M405.436,556.584a10.028,10.028,0,1,1,11.587-8.174A10.03,10.03,0,0,1,405.436,556.584Z" transform="translate(-204.396 -229.905)" fill="#21d0c3"/>
      <path id="Path_41861" data-name="Path 41861" d="M410.955,556.927a5.548,5.548,0,1,1,6.411-4.523A5.549,5.549,0,0,1,410.955,556.927Z" transform="translate(-209.151 -234.66)" fill="#ebecec"/>
      <path id="Path_41862" data-name="Path 41862" d="M417.179,539.247l2.438.421,1.31-7.592-2.438-.421Z" transform="translate(-214.725 -227.323)" fill="#fefefe"/>
      <path id="Path_41863" data-name="Path 41863" d="M199.223,526.818l4.568-.906a7.213,7.213,0,0,0,5.657-8.458l-5.372-27.071c-2.028-10.216-10.02-15.425-19.151-16.579a34.452,34.452,0,0,0-20.791,4.124c-7.979,4.544-13.356,12.4-11.325,22.631l5.372,27.072a7.179,7.179,0,0,0,3.063,4.573l0,0a7.172,7.172,0,0,0,5.394,1.085l4.566-.906-.373-1.883-4.568.905a5.271,5.271,0,0,1-3.957-.793h0a5.269,5.269,0,0,1-2.248-3.354l-5.372-27.071c-1.844-9.284,3.085-16.44,10.385-20.6a32.495,32.495,0,0,1,19.612-3.89c8.357,1.055,15.668,5.79,17.506,15.057l5.375,27.071a5.291,5.291,0,0,1-4.15,6.2l-4.568.905.372,1.884h0Z" transform="translate(-78.43 -197.419)" fill="#21d0c3"/>
      <path id="Path_41864" data-name="Path 41864" d="M204.848,493.709l-.823-4.136c-2.09-10.532-10.312-15.9-19.7-17.088a35.069,35.069,0,0,0-21.179,4.2c-8.206,4.673-13.731,12.764-11.639,23.313l.823,4.137,3.135-.624-.823-4.135c-1.779-8.967,3-15.89,10.072-19.917a31.866,31.866,0,0,1,19.221-3.81c8.1,1.023,15.178,5.6,16.957,14.548l.82,4.137Z" transform="translate(-77.753 -196.738)" fill="#4d4d4d"/>
      <g id="Group_36560" data-name="Group 36560" transform="translate(88.632 326.346)">
        <path id="Path_41865" data-name="Path 41865" d="M183.165,591.839l2.444-.485a2.685,2.685,0,1,0-.528-2.663l-2.443.485Z" transform="translate(-182.637 -582.097)" fill="#076673"/>
        <path id="Path_41866" data-name="Path 41866" d="M244.784,580.1l-2.441.485a2.687,2.687,0,1,1-.533-2.663l2.444-.485.528,2.663Z" transform="translate(-210.68 -577.016)" fill="#076673"/>
      </g>
      <path id="Path_41867" data-name="Path 41867" d="M195.246,468.157l-.932-4.7-1.854.37-1.851.367.943,4.742q1.057-.309,2.143-.522.772-.153,1.551-.257v0Z" transform="translate(-98.107 -192.222)" fill="#666"/>
      <g id="Group_36561" data-name="Group 36561" transform="translate(92.168 327.063)">
        <path id="Path_41868" data-name="Path 41868" d="M190.893,590a.813.813,0,1,0-.954-.641.812.812,0,0,0,.954.641v0Z" transform="translate(-189.923 -583.589)" fill="#0f7986"/>
        <path id="Path_41869" data-name="Path 41869" d="M240.686,580.1a.813.813,0,1,0-.954-.638.812.812,0,0,0,.954.638Z" transform="translate(-215.552 -578.494)" fill="#0f7986"/>
      </g>
      <path id="Path_41870" data-name="Path 41870" d="M410.605,557.456a5.246,5.246,0,1,1,6.063-4.276,5.248,5.248,0,0,1-6.063,4.276Z" transform="translate(-209.099 -235.241)" fill="#fefefe"/>
      <g id="Group_36562" data-name="Group 36562" transform="translate(92.381 243.15)">
        <path id="Path_41871" data-name="Path 41871" d="M217.727,408.308c-.083,0-28.923.241-24.052,25.472l-2.681.511c-5.493-28.445,26.61-28.708,26.7-28.708Z" transform="translate(-190.361 -405.583)" fill="#4d4d4d"/>
        <path id="Path_41872" data-name="Path 41872" d="M365.268,405.856a27.289,27.289,0,0,1,20.8,9.927c6.85,8.332,11.655,23.639,8.062,51.7l-2.7-.343c3.475-27.16-1.016-41.783-7.464-49.628a24.627,24.627,0,0,0-18.763-8.933l.065-2.725Z" transform="translate(-280.352 -405.724)" fill="#4d4d4d"/>
      </g>
      <path id="Path_41873" data-name="Path 41873" d="M277.524,351.283a51.491,51.491,0,0,1-8.284-1.063c-2.572-.76-18.564-16.3-18.564-16.3l.5-22.9L273.509,310s2.658-1.584,4.016-1.249c1.361-.335,4.016,1.249,4.016,1.249l22.332,1.019.5,22.9s-15.992,15.54-18.565,16.3A51.48,51.48,0,0,1,277.524,351.283Z" transform="translate(-129.025 -112.57)" fill="#fefefe"/>
      <path id="Path_41874" data-name="Path 41874" d="M306,308.754l1.809,6.315-.962,4.41,1.98,10.631-2.082,10.165-.747,11.009a51.523,51.523,0,0,0,8.284-1.063c2.572-.761,18.565-16.3,18.565-16.3l-.5-22.9L310.011,310s-2.657-1.584-4.015-1.249Z" transform="translate(-157.498 -112.57)" fill="#eef3f7"/>
      <g id="Group_36563" data-name="Group 36563" transform="translate(107.799 126.697)">
        <path id="Path_41875" data-name="Path 41875" d="M231.438,259.049l10.836,26.988-1.273.485-10.835-26.988Z" transform="translate(-226.267 -213.708)" fill="#21d0c3"/>
        <path id="Path_41876" data-name="Path 41876" d="M368.763,260.451l-10.2,27-1.316-.37,10.2-27Z" transform="translate(-291.678 -214.239)" fill="#21d0c3"/>
        <path id="Path_41877" data-name="Path 41877" d="M262.732,165.619s-33.468,5.02-36.182,12.04-4.976,5.426-4.3,13.721.386,22.235.386,22.235c28.705-10.465,51.747-10.845,80.186,0,0,0-.291-13.94.386-22.235s-1.583-6.7-4.3-13.721-36.183-12.04-36.183-12.04Z" transform="translate(-222.131 -165.619)" fill="#21d0c3"/>
      </g>
      <path id="Path_41878" data-name="Path 41878" d="M305.623,165.613l-.163.024s33.044,8.4,33.383,10.953-1.259,4.962,2.6,6.275,2.826,7.339,2.826,7.339l-.6,22.923.187.219,1.86.257s-.292-13.94.386-22.235-1.584-6.7-4.3-13.721-36.183-12.04-36.183-12.04v.006Z" transform="translate(-157.222 -38.915)" fill="#15bdb2"/>
    </g>
  </g>
</svg>
