<svg xmlns="http://www.w3.org/2000/svg" width="297" height="297" viewBox="0 0 297 297">
  <g id="Group_36620" data-name="Group 36620" transform="translate(0 -90.395)">
    <g id="Group_36551" data-name="Group 36551" transform="translate(76.574 365.665)">
      <path id="Path_41840" data-name="Path 41840" d="M452.962,660.4,452,657.288l-.36,3.875c.439-.24.879-.48,1.358-.759h-.04Z" transform="translate(-308.721 -657.288)" fill="#fcb072"/>
      <path id="Path_41841" data-name="Path 41841" d="M157.6,660.4l.958-3.115.36,3.875c-.439-.24-.879-.48-1.358-.759h.04Z" transform="translate(-157.561 -657.288)" fill="#fcb072"/>
    </g>
    <path id="Path_41850" data-name="Path 41850" d="M230.425,278.93l9.627,16.217s1.638,2.637,4.275,1.518c2.636-1.079,11.3-10.186,34.952-6.671,23.687,3.515,28.92,9.627,31.357,8.348,2.4-1.318,5.792-24.287,5.792-24.287l-29.279-10.984s-30.918-4.833-56.761,15.9Z" transform="translate(-118.42 -88.743)" fill="#f0b97d"/>
    <g id="Group_36622" data-name="Group 36622">
      <circle id="Ellipse_660" data-name="Ellipse 660" cx="148.5" cy="148.5" r="148.5" transform="translate(0 90.395)" fill="#e4e7ed"/>
    </g>
    <g id="Group_36623" data-name="Group 36623">
      <g id="Group_36621" data-name="Group 36621">
        <g id="Group_36620-2" data-name="Group 36620">
          <path id="Path_41834" data-name="Path 41834" d="M210.442,391.4H168.1l-3.4,35.511-8.988,13.062L98.517,462.1S81.94,474.442,79.663,486.266A65.011,65.011,0,0,0,78.9,493.3a148.77,148.77,0,0,0,220.736,0,64.075,64.075,0,0,0-.759-7.029c-2.237-11.824-18.854-24.167-18.854-24.167l-57.2-22.129-8.987-13.062Z" transform="translate(-40.557 -154.953)" fill="#fed298"/>
          <path id="Path_41835" data-name="Path 41835" d="M303.842,430.8l.559,5.632c-3.115,3.634-6.351,7.15-9.427,10.5-3.475,3.795-24.846,3.875-28.361-.159-2.836-3.276-5.991-6.87-9.108-10.666l.52-5.592c2.916,3.4,5.872,6.591,8.548,9.546,3.475,3.835,24.886,3.795,28.361.16,2.876-3.036,5.912-6.151,8.868-9.427h.04Z" transform="translate(-132.359 -175.063)" fill="#f0b97d"/>
          <path id="Path_41836" data-name="Path 41836" d="M191.131,216.39c-13.222-2.357-1.957,37.109,7.709,31.237l5.193,15.219c4.673,13.7,16.417,26.164,25.365,36.03,3.515,3.834,24.886,3.795,28.361.159,9.906-10.426,21.69-22.129,26.124-36.27l4.754-15.139c9.666,5.872,20.891-33.554,7.709-31.237.919-30.718-20.811-60.476-52.567-60.636-31.8.12-53.486,29.919-52.567,60.636h-.081Z" transform="translate(-95.144 -33.831)" fill="#fed298"/>
          <path id="Path_41837" data-name="Path 41837" d="M164.539,464.466l-8.988,13.062-57.2,22.129C94.237,502.972,81.095,515.6,79.5,523.824a62.458,62.458,0,0,0-.839,6.95,148.707,148.707,0,0,0,220.895,0,62.568,62.568,0,0,0-.839-6.95c-1.558-8.229-14.7-20.852-18.854-24.167l-57.2-22.129-8.987-13.062L189.225,481l-.12-.08-.12.08Z" transform="translate(-40.431 -192.511)" fill="#6b7f9e"/>
          <g id="Group_36550" data-name="Group 36550" transform="translate(115.161 271.955)">
            <path id="Path_41838" data-name="Path 41838" d="M245.907,464.467l-8.948,13.062L253.1,502.614,270.632,481Z" transform="translate(-236.959 -464.467)" fill="#fff"/>
            <path id="Path_41839" data-name="Path 41839" d="M330.732,464.467l9.227,13.062-16.177,25.085L306.246,481Z" transform="translate(-272.573 -464.467)" fill="#fff"/>
          </g>
        </g>
        <g id="Group_36552" data-name="Group 36552" transform="translate(93.813 115.331)">
          <path id="Path_41844" data-name="Path 41844" d="M193.69,209.579c-6.272-49.851,33.953-67.387,54.245-67.387,20.212,0,62.034,18.175,54.245,67.387-2.557-.2-5.233,2.876-5.233,2.876-59.957,5.472-37.788,5.432-97.985,0,0,0-2.716-3.076-5.233-2.876Z" transform="translate(-193.033 -142.192)" fill="#5ec9cf"/>
        </g>
        <path id="Path_41851" data-name="Path 41851" d="M206.548,269.76C222.925,259.335,239.1,254.422,255.2,254.3c16.1.12,32.635,5.033,48.973,15.458L293.788,284.1a84.613,84.613,0,0,0-38.587-9.986,84.614,84.614,0,0,0-38.587,9.986Z" transform="translate(-106.167 -84.486)" fill="#6b7f9e"/>
      </g>
      <path id="Path_41852" data-name="Path 41852" d="M304.537,301.845l-1.078,1.477a79.546,79.546,0,0,0-77.174,0l-1-1.4c13.261-6.83,26.483-10.106,39.585-10.226,13.062.08,26.364,3.356,39.665,10.106v.04Z" transform="translate(-115.799 -103.708)" fill="#5d718f"/>
    </g>
  </g>
</svg>
