<svg xmlns="http://www.w3.org/2000/svg" width="116" height="117" viewBox="0 0 116 117">
  <g id="Group_36611" data-name="Group 36611" transform="translate(-898 -2553)">
    <ellipse id="Ellipse_252" data-name="Ellipse 252" cx="58" cy="58.5" rx="58" ry="58.5" transform="translate(898 2553)" fill="#00a8b3" opacity="0.04"/>
    <g id="Group_36503" data-name="Group 36503" transform="translate(911.149 2578)">
      <g id="Group_36502" data-name="Group 36502" transform="translate(12.852 0)">
        <path id="Path_40056" data-name="Path 40056" d="M73.023,2.085c-3.6-2.728-6.794-3.019-9.639.574-.224.318-7.7,7.539-8.207,8.056a19.156,19.156,0,0,1-8.81,5.683c-4.9,1.088-10.7,6.1-5.678,10.883a5.72,5.72,0,0,0-2.4,4.035c-5.651-3.343-11.379,3.013-11.394,8.248-.105,4.213-.023,6.658-3.135,9.858L15.177,59.55c-.154.182-.339.379-.535.588-1.022,1.09-2.423,2.582-1.478,4.232,5.93,6.375,12.167-4,16.08-7.761,7.19-7.657,11.519-3.137,18.334-6.865,3.374-2.31,4.026-7.718.939-10.541a8.176,8.176,0,0,0,3.565-4.045c7.1,3.727,13.295-5.87,6.944-10.819l14.9-14.854c1.02-1.016,2.013-2.129,1.987-3.566-.031-1.675-1.406-2.832-2.889-3.833ZM49.342,42.152A6.227,6.227,0,0,1,47.06,49c-3.019,2.087-7.331,1.187-10.846,2.133A16.883,16.883,0,0,0,28.6,55.97c-3.486,3.21-5.752,8.008-10.627,9.388-1.391.258-3.322-.219-4.021-1.439-.767-1.127.908-2.658,1.917-3.782,2.228-2.96,9.974-10.859,11.285-14.231.723-2.039.468-4.169.65-6.262,0-3.558,3.282-8.707,7.612-8.308,5.8.8,3.649,4.954,6.052,6.477a3.822,3.822,0,0,0,1.959.207,6.227,6.227,0,0,1,5.914,4.133ZM47.78,38.565c-3.668-2.939-6.255.335-6.8-3.38a5.485,5.485,0,0,0-1.843-3.257,5.362,5.362,0,0,1,2.261-4.1c2.252,1.418,4.66,1.414,7.54.566a6.745,6.745,0,0,0,2.38,6.233,7.247,7.247,0,0,1-3.535,3.942Zm25.5-29.724c-.134.371-15.622,15.114-15.423,15.624,5.7,3.962,2.136,12.377-4.7,10.217a5.772,5.772,0,0,1-3.155-6.846.457.457,0,0,0-.431-.6,9.927,9.927,0,0,1-6.327.481A4.876,4.876,0,0,1,39.7,23.346c.174-3.566,4.026-5.18,6.959-6.087C53,15.73,58.441,8.383,63.109,4.244,64.863,2.55,66.3.218,69.068,1.014a12.029,12.029,0,0,1,3.447,1.823c2.878,1.763,3.326,3.762.769,6Z" transform="translate(-12.852 0)" fill="#00a8b3"/>
        <path id="Path_40057" data-name="Path 40057" d="M121.3,163.814a14.034,14.034,0,0,1,3.72,1.486.454.454,0,0,0,.62-.166c.466-.983-3.379-1.968-4.127-2.2A.454.454,0,0,0,121.3,163.814Z" transform="translate(-106.939 -141.789)" fill="#00a8b3"/>
        <path id="Path_40058" data-name="Path 40058" d="M113.22,191.381a13.938,13.938,0,0,1,4.783-.145.453.453,0,0,0,.515-.383c.017-1.181-4.533-.535-5.389-.37A.455.455,0,0,0,113.22,191.381Z" transform="translate(-99.819 -165.499)" fill="#00a8b3"/>
        <path id="Path_40059" data-name="Path 40059" d="M117.612,204.752c-.727-.1-6.412,1.758-4.366,2.622a11.029,11.029,0,0,1,4.469-1.72A.454.454,0,0,0,117.612,204.752Z" transform="translate(-99.843 -178.196)" fill="#00a8b3"/>
        <path id="Path_40060" data-name="Path 40060" d="M413.911,183.9c-1.226.02-8.206.626-8.1,1.977a.455.455,0,0,0,.577.282,24.93,24.93,0,0,1,7.536-1.351.454.454,0,0,0-.01-.907Z" transform="translate(-354.85 -160.056)" fill="#00a8b3"/>
        <path id="Path_40061" data-name="Path 40061" d="M419.761,208.133a.454.454,0,0,0,.277-.864c-.886-.266-6.047-1.65-6.189-.461a.454.454,0,0,0,.451.457,18.218,18.218,0,0,1,5.461.869Z" transform="translate(-361.849 -179.576)" fill="#00a8b3"/>
        <path id="Path_40062" data-name="Path 40062" d="M307.3,365.05a.454.454,0,0,0-.469.438l-.231,6.766a.454.454,0,0,0,.907.031l.231-6.766A.454.454,0,0,0,307.3,365.05Z" transform="translate(-268.51 -317.711)" fill="#00a8b3"/>
        <path id="Path_40063" data-name="Path 40063" d="M326.556,364.693a.454.454,0,0,0-.879.224l1.55,6.086a.454.454,0,0,0,.879-.224Z" transform="translate(-285.095 -317.112)" fill="#00a8b3"/>
        <path id="Path_40064" data-name="Path 40064" d="M380.794,269.11l-3.1-1.186,2.736-4.272a.457.457,0,0,0-.372-.7c-.246.174-9.87-.657-9.616.136l-2.184,9.218a.454.454,0,0,0,.121.426c0,.447,4.594-.956,4.792-.915.1.259-3.747,9.559-2.888,9.51a.454.454,0,0,0,.569-.091l10.123-11.4a.457.457,0,0,0-.177-.725Zm-9.117,9.827c-.048-.108,3.055-8.189,2.525-8.056-.042-.477-4.657.958-4.893.919l1.93-8.144,7.99.186c-2.925,5.152-4.334,4.02.629,5.882Z" transform="translate(-322.158 -228.669)" fill="#00a8b3"/>
        <path id="Path_40065" data-name="Path 40065" d="M137.04,20.739,140.9,20l-1.042,8.386a.456.456,0,0,0,.848.275l6.98-12.681a.454.454,0,0,0-.019-.47c-.122-.48-3.065.172-3.371.107,1.741-8.5,2.774-5.616-6.93-5.852-.916-.422-.64,10.293-.867,10.5a.458.458,0,0,0,.539.465Zm.777-10.074,6.67-.185c.036.218-1.493,5.914-1.1,5.96.143.361,2.815-.177,3.092-.134l-5.422,9.851c.6-8.112,2.794-7.661-3.621-6.416Z" transform="translate(-120.466 -8.253)" fill="#00a8b3"/>
        <path id="Path_40066" data-name="Path 40066" d="M205.9,275.7a4.181,4.181,0,0,1-4.592-4.088.454.454,0,0,0-.908.007C200.616,277.7,208.535,277.074,205.9,275.7Z" transform="translate(-176.076 -236.012)" fill="#00a8b3"/>
        <path id="Path_40067" data-name="Path 40067" d="M276.326,185.76a4.526,4.526,0,0,0-4.176.485.454.454,0,0,0,.516.747,3.565,3.565,0,0,1,5.508,2.159.454.454,0,0,0,.886-.2A4.526,4.526,0,0,0,276.326,185.76Z" transform="translate(-238.355 -161.408)" fill="#00a8b3"/>
      </g>
    </g>
  </g>
</svg>
