<svg xmlns="http://www.w3.org/2000/svg" width="116" height="117" viewBox="0 0 116 117">
  <g id="Group_36615" data-name="Group 36615" transform="translate(-1308 -3034)">
    <ellipse id="Ellipse_250" data-name="Ellipse 250" cx="58" cy="58.5" rx="58" ry="58.5" transform="translate(1308 3034)" fill="#00a8b3" opacity="0.04"/>
    <g id="Group_36508" data-name="Group 36508" transform="translate(1335 3061.021)">
      <path id="Path_40080" data-name="Path 40080" d="M492.257,372.389a1.222,1.222,0,1,0,1.222,1.222A1.222,1.222,0,0,0,492.257,372.389Z" transform="translate(-430.924 -325.943)" fill="#5ec9cf"/>
      <path id="Path_40081" data-name="Path 40081" d="M492.257,412.315a1.222,1.222,0,1,0,1.222,1.222A1.222,1.222,0,0,0,492.257,412.315Z" transform="translate(-430.924 -360.982)" fill="#5ec9cf"/>
      <path id="Path_40082" data-name="Path 40082" d="M492.257,452.24a1.222,1.222,0,1,0,1.222,1.222A1.223,1.223,0,0,0,492.257,452.24Z" transform="translate(-430.924 -396.019)" fill="#5ec9cf"/>
      <path id="Path_40083" data-name="Path 40083" d="M452.331,374.833a1.222,1.222,0,1,0-1.222-1.222A1.222,1.222,0,0,0,452.331,374.833Z" transform="translate(-395.886 -325.943)" fill="#5ec9cf"/>
      <path id="Path_40084" data-name="Path 40084" d="M452.331,414.759a1.222,1.222,0,1,0-1.222-1.222A1.222,1.222,0,0,0,452.331,414.759Z" transform="translate(-395.886 -360.982)" fill="#5ec9cf"/>
      <path id="Path_40085" data-name="Path 40085" d="M452.331,454.684a1.222,1.222,0,1,0-1.222-1.222A1.222,1.222,0,0,0,452.331,454.684Z" transform="translate(-395.886 -396.019)" fill="#5ec9cf"/>
      <path id="Path_40086" data-name="Path 40086" d="M412.406,374.833a1.222,1.222,0,1,0-1.222-1.222A1.222,1.222,0,0,0,412.406,374.833Z" transform="translate(-360.848 -325.943)" fill="#5ec9cf"/>
      <path id="Path_40087" data-name="Path 40087" d="M412.406,414.759a1.222,1.222,0,1,0-1.222-1.222A1.222,1.222,0,0,0,412.406,414.759Z" transform="translate(-360.848 -360.982)" fill="#5ec9cf"/>
      <path id="Path_40088" data-name="Path 40088" d="M412.406,454.684a1.222,1.222,0,1,0-1.222-1.222A1.222,1.222,0,0,0,412.406,454.684Z" transform="translate(-360.848 -396.019)" fill="#5ec9cf"/>
      <path id="Path_40089" data-name="Path 40089" d="M135.7,414.759a2.444,2.444,0,1,0,2.444-2.444A2.446,2.446,0,0,0,135.7,414.759Z" transform="translate(-119.083 -360.982)" fill="#5ec9cf"/>
      <path id="Path_40090" data-name="Path 40090" d="M200.47,414.759a2.444,2.444,0,1,0-2.444,2.444A2.447,2.447,0,0,0,200.47,414.759Z" transform="translate(-171.639 -360.982)" fill="#5ec9cf"/>
      <path id="Path_40091" data-name="Path 40091" d="M198.026,473.427A1.222,1.222,0,1,1,196.8,472.2,1.222,1.222,0,0,1,198.026,473.427Z" transform="translate(-171.639 -413.54)" fill="#5ec9cf"/>
      <path id="Path_40092" data-name="Path 40092" d="M.1,16.066c.213.892,10.115,42.218,10.119,42.234a3.654,3.654,0,0,0,3.565,2.809h5.878a1.222,1.222,0,1,0,0-2.444H13.788A1.218,1.218,0,0,1,12.6,57.73L4.019,21.915l18.843-5.049L29.526,45.5a1.222,1.222,0,0,0,1.19.945h5.44a1.223,1.223,0,0,1,1.228,1.21v9.78a1.229,1.229,0,0,1-1.228,1.229H30.663a1.222,1.222,0,1,0,0,2.444h5.492a3.672,3.672,0,0,0,3.176-1.833h4.9a3.672,3.672,0,0,0,3.664-3.667V49.49a3.647,3.647,0,0,0-3.635-3.655H39.335A3.663,3.663,0,0,0,36.156,44H31.686L23.762,9.954A3.667,3.667,0,0,0,19.32,7.225l-.95-3.533A3.672,3.672,0,0,0,13.884,1.1L4.428,3.632A3.642,3.642,0,0,0,1.835,8.108l.95,3.546-.064.017A3.643,3.643,0,0,0,.1,16.066ZM44.237,48.279a1.2,1.2,0,0,1,1.212,1.211v6.119a1.225,1.225,0,0,1-1.222,1.223h-4.4V48.277ZM21.382,10.508l.926,3.977L3.45,19.538,2.481,15.5a1.213,1.213,0,0,1,.872-1.463L19.876,9.6A1.222,1.222,0,0,1,21.382,10.508ZM5.06,5.993l9.455-2.529a1.225,1.225,0,0,1,1.5.863l.948,3.528L5.146,11.022,4.2,7.474A1.2,1.2,0,0,1,5.06,5.993Z" transform="translate(0 0)" fill="#5ec9cf"/>
    </g>
  </g>
</svg>
