<svg id="Group_36617" data-name="Group 36617" xmlns="http://www.w3.org/2000/svg" width="17.583" height="26.086" viewBox="0 0 17.583 26.086">
  <path id="Path_41814" data-name="Path 41814" d="M187.246,340.235a.482.482,0,0,0,.411,0,3.14,3.14,0,0,0,2.013-2.611,3.141,3.141,0,0,0-4.443,0A3.165,3.165,0,0,0,187.246,340.235ZM187,337.362a.548.548,0,0,0,.466.256.54.54,0,0,0,.437-.255.537.537,0,0,1,1.007.262,1.5,1.5,0,1,1-2.915,0A.538.538,0,0,1,187,337.362Z" transform="translate(-175.79 -319.188)" fill="#fff"/>
  <path id="Path_41815" data-name="Path 41815" d="M182.555,378.113a.382.382,0,0,0,.382.382h6.924a.976.976,0,0,0,.975-.975v-5.81a.382.382,0,0,0-.764,0v1.842h-1.991a.976.976,0,0,0-.975.975v3.2h-4.169A.382.382,0,0,0,182.555,378.113Zm5.316-3.586a.211.211,0,0,1,.211-.211h1.991v3.2a.211.211,0,0,1-.211.211h-1.991Z" transform="translate(-173.254 -352.409)" fill="#fff"/>
  <path id="Path_41816" data-name="Path 41816" d="M17.583,17.15a3.411,3.411,0,0,0-2.017-3.114l-.007,0L10.99,12.263V11.192a3.581,3.581,0,0,0,1.357-2.369A1.707,1.707,0,0,0,13.88,7.211,1.521,1.521,0,0,0,13.486,6.2V4.736a4.736,4.736,0,1,0-9.472,0v1.5a1.464,1.464,0,0,0-.394.978A1.707,1.707,0,0,0,5.154,8.824a3.542,3.542,0,0,0,1.434,2.425v1.015L2.017,14.036A3.41,3.41,0,0,0,0,17.15v7.961a.976.976,0,0,0,.975.975H7.9a.382.382,0,1,0,0-.764H3.731v-3.2a.976.976,0,0,0-.975-.975H.764V17.15a2.648,2.648,0,0,1,1.541-2.407l3.178-1.232a3.7,3.7,0,0,0,3.306,1.715,3.694,3.694,0,0,0,3.306-1.715l3.183,1.233a2.668,2.668,0,0,1,1.541,2.407v.368a.382.382,0,0,0,.764,0V17.15ZM.764,21.907H2.755a.211.211,0,0,1,.211.211v3.2H.975a.211.211,0,0,1-.211-.211Zm12.352-14.7a.929.929,0,0,1-.739.829V6.383A.923.923,0,0,1,13.116,7.211Zm-7.993.829a.929.929,0,0,1-.739-.829.963.963,0,0,1,.739-.8ZM5.14,5.617a2,2,0,0,0-.361.1V4.736a3.972,3.972,0,1,1,7.943,0v.953a1.962,1.962,0,0,0-.345-.086.919.919,0,0,0-.016-.226c-.05-.2-.255-.381-1.152-1.345a.681.681,0,0,0-.9-.144,7.365,7.365,0,0,1-4.454,1.2A.679.679,0,0,0,5.14,5.617Zm.748,2.748V5.856a8.162,8.162,0,0,0,4.776-1.288c.549.59.853.906.949,1.024V8.365A2.82,2.82,0,0,1,8.8,11.181H8.794A2.835,2.835,0,0,1,5.888,8.365Zm4.338,3.283v.735a1.958,1.958,0,0,1-2.874,0v-.711a3.906,3.906,0,0,0,1.445.274A3.588,3.588,0,0,0,10.226,11.648ZM6.7,13.816a1.569,1.569,0,0,1-.5-.581l.664-.258a2.724,2.724,0,0,0,3.853,0l.664.257C10.834,14.31,8.5,15.056,6.7,13.816Z" fill="#fff"/>
</svg>
