<svg xmlns="http://www.w3.org/2000/svg" width="14.991" height="14.991" viewBox="0 0 14.991 14.991">
  <path id="Path_41824" data-name="Path 41824" d="M2.992,10.828.064,14.517a.293.293,0,0,0,.229.475H14.7a.293.293,0,0,0,.229-.475L12,10.828a.293.293,0,0,0-.229-.111H9.206L11.4,7.283a4.685,4.685,0,1,0-7.8,0l2.19,3.434H3.221A.293.293,0,0,0,2.992,10.828ZM1.9,13.147h1.77l-1,1.259H.9ZM6.159,11.3l.8,1.259H4.881l1-1.259Zm2.673,0h.279l1,1.259H8.03Zm1.743,1.845,1,1.259H3.417l1-1.259Zm1.747,1.259-1-1.259h1.77l1,1.259Zm.306-1.845h-1.77l-1-1.259h1.77ZM4.085,6.96a4.1,4.1,0,1,1,6.822,0l0,.005L7.5,12.31,4.089,6.965ZM5.133,11.3l-1,1.259H2.363l1-1.259Z" transform="translate(-0.001 -0.001)" fill="#647589"/>
</svg>
