<svg xmlns="http://www.w3.org/2000/svg" width="14.857" height="11.391" viewBox="0 0 14.857 11.391">
  <g id="Group_36534" data-name="Group 36534" transform="translate(0 -161.399)">
    <g id="Group_36533" data-name="Group 36533" transform="translate(0 161.399)">
      <g id="Group_36532" data-name="Group 36532" transform="translate(0 0)">
        <path id="Path_41818" data-name="Path 41818" d="M14.114,161.4H.743a.743.743,0,0,0-.743.743v9.9a.743.743,0,0,0,.743.743H14.114a.743.743,0,0,0,.743-.743v-9.9A.743.743,0,0,0,14.114,161.4Zm.248,10.648a.248.248,0,0,1-.248.248H.743a.248.248,0,0,1-.248-.248v-9.9a.248.248,0,0,1,.248-.248H14.114a.248.248,0,0,1,.248.248Z" transform="translate(0 -161.399)" fill="#647589"/>
        <path id="Path_41819" data-name="Path 41819" d="M53.45,202.2a.248.248,0,0,0-.181.057l-5.713,4.8a.5.5,0,0,1-.637,0l-5.713-4.8a.248.248,0,0,0-.318.379l5.713,4.8a.989.989,0,0,0,1.274,0l5.713-4.8a.248.248,0,0,0-.138-.436Z" transform="translate(-39.809 -201.208)" fill="#647589"/>
        <path id="Path_41820" data-name="Path 41820" d="M44.416,416.237a.248.248,0,0,0-.239.077l-3.467,3.714a.248.248,0,1,0,.362.338l3.467-3.714a.248.248,0,0,0-.123-.415Z" transform="translate(-39.654 -410.044)" fill="#647589"/>
        <path id="Path_41821" data-name="Path 41821" d="M408.275,416.314a.248.248,0,1,0-.362.338l3.467,3.714a.248.248,0,0,0,.362-.338Z" transform="translate(-397.941 -410.044)" fill="#647589"/>
      </g>
    </g>
  </g>
</svg>
