<svg xmlns="http://www.w3.org/2000/svg" width="116" height="117" viewBox="0 0 116 117">
  <g id="Group_36612" data-name="Group 36612" transform="translate(-1308 -2553)">
    <ellipse id="Ellipse_253" data-name="Ellipse 253" cx="58" cy="58.5" rx="58" ry="58.5" transform="translate(1308 2553)" fill="#00a8b3" opacity="0.04"/>
    <path id="Path_40068" data-name="Path 40068" d="M54,57.625l.551,1.743-1.742.551-.551-1.743ZM51.19,54.643q.245.894.517,1.782l1.748-.537q-.265-.861-.5-1.729Zm2.7,8.739,1.759-.5c-.056-.2-.115-.394-.176-.591l-.372-1.18-1.744.55.372,1.179c.056.178.11.359.162.54Zm.736-33.166H64.678v1.828H54.622v7.3c0,.613.014,1.227.035,1.838H64.678v1.828H54.755a52.444,52.444,0,0,0,2.3,12.151l1.9,6.027a24.615,24.615,0,0,1,1.144,7.418v.914H38.167V60.272a15.164,15.164,0,0,1-3.657,0v9.252H12.571V68.61a24.643,24.643,0,0,1,1.143-7.418l1.9-6.027a52.474,52.474,0,0,0,2.438-15.808H8V37.529H18.056V30.661a52.434,52.434,0,0,0-2.695-16.61l1.733-.579a54.214,54.214,0,0,1,2.79,17.189v5.83l3.985-3.321,1.171,1.4-5.156,4.3v.475A54.265,54.265,0,0,1,17.36,55.715l-1.9,6.027A22.8,22.8,0,0,0,14.417,67.7H32.682v-7.77c-2.092-.561-3.657-1.636-3.657-3.2h1.828c0,.5,1.271,1.321,3.43,1.665L33.73,54.9H32.682a3.657,3.657,0,0,1-2.926-5.85,8.237,8.237,0,0,1,2.926-2.428V37.595a14.573,14.573,0,0,0-3.531-9.537,2.2,2.2,0,0,0-.125.708v.914l-1.339,1.338a3.5,3.5,0,0,1-5.974-2.475,7.523,7.523,0,0,1,.385-2.376l.111-.329a9.69,9.69,0,0,1,6.1-6.1l.327-.11a7.524,7.524,0,0,1,2.377-.385,3.5,3.5,0,0,1,2.475,5.975l-1.339,1.338h-.914a2.2,2.2,0,0,0-.827.162A16.387,16.387,0,0,1,34.51,37.594v8.375a7.987,7.987,0,0,1,3.657,0V37.594a16.386,16.386,0,0,1,4.105-10.873,2.2,2.2,0,0,0-.827-.162h-.914l-1.339-1.338a3.5,3.5,0,0,1,2.475-5.975,7.5,7.5,0,0,1,2.377.386l.327.11a9.687,9.687,0,0,1,6.1,6.1l.11.326a7.507,7.507,0,0,1,.386,2.377,3.5,3.5,0,0,1-5.974,2.475l-1.339-1.337v-.914a2.206,2.206,0,0,0-.125-.709A14.571,14.571,0,0,0,40,37.594v9.026a8.226,8.226,0,0,1,2.925,2.427A3.657,3.657,0,0,1,40,54.9H38.946l-.562,3.495c2.165-.342,3.44-1.164,3.44-1.666h1.828c0,1.563-1.564,2.638-3.657,3.2V67.7H58.26a22.819,22.819,0,0,0-1.041-5.955l-1.9-6.026a54.318,54.318,0,0,1-2.192-10.406l-2.508,5.018H45.48V48.5h4.006l3.367-6.733c-.036-.805-.059-1.612-.059-2.419v-7.3H50.965V30.216H52.8a54.228,54.228,0,0,1,2.781-16.744l1.733.579a52.447,52.447,0,0,0-2.686,16.165ZM41.445,24.731a4.034,4.034,0,0,1,4.035,4.035v.156l.8.8a1.671,1.671,0,0,0,2.853-1.182,5.668,5.668,0,0,0-.292-1.8l-.109-.326a7.851,7.851,0,0,0-4.944-4.944l-.327-.11a5.678,5.678,0,0,0-1.8-.292,1.672,1.672,0,0,0-1.182,2.854l.8.8ZM28.379,25.912a4.011,4.011,0,0,1,2.853-1.181h.157l.8-.8a1.672,1.672,0,0,0-1.182-2.854,5.668,5.668,0,0,0-1.8.292l-.327.11a7.851,7.851,0,0,0-4.944,4.943l-.11.329a5.653,5.653,0,0,0-.292,1.8,1.672,1.672,0,0,0,2.853,1.183l.8-.8v-.156A4.008,4.008,0,0,1,28.379,25.912Zm4.3,27.158h1.07a2.743,2.743,0,0,1,5.172,0H40a1.828,1.828,0,0,0,1.463-2.925,6.4,6.4,0,0,0-10.239,0,1.829,1.829,0,0,0,1.464,2.925Zm3.657,5.485c.059,0,.11-.006.168-.007l.739-4.6a.908.908,0,0,0-1.815,0l.729,4.594c.061,0,.116.008.179.008ZM17.2,62.292c-.161.508-.3,1.027-.422,1.54l1.78.414q.165-.707.386-1.4l.112-.357-1.744-.55Zm3.01-3.463-1.742-.551-.578,1.828,1.742.551Zm.636-2.013a57.926,57.926,0,0,0,2.663-15.6l-1.826-.059a56.165,56.165,0,0,1-2.579,15.107l-.059.186L20.789,57ZM56.45,46.67h8.227V44.842H56.45Zm1.828,3.657h6.4V48.5h-6.4ZM16.227,33.872H8V35.7h8.227Zm0-3.657H8v1.828h8.227ZM56.45,35.7h8.227V33.872H56.45Z" transform="translate(1330 2569.528)" fill="#3dbdc5"/>
  </g>
</svg>
