<svg xmlns="http://www.w3.org/2000/svg" width="116" height="117" viewBox="0 0 116 117">
  <g id="Group_36618" data-name="Group 36618" transform="translate(-898 -2553)">
    <g id="Group_36611" data-name="Group 36611">
      <ellipse id="Ellipse_252" data-name="Ellipse 252" cx="58" cy="58.5" rx="58" ry="58.5" transform="translate(898 2553)" fill="#00a8b3" opacity="0.04"/>
    </g>
    <g id="Group_36617" data-name="Group 36617" transform="translate(932.733 2581.02)">
      <path id="Path_40053" data-name="Path 40053" d="M17.973,282.668c-2.091,1.833-5.811,1.863-5.849,1.863H6.041a3.713,3.713,0,0,1-3.709-3.709v-7.407a.965.965,0,0,0-.6-.892l-4.421-1.811a1.8,1.8,0,0,1-.883-2.547c3.748-6.776,3.85-6.491,3.764-7.073a45.13,45.13,0,0,1-.453-4.648A23.6,23.6,0,0,1,2.1,246.1a.965.965,0,0,0-1.738-.839,25.516,25.516,0,0,0-2.545,11.178,42.034,42.034,0,0,0,.426,4.6l-3.488,6.173A3.728,3.728,0,0,0-3.418,272.5L.4,274.064v6.759a5.645,5.645,0,0,0,5.638,5.638h5.12v6.884a.965.965,0,0,0,1.93,0V286.4a11.243,11.243,0,0,0,6.154-2.285.965.965,0,0,0-1.272-1.451Z" transform="translate(0 -230.462)" fill="#00a8b3"/>
      <path id="Path_40054" data-name="Path 40054" d="M171.719,10.8,169.95,9.516a.965.965,0,0,0-1.134,1.561l.252.183-4.663,1.556-7.865,2.624,5.518-4.819a.965.965,0,0,0-.114-1.539L157.7,6.357l9.833-4.789c-3.535,4.867-3.866,4.782-3.76,5.486.095.635.643.747,1.536,1.473a.965.965,0,0,0,1.135-1.56l-.358-.261,5.392-7.177a.966.966,0,0,0-1.194-1.447L157.217,4.445a25.689,25.689,0,0,0-34.73,6.159.965.965,0,1,0,1.547,1.153,23.806,23.806,0,0,1,31.179-6.329c-.021.014-.016.048-.036.062a.906.906,0,0,0-.408.7.98.98,0,0,0,.442.868l4.61,2.959-8.173,7.138a.942.942,0,0,0,.243,1.587c.64.294.028.154,12.36-3.836A23.832,23.832,0,0,1,158.27,44.4a8.757,8.757,0,0,0-3.189,6.8V62.882a.965.965,0,1,0,1.929,0V51.194a6.838,6.838,0,0,1,2.484-5.309A25.632,25.632,0,0,0,166.058,14.3l5.4-1.8a.965.965,0,0,0,.262-1.7Z" transform="translate(-119.583 0)" fill="#00a8b3"/>
      <path id="Path_40055" data-name="Path 40055" d="M520.875,263.251c-1.409-.124-3.01-.679-2.894-3.892a.965.965,0,0,0-1.929-.07c-.126,3.519,1.526,5.608,4.653,5.884a.965.965,0,0,0,.17-1.922Z" transform="translate(-487.356 -243.202)" fill="#00a8b3"/>
    </g>
  </g>
</svg>
