<svg xmlns="http://www.w3.org/2000/svg" xmlns:xlink="http://www.w3.org/1999/xlink" width="131" height="131" viewBox="0 0 131 131">
  <defs>
    <filter id="Ellipse_23" x="0" y="0" width="131" height="131" filterUnits="userSpaceOnUse">
      <feOffset dy="15" input="SourceAlpha"/>
      <feGaussianBlur stdDeviation="10" result="blur"/>
      <feFlood flood-color="#7682b7" flood-opacity="0.176"/>
      <feComposite operator="in" in2="blur"/>
      <feComposite in="SourceGraphic"/>
    </filter>
  </defs>
  <g id="Group_36619" data-name="Group 36619" transform="translate(30.254 15.445)">
    <g transform="matrix(1, 0, 0, 1, -30.25, -15.45)" filter="url(#Ellipse_23)">
      <circle id="Ellipse_23-2" data-name="Ellipse 23" cx="35.5" cy="35.5" r="35.5" transform="translate(30 15)" fill="#fff"/>
    </g>
    <path id="arrow" d="M22.78,5.032a1.2,1.2,0,0,0-1.7,1.688l8.645,8.645H1.194A1.188,1.188,0,0,0,0,16.559a1.2,1.2,0,0,0,1.194,1.211H29.72L21.075,26.4a1.224,1.224,0,0,0,0,1.7,1.194,1.194,0,0,0,1.7,0L33.471,17.412a1.174,1.174,0,0,0,0-1.688Z" transform="translate(18.455 19.164)" fill="#01244c"/>
  </g>
</svg>
