<svg xmlns="http://www.w3.org/2000/svg" width="116" height="117" viewBox="0 0 116 117">
  <g id="Group_36613" data-name="Group 36613" transform="translate(-497 -3039)">
    <ellipse id="Ellipse_249" data-name="Ellipse 249" cx="58" cy="58.5" rx="58" ry="58.5" transform="translate(497 3039)" fill="#00a8b3" opacity="0.04"/>
    <g id="Group_36505" data-name="Group 36505" transform="translate(418.984 3054)">
      <g id="Group_36504" data-name="Group 36504" transform="translate(111.016)">
        <path id="Path_40069" data-name="Path 40069" d="M312.4,101.182A1.7,1.7,0,1,1,314.07,99.8,1.715,1.715,0,0,1,312.4,101.182Z" transform="translate(-276.84 -81.206)" fill="#5ec9cf"/>
        <path id="Path_40070" data-name="Path 40070" d="M184.937,368.864a5.8,5.8,0,0,1-5.8-5.8c0-2.674,3.442-6.982,4.5-8.239a1.7,1.7,0,0,1,2.6,0c1.055,1.257,4.5,5.565,4.5,8.239a5.8,5.8,0,0,1-5.8,5.8Zm0-10.188c-1.3,1.778-2.4,3.662-2.4,4.392a2.4,2.4,0,1,0,4.809,0C187.341,362.338,186.233,360.454,184.937,358.676Z" transform="translate(-167.585 -294.142)" fill="#5ec9cf"/>
        <path id="Path_40071" data-name="Path 40071" d="M152.328,31.721a3.775,3.775,0,0,1-2.04-3.008q-.007-.075-.022-.15l-.725-3.8a1.7,1.7,0,0,0-3.332.636l.712,3.727a7.19,7.19,0,0,0,3.906,5.632,10.66,10.66,0,0,1,5.979,9.619,10.8,10.8,0,0,1-13.167,10.53,8.9,8.9,0,0,0,.92-3.951V50.4a2.9,2.9,0,0,1,2.892-2.892h1.482a1.7,1.7,0,1,0,0-3.392h-1.482a6.291,6.291,0,0,0-6.284,6.284v.561a5.561,5.561,0,0,1-11.121,0V50.4a6.291,6.291,0,0,0-6.284-6.284h-1.482a1.7,1.7,0,0,0,0,3.392h1.482a2.9,2.9,0,0,1,2.892,2.892v.561a8.9,8.9,0,0,0,.92,3.951,10.8,10.8,0,0,1-13.166-10.53,10.659,10.659,0,0,1,5.979-9.619,7.191,7.191,0,0,0,3.906-5.632L127.547,12.1c.007-.036.013-.072.017-.108.323-2.585,1.752-8.6,8.044-8.6,6.123,0,7.63,5.757,7.994,8.232a1.7,1.7,0,0,0,3.356-.493C145.933,4.161,141.69,0,135.607,0a10.465,10.465,0,0,0-8.029,3.45,14.746,14.746,0,0,0-3.373,8.065l-3.256,17.05q-.014.074-.022.15a3.775,3.775,0,0,1-2.04,3.008,14.03,14.03,0,0,0-7.871,12.661,14.19,14.19,0,0,0,18.812,13.41,8.937,8.937,0,0,0,11.559,0,14.166,14.166,0,0,0,10.941-26.072Z" transform="translate(-111.016)" fill="#5ec9cf"/>
        <path id="Path_40072" data-name="Path 40072" d="M263.46,406.046a8.358,8.358,0,0,1-8.348-8.349c0-4.085,5.872-11.286,7.049-12.688a1.7,1.7,0,0,1,2.6,0c1.177,1.4,7.049,8.6,7.049,12.688a8.358,8.358,0,0,1-8.349,8.349Zm0-17.234c-2.368,3.08-4.956,7.116-4.956,8.886a4.956,4.956,0,1,0,9.912,0C268.416,395.928,265.828,391.892,263.46,388.812Z" transform="translate(-230.671 -319.204)" fill="#5ec9cf"/>
      </g>
    </g>
  </g>
</svg>
