<svg xmlns="http://www.w3.org/2000/svg" width="116" height="117" viewBox="0 0 116 117">
  <g id="Group_36614" data-name="Group 36614" transform="translate(-898 -3039)">
    <ellipse id="Ellipse_248" data-name="Ellipse 248" cx="58" cy="58.5" rx="58" ry="58.5" transform="translate(898 3039)" fill="#00a8b3" opacity="0.04"/>
    <g id="Group_36507" data-name="Group 36507" transform="translate(890.499 3064)">
      <g id="Group_36506" data-name="Group 36506" transform="translate(36.501)">
        <path id="Path_40073" data-name="Path 40073" d="M178.287,10.427a8.111,8.111,0,0,0-7.137-3.411A13.137,13.137,0,0,0,160.8,11.8a2.955,2.955,0,0,0-.7-1.421,2.953,2.953,0,0,0,.755-1.974V2.965A2.969,2.969,0,0,0,157.886,0H143.061A2.969,2.969,0,0,0,140.1,2.965V8.4a2.953,2.953,0,0,0,.755,1.974,2.956,2.956,0,0,0-.7,1.421,13.665,13.665,0,0,0-4.317-3.422.991.991,0,1,0-.881,1.776,12.857,12.857,0,0,1,5.031,4.76l.048.072c.372.567,1.2,1.008,4.013,1.318a61.892,61.892,0,0,0,6.432.3,61.9,61.9,0,0,0,6.432-.3c2.816-.31,3.641-.751,4.013-1.317l.047-.071A11.669,11.669,0,0,1,171.15,9c2.522,0,4.414.866,5.471,2.5a6.37,6.37,0,0,1,.3,5.941c-.27.6-.606,1.368-1,2.29a.991.991,0,1,0,1.825.777c.387-.908.717-1.665.981-2.249A8.4,8.4,0,0,0,178.287,10.427ZM142.079,2.965a.984.984,0,0,1,.983-.983h14.825a.984.984,0,0,1,.983.983V8.4a.984.984,0,0,1-.983.983H143.061a.984.984,0,0,1-.983-.983V2.965Zm8.4,11.652a38.966,38.966,0,0,1-8.4-.646v-1.62a.983.983,0,0,1,.982-.982h14.825a.983.983,0,0,1,.982.982v1.62A38.986,38.986,0,0,1,150.474,14.617Z" transform="translate(-121.458)" fill="#5ec9cf"/>
        <path id="Path_40074" data-name="Path 40074" d="M90.629,69.166a.992.992,0,0,0-1.294.54c-2.009,4.886-4.4,10.921-6.1,15.376a7.16,7.16,0,0,1-5.754,4.631c-2.781.446-5.816-.48-7.215-2.2a6.108,6.108,0,0,0-4.75-2.421h0a6.111,6.111,0,0,0-4.752,2.421c-1.4,1.722-4.431,2.648-7.212,2.2A7.161,7.161,0,0,1,47.8,85.082c-2.532-6.649-6.9-17.524-8.731-21.578a6.372,6.372,0,0,1,.3-5.942c1.057-1.638,2.949-2.5,5.471-2.5a13,13,0,0,1,1.438.078.991.991,0,1,0,.22-1.971,15.035,15.035,0,0,0-1.657-.091c-4.08,0-6.133,1.854-7.137,3.41a8.4,8.4,0,0,0-.445,7.834c1.82,4.024,6.163,14.844,8.684,21.467a9.04,9.04,0,0,0,7.3,5.884,11.009,11.009,0,0,0,1.9.134v.2a2.953,2.953,0,0,0,.755,1.974,2.953,2.953,0,0,0-.755,1.974v5.438a2.954,2.954,0,0,0,.755,1.974,2.953,2.953,0,0,0-.755,1.974v5.438a2.969,2.969,0,0,0,2.966,2.965h3.189a.991.991,0,1,0,0-1.983H58.1a.984.984,0,0,1-.983-.983V105.34a.984.984,0,0,1,.983-.983H72.929a.984.984,0,0,1,.983.983v5.438a.984.984,0,0,1-.983.983H65.517a.991.991,0,1,0,0,1.983h7.412a2.969,2.969,0,0,0,2.966-2.965V105.34a2.954,2.954,0,0,0-.755-1.974,2.953,2.953,0,0,0,.755-1.974V95.954a2.953,2.953,0,0,0-.755-1.974,2.952,2.952,0,0,0,.755-1.974v-.2l.167,0a10.967,10.967,0,0,0,1.735-.137,9.037,9.037,0,0,0,7.293-5.884c1.691-4.44,4.077-10.456,6.08-15.327a.992.992,0,0,0-.54-1.294ZM58.1,102.374a.984.984,0,0,1-.983-.983V95.953a.984.984,0,0,1,.983-.983H72.929a.984.984,0,0,1,.983.983v5.438a.984.984,0,0,1-.983.983ZM73.912,92.006a.983.983,0,0,1-.982.982H58.1a.983.983,0,0,1-.982-.982v-.4A8.829,8.829,0,0,0,62.3,88.76a4.171,4.171,0,0,1,3.212-1.688h0a4.169,4.169,0,0,1,3.211,1.688A8.834,8.834,0,0,0,73.911,91.6v.4Z" transform="translate(-36.501 -46.06)" fill="#5ec9cf"/>
        <path id="Path_40075" data-name="Path 40075" d="M133.882,163.137a4.622,4.622,0,0,0,3.56-.031.991.991,0,1,0-.775-1.825,2.669,2.669,0,0,1-3.5-1.414.991.991,0,0,0-1.825.775,4.622,4.622,0,0,0,2.539,2.5Z" transform="translate(-118.737 -138.209)" fill="#5ec9cf"/>
        <path id="Path_40076" data-name="Path 40076" d="M170.487,235.286a.991.991,0,0,0-.13,1.4,4.657,4.657,0,0,0,6.551.61.992.992,0,1,0-1.266-1.526,2.672,2.672,0,0,1-3.758-.35.992.992,0,0,0-1.4-.13Z" transform="translate(-152.464 -203.985)" fill="#5ec9cf"/>
        <path id="Path_40077" data-name="Path 40077" d="M333.588,163.138a4.623,4.623,0,0,0,2.54-2.5.992.992,0,0,0-1.826-.775,2.669,2.669,0,0,1-3.5,1.414.991.991,0,1,0-.775,1.825,4.621,4.621,0,0,0,3.56.031Z" transform="translate(-290.701 -138.211)" fill="#5ec9cf"/>
        <path id="Path_40078" data-name="Path 40078" d="M293.261,235.417a2.672,2.672,0,0,1-3.758.35.992.992,0,1,0-1.266,1.526,4.657,4.657,0,0,0,6.551-.61.991.991,0,0,0-1.526-1.266Z" transform="translate(-254.648 -203.985)" fill="#5ec9cf"/>
        <path id="Path_40079" data-name="Path 40079" d="M232.536,179.231a4.621,4.621,0,0,0,3.245-1.32.991.991,0,1,0-1.384-1.42,2.669,2.669,0,0,1-3.774-.049.991.991,0,1,0-1.42,1.384,4.622,4.622,0,0,0,3.271,1.405Z" transform="translate(-203.485 -152.857)" fill="#5ec9cf"/>
      </g>
    </g>
  </g>
</svg>
