<svg width="80" height="81" viewBox="0 0 80 81" fill="none" xmlns="http://www.w3.org/2000/svg">
<path d="M73.3233 46.2115V74.682C73.3233 75.1883 72.9105 75.5992 72.4018 75.5992H69.8178V78.0907C69.8178 78.8061 69.5236 79.4567 69.0497 79.9287L69.0472 79.9308C68.573 80.4028 67.9194 80.6957 67.2007 80.6957C66.4804 80.6957 65.8259 80.4028 65.352 79.9308C64.8778 79.4591 64.5835 78.8076 64.5835 78.0907V75.5992H14.8353V78.0907C14.8353 78.8076 14.541 79.4591 14.0668 79.9308C13.5929 80.4028 12.9384 80.6957 12.2181 80.6957C11.4979 80.6957 10.8433 80.4028 10.3691 79.9308C9.89519 79.4591 9.60095 78.8076 9.60095 78.0907V75.5992H7.01696C6.50833 75.5992 6.09553 75.1883 6.09553 74.682V46.2115H3.10795C2.28511 46.2115 1.53753 45.877 0.996341 45.3383C0.455155 44.7997 0.119141 44.0556 0.119141 43.2366V43.2362C0.119141 42.4172 0.455155 41.6731 0.996341 41.1345C1.53753 40.5958 2.28511 40.2613 3.10795 40.2613H24.1291C23.6795 37.3549 23.8991 35.2507 24.959 33.5485C25.9038 32.0309 27.4733 30.9132 29.7931 29.9013C28.5725 27.3312 27.7746 23.1661 27.9266 19.0014C28.0559 15.4483 28.8717 11.8602 30.6952 9.19313C30.6071 9.04302 30.5346 8.88436 30.4808 8.72294H30.4771C30.4019 8.49671 30.3604 8.26039 30.3604 8.02683V3.14274C30.3604 2.5096 30.6458 1.93853 31.1046 1.52887C31.5365 1.14367 32.1237 0.904297 32.762 0.904297H45.6847C46.323 0.904297 46.9102 1.14367 47.3417 1.52887C47.8009 1.93853 48.086 2.5096 48.086 3.14274V8.02683C48.086 8.26926 48.0411 8.51536 47.96 8.75015C47.9511 8.77583 47.9419 8.80151 47.9321 8.82688C49.9196 11.4918 50.9157 15.2285 51.1884 18.9454C51.4974 23.1523 50.8745 27.3874 49.7163 30.0175C51.2053 30.7766 52.3353 31.6417 53.1612 32.668C54.723 34.6078 55.1582 37.0214 54.8302 40.2613H76.8923C77.7151 40.2613 78.4627 40.5958 79.0039 41.1345C79.5451 41.6731 79.8811 42.4172 79.8811 43.2362V43.2366C79.8811 44.0556 79.5451 44.7997 79.0039 45.3383C78.4627 45.877 77.7151 46.2115 76.8923 46.2115H73.3233ZM7.93838 46.2115V73.7649H71.4804V46.2115H7.93838ZM25.9892 40.2613H52.9837C53.2948 37.4182 52.9763 35.3641 51.7287 33.8141C50.4033 32.1679 47.9883 30.9753 44.1447 29.9129L40.0192 38.5824L40.0179 38.5817C39.9565 38.7111 39.8496 38.8196 39.7071 38.8807C39.3972 39.014 39.0372 38.8719 38.9033 38.5631L35.1073 29.849L31.9738 30.9976C31.9563 31.004 31.9388 31.0095 31.9213 31.015C29.1564 32.0483 27.4094 33.0816 26.5211 34.5084C25.6833 35.8539 25.5533 37.6567 25.9892 40.2613ZM76.8923 42.0956H3.10795C2.79405 42.0956 2.50748 42.2243 2.29955 42.4316C2.09131 42.6386 1.962 42.9238 1.962 43.2362V43.2366C1.962 43.5493 2.09131 43.8342 2.29955 44.0415C2.50748 44.2485 2.79405 44.3772 3.10795 44.3772H7.01696H72.4018H76.8923C77.2065 44.3772 77.4927 44.2485 77.701 44.0415C77.9089 43.8342 78.0382 43.5493 78.0382 43.2366V43.2362C78.0382 42.9238 77.9089 42.6386 77.701 42.4316C77.4927 42.2243 77.2065 42.0956 76.8923 42.0956ZM37.7924 5.48329C37.5381 5.48329 37.3317 5.27785 37.3317 5.02471C37.3317 4.77158 37.5381 4.56614 37.7924 4.56614H38.622V3.7401C38.622 3.48697 38.8284 3.28153 39.0827 3.28153C39.3373 3.28153 39.5437 3.48697 39.5437 3.7401V4.56614H40.3733C40.6276 4.56614 40.834 4.77158 40.834 5.02471C40.834 5.27785 40.6276 5.48329 40.3733 5.48329H39.5437V6.30933C39.5437 6.56246 39.3373 6.7679 39.0827 6.7679C38.8284 6.7679 38.622 6.56246 38.622 6.30933V5.48329H37.7924ZM46.651 10.1772C46.4381 10.2619 46.2087 10.3096 45.9676 10.3096V10.313C45.7762 10.313 45.5815 10.2821 45.3859 10.2151C43.3824 9.5285 41.3586 9.17845 39.3146 9.17509C38.1342 9.17326 36.9434 9.28545 35.7422 9.51382C36.0297 9.94243 36.4999 10.2965 37.054 10.5866C38.8296 11.5159 41.3697 11.7816 42.1535 11.7816V11.7792C44.2289 11.7792 45.3161 12.5263 45.8948 13.8767C46.4179 15.0977 46.4516 16.7644 46.4516 18.8176C46.4516 20.9555 45.6697 22.8965 44.4052 24.3061C44.0366 24.717 43.6272 25.0823 43.1843 25.3948C43.1738 25.8524 43.2177 26.3911 43.351 26.9004C43.4582 27.3101 43.6229 27.6977 43.8627 27.9967C43.9672 27.9872 44.0747 27.9958 44.1819 28.0242C45.6377 28.4125 46.921 28.8224 48.0463 29.2691C49.0875 26.9163 49.6419 23.012 49.3526 19.0732C49.1118 15.7907 48.2807 12.5227 46.651 10.1772ZM33.571 10.05C33.3975 10.1026 33.2239 10.1577 33.0498 10.2151C32.852 10.2802 32.6625 10.3105 32.4834 10.3105C32.375 10.3105 32.269 10.3007 32.1655 10.2821C30.5889 12.6321 29.8791 15.8494 29.7621 19.0653C29.6181 23.023 30.3644 26.9273 31.4972 29.2205L34.9989 27.9371C35.1113 27.8958 35.2268 27.8781 35.3395 27.8811C35.5984 27.5378 35.7821 27.1596 35.9044 26.7809C36.0481 26.3345 36.1062 25.8873 36.1031 25.4923C35.5121 25.0646 34.9737 24.532 34.501 23.924C33.196 22.2459 32.3888 19.9793 32.3888 17.7923C32.3888 16.5832 32.6336 14.3135 33.0418 12.2439C33.1947 11.4686 33.3723 10.7165 33.571 10.05ZM45.6847 2.73858H32.762C32.5863 2.73858 32.4333 2.79667 32.3286 2.89022C32.2512 2.959 32.2033 3.04888 32.2033 3.14274V8.02683C32.2033 8.0629 32.2116 8.10509 32.2263 8.14973L32.2233 8.15095C32.258 8.25458 32.3209 8.35241 32.4002 8.42334C32.4364 8.45544 32.4671 8.47653 32.4834 8.47653C32.4837 8.47623 32.4837 8.47653 32.4834 8.47653V8.47806C34.7904 7.71744 37.0672 7.34447 39.3146 7.34784C41.5751 7.35181 43.7955 7.73212 45.9762 8.47867C45.9888 8.47134 46.0121 8.45238 46.041 8.4267C46.119 8.3573 46.182 8.26009 46.2182 8.15553C46.2342 8.10876 46.2431 8.06474 46.2431 8.02683V3.14274C46.2431 3.04888 46.1952 2.959 46.1181 2.89022C46.0134 2.79667 45.8604 2.73858 45.6847 2.73858ZM45.9676 8.48234C45.9688 8.48234 45.9707 8.48173 45.9734 8.4802L45.9676 8.47929V8.48234ZM32.4739 8.48112L32.4834 8.47806V8.47653C32.4809 8.47806 32.4656 8.48387 32.4739 8.48112ZM44.6208 39.4567C44.2817 39.4567 44.0065 39.1831 44.0065 38.8453C44.0065 38.5078 44.2817 38.2338 44.6208 38.2338H48.7153C49.0544 38.2338 49.3296 38.5078 49.3296 38.8453C49.3296 39.1831 49.0544 39.4567 48.7153 39.4567H44.6208ZM34.7775 10.2854C34.5815 10.9293 34.4024 11.6865 34.2464 12.4777C33.8533 14.4716 33.6177 16.6437 33.6177 17.7923C33.6177 19.7158 34.3256 21.7069 35.4704 23.1789C35.9249 23.7638 36.4477 24.2639 37.0199 24.6403L37.038 24.6516C37.1366 24.7161 37.2364 24.7766 37.3378 24.8335L37.3556 24.8433L37.3851 24.8598L37.3912 24.8631L37.4094 24.8729L37.4272 24.8824L37.4373 24.8879L37.4453 24.8922C37.9677 25.1676 38.5249 25.3403 39.1042 25.3835L39.1082 25.3838L39.1232 25.3847L39.1613 25.3871L39.1785 25.3883H39.18L39.2384 25.3911L39.2562 25.3917L39.2753 25.3923L39.2946 25.3929L39.3136 25.3932L39.3195 25.3935H39.3327L39.3711 25.3938L39.3901 25.3942C39.5723 25.3942 39.7513 25.3856 39.9273 25.3688C41.3116 25.2257 42.5586 24.536 43.4932 23.4941C44.5618 22.3028 45.2231 20.6495 45.2231 18.8176C45.2231 16.9011 45.1954 15.3545 44.767 14.3542C44.3938 13.4838 43.6388 13.002 42.1535 13.002V12.9996C41.2843 12.9996 38.4641 12.703 36.483 11.6664C35.7876 11.3023 35.1866 10.8486 34.7775 10.2854ZM39.3901 26.617L39.3652 26.6167H39.3404L39.3152 26.6164H39.3103L39.2903 26.6161L39.2654 26.6155L39.2405 26.6146L39.1917 26.613H39.1908L39.1662 26.6121L39.1413 26.6109L39.0919 26.6081L39.067 26.6066L39.0627 26.6063C38.4447 26.5666 37.8504 26.4155 37.2883 26.1722C37.2481 26.4904 37.1772 26.8218 37.0703 27.1532C36.8967 27.6922 36.6261 28.233 36.2327 28.7225C36.2459 28.8824 36.2161 29.0407 36.1501 29.1823L39.4887 36.8465L43.0964 29.2654C43.0482 29.1511 43.0224 29.0266 43.0239 28.8992L43.0221 28.897C42.601 28.4317 42.3292 27.8304 42.1658 27.2061C42.0684 26.8341 42.0094 26.4525 41.98 26.0884C41.737 26.1927 41.4873 26.2822 41.2314 26.3565C40.6396 26.5283 40.0231 26.617 39.3901 26.617ZM38.0749 51.8611H41.3439C41.6829 51.8611 41.9581 52.135 41.9581 52.4725V55.0173H44.5148C44.8539 55.0173 45.1291 55.2912 45.1291 55.6287V58.8824C45.1291 59.2202 44.8539 59.4938 44.5148 59.4938H41.9581V62.0386C41.9581 62.3764 41.6829 62.65 41.3439 62.65H38.0749C37.7355 62.65 37.4606 62.3764 37.4606 62.0386V59.4938H34.904C34.5649 59.4938 34.2897 59.2202 34.2897 58.8824V55.6287C34.2897 55.2912 34.5649 55.0173 34.904 55.0173H37.4606V52.4725C37.4606 52.135 37.7355 51.8611 38.0749 51.8611ZM40.7296 53.0839H38.6892V55.6287C38.6892 55.9665 38.414 56.2401 38.0749 56.2401H35.5183V58.271H38.0749C38.414 58.271 38.6892 58.5449 38.6892 58.8824V61.4272H40.7296V58.8824C40.7296 58.5449 41.0048 58.271 41.3439 58.271H43.9005V56.2401H41.3439C41.0048 56.2401 40.7296 55.9665 40.7296 55.6287V53.0839ZM68.5893 75.5992H65.8121V78.0907C65.8121 78.4701 65.9687 78.8156 66.2206 79.0666C66.4724 79.3169 66.8195 79.4729 67.2007 79.4729C67.5831 79.4729 67.9305 79.3176 68.182 79.0675C68.4332 78.8171 68.5893 78.471 68.5893 78.0907V75.5992ZM13.6067 75.5992H10.8295V78.0907C10.8295 78.4701 10.9859 78.8156 11.2377 79.0666C11.4896 79.3169 11.8366 79.4729 12.2181 79.4729C12.5993 79.4729 12.9467 79.3169 13.1982 79.0666C13.4501 78.8156 13.6067 78.4701 13.6067 78.0907V75.5992Z" fill="white"/>
</svg>
