<svg xmlns="http://www.w3.org/2000/svg" width="128" height="128" viewBox="0 0 128 128">
  <title>AMBULANCE</title>
  <g>
    <path d="M46,53.25H40.75V48A1.751,1.751,0,0,0,39,46.25H31A1.751,1.751,0,0,0,29.25,48v5.25H24A1.751,1.751,0,0,0,22.25,55v8A1.751,1.751,0,0,0,24,64.75h5.25V70A1.751,1.751,0,0,0,31,71.75h8A1.751,1.751,0,0,0,40.75,70V64.75H46A1.751,1.751,0,0,0,47.75,63V55A1.751,1.751,0,0,0,46,53.25Zm-1.75,8H39A1.751,1.751,0,0,0,37.25,63v5.25h-4.5V63A1.751,1.751,0,0,0,31,61.25H25.75v-4.5H31A1.751,1.751,0,0,0,32.75,55V49.75h4.5V55A1.751,1.751,0,0,0,39,56.75h5.25Z" fill="#218e36"/>
    <path d="M117.244,70.515l-10.99-2.06L95.9,43.419a6.731,6.731,0,0,0-6.237-4.169H71.75V35a7.75,7.75,0,0,0-15.5,0v4.25H11A5.757,5.757,0,0,0,5.25,45V97A1.751,1.751,0,0,0,7,98.75H21.374a13.736,13.736,0,0,0,27.252,0H79.374a13.736,13.736,0,0,0,27.252,0H121A1.751,1.751,0,0,0,122.75,97V77.149A6.752,6.752,0,0,0,117.244,70.515ZM102.382,68.25H68A2.252,2.252,0,0,1,65.75,66V49.75H94.727ZM59.75,35a4.25,4.25,0,0,1,8.5,0v4.25h-8.5ZM35,107.25A10.25,10.25,0,1,1,45.25,97,10.261,10.261,0,0,1,35,107.25Zm58,0A10.25,10.25,0,1,1,103.25,97,10.261,10.261,0,0,1,93,107.25Zm13.626-12a13.736,13.736,0,0,0-27.252,0H48.626a13.736,13.736,0,0,0-27.252,0H8.75V45A2.252,2.252,0,0,1,11,42.75H89.658a3.242,3.242,0,0,1,3,2.007l.617,1.493H64A1.751,1.751,0,0,0,62.25,48V66A5.757,5.757,0,0,0,68,71.75h36.837L116.6,73.956a3.25,3.25,0,0,1,2.651,3.193v2.1H111A1.751,1.751,0,0,0,109.25,81v4A5.757,5.757,0,0,0,115,90.75h4.25v4.5Zm12.624-12.5v4.5H115A2.252,2.252,0,0,1,112.75,85V82.75Z" fill="#218e36"/>
    <path d="M35,90.25A6.75,6.75,0,1,0,41.75,97,6.758,6.758,0,0,0,35,90.25Zm0,10A3.25,3.25,0,1,1,38.25,97,3.254,3.254,0,0,1,35,100.25Z" fill="#218e36"/>
    <path d="M93,90.25A6.75,6.75,0,1,0,99.75,97,6.758,6.758,0,0,0,93,90.25Zm0,10A3.25,3.25,0,1,1,96.25,97,3.254,3.254,0,0,1,93,100.25Z" fill="#218e36"/>
    <path d="M64,24.75A1.751,1.751,0,0,0,65.75,23V19a1.75,1.75,0,0,0-3.5,0v4A1.751,1.751,0,0,0,64,24.75Z" fill="#218e36"/>
    <path d="M54.277,27.752a1.75,1.75,0,0,0,2.475-2.475l-2.828-2.828a1.75,1.75,0,1,0-2.475,2.475Z" fill="#218e36"/>
    <path d="M72.485,28.265a1.745,1.745,0,0,0,1.238-.513l2.828-2.828a1.75,1.75,0,1,0-2.475-2.475l-2.828,2.828a1.751,1.751,0,0,0,1.237,2.988Z" fill="#218e36"/>
  </g>
</svg>