<svg xmlns="http://www.w3.org/2000/svg" width="48" height="41" viewBox="0 0 48 41" fill="none">
<path d="M28 26.2H25.5V23.7C25.5 23.1 25.1 22.7 24.5 22.7C23.9 22.7 23.5 23.1 23.5 23.7V26.2H21C20.4 26.2 20 26.6 20 27.2C20 27.8 20.4 28.2 21 28.2H23.5V30.7C23.5 31.3 23.9 31.7 24.5 31.7C25.1 31.7 25.5 31.3 25.5 30.7V28.2H28C28.6 28.2 29 27.8 29 27.2C29 26.6 28.5 26.2 28 26.2Z" fill="#749d6e"/>
<path d="M48 20.6C48 16.7 45.7 13.3 42.2 11.7C42.8 10.4 43.2 9 43.2 7.8C43.2 5 41 2.8 38.2 2.8C35.4 2.8 33.2 5 33.2 7.8C33.2 8.9 33.6 10.4 34.2 11.7C33.1 12.2 32.1 12.9 31.3 13.7C32.1 11.8 32.6 9.7 32.6 8.1C32.6 3.6 29 0 24.5 0C20 0 16.3 3.7 16.3 8.2C16.3 10.4 17.1 13.2 18.4 15.5C18.3 15.5 18.2 15.6 18.1 15.6C17.1 13.9 15.6 12.6 13.8 11.8C14.4 10.5 14.8 9.1 14.8 7.9C14.8 5.1 12.6 2.9 9.8 2.9C7 2.9 4.8 5.1 4.8 7.9C4.8 9 5.2 10.5 5.8 11.8C2.3 13.4 0 16.8 0 20.7C0 26.3 4.8 26.2 8.5 26.2C8 27.7 7.8 29.3 7.8 31C7.8 40.2 15.3 40.1 22.8 40C25.8 40 26.3 40 27.8 40C34.5 40 41.2 39.7 41.2 31C41.2 29.3 40.9 27.7 40.5 26.1C43.8 26.1 48 25.9 48 20.6ZM38.2 4.9C39.9 4.9 41.2 6.2 41.2 7.9C41.2 9.8 39.6 13.1 38.2 13.1C36.8 13.1 35.2 9.8 35.2 7.9C35.3 6.2 36.6 4.9 38.2 4.9ZM24.5 2C27.9 2 30.7 4.8 30.7 8.2C30.7 11.9 27.6 18.4 24.5 18.4C21.2 18.4 18.3 11.5 18.3 8.2C18.3 4.7 21.1 2 24.5 2ZM9.8 4.9C11.5 4.9 12.8 6.2 12.8 7.9C12.8 9.9 11.2 13.1 9.8 13.1C8.4 13.1 6.8 9.8 6.8 7.9C6.8 6.2 8.1 4.9 9.8 4.9ZM2 20.6C2 17.4 3.9 14.6 6.8 13.4C6.8 13.4 6.8 13.4 6.9 13.5C7.8 14.5 8.8 15.1 9.8 15.1C10.8 15.1 11.8 14.5 12.7 13.5C14.2 14.1 15.4 15.2 16.3 16.5C13.2 18.2 10.8 20.9 9.3 24.1C4.3 24.1 2 24.2 2 20.6ZM26.2 38C24.1 38 24.9 38 22.8 38C14.4 38.1 9.8 37.9 9.8 31C9.8 24.8 13.7 19.3 19.5 17.2C20.7 18.8 22.5 20.3 24.5 20.3C26.5 20.3 28.3 18.8 29.5 17.2C34.8 19.1 39.2 24.4 39.2 31C39.2 37.9 34.5 38.1 26.2 38ZM39.7 24.1C38.1 20.7 35.4 17.8 32 16.1C32.8 14.9 34 14 35.4 13.5C36.3 14.6 37.3 15.1 38.3 15.1C39.3 15.1 40.3 14.5 41.2 13.5C44.1 14.7 46 17.5 46 20.7C46 23.8 44.2 24.1 39.7 24.1Z" fill="#749d6e"/>
</svg>