<svg width="37" height="34" viewBox="0 0 37 34" fill="none" xmlns="http://www.w3.org/2000/svg">
<path d="M29.0714 10.7368H16.7381C16.0374 10.7376 15.3656 11.0207 14.8702 11.5239C14.3747 12.0271 14.096 12.7094 14.0952 13.4211V17.8947H11.4299C12.0125 17.1247 12.33 16.1816 12.3333 15.2105C12.3333 14.024 11.8693 12.8861 11.0432 12.0472C10.2172 11.2082 9.09679 10.7368 7.92857 10.7368C6.76036 10.7368 5.63999 11.2082 4.81393 12.0472C3.98788 12.8861 3.52381 14.024 3.52381 15.2105C3.52717 16.1816 3.84459 17.1247 4.42724 17.8947H1.7619V0.894737C1.7619 0.657438 1.66909 0.429858 1.50388 0.262063C1.33867 0.0942668 1.1146 0 0.880952 0C0.647309 0 0.423236 0.0942668 0.258025 0.262063C0.0928143 0.429858 0 0.657438 0 0.894737V33.1053C0 33.3426 0.0928143 33.5701 0.258025 33.7379C0.423236 33.9057 0.647309 34 0.880952 34C1.1146 34 1.33867 33.9057 1.50388 33.7379C1.66909 33.5701 1.7619 33.3426 1.7619 33.1053V26.8421H35.2381V33.1053C35.2381 33.3426 35.3309 33.5701 35.4961 33.7379C35.6613 33.9057 35.8854 34 36.119 34C36.3527 34 36.5768 33.9057 36.742 33.7379C36.9072 33.5701 37 33.3426 37 33.1053V18.7895C36.9977 16.6545 36.1616 14.6076 34.6752 13.098C33.1888 11.5883 31.1735 10.7392 29.0714 10.7368ZM7.92857 12.5263C8.45128 12.5263 8.96225 12.6837 9.39686 12.9787C9.83148 13.2736 10.1702 13.6928 10.3703 14.1833C10.5703 14.6738 10.6226 15.2135 10.5206 15.7342C10.4187 16.2549 10.167 16.7332 9.79735 17.1085C9.42774 17.4839 8.95683 17.7396 8.44417 17.8432C7.9315 17.9467 7.40011 17.8936 6.91719 17.6904C6.43427 17.4873 6.02152 17.1432 5.73112 16.7018C5.44072 16.2604 5.28571 15.7414 5.28571 15.2105C5.28648 14.4989 5.56517 13.8166 6.06063 13.3134C6.5561 12.8101 7.22788 12.5271 7.92857 12.5263ZM35.2381 25.0526H1.7619V19.6842H35.2381V25.0526ZM15.8571 17.8947V13.4211C15.8573 13.1838 15.9502 12.9563 16.1153 12.7886C16.2805 12.6208 16.5045 12.5265 16.7381 12.5263H29.0714C30.5538 12.5282 31.9861 13.0715 33.1068 14.0571C34.2274 15.0427 34.9616 16.4049 35.1753 17.8947H15.8571Z" fill="#218E36"/>
</svg>
