<svg xmlns="http://www.w3.org/2000/svg" width="128" height="128" viewBox="0 0 128 128">
  <title>BLOOD DONATION</title>
  <g>
    <path d="M79.5,72.75A25.779,25.779,0,0,0,105.25,47c0-9-4.169-18.715-12.39-28.869A90.614,90.614,0,0,0,80.6,5.636a1.751,1.751,0,0,0-2.192,0,90.614,90.614,0,0,0-12.264,12.5C57.918,28.285,53.75,38,53.75,47A25.779,25.779,0,0,0,79.5,72.75ZM79.5,9.3c4.621,4.037,22.25,20.566,22.25,37.7a22.25,22.25,0,0,1-44.5,0C57.25,29.862,74.879,13.333,79.5,9.3Z" fill="#ffffff"/>
    <path d="M68.5,52.75h5.25V58a1.75,1.75,0,0,0,1.75,1.75h8A1.75,1.75,0,0,0,85.25,58V52.75H90.5A1.75,1.75,0,0,0,92.25,51V43a1.75,1.75,0,0,0-1.75-1.75H85.25V36a1.75,1.75,0,0,0-1.75-1.75h-8A1.75,1.75,0,0,0,73.75,36v5.25H68.5A1.75,1.75,0,0,0,66.75,43v8A1.75,1.75,0,0,0,68.5,52.75Zm1.75-8H75.5A1.75,1.75,0,0,0,77.25,43V37.75h4.5V43a1.75,1.75,0,0,0,1.75,1.75h5.25v4.5H83.5A1.75,1.75,0,0,0,81.75,51v5.25h-4.5V51a1.75,1.75,0,0,0-1.75-1.75H70.25Z" fill="#ffffff"/>
    <path d="M120.31,72.6a7.941,7.941,0,0,0-10.968.342L93.32,88.965a7.757,7.757,0,0,0-6.095-6.026L60.565,77.7A17.666,17.666,0,0,0,44.3,82.862L37.251,90.25h-4.5V87A1.75,1.75,0,0,0,31,85.25H7A1.75,1.75,0,0,0,5.25,87v34A1.75,1.75,0,0,0,7,122.75H31A1.75,1.75,0,0,0,32.75,121v-3.25H80.759a13.666,13.666,0,0,0,9.723-4.027l30-30a7.75,7.75,0,0,0-.17-11.125ZM29.25,119.25H8.75V88.75h20.5Zm88.755-38-30,30a10.183,10.183,0,0,1-7.248,3H32.75V93.75H38a1.748,1.748,0,0,0,1.266-.542l7.57-7.93A14.188,14.188,0,0,1,59.89,81.135l26.66,5.237a4.25,4.25,0,1,1-1.639,8.341L67.026,91.2a1.75,1.75,0,1,0-.674,3.434l17.884,3.513a7.842,7.842,0,0,0,1.512.148,7.692,7.692,0,0,0,4.3-1.318,7.891,7.891,0,0,0,1.2-1l20.563-20.564a4.417,4.417,0,0,1,6.094-.269,4.251,4.251,0,0,1,.094,6.1Z" fill="#ffffff"/>
  </g>
</svg>