<svg xmlns="http://www.w3.org/2000/svg" width="86" height="80" viewBox="0 0 86 80" fill="none">
<path d="M43 0C29.5452 0 18.628 10.675 18.0938 24H1C0.4764 24 0.0001 24.4764 0 25V79C0.0001 79.5236 0.4764 79.9999 1 80H85C85.5236 79.9999 85.9999 79.5236 86 79V25C85.9999 24.4764 85.5236 24 85 24H67.9062C67.372 10.675 56.4548 0 43 0ZM43 2C55.7144 2 66 12.2856 66 25C66.0001 25.5236 66.4764 26 67 26H84V78H53V53C52.9999 52.4764 52.5236 52 52 52H34C33.4764 52 33.0001 52.4764 33 53V78H2V26H19C19.5236 26 19.9999 25.5236 20 25C20 12.2856 30.2856 2 43 2ZM43 8C42.4477 8 42 8.4477 42 9V16H35C34.4477 16 34 16.4477 34 17C34 17.5523 34.4477 18 35 18H42V25C42 25.5523 42.4477 26 43 26C43.5523 26 44 25.5523 44 25V18H51C51.5523 18 52 17.5523 52 17C52 16.4477 51.5523 16 51 16H44V9C44 8.4477 43.5523 8 43 8ZM9 32C8.4764 32 8.0001 32.4764 8 33V45C8.0001 45.5236 8.4764 46 9 46H27C27.5236 46 27.9999 45.5236 28 45V33C27.9999 32.4764 27.5236 32 27 32H9ZM34 32C33.4764 32 33.0001 32.4764 33 33V45C33.0001 45.5236 33.4764 46 34 46H52C52.5236 46 52.9999 45.5236 53 45V33C52.9999 32.4764 52.5236 32 52 32H34ZM59 32C58.4764 32 58.0001 32.4764 58 33V45C58.0001 45.5236 58.4764 46 59 46H77C77.5236 46 77.9999 45.5236 78 45V33C77.9999 32.4764 77.5236 32 77 32H59ZM10 34H26V44H10V34ZM35 34H51V44H35V34ZM60 34H76V44H60V34ZM9 52C8.4764 52 8.0001 52.4764 8 53V65C8.0001 65.5236 8.4764 65.9999 9 66H27C27.5236 65.9999 27.9999 65.5236 28 65V53C27.9999 52.4764 27.5236 52 27 52H9ZM59 52C58.4764 52 58.0001 52.4764 58 53V65C58.0001 65.5236 58.4764 65.9999 59 66H77C77.5236 65.9999 77.9999 65.5236 78 65V53C77.9999 52.4764 77.5236 52 77 52H59ZM10 54H26V64H10V54ZM35 54H51V78H35V54ZM60 54H76V64H60V54Z" fill="#749d6e"/>
</svg>