<?xml version="1.0" encoding="utf-8"?>
<!-- Generator: Adobe Illustrator 16.0.0, SVG Export Plug-In . SVG Version: 6.00 Build 0)  -->
<!DOCTYPE svg PUBLIC "-//W3C//DTD SVG 1.1//EN" "http://www.w3.org/Graphics/SVG/1.1/DTD/svg11.dtd">
<svg version="1.1" id="Layer_1" xmlns="http://www.w3.org/2000/svg" xmlns:xlink="http://www.w3.org/1999/xlink" x="0px" y="0px"
	 width="700px" height="700px" viewBox="0 0 700 700" enable-background="new 0 0 700 700" xml:space="preserve">
<path fill="#E50808" d="M531.002,176.73h-7.699v-9.477c0-23.738-19.313-43.056-43.055-43.056c-23.738,0-43.047,19.312-43.047,43.056
	v9.477h-45.152v-9.477c0-23.738-19.313-43.056-43.047-43.056c-23.735,0-43.055,19.312-43.055,43.056v9.477h-45.146v-9.477
	c0-23.738-19.312-43.056-43.056-43.056c-23.737,0-43.047,19.312-43.047,43.056v9.477H167c-24.703,0-44.801,20.098-44.801,44.801
	v311.47c0,24.703,20.098,44.801,44.801,44.801h364.001c24.702,0,44.801-20.098,44.801-44.801v-311.47
	C575.802,196.832,555.703,176.73,531.002,176.73L531.002,176.73z M470.803,167.258c0-5.215,4.238-9.453,9.445-9.453
	c5.215,0,9.453,4.238,9.453,9.453v52.5c0,5.215-4.238,9.453-9.453,9.453s-9.445-4.238-9.445-9.453V167.258z M339.553,167.258
	c0-5.215,4.238-9.453,9.453-9.453s9.445,4.238,9.445,9.453v52.5c0,5.215-4.238,9.453-9.445,9.453s-9.453-4.238-9.453-9.453V167.258z
	 M208.303,167.258c0-5.215,4.238-9.453,9.445-9.453c5.215,0,9.453,4.238,9.453,9.453v52.5c0,5.215-4.238,9.453-9.453,9.453
	s-9.445-4.238-9.445-9.453V167.258z M542.203,533.008c0,6.176-5.023,11.198-11.199,11.198h-364c-6.176,0-11.199-5.023-11.199-11.198
	V221.537c0-6.176,5.023-11.199,11.199-11.199h7.699v9.426c0,23.738,19.313,43.056,43.047,43.056
	c23.738,0,43.055-19.313,43.055-43.056v-9.426h45.148v9.426c0,23.738,19.313,43.056,43.055,43.056
	c23.738,0,43.047-19.313,43.047-43.056l-0.004-9.426h45.152v9.426c0,23.738,19.313,43.056,43.047,43.056
	c23.738,0,43.056-19.313,43.056-43.056v-9.426h7.699c6.176,0,11.198,5.023,11.198,11.199V533.008z"/>
<path fill="#E50808" d="M416.562,332.75c-6.559-6.559-17.198-6.563-23.762,0l-43.801,43.805l-43.81-43.809
	c-6.559-6.559-17.198-6.559-23.762,0c-6.559,6.559-6.559,17.199,0,23.762l43.806,43.805l-43.806,43.806
	c-6.563,6.563-6.563,17.198,0,23.762c3.281,3.281,7.582,4.922,11.883,4.922s8.602-1.641,11.879-4.918l43.81-43.812l43.809,43.809
	c3.277,3.277,7.582,4.918,11.879,4.918c4.298,0,8.603-1.641,11.884-4.922c6.559-6.559,6.559-17.199,0-23.762l-43.806-43.805
	l43.806-43.806C423.129,349.95,423.129,339.311,416.562,332.75L416.562,332.75z"/>
</svg>
