<svg width="176" height="195" viewBox="0 0 176 195" fill="none" xmlns="http://www.w3.org/2000/svg">
<path d="M172.857 91.1429H153.309L151.737 84.8571H169.714C170.548 84.8571 171.347 84.526 171.937 83.9366C172.526 83.3472 172.857 82.5478 172.857 81.7143V31.4286C172.857 30.595 172.526 29.7956 171.937 29.2062C171.347 28.6168 170.548 28.2857 169.714 28.2857H106.857C106.024 28.2857 105.224 28.6168 104.635 29.2062C104.045 29.7956 103.714 30.595 103.714 31.4286V81.7143C103.714 82.5478 104.045 83.3472 104.635 83.9366C105.224 84.526 106.024 84.8571 106.857 84.8571H124.834L123.263 91.1429H97.4286V88.3457C97.4242 84.742 96.5472 81.193 94.8724 78.0021C93.1976 74.8112 90.7749 72.0734 87.8114 70.0229C87.9219 69.7418 87.9856 69.4445 88 69.1429V31.4286C88 23.0932 84.6888 15.0992 78.7948 9.20522C72.9008 3.31122 64.9068 0 56.5714 0C48.2361 0 40.2421 3.31122 34.3481 9.20522C28.4541 15.0992 25.1429 23.0932 25.1429 31.4286V69.1429C25.1572 69.4445 25.2209 69.7418 25.3314 70.0229C22.368 72.0734 19.9453 74.8112 18.2705 78.0021C16.5957 81.193 15.7186 84.742 15.7143 88.3457V91.1429H3.14286C2.30932 91.1429 1.50992 91.474 0.920522 92.0634C0.331122 92.6528 0 93.4522 0 94.2857V110C0 110.834 0.331122 111.633 0.920522 112.222C1.50992 112.812 2.30932 113.143 3.14286 113.143H172.857C173.691 113.143 174.49 112.812 175.079 112.222C175.669 111.633 176 110.834 176 110V94.2857C176 93.4522 175.669 92.6528 175.079 92.0634C174.49 91.474 173.691 91.1429 172.857 91.1429ZM110 78.5714V34.5714H166.571V78.5714H110ZM146.834 91.1429H129.737L131.309 84.8571H145.263L146.834 91.1429ZM91.1429 88.3457V91.1429H78.9171V72.82C82.3967 73.6698 85.4913 75.6606 87.7073 78.4746C89.9232 81.2887 91.1328 84.7639 91.1429 88.3457ZM31.4286 31.4286C31.4286 24.7603 34.0775 18.3651 38.7927 13.6499C43.5079 8.93469 49.9031 6.28571 56.5714 6.28571C63.2397 6.28571 69.6349 8.93469 74.3501 13.6499C79.0653 18.3651 81.7143 24.7603 81.7143 31.4286V67.0057C79.9487 66.4645 78.1219 66.1477 76.2771 66.0629H68.6714L67.0686 56.6343C69.657 54.8999 71.7754 52.5511 73.2342 49.7979C74.6931 47.0447 75.447 43.9729 75.4286 40.8571V25.1429C75.4286 24.3093 75.0975 23.5099 74.5081 22.9205C73.9187 22.3311 73.1193 22 72.2857 22C71.4522 22 70.6528 22.3311 70.0634 22.9205C69.474 23.5099 69.1429 24.3093 69.1429 25.1429V40.8571C69.1415 42.7532 68.7114 44.6243 67.8846 46.3306C67.0578 48.0368 65.8557 49.534 64.3684 50.7099C62.8811 51.8859 61.147 52.7101 59.2961 53.1211C57.4451 53.532 55.5252 53.5189 53.68 53.0829C52.7334 52.8667 51.8157 52.5397 50.9457 52.1086C48.8571 51.0634 47.1009 49.4571 45.8741 47.4698C44.6473 45.4825 43.9983 43.1927 44 40.8571V29.9829C48.1045 31.0383 52.3345 31.5248 56.5714 31.4286H59.8714C60.705 31.4077 61.4961 31.0566 62.0707 30.4525C62.6454 29.8484 62.9566 29.0407 62.9357 28.2071C62.9149 27.3736 62.5638 26.5825 61.9596 26.0078C61.3555 25.4332 60.5478 25.122 59.7143 25.1429H56.5714C46.2629 25.1429 43.12 22.9114 43.0886 22.9114C42.6466 22.4753 42.0854 22.1799 41.4757 22.0625C40.866 21.945 40.2352 22.0108 39.6629 22.2514C39.0889 22.4872 38.5976 22.8876 38.2508 23.4022C37.9041 23.9167 37.7174 24.5224 37.7143 25.1429V40.8571C37.7062 43.9623 38.4651 47.0214 39.9235 49.7627C41.3819 52.5041 43.4947 54.8429 46.0743 56.5714L44.4714 66H38.1857C35.9368 65.9943 33.7004 66.3335 31.5543 67.0057L31.4286 31.4286ZM48.7143 79.2C52.6813 80.5913 56.9245 81.0091 61.0866 80.4184C65.2488 79.8278 69.2082 78.2458 72.6314 75.8057V91.1429H41.2029V75.4286C43.5381 76.9966 46.0618 78.2638 48.7143 79.2ZM47.96 72.2857C48.5351 72.1358 49.0558 71.826 49.4619 71.3921C49.868 70.9582 50.1428 70.418 50.2543 69.8343L52.0143 59.3057L53.7429 59.62H54.1829C54.9371 59.62 55.6914 59.62 56.4771 59.62C57.2629 59.62 58.0171 59.62 58.7714 59.62H59.18C59.7722 59.5487 60.3598 59.4438 60.94 59.3057L62.8571 69.6771C62.9844 70.4151 63.3709 71.0833 63.9471 71.5616C64.5233 72.0398 65.2513 72.2966 66 72.2857C63.1903 73.6553 60.1057 74.3671 56.98 74.3671C53.8543 74.3671 50.7697 73.6553 47.96 72.2857ZM22 88.3457C22.014 84.6395 23.307 81.0517 25.6605 78.1886C28.014 75.3255 31.2837 73.3625 34.9171 72.6314V91.1429H22V88.3457ZM169.714 106.857H6.28571V97.4286H169.714V106.857Z" fill="white"/>
<path d="M166.571 119.428C165.737 119.428 164.938 119.759 164.349 120.348C163.759 120.938 163.428 121.737 163.428 122.571V188.571H12.5709V122.571C12.5709 121.737 12.2397 120.938 11.6503 120.348C11.0609 119.759 10.2616 119.428 9.42801 119.428C8.59448 119.428 7.79508 119.759 7.20568 120.348C6.61628 120.938 6.28516 121.737 6.28516 122.571V191.713C6.28516 192.547 6.61628 193.346 7.20568 193.936C7.79508 194.525 8.59448 194.856 9.42801 194.856H166.571C167.404 194.856 168.204 194.525 168.793 193.936C169.383 193.346 169.714 192.547 169.714 191.713V122.571C169.714 121.737 169.383 120.938 168.793 120.348C168.204 119.759 167.404 119.428 166.571 119.428Z" fill="white"/>
<path d="M102.677 142.465H97.4283V137.248C97.4283 136.415 97.0971 135.615 96.5077 135.026C95.9183 134.437 95.1189 134.105 94.2854 134.105H81.714C80.8804 134.105 80.081 134.437 79.4916 135.026C78.9022 135.615 78.5711 136.415 78.5711 137.248V142.465H73.3225C72.489 142.465 71.6896 142.797 71.1002 143.386C70.5108 143.975 70.1797 144.775 70.1797 145.608V158.18C70.1797 159.013 70.5108 159.813 71.1002 160.402C71.6896 160.991 72.489 161.323 73.3225 161.323H78.5711V166.571C78.5711 167.405 78.9022 168.204 79.4916 168.794C80.081 169.383 80.8804 169.714 81.714 169.714H94.2854C95.1189 169.714 95.9183 169.383 96.5077 168.794C97.0971 168.204 97.4283 167.405 97.4283 166.571V161.323H102.677C103.51 161.323 104.31 160.991 104.899 160.402C105.489 159.813 105.82 159.013 105.82 158.18V145.608C105.82 144.775 105.489 143.975 104.899 143.386C104.31 142.797 103.51 142.465 102.677 142.465ZM99.534 155.037H94.2854C93.4519 155.037 92.6525 155.368 92.0631 155.957C91.4737 156.547 91.1425 157.346 91.1425 158.18V163.428H84.8568V158.18C84.8568 157.346 84.5257 156.547 83.9363 155.957C83.3469 155.368 82.5475 155.037 81.714 155.037H76.4654V148.751H81.714C82.5475 148.751 83.3469 148.42 83.9363 147.831C84.5257 147.241 84.8568 146.442 84.8568 145.608V140.391H91.1425V145.608C91.1425 146.442 91.4737 147.241 92.0631 147.831C92.6525 148.42 93.4519 148.751 94.2854 148.751H99.534V155.037Z" fill="white"/>
<path d="M114.338 177.853C114.912 177.618 115.403 177.217 115.75 176.703C116.096 176.188 116.283 175.582 116.286 174.962V122.571C116.286 121.737 115.955 120.938 115.366 120.348C114.776 119.759 113.977 119.428 113.143 119.428H62.8577C62.0242 119.428 61.2248 119.759 60.6354 120.348C60.046 120.938 59.7148 121.737 59.7148 122.571V174.962C59.7179 175.582 59.9046 176.188 60.2514 176.703C60.5982 177.217 61.0895 177.618 61.6634 177.853L86.8063 188.319C87.1825 188.485 87.5893 188.571 88.0006 188.571C88.4119 188.571 88.8186 188.485 89.1948 188.319L114.338 177.853ZM66.0006 172.856V125.713H110.001V172.856L88.0006 182.033L66.0006 172.856Z" fill="white"/>
</svg>
