<svg width="49" height="58" viewBox="0 0 49 58" fill="none" xmlns="http://www.w3.org/2000/svg">
<path d="M48.4062 52.8886L43.1796 46.6505C43.0228 46.4641 42.7978 46.3465 42.5542 46.3251C42.4456 46.3162 42.338 46.3286 42.2347 46.356L41.1781 45.0945C42.9498 43.065 44.0349 40.5379 44.2766 37.8028C44.5777 34.3883 43.5318 31.0612 41.3307 28.4342C40.7315 27.7191 40.0627 27.0795 39.3399 26.5206V7.87606C39.3369 6.60446 38.3005 5.56865 37.0278 5.56628H28.6581C28.442 4.81793 27.7583 4.26617 26.9417 4.26617H26.3834C25.837 1.34287 22.6868 0 19.7409 0C16.7956 0 13.6455 1.34227 13.0985 4.26617H12.5402C11.7235 4.26617 11.0399 4.81793 10.8237 5.56628H2.30978C1.03878 5.56865 0.00237571 6.60446 0 7.87725V54.7891C0.00296963 56.0595 1.03937 57.0953 2.31156 57.0983H37.0307C38.3005 57.0953 39.3369 56.0595 39.3405 54.7867V50.0056L44.4994 56.1623C44.9834 56.7408 45.6967 57.0716 46.4546 57.0716C47.0526 57.0716 47.6335 56.8607 48.0896 56.4782C48.6099 56.0417 48.93 55.427 48.99 54.7487C49.0494 54.0699 48.8421 53.4088 48.4062 52.8886ZM40.5028 47.6917L39.5995 46.6143C39.644 46.5781 39.6915 46.5472 39.7355 46.511C39.7794 46.4736 39.821 46.435 39.8638 46.3975L40.7647 47.4725L40.5028 47.6917ZM42.4414 37.6407C42.1836 40.564 40.8028 43.2123 38.553 45.0974C36.5782 46.7515 34.0742 47.6632 31.5025 47.6632C28.2394 47.6632 25.167 46.23 23.0734 43.7314C21.1883 41.4816 20.2927 38.6331 20.5499 35.7092C20.8076 32.7853 22.1891 30.137 24.4389 28.2519C26.4137 26.5972 28.9177 25.6861 31.4894 25.6861C34.7524 25.6861 37.8248 27.1187 39.9178 29.6179C41.8029 31.8677 42.6992 34.7174 42.4414 37.6407ZM4.85891 7.40923H10.7465V9.84789C10.7465 10.838 11.5513 11.6421 12.5408 11.6421H26.9423C27.9318 11.6421 28.7365 10.838 28.7365 9.84789V7.40923H34.4816V24.1989C33.5117 23.9673 32.5098 23.8438 31.49 23.8438C28.4859 23.8438 25.562 24.9075 23.2558 26.8395C20.6288 29.0412 19.0163 32.1332 18.7152 35.5471C18.4141 38.9616 19.4606 42.2882 21.6617 44.9151C24.1063 47.8325 27.693 49.505 31.503 49.505C32.5127 49.505 33.5105 49.3749 34.4816 49.1421V52.2388H4.85891V7.40923ZM37.4976 7.87784V25.3327C37.1157 25.1314 36.7243 24.9485 36.3239 24.7857V7.40923H37.0266C37.2855 7.40923 37.497 7.62008 37.4976 7.87784ZM12.5895 6.10913H13.9371C14.4461 6.10913 14.8583 5.69694 14.8583 5.18795C14.8583 2.89005 17.3896 1.84355 19.7409 1.84355C22.0929 1.84355 24.6236 2.89064 24.6236 5.18795C24.6236 5.69694 25.0358 6.10913 25.5448 6.10913H26.893V9.79919H12.5895V6.10913ZM37.0283 55.2559H2.31394C2.05439 55.2554 1.84355 55.0445 1.84295 54.7873V7.87962C1.84355 7.62008 2.05439 7.40923 2.31216 7.40923H3.01715V53.1612C3.01715 53.6702 3.42933 54.0829 3.93833 54.0829H35.4034C35.9124 54.0829 36.3245 53.6708 36.3245 53.1612V48.5499C36.7243 48.3866 37.1162 48.2043 37.4981 48.0017V54.785C37.4964 55.0445 37.2855 55.2554 37.0283 55.2559ZM46.9059 55.0665C46.745 55.2019 46.5716 55.2298 46.4546 55.2298C46.2431 55.2298 46.0453 55.1389 45.9111 54.9786L41.2761 49.4473L42.3588 48.541L46.9932 54.0728C47.1132 54.2148 47.1702 54.3989 47.1536 54.5872C47.1376 54.7755 47.0491 54.9471 46.9059 55.0665Z" fill="white"/>
<path d="M20.3765 44.9121H7.35233C6.84393 44.9121 6.43115 45.3249 6.43115 45.8333C6.43115 46.3423 6.84393 46.7551 7.35233 46.7551H20.3765C20.8855 46.7551 21.2977 46.3423 21.2977 45.8333C21.2977 45.3243 20.8855 44.9121 20.3765 44.9121Z" fill="white"/>
<path d="M7.35233 42.7728H18.0573C18.5663 42.7728 18.9784 42.3612 18.9784 41.8516C18.9784 41.3432 18.5663 40.9304 18.0573 40.9304H7.35233C6.84393 40.9304 6.43115 41.3426 6.43115 41.8516C6.43115 42.3612 6.84334 42.7728 7.35233 42.7728Z" fill="white"/>
<path d="M7.35233 38.7929H17.1563C17.6653 38.7929 18.0775 38.3807 18.0775 37.8717C18.0775 37.3627 17.6653 36.9506 17.1563 36.9506H7.35233C6.84393 36.9506 6.43115 37.3627 6.43115 37.8717C6.43115 38.3807 6.84334 38.7929 7.35233 38.7929Z" fill="white"/>
<path d="M7.35233 34.8118H17.3808C17.8898 34.8118 18.302 34.399 18.302 33.8906C18.302 33.3816 17.8898 32.9689 17.3808 32.9689H7.35233C6.84393 32.9689 6.43115 33.3816 6.43115 33.8906C6.43115 34.399 6.84334 34.8118 7.35233 34.8118Z" fill="white"/>
<path d="M9.14492 20.9804H13.5928C13.9219 20.9804 14.226 20.8046 14.3905 20.5196L16.8689 16.2267L20.5198 25.4028C20.6558 25.7449 20.9825 25.9736 21.3507 25.9831C21.359 25.9837 21.3673 25.9837 21.3762 25.9837C21.7344 25.9837 22.061 25.7752 22.2125 25.4491L25.3098 18.7497L25.9905 20.4091C26.1324 20.7548 26.4692 20.9804 26.8427 20.9804H30.1949C30.7039 20.9804 31.116 20.5683 31.116 20.0587C31.116 19.5503 30.7039 19.1375 30.1949 19.1375H27.461L26.2126 16.0948C26.0736 15.7557 25.7464 15.5318 25.3799 15.5234C25.0016 15.5169 24.6773 15.7254 24.5235 16.058L21.4392 22.7296L17.8774 13.7785C17.7468 13.45 17.4403 13.2261 17.0881 13.2C16.7317 13.1762 16.3997 13.3526 16.2233 13.6579L13.0601 19.1375H9.14432C8.63533 19.1375 8.22314 19.5503 8.22314 20.0587C8.22374 20.5683 8.63652 20.9804 9.14492 20.9804Z" fill="white"/>
<path d="M31.4907 26.8282C29.1857 26.8282 26.9418 27.6449 25.1725 29.1273C21.0109 32.6149 20.4615 38.838 23.9485 42.9991C25.8247 45.2376 28.5775 46.5223 31.5008 46.5223C33.8059 46.5223 36.0503 45.705 37.8202 44.222C39.8366 42.5334 41.0743 40.1607 41.3048 37.5403C41.5358 34.9205 40.7328 32.3672 39.0437 30.3514C37.1675 28.1123 34.4146 26.8282 31.4907 26.8282ZM39.4695 37.3788C39.2819 39.508 38.2757 41.4371 36.6371 42.8096C35.198 44.0153 33.3741 44.6793 31.5014 44.6793C29.1245 44.6793 26.886 43.6358 25.3614 41.8154C22.5272 38.4324 22.9732 33.3745 26.3562 30.5397C27.7947 29.3346 29.6181 28.6712 31.4913 28.6712C33.8688 28.6712 36.1067 29.7147 37.6313 31.5351C39.0045 33.1738 39.6572 35.2495 39.4695 37.3788Z" fill="white"/>
</svg>
