<?xml version="1.0" encoding="utf-8"?>
<!-- Generator: Adobe Illustrator 16.0.0, SVG Export Plug-In . SVG Version: 6.00 Build 0)  -->
<!DOCTYPE svg PUBLIC "-//W3C//DTD SVG 1.1//EN" "http://www.w3.org/Graphics/SVG/1.1/DTD/svg11.dtd">
<svg version="1.1" id="Layer_1" xmlns="http://www.w3.org/2000/svg" xmlns:xlink="http://www.w3.org/1999/xlink" x="0px" y="0px"
	 width="700px" height="700px" viewBox="0 0 700 700" enable-background="new 0 0 700 700" xml:space="preserve">
<g>
	<path fill="#6DB558" d="M280.384,635.658H174.675c-32.202,0-58.392-26.189-58.392-58.391V350.932
		c0-6.609,5.363-11.973,11.973-11.973s11.973,5.363,11.973,11.973v226.336c0,18.98,15.439,34.445,34.447,34.445h105.709
		c6.61,0,11.973,5.363,11.973,11.973c0,6.611-5.363,11.975-11.973,11.975L280.384,635.658z"/>
	<path fill="#6DB558" d="M525.326,635.658h-105.71c-6.609,0-11.973-5.361-11.973-11.973c0-6.609,5.363-11.973,11.973-11.973h105.71
		c18.982,0,34.446-15.439,34.446-34.447V337.762c0-6.61,5.363-11.973,11.974-11.973c6.609,0,11.973,5.362,11.973,11.973v239.504
		C583.719,609.469,557.528,635.658,525.326,635.658L525.326,635.658z"/>
	<path fill="#6DB558" d="M62.655,362.955c-3.067,0-6.136-1.174-8.455-3.518c-4.666-4.688-4.666-12.248,0-16.937L315.305,81.396
		c22.771-22.772,59.789-22.772,82.562,0l247.935,247.935c4.665,4.688,4.665,12.248,0,16.937c-4.688,4.665-12.247,4.665-16.936,0
		L380.931,98.332c-13.418-13.418-35.27-13.418-48.689,0L71.111,359.438C68.792,361.783,65.722,362.955,62.655,362.955
		L62.655,362.955z"/>
	<path fill="#6DB558" d="M419.616,635.658c-6.609,0-11.973-5.361-11.973-11.973V420.574c0-31.778-25.866-57.645-57.644-57.645
		c-31.776,0-57.643,25.867-57.643,57.645v203.137c0,6.609-5.363,11.973-11.973,11.973c-6.61,0-11.973-5.363-11.973-11.973V420.574
		c0-44.998,36.593-81.59,81.589-81.59c44.997,0,81.589,36.593,81.589,81.59v203.137
		C431.589,630.295,426.227,635.658,419.616,635.658L419.616,635.658z"/>
	<path fill="#6DB558" d="M128.255,362.955H62.655c-6.61,0-11.973-5.363-11.973-11.973c0-6.61,5.363-11.974,11.973-11.974h65.601
		c6.61,0,11.973,5.363,11.973,11.974C140.228,357.592,134.865,362.955,128.255,362.955z"/>
	<path fill="#6DB558" d="M637.346,349.784h-65.601c-6.61,0-11.973-5.362-11.973-11.973c0-6.609,5.362-11.973,11.973-11.973h65.601
		c6.61,0,11.973,5.363,11.973,11.973C649.318,344.422,643.956,349.784,637.346,349.784z"/>
</g>
</svg>
