<svg xmlns="http://www.w3.org/2000/svg" xmlns:xlink="http://www.w3.org/1999/xlink" version="1.1" id="Layer_1" x="0px" y="0px" width="700px" height="700px" viewBox="0 0 700 700" enable-background="new 0 0 700 700" xml:space="preserve">
<path fill="#218e36" d="M206.232,188.527c76.887,0,137.76,62.473,137.76,137.76c0,44.852-20.824,86.5-57.665,112.131  c60.872,24.025,107.32,75.283,126.541,136.158c3.203,11.211-1.602,22.428-12.816,25.629c-11.211,3.203-22.426-1.602-25.629-12.814  c-22.426-73.684-91.305-123.34-168.19-123.34c-75.285,0-144.16,49.656-166.59,123.34c-3.203,11.211-14.418,16.02-25.629,12.814  c-11.211-3.203-17.621-14.418-12.816-25.629c19.223-60.871,65.676-112.129,126.54-136.158  c-36.844-25.631-59.27-67.277-59.27-112.131c0-75.285,62.473-137.76,137.76-137.76H206.232z M206.232,230.175  c-52.859,0-96.109,43.25-96.109,96.109c0,54.461,43.25,97.712,96.109,97.712c54.461,0,97.711-43.251,97.711-97.712  C303.943,273.425,260.693,230.175,206.232,230.175z"/>
<path fill="#218e36" d="M505.771,98.828c70.48,0,129.75,57.664,129.75,129.75c0,41.648-19.223,80.09-52.858,104.12  c56.062,24.027,97.711,70.48,116.93,128.14c3.203,9.609-3.203,20.824-14.418,24.027c-9.609,4.805-22.426-1.602-25.629-12.816  c-20.824-67.277-83.297-113.73-153.78-113.73c-49.656,0-96.109,22.427-126.54,60.871c-8.008,9.609-20.824,11.211-28.832,3.203  c-9.609-6.406-11.211-19.223-3.203-28.832c20.824-25.629,49.656-46.453,80.09-60.871c-32.034-24.027-51.258-62.473-51.258-104.12  c0-72.082,57.664-129.75,129.75-129.75L505.771,98.828z M505.771,138.875c-49.655,0-89.703,40.047-89.703,89.703  c0,49.656,40.048,89.703,89.703,89.703c48.056,0,88.103-40.047,88.103-89.703C593.874,178.922,553.827,138.875,505.771,138.875z"/>
</svg>