<svg xmlns="http://www.w3.org/2000/svg" xmlns:xlink="http://www.w3.org/1999/xlink" version="1.1" x="0px" y="0px" viewBox="0 0 128 128" style="enable-background:new 0 0 128 128;" xml:space="preserve">
<g id="_x31_2">
	<path id="icon_26_" style="fill:#2e783d;" d="M70.365,85.411c0.364,0,0.722,0.167,0.953,0.452c0.229,0.285,0.334,0.688,0.264,1.05   l-1.899,9.905h-3.423l3.339,8.111c-1.716,3.7-3.589,7.317-5.62,10.83c-2.014-3.531-3.874-7.149-5.579-10.837l3.339-8.104h-3.423   l-1.899-9.905c-0.07-0.363,0.035-0.765,0.264-1.05c0.231-0.285,0.589-0.452,0.953-0.452H70.365z M44.823,76.574   c-1.54,0.605-18.361,7.242-23.038,10.441c-4.902,3.353-7.923,7.132-10.531,12.889c-2.609,5.757-4.236,12.448-4.236,18.545   c0,0.732,0.465,1.42,1.12,1.718C23.523,127.17,51.758,128,64,128c12.243,0,40.477-0.83,55.864-7.833   c0.655-0.298,1.12-0.987,1.12-1.718c0-6.097-1.627-12.788-4.236-18.545c-2.609-5.757-5.629-9.537-10.531-12.889   c-4.678-3.199-21.498-9.836-23.038-10.441c-3.347,16.107-9.992,33.39-19.178,48.08C54.814,109.964,48.169,92.681,44.823,76.574   L44.823,76.574z M85.048,41.894l-0.171-0.086l0.12-1.01C85.013,41.175,85.03,41.535,85.048,41.894z M85.048,41.894l-0.171-0.086   l0.12-1.01C85.013,41.175,85.03,41.535,85.048,41.894z M85.048,41.894l-0.171-0.086l0.12-1.01   C85.013,41.175,85.03,41.535,85.048,41.894z M85.048,41.894l-0.171-0.086l0.12-1.01C85.013,41.175,85.03,41.535,85.048,41.894z    M92.56,46.874c0,6.452-3.508,12.356-6.965,15.95c-3.166,10.713-11.74,18.072-21.512,18.346   C54.14,80.897,45.566,73.538,42.4,62.824c-3.457-3.594-6.965-9.498-6.965-15.95c0-1.917,0.068-3.765,0.77-5.545   c0.376-0.941,0.924-1.763,1.609-2.413v-0.65C34.191,22.59,38.122,21.7,39.576,19.8c-2.567-3.97-1.848-9.31,3.012-14.41   c-0.376,4.295,2.978,1.677,14.735-3.919C69.08-4.125,91.688,7.068,88.659,21.067c4.022,3.919,3.423,11.056,1.694,17.49   c-0.017,0.171-0.017,0.342-0.034,0.496c0.616,0.616,1.129,1.386,1.489,2.276C92.509,43.109,92.56,44.958,92.56,46.874z    M87.426,46.874c0-0.531,0-0.993-0.017-1.403c-0.993,0.359-2.276-0.24-2.31-1.557c-0.017-0.65-0.034-1.318-0.051-2.019   c-0.017-0.359-0.034-0.719-0.051-1.095c-0.257-5.579-0.873-11.997-2.31-16.001c-5.784,9.447-25.927,3.217-35.494,0.222   c-1.01,5.271-2.738,14.41-3.577,20.228c-0.222,1.557-2.191,1.968-3.029,0.787c-0.017,0.257-0.017,0.548-0.017,0.839   c0,5.168,3.183,10.114,5.921,12.767l0.496,0.496l0.188,0.667c2.396,8.882,9.19,15.009,16.908,15.248   c7.547-0.24,14.341-6.366,16.754-15.248l0.171-0.667l0.513-0.496C84.243,56.989,87.426,52.043,87.426,46.874z"/>
</g>
<g id="Layer_1">
</g>
</svg>