<svg xmlns="http://www.w3.org/2000/svg" xmlns:xlink="http://www.w3.org/1999/xlink" version="1.1" id="_x3C_Layer_x3E_" x="0px" y="0px" width="32px" height="32px" viewBox="0 0 32 32" enable-background="new 0 0 32 32" xml:space="preserve">
<g id="health_and_safety_x2C__care_x2C__health_insurance_1_">
	<g>
		<g id="XMLID_554_">
			<path id="XMLID_628_" fill="none" stroke="#ffffff" stroke-linecap="round" stroke-linejoin="round" stroke-miterlimit="10" d="     M8.5,30.5v-4.038L4.938,23.67c-0.369-0.294-0.873-0.885-1.056-1.319L1.5,16.813v-4.819c0-0.604,2.102-1.509,2.705,0.904     c0.2,0.804,0.242,1.494,0.282,2.102"/>
			<path id="XMLID_626_" fill="none" stroke="#ffffff" stroke-linecap="round" stroke-linejoin="round" stroke-miterlimit="10" d="     M10.583,20.084c2.229,0.561,3.917,2.564,3.917,4.953V30.5"/>
			<path id="XMLID_624_" fill="none" stroke="#ffffff" stroke-linecap="round" stroke-linejoin="round" stroke-miterlimit="10" d="     M8.762,21.917l-4.387-4.38c0.302-0.302,1.812-1.811,3.942,0.32l2.255,2.25"/>
			<g id="XMLID_557_">
				<path id="XMLID_622_" fill="none" stroke="#ffffff" stroke-linecap="round" stroke-linejoin="round" stroke-miterlimit="10" d="      M23.5,30.5v-4.038l3.563-2.792c0.369-0.294,0.873-0.885,1.056-1.319l2.382-5.537v-4.819c0-0.604-2.102-1.509-2.705,0.904      c-0.2,0.804-0.242,1.494-0.282,2.102"/>
				<path id="XMLID_560_" fill="none" stroke="#ffffff" stroke-linecap="round" stroke-linejoin="round" stroke-miterlimit="10" d="      M21.417,20.084c-2.229,0.561-3.917,2.564-3.917,4.953V30.5"/>
				<path id="XMLID_558_" fill="none" stroke="#ffffff" stroke-linecap="round" stroke-linejoin="round" stroke-miterlimit="10" d="      M23.238,21.917l4.387-4.38c-0.302-0.302-1.812-1.811-3.942,0.32l-2.255,2.25"/>
			</g>
			<path id="XMLID_555_" fill="none" stroke="#ffffff" stroke-linecap="round" stroke-linejoin="round" stroke-miterlimit="10" d="     M23.238,21.917l4.387-4.38c-0.302-0.302-1.812-1.811-3.942,0.32l-2.255,2.25"/>
		</g>
		<g>
			<path id="XMLID_546_" fill="none" stroke="#ffffff" stroke-linecap="round" stroke-linejoin="round" stroke-miterlimit="10" d="     M16,1.5c1.834,1.895,4.591,2.57,7.093,1.736L23.5,3.1v9.224c0,1.472-1.002,3.344-2.226,4.16L16.002,20l-5.274-3.516     C9.502,15.668,8.5,13.796,8.5,12.324V3.1"/>
			<path id="XMLID_537_" fill="none" stroke="#ffffff" stroke-linecap="round" stroke-linejoin="round" stroke-miterlimit="10" d="     M10.499,3.563C12.521,3.734,14.55,2.999,16,1.5l0,0"/>
			<path id="XMLID_520_" fill="none" stroke="#ffffff" stroke-linecap="round" stroke-linejoin="round" stroke-miterlimit="10" d="     M16,4.088c-1.619,1.079-3.562,1.604-5.5,1.477v6.759c0,0.883,0.602,2.007,1.336,2.497l4.165,2.775l1.534-1.023l2.629-1.753     c0.735-0.49,1.336-1.613,1.336-2.496V5.565C19.568,5.686,17.619,5.166,16,4.088z"/>
		</g>
		<g id="XMLID_515_">
			
				<rect id="XMLID_518_" x="13.5" y="9.5" fill="none" stroke="#ffffff" stroke-linecap="round" stroke-linejoin="round" stroke-miterlimit="10" width="5" height="1"/>
			
				<rect id="XMLID_516_" x="15.5" y="7.5" fill="none" stroke="#ffffff" stroke-linecap="round" stroke-linejoin="round" stroke-miterlimit="10" width="1" height="5"/>
		</g>
	</g>
</g>
</svg>