<?xml version="1.0" encoding="utf-8"?>
<!-- Generator: Adobe Illustrator 16.0.0, SVG Export Plug-In . SVG Version: 6.00 Build 0)  -->
<!DOCTYPE svg PUBLIC "-//W3C//DTD SVG 1.1//EN" "http://www.w3.org/Graphics/SVG/1.1/DTD/svg11.dtd">
<svg version="1.1" id="Layer_1" xmlns="http://www.w3.org/2000/svg" xmlns:xlink="http://www.w3.org/1999/xlink" x="0px" y="0px"
	 width="700px" height="700px" viewBox="0 0 700 700" enable-background="new 0 0 700 700" xml:space="preserve">
<path fill="#2C68B3" d="M344.463,75.081c-2.302,0.205-4.501,1.031-6.368,2.391L146.979,217.635c-3.284,2.422-5.208,6.27-5.177,10.35
	v344.043c0.022,3.568,1.538,6.959,4.182,9.358l57.333,50.97c2.524,2.293,5.861,3.476,9.265,3.288
	c3.404-0.187,6.595-1.729,8.852-4.283l35.039-40.021l35.039,40.021h-0.004c2.422,2.741,5.902,4.311,9.559,4.311
	s7.137-1.569,9.554-4.311l35.039-40.021l35.039,40.021c2.417,2.741,5.896,4.311,9.554,4.311s7.137-1.569,9.559-4.311l35.039-40.021
	l35.039,40.021h-0.005c2.259,2.555,5.449,4.097,8.853,4.283c3.403,0.188,6.741-0.995,9.265-3.288l57.333-50.97
	c2.645-2.399,4.159-5.79,4.182-9.358V87.821c0-7.034-5.706-12.74-12.74-12.74H345.658C345.258,75.063,344.863,75.063,344.463,75.081
	L344.463,75.081z M358.599,100.565h165.44v465.688l-43.396,38.622l-36.235-41.408c-2.422-2.742-5.901-4.315-9.559-4.315
	c-3.652,0-7.137,1.573-9.554,4.315l-35.039,40.021l-35.039-40.021c-2.417-2.742-5.897-4.315-9.554-4.315s-7.136,1.573-9.554,4.315
	l-35.039,40.021l-35.04-40.021c-2.417-2.742-5.901-4.315-9.554-4.315c-3.657,0-7.137,1.573-9.559,4.315l-36.235,41.408
	l-43.397-38.622V239.329l238.896-62.915v0.004c5.031-1.355,8.728-5.635,9.341-10.807s-1.981-10.194-6.554-12.687
	c-16.674-8.958-30.564-12.443-38.026-18.317c-6.813-5.364-11.553-12.589-12.345-34.048L358.599,100.565z M334.115,111.914
	c2.71,20.53,10.225,34.244,21.103,42.807c3.577,2.817,7.279,4.217,10.949,6.172l-153.883,40.416l121.837-89.395H334.115z
	 M229.797,266.218h-0.004c-3.404,0.12-6.626,1.6-8.932,4.106c-2.311,2.506-3.524,5.834-3.364,9.238
	c0.16,3.409,1.676,6.608,4.212,8.888c2.533,2.28,5.875,3.453,9.279,3.253h229.34c3.408,0.049,6.696-1.275,9.123-3.671
	c2.431-2.395,3.799-5.661,3.799-9.074c0-3.409-1.368-6.679-3.799-9.074c-2.427-2.395-5.715-3.715-9.123-3.666h-229.34
	c-0.396-0.018-0.795-0.018-1.195,0H229.797z M229.797,329.928l-0.004,0.004c-3.409,0.115-6.63,1.591-8.941,4.097
	c-2.311,2.511-3.524,5.839-3.364,9.248c0.16,3.408,1.676,6.607,4.212,8.892c2.538,2.279,5.884,3.448,9.288,3.244h229.34
	c3.412,0.049,6.701-1.271,9.132-3.666c2.431-2.396,3.799-5.666,3.799-9.074c0-3.413-1.368-6.684-3.799-9.079
	s-5.72-3.715-9.132-3.666h-229.34c-0.396-0.018-0.795-0.018-1.195,0H229.797z M229.797,393.638l-0.004,0.005
	c-3.404,0.12-6.621,1.6-8.932,4.105c-2.306,2.507-3.52,5.835-3.359,9.239c0.161,3.403,1.676,6.603,4.208,8.887
	c2.538,2.28,5.875,3.448,9.279,3.249h165.634c3.409,0.049,6.697-1.271,9.123-3.666c2.427-2.396,3.795-5.666,3.795-9.074
	s-1.368-6.68-3.795-9.074c-2.426-2.396-5.714-3.715-9.123-3.671H230.988c-0.396-0.018-0.795-0.018-1.195,0H229.797z
	 M229.797,457.348l-0.004,0.005c-3.404,0.12-6.621,1.6-8.932,4.105c-2.306,2.507-3.52,5.835-3.359,9.239
	c0.16,3.408,1.676,6.607,4.208,8.887c2.538,2.28,5.875,3.453,9.279,3.253h165.634c3.409,0.045,6.697-1.275,9.123-3.67
	c2.427-2.396,3.795-5.662,3.795-9.074c0-3.408-1.368-6.68-3.795-9.07c-2.426-2.395-5.714-3.719-9.123-3.67H230.988
	c-0.396-0.019-0.795-0.019-1.195,0L229.797,457.348z"/>
</svg>
