<svg width="39" height="47" viewBox="0 0 39 47" fill="none" xmlns="http://www.w3.org/2000/svg">
<path d="M13 43H31C31.6 43 32 42.6 32 42V39.5C32 34.3 27.7 30 22.5 30H21.5C16.3 30 12 34.3 12 39.5V42C12 42.6 12.4 43 13 43ZM14 39.5C14 35.4 17.4 32 21.5 32H22.5C26.6 32 30 35.4 30 39.5V41H14V39.5Z" fill="white"/>
<path d="M38 0H5C4.4 0 4 0.4 4 1V7H1C0.4 7 0 7.4 0 8V13C0 13.6 0.4 14 1 14H4V19H1C0.4 19 0 19.4 0 20V25C0 25.6 0.4 26 1 26H4V32H1C0.4 32 0 32.4 0 33V38C0 38.6 0.4 39 1 39H4V46C4 46.6 4.4 47 5 47H38C38.6 47 39 46.6 39 46V1C39 0.4 38.6 0 38 0ZM2 9H5H8V12H5H2V9ZM2 21H5H8V24H5H2V21ZM2 34H5H8V37H5H2V34ZM37 45H6V39H9C9.6 39 10 38.6 10 38V33C10 32.4 9.6 32 9 32H6V26H9C9.6 26 10 25.6 10 25V20C10 19.4 9.6 19 9 19H6V14H9C9.6 14 10 13.6 10 13V8C10 7.4 9.6 7 9 7H6V2H37V45Z" fill="white"/>
<path d="M22 29C25.3 29 28 26.3 28 23C28 19.7 25.3 17 22 17C18.7 17 16 19.7 16 23C16 26.3 18.7 29 22 29ZM22 19C24.2 19 26 20.8 26 23C26 25.2 24.2 27 22 27C19.8 27 18 25.2 18 23C18 20.8 19.8 19 22 19Z" fill="white"/>
<path d="M17 9C17 8.4 17.4 8 18 8H21V5C21 4.4 21.4 4 22 4C22.6 4 23 4.4 23 5V8H26C26.6 8 27 8.4 27 9C27 9.6 26.6 10 26 10H23V13C23 13.6 22.6 14 22 14C21.4 14 21 13.6 21 13V10H18C17.4 10 17 9.6 17 9Z" fill="white"/>
</svg>
