<svg xmlns="http://www.w3.org/2000/svg" width="60" height="60" viewBox="0 0 60 60" fill="none">
<path d="M55 33H18V32C18 30.35 16.65 29 15 29H7C5.35 29 4 30.35 4 32V33.1C3.05 33.29 2.17 33.76 1.46 34.46C0.52 35.41 0 36.67 0 37.99C0 40.4 1.72 42.42 4 42.89V54.18C2.84 54.59 2 55.69 2 57C2 58.65 3.35 60 5 60C6.65 60 8 58.65 8 57C8 55.7 7.16 54.6 6 54.18V52H54V54.18C52.84 54.59 52 55.69 52 57C52 58.65 53.35 60 55 60C56.65 60 58 58.65 58 57C58 55.7 57.16 54.6 56 54.18V42.89C56.95 42.7 57.83 42.23 58.54 41.53C59.48 40.58 60 39.32 60 38C60 35.24 57.76 33 55 33ZM21 35H51V45H21V35ZM6 32C6 31.45 6.45 31 7 31H15C15.55 31 16 31.45 16 32V33H6V32ZM5 58C4.45 58 4 57.55 4 57C4 56.45 4.45 56 5 56C5.55 56 6 56.45 6 57C6 57.55 5.55 58 5 58ZM5 41C3.35 41 2 39.65 2 38C2 37.21 2.31 36.45 2.87 35.88C3.45 35.31 4.2 35 5 35H19V41H5ZM6 50V43H19V46C19 46.55 19.45 47 20 47H52C52.55 47 53 46.55 53 46V43H54V50H6ZM55 58C54.45 58 54 57.55 54 57C54 56.45 54.45 56 55 56C55.55 56 56 56.45 56 57C56 57.55 55.55 58 55 58ZM57.13 40.12C56.55 40.69 55.8 41 55 41H53V35H55C56.65 35 58 36.35 58 38C58 38.79 57.69 39.55 57.13 40.12Z" fill="#749d6e"/>
<path d="M0.15032 5.53001C0.33032 5.82001 0.65032 6.00001 1.00032 6.00001H27.0003V11H22.0003C21.5903 11 21.2203 11.25 21.0703 11.63L19.0703 16.63C18.9503 16.94 18.9803 17.29 19.1703 17.56C19.3603 17.83 19.6703 18 20.0003 18H21.0003C21.0003 19.65 22.3503 21 24.0003 21C25.6503 21 27.0003 19.65 27.0003 18C27.0003 19.65 28.3503 21 30.0003 21C31.6503 21 33.0003 19.65 33.0003 18C33.0003 19.65 34.3503 21 36.0003 21C37.6503 21 39.0003 19.65 39.0003 18H40.0003C40.3303 18 40.6403 17.83 40.8303 17.56C41.0203 17.29 41.0503 16.94 40.9303 16.63L38.9303 11.63C38.7803 11.25 38.4103 11 38.0003 11H33.0003V6.00001H59.0003C59.3503 6.00001 59.6703 5.82001 59.8503 5.53001C60.0303 5.24001 60.0503 4.87001 59.8903 4.56001L57.8903 0.56001C57.7203 0.22001 57.3703 0.0100098 57.0003 0.0100098H3.00032C2.62032 0.0100098 2.27032 0.22001 2.11032 0.56001L0.11032 4.56001C-0.0396799 4.87001 -0.0296797 5.24001 0.15032 5.53001ZM24.0003 19C23.4503 19 23.0003 18.55 23.0003 18H25.0003C25.0003 18.55 24.5503 19 24.0003 19ZM30.0003 19C29.4503 19 29.0003 18.55 29.0003 18H31.0003C31.0003 18.55 30.5503 19 30.0003 19ZM36.0003 19C35.4503 19 35.0003 18.55 35.0003 18H37.0003C37.0003 18.55 36.5503 19 36.0003 19ZM37.3203 13L38.5203 16H21.4703L22.6703 13H37.3203ZM29.0003 11V6.00001H31.0003V11H29.0003ZM3.62032 2.00001H56.3803L57.3803 4.00001H2.62032L3.62032 2.00001Z" fill="#749d6e"/>
<path d="M37 36H35V39H32V41H35V44H37V41H40V39H37V36Z" fill="#749d6e"/>
</svg>