<svg width="93" height="93" viewBox="0 0 93 93" fill="none" xmlns="http://www.w3.org/2000/svg">
<path d="M47.143 28.893C47.143 28.5502 47.279 28.2215 47.5213 27.9791C47.7636 27.7366 48.0922 27.6003 48.435 27.6H67.442C67.7846 27.6 68.1132 27.7361 68.3555 27.9784C68.5978 28.2207 68.734 28.5493 68.734 28.892C68.734 29.2347 68.5978 29.5633 68.3555 29.8056C68.1132 30.0479 67.7846 30.184 67.442 30.184H48.435C48.0926 30.1837 47.7642 30.0477 47.522 29.8056C47.2798 29.5636 47.1435 29.2354 47.143 28.893ZM48.435 25.444H62.546C62.8886 25.444 63.2172 25.3079 63.4595 25.0656C63.7018 24.8233 63.838 24.4947 63.838 24.152C63.838 23.8093 63.7018 23.4807 63.4595 23.2384C63.2172 22.9961 62.8886 22.86 62.546 22.86H48.435C48.0923 22.86 47.7637 22.9961 47.5214 23.2384C47.2791 23.4807 47.143 23.8093 47.143 24.152C47.143 24.4947 47.2791 24.8233 47.5214 25.0656C47.7637 25.3079 48.0923 25.444 48.435 25.444ZM48.435 20.703H58.994C59.1636 20.703 59.3316 20.6696 59.4884 20.6046C59.6451 20.5397 59.7876 20.4445 59.9075 20.3246C60.0275 20.2046 60.1227 20.0622 60.1876 19.9054C60.2525 19.7487 60.286 19.5807 60.286 19.411C60.286 19.2413 60.2525 19.0733 60.1876 18.9166C60.1227 18.7598 60.0275 18.6174 59.9075 18.4974C59.7876 18.3774 59.6451 18.2823 59.4884 18.2173C59.3316 18.1524 59.1636 18.119 58.994 18.119H48.435C48.0923 18.119 47.7637 18.2551 47.5214 18.4974C47.2791 18.7397 47.143 19.0683 47.143 19.411C47.143 19.7537 47.2791 20.0823 47.5214 20.3246C47.7637 20.5669 48.0923 20.703 48.435 20.703ZM25.481 37.1C25.4812 37.4426 25.6174 37.771 25.8597 38.0133C26.1019 38.2555 26.4304 38.3917 26.773 38.392H73.324C73.6666 38.392 73.9952 38.2559 74.2375 38.0136C74.4798 37.7713 74.616 37.4427 74.616 37.1C74.616 36.7573 74.4798 36.4287 74.2375 36.1864C73.9952 35.9441 73.6666 35.808 73.324 35.808H26.773C26.4304 35.8083 26.1019 35.9445 25.8597 36.1867C25.6174 36.4289 25.4812 36.7574 25.481 37.1ZM73.324 65.07H26.773C26.4303 65.07 26.1017 65.2061 25.8594 65.4484C25.6171 65.6907 25.481 66.0193 25.481 66.362C25.481 66.7047 25.6171 67.0333 25.8594 67.2756C26.1017 67.5179 26.4303 67.654 26.773 67.654H73.324C73.6666 67.654 73.9952 67.5179 74.2375 67.2756C74.4798 67.0333 74.616 66.7047 74.616 66.362C74.616 66.0193 74.4798 65.6907 74.2375 65.4484C73.9952 65.2061 73.6666 65.07 73.324 65.07ZM25.854 31.47C25.6843 31.47 25.5163 31.4366 25.3595 31.3716C25.2028 31.3067 25.0604 31.2115 24.9404 31.0916C24.8204 30.9716 24.7252 30.8292 24.6603 30.6724C24.5954 30.5157 24.562 30.3477 24.562 30.178V25.4C24.5569 24.9452 24.6499 24.4947 24.8347 24.0791C25.0195 23.6636 25.2918 23.2928 25.633 22.992C26.8724 21.863 28.2778 20.9308 29.8 20.228C30.0385 20.1269 30.3019 20.0998 30.556 20.1502C30.8101 20.2007 31.0432 20.3264 31.225 20.511C31.6271 20.96 32.1195 21.3191 32.6698 21.565C33.2202 21.8109 33.8162 21.938 34.419 21.938C35.0217 21.938 35.6177 21.8109 36.1681 21.565C36.7184 21.3191 37.2108 20.96 37.613 20.511C37.7948 20.3265 38.0279 20.2009 38.282 20.1504C38.536 20.1 38.7994 20.127 39.038 20.228C40.5607 20.9303 41.9664 21.8626 43.206 22.992C43.5473 23.2927 43.8197 23.6634 44.0047 24.079C44.1897 24.4946 44.2829 24.9451 44.278 25.4V30.175C44.278 30.5177 44.1418 30.8463 43.8995 31.0886C43.6572 31.3309 43.3286 31.467 42.986 31.467L25.854 31.47ZM27.145 28.886H41.7V25.4C41.7037 25.3071 41.686 25.2145 41.6482 25.1295C41.6104 25.0445 41.5535 24.9694 41.482 24.91C40.6482 24.1604 39.7336 23.5061 38.755 22.959C37.5378 23.9684 36.0062 24.5209 34.425 24.5209C32.8437 24.5209 31.3121 23.9684 30.095 22.959C29.1163 23.5061 28.2017 24.1604 27.368 24.91C27.2964 24.9694 27.2395 25.0445 27.2017 25.1295C27.1639 25.2145 27.1462 25.3071 27.15 25.4L27.145 28.886ZM29.319 15.478C29.0381 14.574 28.9668 13.618 29.1104 12.6823C29.2541 11.7467 29.6089 10.8561 30.148 10.078C30.6642 9.42545 31.3232 8.89993 32.0743 8.54182C32.8253 8.1837 33.6485 8.00251 34.4805 8.01216C35.3125 8.02182 36.1313 8.22207 36.8738 8.59752C37.6164 8.97297 38.263 9.51364 38.764 10.178C39.3019 10.9875 39.6428 11.9119 39.7591 12.8769C39.8755 13.8419 39.7641 14.8208 39.434 15.735C38.496 18.296 36.577 19.871 34.41 19.871H34.31C32.066 19.814 30.154 18.131 29.319 15.475V15.478ZM31.783 14.703C32.276 16.271 33.266 17.261 34.366 17.286C35.448 17.307 36.439 16.399 37.009 14.845C37.1974 14.3214 37.2627 13.7615 37.1997 13.2086C37.1368 12.6557 36.9473 12.1248 36.646 11.657C36.3804 11.3297 36.0459 11.0649 35.6663 10.8815C35.2868 10.6981 34.8715 10.6006 34.45 10.5959C34.0285 10.5912 33.6111 10.6795 33.2276 10.8544C32.844 11.0293 32.5038 11.2866 32.231 11.608C31.9304 12.0573 31.7342 12.5682 31.6566 13.1032C31.5791 13.6382 31.6223 14.1838 31.783 14.7V14.703ZM93 43.459V56.185C92.9997 56.3183 92.9792 56.4509 92.939 56.578C90.93 62.866 87.445 64.759 82.409 66.546V84.346C82.409 84.6887 82.2728 85.0173 82.0305 85.2596C81.7882 85.5019 81.4596 85.638 81.117 85.638H63.917L11.7 92.2C11.5315 92.2222 11.3603 92.2108 11.1963 92.1664C11.0323 92.122 10.8788 92.0455 10.7445 91.9414C10.6103 91.8372 10.4981 91.7074 10.4144 91.5596C10.3307 91.4117 10.2772 91.2487 10.257 91.08L0.00995979 9.44999C-0.0324741 9.11014 0.0617675 8.76735 0.271971 8.49695C0.482175 8.22655 0.79114 8.05068 1.13096 8.00799L17.688 5.92899V2.08399C17.688 1.74133 17.8241 1.41271 18.0664 1.17041C18.3087 0.928113 18.6373 0.791992 18.98 0.791992H69.18C69.3496 0.792091 69.5175 0.825613 69.6742 0.890644C69.8308 0.955675 69.9731 1.05094 70.093 1.17099L82.031 13.105C82.273 13.3472 82.4089 13.6756 82.409 14.018V37.7H84.347C84.522 37.6996 84.6952 37.7348 84.8562 37.8036C85.0171 37.8724 85.1623 37.9732 85.283 38.1C87.011 40.1346 89.3413 41.5669 91.937 42.19C92.2347 42.2436 92.5041 42.4 92.6984 42.6319C92.8926 42.8638 92.9994 43.1565 93 43.459ZM70.475 12.727H78L70.475 5.19999V12.727ZM43.175 85.643H18.98C18.6373 85.643 18.3087 85.5069 18.0664 85.2646C17.8241 85.0223 17.688 84.6937 17.688 84.351V8.53299L2.73396 10.41L12.66 89.473L43.175 85.643ZM79.827 83.059V66.546C75.972 65.179 73.027 63.746 70.957 60.334H26.773C26.6003 60.3388 26.4285 60.3089 26.2676 60.2462C26.1067 60.1835 25.96 60.0891 25.8362 59.9687C25.7124 59.8483 25.614 59.7043 25.5468 59.5452C25.4796 59.3861 25.445 59.2152 25.445 59.0425C25.445 58.8698 25.4796 58.6989 25.5468 58.5398C25.614 58.3807 25.7124 58.2367 25.8362 58.1163C25.96 57.9959 26.1067 57.9015 26.2676 57.8388C26.4285 57.776 26.6003 57.7462 26.773 57.751H69.707C69.564 57.378 69.426 56.987 69.296 56.578C69.255 56.451 69.234 56.3184 69.234 56.185V53.019H26.773C26.4303 53.019 26.1017 52.8829 25.8594 52.6406C25.6171 52.3983 25.481 52.0697 25.481 51.727C25.481 51.3843 25.6171 51.0557 25.8594 50.8134C26.1017 50.5711 26.4303 50.435 26.773 50.435H69.234V45.7H26.773C26.6003 45.7048 26.4285 45.6749 26.2676 45.6122C26.1067 45.5495 25.96 45.4551 25.8362 45.3347C25.7124 45.2143 25.614 45.0703 25.5468 44.9112C25.4796 44.7521 25.445 44.5812 25.445 44.4085C25.445 44.2358 25.4796 44.0649 25.5468 43.9058C25.614 43.7467 25.7124 43.6027 25.8362 43.4823C25.96 43.3619 26.1067 43.2675 26.2676 43.2048C26.4285 43.142 26.6003 43.1122 26.773 43.117H69.28C69.3441 42.8814 69.4737 42.6689 69.6537 42.5039C69.8337 42.339 70.0567 42.2284 70.297 42.185C72.8927 41.5621 75.223 40.1297 76.951 38.095C77.0719 37.9683 77.2173 37.8675 77.3784 37.7987C77.5394 37.73 77.7128 37.6947 77.888 37.695H79.826V15.31H69.183C68.8403 15.31 68.5117 15.1739 68.2694 14.9316C68.0271 14.6893 67.891 14.3607 67.891 14.018V3.37599H20.271V83.059H79.827ZM90.417 44.483C87.889 43.6712 85.6112 42.2253 83.801 40.283H78.434C76.6235 42.2251 74.3458 43.671 71.818 44.483V55.983C73.477 61.014 76.09 62.51 81.118 64.264C86.145 62.51 88.759 61.014 90.418 55.983L90.417 44.483ZM82.5 44.3C83.0904 44.3005 83.6566 44.5353 84.0741 44.9529C84.4916 45.3704 84.7264 45.9365 84.727 46.527V47.784H85.984C86.5744 47.7848 87.1403 48.0197 87.5578 48.4371C87.9753 48.8546 88.2102 49.4206 88.211 50.011V52.775C88.2099 53.3653 87.9747 53.9311 87.557 54.3482C87.1394 54.7653 86.5733 54.9997 85.983 55H84.726V56.257C84.7265 56.848 84.4923 57.415 84.0749 57.8334C83.6574 58.2517 83.091 58.4872 82.5 58.488H79.735C79.1447 58.4872 78.5788 58.2523 78.1615 57.8348C77.7442 57.4173 77.5095 56.8513 77.509 56.261V55H76.251C75.6605 54.9995 75.0943 54.7647 74.6768 54.3471C74.2593 53.9296 74.0245 53.3635 74.024 52.773V50.013C74.0248 49.4226 74.2596 48.8566 74.6771 48.4391C75.0946 48.0217 75.6606 47.7868 76.251 47.786H77.509V46.529C77.509 45.9383 77.7434 45.3718 78.1608 44.9539C78.5781 44.536 79.1443 44.3008 79.735 44.3H82.5ZM82.144 49.076V46.885H80.092V49.078C80.0921 49.2477 80.0588 49.4158 79.9939 49.5726C79.929 49.7294 79.8338 49.8719 79.7138 49.9919C79.5938 50.1119 79.4514 50.207 79.2945 50.2719C79.1377 50.3368 78.9697 50.3701 78.8 50.37H76.607V52.42H78.8C78.9696 52.42 79.1376 52.4534 79.2944 52.5183C79.4511 52.5833 79.5936 52.6784 79.7135 52.7984C79.8335 52.9184 79.9287 53.0608 79.9936 53.2176C80.0585 53.3743 80.092 53.5423 80.092 53.712V55.905H82.143V53.712C82.143 53.3695 82.2789 53.041 82.521 52.7988C82.7631 52.5565 83.0915 52.4203 83.434 52.42H85.627V50.37H83.434C83.2643 50.37 83.0964 50.3366 82.9397 50.2716C82.783 50.2067 82.6406 50.1115 82.5207 49.9915C82.4008 49.8715 82.3058 49.7291 82.2409 49.5723C82.1761 49.4156 82.1428 49.2476 82.143 49.078L82.144 49.076Z" fill="white"/>
</svg>
