<svg width="174" height="208" viewBox="0 0 174 208" fill="none" xmlns="http://www.w3.org/2000/svg">
<path d="M76.0423 154.986C76.0431 155.413 75.96 155.836 75.7975 156.23C75.6351 156.625 75.3966 156.983 75.0955 157.286C74.7945 157.588 74.4368 157.828 74.043 157.992C73.6492 158.156 73.227 158.241 72.8003 158.242C72.3737 158.243 71.9511 158.16 71.5566 157.997C71.1621 157.835 70.8035 157.596 70.5012 157.295C70.199 156.994 69.9589 156.636 69.7949 156.243C69.6308 155.849 69.5459 155.426 69.545 155V154.986C69.545 154.124 69.8873 153.298 70.4965 152.688C71.1057 152.079 71.932 151.737 72.7936 151.737C73.6552 151.737 74.4815 152.079 75.0908 152.688C75.7 153.298 76.0423 154.124 76.0423 154.986ZM72.7936 164.826C72.3669 164.826 71.9444 164.909 71.5501 165.073C71.1558 165.236 70.7976 165.475 70.4958 165.777C70.1941 166.079 69.9548 166.437 69.7917 166.831C69.6285 167.226 69.5447 167.648 69.545 168.075V168.089C69.5477 168.731 69.7407 169.359 70.0998 169.891C70.4589 170.424 70.9678 170.839 71.5623 171.082C72.1568 171.326 72.8101 171.387 73.4397 171.26C74.0693 171.132 74.6469 170.82 75.0994 170.364C75.552 169.908 75.8591 169.328 75.9821 168.697C76.1051 168.067 76.0384 167.414 75.7905 166.821C75.5425 166.228 75.1243 165.722 74.5889 165.367C74.0535 165.012 73.4249 164.824 72.7825 164.826H72.7936ZM72.7936 177.915C71.9324 177.912 71.1053 178.251 70.494 178.858C69.8827 179.465 69.5374 180.289 69.5338 181.151V181.167C69.5369 181.809 69.7301 182.435 70.0889 182.967C70.4477 183.5 70.9562 183.914 71.5501 184.157C72.1439 184.401 72.7966 184.463 73.4258 184.336C74.0549 184.209 74.6323 183.898 75.0851 183.443C75.5378 182.988 75.8457 182.409 75.9698 181.779C76.0939 181.149 76.0286 180.497 75.7823 179.904C75.5359 179.311 75.1196 178.804 74.5857 178.448C74.0518 178.092 73.4243 177.902 72.7825 177.902L72.7936 177.915ZM155.295 168.522H142.79C142.169 168.523 141.561 168.701 141.038 169.036C140.515 169.371 140.099 169.85 139.839 170.414L137.424 175.667L132.675 160.738C132.47 160.094 132.07 159.53 131.529 159.124C130.988 158.718 130.335 158.491 129.659 158.475C128.983 158.458 128.319 158.653 127.76 159.032C127.2 159.411 126.772 159.955 126.536 160.588L119.804 178.624L112.873 150.189C112.707 149.51 112.327 148.901 111.788 148.455C111.249 148.009 110.581 147.749 109.882 147.713C109.184 147.678 108.492 147.869 107.911 148.257C107.329 148.646 106.889 149.212 106.655 149.872L98.6553 172.429H81.1846C80.3609 172.482 79.5882 172.847 79.0235 173.449C78.4589 174.052 78.1447 174.846 78.1447 175.672C78.1447 176.498 78.4589 177.292 79.0235 177.895C79.5882 178.497 80.3609 178.862 81.1846 178.915H100.949C101.62 178.915 102.274 178.707 102.822 178.32C103.37 177.933 103.785 177.386 104.01 176.754L109.152 162.299L116.003 190.434C116.166 191.111 116.543 191.717 117.077 192.164C117.611 192.61 118.275 192.873 118.97 192.914C119.035 192.914 119.097 192.914 119.162 192.914C119.824 192.914 120.47 192.711 121.014 192.334C121.558 191.956 121.974 191.421 122.205 190.801L129.346 171.664L133.775 185.623C133.976 186.245 134.36 186.791 134.875 187.192C135.391 187.592 136.016 187.827 136.667 187.867C137.319 187.907 137.967 187.75 138.528 187.416C139.089 187.082 139.537 186.587 139.812 185.995L144.861 175.012H155.28C156.141 175.012 156.967 174.67 157.577 174.061C158.186 173.451 158.528 172.625 158.528 171.763C158.528 170.901 158.186 170.075 157.577 169.465C156.967 168.856 156.141 168.514 155.28 168.514L155.295 168.522ZM174 149.556V155.147C173.999 156.375 173.511 157.552 172.642 158.421C171.774 159.289 170.597 159.777 169.37 159.779H168.905C169.201 163.323 168.723 166.89 167.504 170.231C166.286 173.573 164.356 176.61 161.848 179.131L137.192 203.776C134.48 206.481 130.806 208 126.976 208C123.146 208 119.473 206.481 116.761 203.776L107.648 194.66H3.24864C2.38723 194.66 1.56127 194.317 0.95216 193.708C0.34305 193.099 0.000592239 192.273 0 191.411V136.224C0.00869764 132.896 0.830041 129.621 2.39259 126.684C3.95514 123.746 6.21157 121.235 8.96562 119.369C18.6132 112.282 30.1701 108.887 40.5375 106.622C40.8135 104.378 41.6518 102.24 42.9746 100.407C42.2904 99.6332 41.613 98.8281 40.9422 97.9917C37.3574 93.4372 34.2785 88.5062 31.7597 83.2858C29.5611 83.6639 27.2999 83.3838 25.2599 82.4807C23.2199 81.5775 21.4922 80.0917 20.2938 78.2096C19.0954 76.3276 18.4796 74.1333 18.5239 71.9024C18.5682 69.6715 19.2705 67.5034 20.5427 65.6705C20.4734 65.5497 20.404 65.4312 20.3437 65.3082C14.2041 55.0503 16.0196 40.3846 17.6182 27.4386C18.5438 19.9582 19.5008 12.2318 18.0654 8.94664C17.8739 8.50716 17.7819 8.03076 17.796 7.55156C17.8102 7.07235 17.9301 6.6022 18.1471 6.17478C18.3642 5.74736 18.6731 5.37324 19.0517 5.07921C19.4303 4.78518 19.8692 4.57853 20.337 4.47404C42.002 -0.331774 79.4675 -5.33885 93.2804 12.9362C96.8279 11.6568 100.594 11.0941 104.36 11.2807C108.127 11.4672 111.819 12.3993 115.223 14.0231C115.813 14.3032 116.306 14.755 116.636 15.3195C116.965 15.884 117.117 16.5349 117.071 17.1871C117.026 17.8393 116.784 18.4625 116.378 18.9753C115.973 19.488 115.422 19.8664 114.798 20.0611C111.334 21.1399 108.433 23.5395 106.724 26.7409C109.892 28.7324 112.63 31.3361 114.779 34.3996C116.927 37.463 118.443 40.9246 119.237 44.5814C120.031 48.2383 120.087 52.0168 119.402 55.6957C118.718 59.3746 117.306 62.8798 115.25 66.0059C116.436 67.8542 117.059 70.0078 117.043 72.2042C117.027 74.4005 116.373 76.5449 115.16 78.3759C113.947 80.2069 112.228 81.6456 110.212 82.5166C108.197 83.3876 105.971 83.6533 103.807 83.2813C100.715 89.7635 96.7183 95.7736 91.9367 101.131C93.0823 102.763 93.8367 104.636 94.1412 106.606C104.524 108.876 116.106 112.268 125.771 119.369C128.526 121.235 130.782 123.746 132.345 126.683C133.908 129.621 134.729 132.896 134.737 136.224V139.502C140.044 137.161 146.011 136.788 151.568 138.449C151.994 137.842 152.56 137.347 153.218 137.005C153.875 136.663 154.605 136.485 155.347 136.485H160.936C162.163 136.488 163.339 136.978 164.206 137.847C165.073 138.716 165.56 139.893 165.56 141.121V144.923H169.361C170.589 144.923 171.767 145.41 172.636 146.278C173.505 147.146 173.994 148.324 173.996 149.552L174 149.556ZM153.969 151.424H148.78V153.273H153.965C154.826 153.273 155.653 153.615 156.262 154.225C156.871 154.834 157.214 155.661 157.214 156.522V161.695H159.063V156.518C159.063 155.656 159.406 154.83 160.015 154.221C160.624 153.612 161.45 153.269 162.311 153.269H167.487V151.419H162.311C161.45 151.419 160.623 151.077 160.014 150.468C159.405 149.858 159.063 149.032 159.063 148.17V142.984H157.214V148.17C157.214 148.597 157.13 149.019 156.967 149.414C156.804 149.808 156.564 150.166 156.263 150.468C155.961 150.77 155.603 151.009 155.208 151.172C154.814 151.336 154.392 151.42 153.965 151.419L153.969 151.424ZM87.1565 105.732C86.4664 106.312 85.7658 106.864 85.0548 107.389L71.678 133.905L72.4627 134.327C75.9762 136.077 79.3178 138.152 82.4434 140.526C89.4057 118.798 88.5136 108.773 87.1565 105.732ZM52.3091 140.513C55.4313 138.146 58.7674 136.075 62.2741 134.327L63.0589 133.905L49.1588 106.351C48.667 105.956 48.1781 105.545 47.6922 105.119C47.2544 105.949 47.004 106.865 46.9588 107.802C46.6704 114.225 47.4239 124.93 52.3091 140.513ZM75.2038 112.496C72.7954 113.238 70.2897 113.615 67.7698 113.615C64.9058 113.603 62.0641 113.111 59.3631 112.159L67.3606 128.012L75.2038 112.496ZM110.351 70.7983C110.322 70.6954 110.29 70.597 110.255 70.4964C109.749 70.7553 109.226 70.9794 108.69 71.1673C108.079 73.0614 107.397 74.969 106.646 76.852C107.299 76.7233 107.918 76.4607 108.464 76.0807C109.011 75.7007 109.472 75.2117 109.82 74.6444C110.168 74.0771 110.394 73.4438 110.485 72.7845C110.576 72.1253 110.53 71.4543 110.349 70.8139L110.351 70.7983ZM25.9846 62.0767C26.0559 62.1909 26.1193 62.3097 26.1747 62.4323C26.2164 62.5244 26.276 62.6072 26.3501 62.6759C26.4242 62.7446 26.5113 62.7979 26.6062 62.8326L26.4273 63.3358C26.7871 62.9961 27.22 62.7436 27.6928 62.5978C34.2728 60.5605 40.2134 50.2288 41.4207 42.2295C41.5137 41.6129 41.7823 41.036 42.1942 40.5678C42.6061 40.0996 43.144 39.7599 43.7437 39.5892C44.3434 39.4185 44.9796 39.424 45.5763 39.6051C46.1729 39.7862 46.7049 40.1352 47.1086 40.6105C47.2042 40.721 47.3353 40.7948 47.4793 40.8191C47.6234 40.8434 47.7715 40.8167 47.898 40.7436C48.0245 40.6706 48.1217 40.5557 48.1726 40.4187C48.2236 40.2817 48.2253 40.1313 48.1773 39.9932C47.9399 39.317 47.9327 38.5813 48.1568 37.9006C48.3809 37.2199 48.8237 36.6323 49.4163 36.2294C50.0089 35.8266 50.718 35.6309 51.4333 35.673C52.1485 35.7151 52.8298 35.9925 53.3711 36.4621C57.0364 39.659 61.4998 41.8019 66.2862 42.6628C71.0726 43.5236 76.0028 43.0702 80.5519 41.3507C80.9668 41.195 81.4091 41.1257 81.8517 41.1472C82.2943 41.1687 82.7279 41.2805 83.1257 41.4757C83.5235 41.6709 83.8773 41.9454 84.1652 42.2823C84.4531 42.6192 84.6691 43.0114 84.8 43.4349C85.0621 44.2847 85.5129 45.0643 86.1186 45.7154C86.7243 46.3665 87.4693 46.8722 88.298 47.1948C89.1266 47.5173 90.0174 47.6484 90.9038 47.5782C91.7902 47.508 92.6492 47.2383 93.4168 46.7894C94.017 46.4373 94.7144 46.2873 95.4063 46.3614C96.0982 46.4356 96.748 46.73 97.26 47.2013C97.7721 47.6727 98.1193 48.296 98.2505 48.9795C98.3817 49.663 98.2901 50.3706 97.989 50.9981C97.4093 52.0533 97.0688 53.2231 96.9915 54.4246C96.9142 55.6261 97.1021 56.83 97.5419 57.9507C99.3927 61.4005 102.537 63.9744 106.284 65.1069C107.65 64.6826 108.84 63.8235 109.673 62.6604C111.408 60.0921 112.57 57.181 113.081 54.1243C113.593 51.0677 113.442 47.9367 112.638 44.9435C111.835 41.9503 110.398 39.1648 108.424 36.7755C106.451 34.3862 103.987 32.449 101.2 31.095C100.5 30.7554 99.9449 30.176 99.6359 29.4619C99.327 28.7478 99.2844 27.9466 99.5161 27.2038C100.639 23.598 102.744 20.3765 105.595 17.9008C101.441 17.4003 97.2307 18.0889 93.4526 19.8866C92.7173 20.2361 91.8776 20.2964 91.0999 20.0558C90.3222 19.8151 89.6632 19.291 89.2537 18.5873C85.1465 11.5363 76.0132 7.52883 62.1109 6.68127C49.6555 6.26704 37.1972 7.41652 25.0277 10.1028C25.4352 16.1627 25.1132 22.2495 24.0685 28.2325C22.5884 40.19 20.9138 53.742 25.9846 62.0767ZM25.4033 66.2161L25.4614 66.2921C25.451 66.2385 25.4421 66.1848 25.4346 66.1311L25.4033 66.2161ZM28.9135 76.8385C27.8828 74.2489 26.9706 71.6101 26.1903 68.9578C25.6384 69.5968 25.264 70.3696 25.1046 71.1989C24.9453 72.0281 25.0066 72.8847 25.2824 73.6828C25.5581 74.4809 26.0387 75.1925 26.676 75.7464C27.3133 76.3002 28.0849 76.6768 28.9135 76.8385ZM46.0175 93.9351C50.8312 99.9552 58.5135 107.129 67.7787 107.129C82.3741 107.129 95.7599 89.0935 102.103 70.398C97.4667 68.5341 93.7023 64.9923 91.5588 60.4778C90.7095 58.467 90.3487 56.2837 90.5058 54.1065C88.9424 54.1179 87.3916 53.8279 85.938 53.2523C83.4822 52.3019 81.3954 50.5894 79.984 48.3659C75.5096 49.6106 70.8247 49.9073 66.229 49.2373C61.6334 48.5673 57.2281 46.9452 53.2951 44.4748C52.5663 45.4509 51.5996 46.2238 50.4872 46.7198C49.3748 47.2159 48.1539 47.4184 46.9409 47.3082C44.6537 55.3186 39.2721 63.8792 32.5467 67.5579C35.3626 77.1098 39.9305 86.0544 46.0175 93.9351ZM6.50846 188.162H22.4185V155.992C22.4185 155.566 22.5025 155.143 22.6658 154.749C22.8291 154.355 23.0683 153.997 23.37 153.695C23.6717 153.393 24.0298 153.154 24.4239 152.99C24.8181 152.827 25.2405 152.743 25.6671 152.743C26.0938 152.743 26.5162 152.827 26.9103 152.99C27.3045 153.154 27.6626 153.393 27.9643 153.695C28.2659 153.997 28.5052 154.355 28.6685 154.749C28.8318 155.143 28.9158 155.566 28.9158 155.992V188.162H59.258V152.526C59.26 152.127 59.3358 151.731 59.4816 151.359L63.4278 141.101C59.5263 143.234 55.5466 145.632 53.6282 148.481C53.2921 148.982 52.8227 149.38 52.2729 149.63C51.7231 149.879 51.1146 149.97 50.5158 149.893C49.917 149.816 49.3517 149.573 48.8833 149.192C48.4149 148.811 48.062 148.307 47.8643 147.736C43.7561 136.673 41.271 125.073 40.4861 113.297C31.1829 115.415 21.0793 118.548 12.8179 124.613C10.8909 125.878 9.30645 127.6 8.20565 129.626C7.10484 131.651 6.52182 133.918 6.50846 136.224V188.162ZM157.258 174.52C159.05 172.72 160.437 170.559 161.327 168.18C161.2 168.18 161.07 168.2 160.938 168.2H155.349C154.122 168.199 152.945 167.71 152.077 166.843C151.21 165.975 150.721 164.799 150.718 163.571V159.77H146.918C145.69 159.768 144.513 159.28 143.645 158.412C142.777 157.543 142.288 156.366 142.287 155.138V149.547C142.29 148.321 142.779 147.145 143.647 146.278C144.515 145.411 145.691 144.924 146.918 144.923H150.473C147.293 143.815 143.865 143.626 140.583 144.377C137.301 145.129 134.297 146.791 131.915 149.172L129.279 151.808C128.67 152.417 127.843 152.759 126.982 152.759C126.12 152.759 125.294 152.417 124.685 151.808L122.044 149.172C119.288 146.416 115.71 144.633 111.85 144.094C107.99 143.556 104.06 144.29 100.656 146.186C97.2509 148.082 94.5568 151.037 92.9819 154.602C91.4069 158.168 91.0368 162.149 91.9277 165.944C92.1006 166.775 91.9417 167.641 91.4851 168.356C91.0286 169.071 90.3104 169.58 89.4841 169.773C88.6579 169.966 87.7889 169.828 87.0628 169.389C86.3367 168.949 85.8111 168.244 85.5981 167.422C84.3889 162.252 84.8967 156.829 87.0448 151.974C89.1929 147.119 92.8643 143.096 97.5029 140.514C102.142 137.933 107.495 136.934 112.752 137.668C118.009 138.402 122.884 140.829 126.639 144.583L126.976 144.923L127.314 144.583C127.616 144.283 127.927 143.992 128.24 143.711V136.224C128.227 133.916 127.643 131.648 126.542 129.621C125.44 127.594 123.854 125.871 121.926 124.606C113.769 118.615 103.816 115.486 94.6062 113.371C94.3938 121.88 91.7891 133.638 86.8815 147.738C86.6834 148.309 86.3302 148.813 85.8616 149.194C85.393 149.575 84.8276 149.817 84.2287 149.895C83.6299 149.972 83.0213 149.881 82.4714 149.632C81.9214 149.382 81.4518 148.984 81.1153 148.483C79.0718 145.437 74.6807 142.912 70.5444 140.676L65.7575 153.123V188.162H101.15L99.221 186.23C98.6117 185.62 98.2694 184.794 98.2694 183.932C98.2694 183.07 98.6117 182.243 99.221 181.634C99.8302 181.025 100.657 180.682 101.518 180.682C102.38 180.682 103.206 181.025 103.816 181.634L121.358 199.18C122.851 200.667 124.872 201.502 126.979 201.502C129.085 201.502 131.106 200.667 132.599 199.18L157.258 174.52Z" fill="white"/>
</svg>
