<svg width="80" height="80" viewBox="0 0 80 80" fill="none" xmlns="http://www.w3.org/2000/svg">
<path d="M4.66992 40.1338C4.66992 44.2578 8.0249 47.6133 12.1489 47.6133C16.2729 47.6133 19.6279 44.2578 19.6279 40.1338C19.6279 36.0098 16.2729 32.6553 12.1489 32.6553C8.0249 32.6553 4.66992 36.0098 4.66992 40.1338ZM17.6279 40.1338C17.6279 43.1553 15.1699 45.6133 12.1489 45.6133C9.12793 45.6133 6.66992 43.1553 6.66992 40.1338C6.66992 37.1133 9.12793 34.6553 12.1489 34.6553C15.1699 34.6553 17.6279 37.1133 17.6279 40.1338Z" fill="white"/>
<path d="M67.8521 32.6553C63.728 32.6553 60.373 36.0098 60.373 40.1338C60.373 44.2578 63.728 47.6133 67.8521 47.6133C71.9761 47.6133 75.3311 44.2578 75.3311 40.1338C75.3311 36.0098 71.9761 32.6553 67.8521 32.6553ZM67.8521 45.6133C64.8311 45.6133 62.373 43.1553 62.373 40.1338C62.373 37.1133 64.8311 34.6553 67.8521 34.6553C70.873 34.6553 73.3311 37.1133 73.3311 40.1338C73.3311 43.1553 70.873 45.6133 67.8521 45.6133Z" fill="white"/>
<path d="M0 55.7607V63.3652C0 65.4688 1.47266 67.2363 3.44238 67.6904V79C3.44238 79.5527 3.89014 80 4.44238 80H19.7891C20.3413 80 20.7891 79.5527 20.7891 79V67.6904C22.7588 67.2363 24.2314 65.4688 24.2314 63.3652V55.7607C24.2314 53.1885 22.1367 51.0957 19.562 51.0957H4.66943C2.09473 51.0957 0 53.1885 0 55.7607ZM2 55.7607C2 54.291 3.19727 53.0957 4.66943 53.0957H19.562C21.0342 53.0957 22.2314 54.291 22.2314 55.7607V63.3652C22.2314 64.71 21.1357 65.8037 19.7891 65.8037C19.2368 65.8037 18.7891 66.251 18.7891 66.8037V78H5.44238V66.8037C5.44238 66.251 4.99463 65.8037 4.44238 65.8037C3.0957 65.8037 2 64.71 2 63.3652V55.7607Z" fill="white"/>
<path d="M75.3315 51.0957H60.439C57.8643 51.0957 55.7695 53.1885 55.7695 55.7607V63.3652C55.7695 65.4688 57.2422 67.2363 59.2119 67.6904V79C59.2119 79.5527 59.6597 80 60.2119 80H75.5586C76.1108 80 76.5586 79.5527 76.5586 79V67.6904C78.5283 67.2363 80.001 65.4688 80.001 63.3652V55.7607C80.001 53.1885 77.9062 51.0957 75.3315 51.0957ZM78.001 63.3652C78.001 64.71 76.9053 65.8037 75.5586 65.8037C75.0063 65.8037 74.5586 66.251 74.5586 66.8037V78H61.2119V66.8037C61.2119 66.251 60.7642 65.8037 60.2119 65.8037C58.8652 65.8037 57.7695 64.71 57.7695 63.3652V55.7607C57.7695 54.291 58.9668 53.0957 60.439 53.0957H75.3315C76.8037 53.0957 78.001 54.291 78.001 55.7607V63.3652Z" fill="white"/>
<path d="M39.9673 47.6133C44.0913 47.6133 47.4463 44.2578 47.4463 40.1338C47.4463 36.0098 44.0913 32.6553 39.9673 32.6553C35.8433 32.6553 32.4883 36.0098 32.4883 40.1338C32.4883 44.2578 35.8433 47.6133 39.9673 47.6133ZM39.9673 34.6553C42.9883 34.6553 45.4463 37.1133 45.4463 40.1338C45.4463 43.1553 42.9883 45.6133 39.9673 45.6133C36.9463 45.6133 34.4883 43.1553 34.4883 40.1338C34.4883 37.1133 36.9463 34.6553 39.9673 34.6553Z" fill="white"/>
<path d="M27.8848 55.7607V63.3652C27.8848 65.4688 29.3574 67.2363 31.3271 67.6904V79C31.3271 79.5527 31.7749 80 32.3271 80H47.6738C48.2261 80 48.6738 79.5527 48.6738 79V67.6904C50.6436 67.2363 52.1162 65.4688 52.1162 63.3652V55.7607C52.1162 53.1885 50.0215 51.0957 47.4468 51.0957H32.5542C29.9795 51.0957 27.8848 53.1885 27.8848 55.7607ZM29.8848 55.7607C29.8848 54.291 31.082 53.0957 32.5542 53.0957H47.4468C48.9189 53.0957 50.1162 54.291 50.1162 55.7607V63.3652C50.1162 64.71 49.0205 65.8037 47.6738 65.8037C47.1216 65.8037 46.6738 66.251 46.6738 66.8037V78H33.3271V66.8037C33.3271 66.251 32.8794 65.8037 32.3271 65.8037C30.9805 65.8037 29.8848 64.71 29.8848 63.3652V55.7607Z" fill="white"/>
<path d="M52.5283 7.29688H46.2314V1C46.2314 0.447266 45.7837 0 45.2314 0H34.7676C34.2153 0 33.7676 0.447266 33.7676 1V7.29688H27.4707C26.9185 7.29688 26.4707 7.74414 26.4707 8.29688V18.7607C26.4707 19.3135 26.9185 19.7607 27.4707 19.7607H33.7676V26.0576C33.7676 26.6104 34.2153 27.0576 34.7676 27.0576H45.2314C45.7837 27.0576 46.2314 26.6104 46.2314 26.0576V19.7607H52.5283C53.0806 19.7607 53.5283 19.3135 53.5283 18.7607V8.29688C53.5283 7.74414 53.0806 7.29688 52.5283 7.29688ZM51.5283 17.7607H45.2314C44.6792 17.7607 44.2314 18.208 44.2314 18.7607V25.0576H35.7676V18.7607C35.7676 18.208 35.3198 17.7607 34.7676 17.7607H28.4707V9.29688H34.7676C35.3198 9.29688 35.7676 8.84961 35.7676 8.29688V2H44.2314V8.29688C44.2314 8.84961 44.6792 9.29688 45.2314 9.29688H51.5283V17.7607Z" fill="white"/>
</svg>
