<svg width="60" height="60" viewBox="0 0 60 60" fill="none" xmlns="http://www.w3.org/2000/svg">
<path d="M55.8321 18.445C55.7408 18.3081 55.6171 18.1958 55.4719 18.1182C55.3268 18.0406 55.1647 18 55.0001 18H48.0001V3C48.0001 2.20435 47.6841 1.44129 47.1215 0.87868C46.5589 0.316071 45.7958 0 45.0001 0H15.0001C14.2045 0 13.4414 0.316071 12.8788 0.87868C12.3162 1.44129 12.0001 2.20435 12.0001 3V18H5.00015C4.83556 18 4.6735 18.0406 4.52837 18.1182C4.38323 18.1958 4.2595 18.3081 4.16815 18.445L0.16815 24.445C0.067671 24.5956 0.00996145 24.7707 0.00117785 24.9515C-0.00760575 25.1323 0.032866 25.3121 0.118276 25.4718C0.203685 25.6314 0.330829 25.7648 0.486141 25.8579C0.641453 25.9509 0.819107 26 1.00015 26V31C1.00143 31.9718 1.28586 32.9221 1.81865 33.7348C2.35144 34.5475 3.10951 35.1873 4.00015 35.576V57C4.00015 57.7956 4.31622 58.5587 4.87883 59.1213C5.44144 59.6839 6.2045 60 7.00015 60H53.0001C53.7958 60 54.5589 59.6839 55.1215 59.1213C55.6841 58.5587 56.0001 57.7956 56.0001 57V35.576C56.8908 35.1873 57.6489 34.5475 58.1816 33.7348C58.7144 32.9221 58.9989 31.9718 59.0001 31V26C59.1812 26 59.3588 25.9509 59.5142 25.8579C59.6695 25.7648 59.7966 25.6314 59.882 25.4718C59.9674 25.3121 60.0079 25.1323 59.9991 24.9515C59.9903 24.7707 59.9326 24.5956 59.8321 24.445L55.8321 18.445ZM54.4651 20L57.1311 24H48.0001V20H54.4651ZM11.0001 26H12.0001V27C12.0001 27.7956 12.3162 28.5587 12.8788 29.1213C13.4414 29.6839 14.2045 30 15.0001 30H17.0002V31C17.0002 31.7956 16.6841 32.5587 16.1215 33.1213C15.5589 33.6839 14.7958 34 14.0001 34C13.2045 34 12.4414 33.6839 11.8788 33.1213C11.3162 32.5587 11.0001 31.7956 11.0001 31V26ZM19.0002 30H25.0002V31C25.0002 31.7956 24.6841 32.5587 24.1215 33.1213C23.5589 33.6839 22.7958 34 22.0002 34C21.2045 34 20.4414 33.6839 19.8788 33.1213C19.3162 32.5587 19.0002 31.7956 19.0002 31V30ZM27.0002 30H33.0001V31C33.0001 31.7956 32.6841 32.5587 32.1215 33.1213C31.5589 33.6839 30.7958 34 30.0002 34C29.2045 34 28.4414 33.6839 27.8788 33.1213C27.3162 32.5587 27.0002 31.7956 27.0002 31V30ZM35.0001 30H41.0001V31C41.0001 31.7956 40.6841 32.5587 40.1215 33.1213C39.5589 33.6839 38.7958 34 38.0001 34C37.2045 34 36.4414 33.6839 35.8788 33.1213C35.3162 32.5587 35.0001 31.7956 35.0001 31V30ZM43.0001 30H45.0001C45.7958 30 46.5589 29.6839 47.1215 29.1213C47.6841 28.5587 48.0001 27.7956 48.0001 27V26H49.0001V31C49.0001 31.7956 48.6841 32.5587 48.1215 33.1213C47.5589 33.6839 46.7958 34 46.0001 34C45.2045 34 44.4414 33.6839 43.8788 33.1213C43.3162 32.5587 43.0001 31.7956 43.0001 31V30ZM14.0001 3C14.0001 2.73478 14.1055 2.48043 14.293 2.29289C14.4806 2.10536 14.7349 2 15.0001 2H45.0001C45.2654 2 45.5197 2.10536 45.7073 2.29289C45.8948 2.48043 46.0001 2.73478 46.0001 3V27C46.0001 27.2652 45.8948 27.5196 45.7073 27.7071C45.5197 27.8946 45.2654 28 45.0001 28H15.0001C14.7349 28 14.4806 27.8946 14.293 27.7071C14.1055 27.5196 14.0001 27.2652 14.0001 27V3ZM5.53515 20H12.0001V24H2.86915L5.53515 20ZM3.00015 31V26H9.00015V31C9.00015 31.7956 8.68408 32.5587 8.12147 33.1213C7.55886 33.6839 6.7958 34 6.00015 34C5.2045 34 4.44144 33.6839 3.87883 33.1213C3.31622 32.5587 3.00015 31.7956 3.00015 31ZM38.0001 58H22.0002V48C22.0002 45.8783 22.843 43.8434 24.3433 42.3431C25.8436 40.8429 27.8784 40 30.0002 40C32.1219 40 34.1567 40.8429 35.657 42.3431C37.1573 43.8434 38.0001 45.8783 38.0001 48V58ZM54.0001 57C54.0001 57.2652 53.8948 57.5196 53.7073 57.7071C53.5197 57.8946 53.2654 58 53.0001 58H40.0001V48C40.0001 45.3478 38.9466 42.8043 37.0712 40.9289C35.1959 39.0536 32.6523 38 30.0002 38C27.348 38 24.8044 39.0536 22.9291 40.9289C21.0537 42.8043 20.0002 45.3478 20.0002 48V58H7.00015C6.73493 58 6.48058 57.8946 6.29304 57.7071C6.10551 57.5196 6.00015 57.2652 6.00015 57V36C6.77934 35.9977 7.54713 35.8127 8.24183 35.4598C8.93653 35.1068 9.53877 34.5959 10.0001 33.968C10.1416 34.1704 10.2977 34.3623 10.4671 34.542C10.9745 35.0494 11.5855 35.4411 12.2584 35.6903C12.9313 35.9395 13.6501 36.0403 14.3655 35.9858C15.081 35.9313 15.7762 35.7228 16.4036 35.3745C17.0309 35.0262 17.5755 34.5464 18.0002 33.968C18.1416 34.1704 18.2977 34.3623 18.4671 34.542C18.9745 35.0494 19.5855 35.4411 20.2584 35.6903C20.9313 35.9395 21.6501 36.0403 22.3655 35.9858C23.081 35.9313 23.7762 35.7228 24.4036 35.3745C25.0309 35.0262 25.5755 34.5464 26.0002 33.968C26.1416 34.1704 26.2977 34.3623 26.4671 34.542C26.9745 35.0494 27.5855 35.4411 28.2584 35.6903C28.9313 35.9395 29.6501 36.0403 30.3655 35.9858C31.081 35.9313 31.7762 35.7228 32.4036 35.3745C33.0309 35.0262 33.5755 34.5464 34.0001 33.968C34.1416 34.1704 34.2977 34.3623 34.4671 34.542C34.9745 35.0494 35.5855 35.4411 36.2584 35.6903C36.9313 35.9395 37.6501 36.0403 38.3655 35.9858C39.081 35.9313 39.7762 35.7228 40.4036 35.3745C41.0309 35.0262 41.5755 34.5464 42.0001 33.968C42.1416 34.1704 42.2977 34.3623 42.4671 34.542C42.9744 35.0495 43.5854 35.4413 44.2582 35.6905C44.9311 35.9398 45.6498 36.0407 46.3653 35.9863C47.0808 35.9319 47.776 35.7234 48.4034 35.3752C49.0308 35.0271 49.5755 34.5473 50.0001 33.969C50.4616 34.5967 51.0639 35.1075 51.7586 35.4602C52.4533 35.8129 53.221 35.9978 54.0001 36V57ZM57.0001 31C57.0001 31.7956 56.6841 32.5587 56.1215 33.1213C55.5589 33.6839 54.7958 34 54.0001 34C53.2045 34 52.4414 33.6839 51.8788 33.1213C51.3162 32.5587 51.0001 31.7956 51.0001 31V26H57.0001V31Z" fill="white"/>
<path d="M42 41V47C42 47.2652 42.1054 47.5196 42.2929 47.7071C42.4804 47.8946 42.7348 48 43 48H51C51.2652 48 51.5196 47.8946 51.7071 47.7071C51.8946 47.5196 52 47.2652 52 47V41C52 40.7348 51.8946 40.4804 51.7071 40.2929C51.5196 40.1054 51.2652 40 51 40H43C42.7348 40 42.4804 40.1054 42.2929 40.2929C42.1054 40.4804 42 40.7348 42 41ZM44 42H50V46H44V42Z" fill="white"/>
<path d="M17 40H9C8.73478 40 8.48043 40.1054 8.29289 40.2929C8.10536 40.4804 8 40.7348 8 41V47C8 47.2652 8.10536 47.5196 8.29289 47.7071C8.48043 47.8946 8.73478 48 9 48H17C17.2652 48 17.5196 47.8946 17.7071 47.7071C17.8946 47.5196 18 47.2652 18 47V41C18 40.7348 17.8946 40.4804 17.7071 40.2929C17.5196 40.1054 17.2652 40 17 40ZM16 46H10V42H16V46Z" fill="white"/>
<path d="M54 0H52V2H54V0Z" fill="white"/>
<path d="M56 2H54V4H56V2Z" fill="white"/>
<path d="M52 2H50V4H52V2Z" fill="white"/>
<path d="M54 4H52V6H54V4Z" fill="white"/>
<path d="M58 8H56V10H58V8Z" fill="white"/>
<path d="M60 10H58V12H60V10Z" fill="white"/>
<path d="M56 10H54V12H56V10Z" fill="white"/>
<path d="M58 12H56V14H58V12Z" fill="white"/>
<path d="M8 0H6V2H8V0Z" fill="white"/>
<path d="M6 2H4V4H6V2Z" fill="white"/>
<path d="M10 2H8V4H10V2Z" fill="white"/>
<path d="M8 4H6V6H8V4Z" fill="white"/>
<path d="M4 8H2V10H4V8Z" fill="white"/>
<path d="M2 10H0V12H2V10Z" fill="white"/>
<path d="M6 10H4V12H6V10Z" fill="white"/>
<path d="M4 12H2V14H4V12Z" fill="white"/>
<path d="M29 49H27V51H29V49Z" fill="white"/>
<path d="M33 49H31V51H33V49Z" fill="white"/>
<path d="M52 50H42V52H52V50Z" fill="white"/>
<path d="M18 50H8V52H18V50Z" fill="white"/>
<path d="M38 26C39.5908 25.9984 41.116 25.3658 42.2409 24.2409C43.3658 23.116 43.9984 21.5908 44 20V10C44 8.4087 43.3679 6.88258 42.2426 5.75736C41.1174 4.63214 39.5913 4 38 4C36.4087 4 34.8826 4.63214 33.7574 5.75736C32.6321 6.88258 32 8.4087 32 10V20C32.0016 21.5908 32.6342 23.116 33.7591 24.2409C34.884 25.3658 36.4092 25.9984 38 26ZM38 24C36.9391 24 35.9217 23.5786 35.1716 22.8284C34.4214 22.0783 34 21.0609 34 20V16H42V20C42 21.0609 41.5786 22.0783 40.8284 22.8284C40.0783 23.5786 39.0609 24 38 24ZM38 6C39.0609 6 40.0783 6.42143 40.8284 7.17157C41.5786 7.92172 42 8.93913 42 10V14H34V10C34 8.93913 34.4214 7.92172 35.1716 7.17157C35.9217 6.42143 36.9391 6 38 6Z" fill="white"/>
<path d="M23 22C24.3845 22 25.7378 21.5895 26.889 20.8203C28.0401 20.0511 28.9373 18.9579 29.4672 17.6788C29.997 16.3997 30.1356 14.9922 29.8655 13.6344C29.5954 12.2765 28.9287 11.0292 27.9497 10.0503C26.9708 9.07129 25.7235 8.4046 24.3656 8.13451C23.0078 7.86441 21.6003 8.00303 20.3212 8.53285C19.0421 9.06266 17.9489 9.95987 17.1797 11.111C16.4105 12.2622 16 13.6155 16 15C16.0021 16.8559 16.7403 18.6351 18.0526 19.9474C19.3649 21.2597 21.1441 21.9979 23 22ZM28 15C27.9998 15.9797 27.71 16.9375 27.167 17.753L20.247 10.833C20.9997 10.3333 21.8738 10.0473 22.7762 10.0053C23.6787 9.9634 24.5756 10.1671 25.3713 10.5948C26.1671 11.0225 26.8319 11.6581 27.2948 12.4339C27.7577 13.2097 28.0015 14.0966 28 15ZM18.833 12.247L25.753 19.167C24.7929 19.8044 23.6419 20.09 22.4952 19.9754C21.3486 19.8607 20.2769 19.3529 19.462 18.538C18.6471 17.7231 18.1393 16.6514 18.0246 15.5048C17.91 14.3581 18.1956 13.2071 18.833 12.247Z" fill="white"/>
</svg>
