<svg xmlns="http://www.w3.org/2000/svg" width="128" height="128" viewBox="0 0 128 128">
  <title>PATIENT</title>
  <g>
    <path d="M120.158,92.591A25.7,25.7,0,0,0,71.6,80.84l-3.583-.5c.038-.386.079-.772.079-1.168V73.613a21,21,0,0,0,9.151-17.326V53.568h.341A7.378,7.378,0,0,0,82.1,40.343V35.56a25.855,25.855,0,1,0-51.71,0v4.78a7.377,7.377,0,0,0,4.5,13.228h.34v2.719a21,21,0,0,0,9.157,17.33V79.17c0,.4.04.783.078,1.168l-22.2,3.119A16.824,16.824,0,0,0,7.84,100.04v16.51a1.75,1.75,0,0,0,1.75,1.75H94.45c.02,0,.038,0,.057-.006A25.734,25.734,0,0,0,120.158,92.591ZM77.592,50.068h-.341V42.3h.341a3.887,3.887,0,0,1,0,7.773ZM33.89,35.56a22.355,22.355,0,1,1,44.71,0v3.312a7.462,7.462,0,0,0-1.008-.077h-.341v-.59A1.75,1.75,0,0,0,75.73,36.47c-6.715-.888-10.694-2.712-12.521-5.738a1.75,1.75,0,0,0-2.517-.519c-5.308,3.8-13.3,5.9-23.766,6.243a1.749,1.749,0,0,0-1.693,1.749v.59h-.34a7.375,7.375,0,0,0-1,.077Zm1,14.508a3.887,3.887,0,1,1,0-7.773h.34v7.773Zm3.84,6.219v-16.4c9.611-.487,17.021-2.411,22.553-5.859,3.1,3.625,8.24,5.018,12.465,5.694V56.287a17.509,17.509,0,0,1-35.018,0ZM56.242,77.3A20.872,20.872,0,0,0,64.6,75.551V79.17a7.961,7.961,0,0,1-.3,2.194,8.349,8.349,0,0,1-16.118-.026,7.842,7.842,0,0,1-.293-2.168V75.554A20.875,20.875,0,0,0,56.242,77.3ZM11.34,100.04A13.309,13.309,0,0,1,22.753,86.923l22.573-3.171a11.838,11.838,0,0,0,21.84,0l3.006.421A25.664,25.664,0,0,0,81.536,114.8H11.34ZM94.453,114.8a22.2,22.2,0,1,1,22.205-22.2A22.23,22.23,0,0,1,94.453,114.8Z" fill="#ffffff"/>
    <path d="M105.908,86.247H100.8v-5.11a1.749,1.749,0,0,0-1.75-1.75H89.859a1.75,1.75,0,0,0-1.75,1.75v5.11H83A1.75,1.75,0,0,0,81.249,88v9.188A1.75,1.75,0,0,0,83,98.935h5.11v5.11a1.75,1.75,0,0,0,1.75,1.75h9.188a1.749,1.749,0,0,0,1.75-1.75v-5.11h5.111a1.75,1.75,0,0,0,1.75-1.75V88A1.75,1.75,0,0,0,105.908,86.247Zm-1.75,9.188H99.047a1.749,1.749,0,0,0-1.75,1.75v5.11H91.609v-5.11a1.749,1.749,0,0,0-1.75-1.75h-5.11V89.747h5.11A1.75,1.75,0,0,0,91.609,88v-5.11H97.3V88a1.75,1.75,0,0,0,1.75,1.75h5.111Z" fill="#ffffff"/>
    <path d="M62.165,65.143a1.75,1.75,0,0,0-.007-2.475c-4.1-4.073-8.613-4.073-12.71,0a1.75,1.75,0,1,0,2.467,2.482c2.725-2.709,5.051-2.709,7.775,0A1.75,1.75,0,0,0,62.165,65.143Z" fill="#ffffff"/>
    <path d="M51.583,46.091a1.75,1.75,0,0,0-3.495.182c.07,1.341-.12,2.669-3.2,2.891a1.75,1.75,0,0,0,.124,3.495C48.746,52.659,51.8,50.335,51.583,46.091Z" fill="#ffffff"/>
    <path d="M67.47,52.659a1.75,1.75,0,0,0,.124-3.495c-3.077-.222-3.267-1.55-3.2-2.891a1.75,1.75,0,1,0-3.5-.182C60.679,50.359,63.79,52.659,67.47,52.659Z" fill="#ffffff"/>
  </g>
</svg>