<?xml version="1.0" encoding="utf-8"?>
<!-- Generator: Adobe Illustrator 16.0.0, SVG Export Plug-In . SVG Version: 6.00 Build 0)  -->
<!DOCTYPE svg PUBLIC "-//W3C//DTD SVG 1.1//EN" "http://www.w3.org/Graphics/SVG/1.1/DTD/svg11.dtd">
<svg version="1.1" id="Layer_1" xmlns="http://www.w3.org/2000/svg" xmlns:xlink="http://www.w3.org/1999/xlink" x="0px" y="0px"
	 width="700px" height="700px" viewBox="0 0 700 700" enable-background="new 0 0 700 700" xml:space="preserve">
<path fill="#62AD61" d="M257.675,487.51h233.33c6.441,0,11.668-5.227,11.668-11.668s-5.227-11.668-11.668-11.668h-233.33
	c-6.441,0-11.668,5.227-11.668,11.668S251.233,487.51,257.675,487.51L257.675,487.51z"/>
<path fill="#62AD61" d="M351.005,417.51h140c6.441,0,11.668-5.227,11.668-11.668s-5.227-11.668-11.668-11.668h-140
	c-6.441,0-11.668,5.227-11.668,11.668S344.563,417.51,351.005,417.51z"/>
<path fill="#62AD61" d="M257.675,347.51h233.33c6.441,0,11.668-5.227,11.668-11.668s-5.227-11.668-11.668-11.668h-233.33
	c-6.441,0-11.668,5.227-11.668,11.668S251.233,347.51,257.675,347.51L257.675,347.51z"/>
<path fill="#62AD61" d="M257.675,277.51h140c6.438,0,11.664-5.227,11.664-11.668s-5.227-11.668-11.664-11.668h-140
	c-6.441,0-11.668,5.227-11.668,11.668S251.233,277.51,257.675,277.51z"/>
<path fill="#62AD61" d="M257.675,207.51h116.66c6.441,0,11.668-5.227,11.668-11.668s-5.227-11.668-11.668-11.668h-116.66
	c-6.441,0-11.668,5.227-11.668,11.668S251.233,207.51,257.675,207.51z"/>
<path fill="#62AD61" d="M257.675,417.51h46.664c6.441,0,11.668-5.227,11.668-11.668s-5.227-11.668-11.668-11.668h-46.664
	c-6.441,0-11.668,5.227-11.668,11.668S251.233,417.51,257.675,417.51z"/>
<path fill="#62AD61" d="M491.005,254.17h-46.668c-6.438,0-11.664,5.227-11.664,11.668s5.227,11.668,11.664,11.668h46.668
	c6.441,0,11.668-5.227,11.668-11.668S497.446,254.17,491.005,254.17z"/>
<path fill="#62AD61" d="M176.005,114.172v-11.664c0-19.332,15.668-35,35-35h223.67c9.277,0,18.18,3.684,24.746,10.254l102.99,102.99
	c6.57,6.57,10.258,15.473,10.258,24.746v317.01c0,9.285-3.688,18.188-10.258,24.742c-6.555,6.57-15.457,10.258-24.742,10.258
	h-11.668v11.664c0,19.332-15.668,35-35,35h-326.67c-19.332,0-35-15.668-35-35v-420c0-19.332,15.668-35,35-35H176.005z
	 M176.005,137.508h-11.668c-6.438,0-11.664,5.227-11.664,11.664v420c0,6.441,5.227,11.668,11.664,11.668h326.67
	c6.441,0,11.668-5.227,11.668-11.668v-11.664h-291.67c-19.332,0-35-15.668-35-35V137.508z M432.675,90.84h-221.67
	c-6.441,0-11.668,5.227-11.668,11.668v420c0,6.438,5.227,11.664,11.668,11.664h326.67c3.09,0,6.066-1.223,8.246-3.418
	c2.195-2.18,3.418-5.156,3.418-8.246v-315h-81.664c-9.289,0-18.19-3.688-24.746-10.258c-6.57-6.555-10.254-15.457-10.254-24.742
	V90.84z M456.007,107.336v65.172c0,3.09,1.227,6.066,3.418,8.246c2.184,2.195,5.156,3.418,8.25,3.418h65.168L456.007,107.336z"/>
</svg>
