<svg xmlns="http://www.w3.org/2000/svg" width="53" height="71" viewBox="0 0 53 71" fill="none">
<path d="M15.317 29.982H22.317C23.316 29.982 24.125 29.171 24.125 28.173V19.834C24.125 18.835 23.315 18.026 22.317 18.026H15.317C14.318 18.026 13.509 18.835 13.509 19.834V28.173C13.509 29.171 14.318 29.982 15.317 29.982ZM17.125 21.642H20.509V26.365H17.125V21.642ZM29.717 29.982H36.717C37.716 29.982 38.525 29.173 38.525 28.174V19.833C38.525 18.835 37.716 18.024 36.717 18.024H29.717C28.718 18.024 27.909 18.835 27.909 19.833V28.174C27.91 29.173 28.718 29.982 29.717 29.982ZM31.525 21.642H34.91V26.367H31.525V21.642ZM15.317 46.231H22.317C23.316 46.231 24.125 45.421 24.125 44.422V36.083C24.125 35.084 23.315 34.274 22.317 34.274H15.317C14.318 34.274 13.509 35.084 13.509 36.083V44.422C13.509 45.421 14.318 46.231 15.317 46.231ZM17.125 37.892H20.509V42.614H17.125V37.892ZM29.717 46.232H36.717C37.716 46.232 38.525 45.422 38.525 44.423V36.083C38.525 35.084 37.716 34.274 36.717 34.274H29.717C28.718 34.274 27.909 35.084 27.909 36.083V44.423C27.91 45.422 28.718 46.232 29.717 46.232ZM31.525 37.892H34.91V42.615H31.525V37.892ZM50.226 66.757H47.027V16.234L48.484 16.646C48.648 16.693 48.814 16.714 48.977 16.714C49.766 16.714 50.491 16.194 50.716 15.398C50.987 14.437 50.429 13.438 49.468 13.166L3.177 0.0699958C2.217 -0.205004 1.217 0.354995 0.945 1.31699C0.673 2.27799 1.232 3.277 2.193 3.548L4.987 4.339V66.757H1.808C0.809001 66.757 0 67.567 0 68.566C0 69.565 0.810001 70.375 1.808 70.375H50.226C51.225 70.375 52.035 69.565 52.035 68.566C52.035 67.567 51.225 66.757 50.226 66.757ZM29.208 66.757H22.826V54.875H29.208V66.757ZM43.41 66.757H32.824V53.066C32.824 52.067 32.015 51.257 31.016 51.257H21.018C20.019 51.257 19.21 52.067 19.21 53.066V66.757H8.603V5.363L43.409 15.211L43.41 66.757Z" fill="#749d6e"/>
</svg>