<svg width="38" height="46" viewBox="0 0 38 46" fill="none" xmlns="http://www.w3.org/2000/svg">
<path d="M32.75 32.3086C32.3449 32.2211 32.9238 32.3129 23.6305 31.0082V28.3793C23.9805 28.1367 24.3113 27.8676 24.6199 27.5742H26.0742C27.3411 27.5783 28.581 27.2084 29.6386 26.511C30.6963 25.8136 31.5246 24.8196 32.0199 23.6535C33.1505 20.9831 33.5378 18.0566 33.1409 15.1841C32.744 12.3115 31.5776 9.59971 29.7652 7.33593L31.0852 4.69883C31.1586 4.55253 31.177 4.38472 31.1371 4.22598C31.0971 4.06724 31.0015 3.92812 30.8676 3.83398C27.4536 1.44227 23.3862 0.159286 19.2178 0.159286C15.0494 0.159286 10.982 1.44227 7.56797 3.83398C7.43406 3.92812 7.33843 4.06724 7.29849 4.22598C7.25855 4.38472 7.27697 4.55253 7.35039 4.69883L8.50742 7.01015C6.58736 9.27824 5.33447 12.0347 4.88826 14.9727C4.44204 17.9107 4.82001 20.9149 5.98008 23.6508C6.47491 24.8174 7.30307 25.812 8.36075 26.5099C9.41843 27.2079 10.6586 27.5781 11.9258 27.5742H13.3816C13.6902 27.8677 14.021 28.1368 14.3711 28.3793V31.0078C3.45078 32.5406 6.0457 32.1711 5.28008 32.3016C5.27344 32.3016 5.26758 32.3055 5.26094 32.3066H5.25469C3.79585 32.6267 2.48965 33.4344 1.55146 34.5965C0.613266 35.7586 0.099104 37.2057 0.0937501 38.6992V45.1484C0.0936988 45.2382 0.111345 45.3271 0.145681 45.4101C0.180017 45.4931 0.230368 45.5684 0.293856 45.6319C0.357343 45.6954 0.432723 45.7458 0.515683 45.7801C0.598644 45.8144 0.687559 45.8321 0.777344 45.832H37.2227C37.3124 45.8321 37.4014 45.8144 37.4843 45.7801C37.5673 45.7458 37.6427 45.6954 37.7061 45.6319C37.7696 45.5684 37.82 45.4931 37.8543 45.4101C37.8887 45.3271 37.9063 45.2382 37.9063 45.1484V38.6992C37.9063 33.3281 32.4281 32.1016 32.75 32.3086ZM8.1043 44.4648L6.19023 33.5375L11.9992 32.7238L14.4098 39.4246C14.4461 39.5258 14.5058 39.617 14.584 39.6908C14.6622 39.7646 14.7567 39.8189 14.8598 39.8493C14.9629 39.8798 15.0718 39.8855 15.1775 39.866C15.2832 39.8465 15.3829 39.8023 15.4684 39.7371L19 37.0355L22.5316 39.7363C22.6171 39.8015 22.7168 39.8457 22.8225 39.8652C22.9282 39.8847 23.0371 39.879 23.1402 39.8485C23.2433 39.8181 23.3378 39.7638 23.416 39.69C23.4942 39.6162 23.5539 39.525 23.5902 39.4238L26.0008 32.723L31.8145 33.5371L29.9004 44.4641L8.1043 44.4648ZM24.6172 32.5312L22.6203 38.0836L19.9922 36.073L23.2188 32.3359L24.6172 32.5312ZM14.7813 32.3359L18.0086 36.0746L15.3805 38.084L13.3828 32.5312L14.7813 32.3359ZM12.1605 21.609V16.7586C16.059 16.5012 18.0395 15.157 19.0285 14.0133C21.0293 16.1891 24.0676 16.6836 25.8395 16.7738V21.609C25.8395 23.4229 25.1189 25.1626 23.8362 26.4452C22.5536 27.7279 20.8139 28.4484 19 28.4484C17.1861 28.4484 15.4464 27.7279 14.1638 26.4452C12.8811 25.1626 12.1605 23.4229 12.1605 21.609ZM10.7934 19.8285H10.6602C10.2617 19.8221 9.88179 19.6594 9.60229 19.3753C9.32279 19.0913 9.16615 18.7088 9.16615 18.3103C9.16615 17.9119 9.32279 17.5294 9.60229 17.2454C9.88179 16.9613 10.2617 16.7986 10.6602 16.7922H10.7934V19.8285ZM27.3398 16.7922C27.7383 16.7986 28.1182 16.9613 28.3977 17.2454C28.6772 17.5294 28.8339 17.9119 28.8339 18.3103C28.8339 18.7088 28.6772 19.0913 28.3977 19.3753C28.1182 19.6594 27.7383 19.8221 27.3398 19.8285H27.2066V16.7922H27.3398ZM29.5953 4.62343L28.3484 7.11445C28.3434 7.12383 28.3383 7.1332 28.334 7.14297L26.7004 10.4062C24.3579 9.3113 21.8036 8.7438 19.2178 8.7438C16.632 8.7438 14.0777 9.3113 11.7352 10.4062L8.84023 4.625C11.9242 2.60469 15.5307 1.5284 19.2175 1.52812C22.9043 1.52784 26.5111 2.6036 29.5953 4.62343ZM7.23945 23.1207C6.21839 20.7086 5.85953 18.0677 6.19992 15.4706C6.5403 12.8736 7.5676 10.4144 9.17578 8.34687L10.8187 11.6281C10.8595 11.7094 10.916 11.7817 10.985 11.8409C11.054 11.9 11.1341 11.9448 11.2207 11.9727C11.3072 12.0005 11.3984 12.0108 11.489 12.0029C11.5795 11.9951 11.6676 11.9693 11.748 11.927C14.0565 10.7314 16.6181 10.1073 19.2178 10.1073C21.8174 10.1073 24.3791 10.7314 26.6875 11.927C26.768 11.9692 26.8561 11.995 26.9467 12.0028C27.0372 12.0107 27.1285 12.0004 27.215 11.9725C27.3016 11.9447 27.3817 11.8999 27.4508 11.8408C27.5198 11.7817 27.5764 11.7094 27.6172 11.6281L29.0879 8.68945C30.5886 10.7457 31.5315 13.1555 31.8246 15.6842C32.1178 18.2129 31.7514 20.7744 30.7609 23.1195C30.3699 24.038 29.7166 24.8208 28.8828 25.3697C28.049 25.9186 27.0717 26.2094 26.0734 26.2055H25.7926C26.7151 24.8497 27.2076 23.2473 27.2059 21.6074V21.1957H27.3391C28.0985 21.1869 28.8238 20.879 29.3577 20.3388C29.8916 19.7987 30.191 19.0698 30.191 18.3103C30.191 17.5509 29.8916 16.822 29.3577 16.2819C28.8238 15.7417 28.0985 15.4338 27.3391 15.425C24.3258 15.4223 21.2687 14.9633 19.5609 12.4953C19.4954 12.4005 19.4071 12.3239 19.304 12.2724C19.2009 12.221 19.0865 12.1964 18.9714 12.2011C18.8563 12.2057 18.7442 12.2394 18.6456 12.299C18.547 12.3585 18.4651 12.4421 18.4074 12.5418C16.5551 15.7449 10.7121 15.4109 10.6594 15.4242C9.89995 15.4331 9.17462 15.7409 8.64072 16.2811C8.10682 16.8212 7.8074 17.5501 7.8074 18.3096C7.8074 19.069 8.10682 19.7979 8.64072 20.3381C9.17462 20.8782 9.89995 21.1861 10.6594 21.1949H10.7926V21.6082C10.7909 23.2484 11.2837 24.8511 12.2066 26.207H11.9258C10.9276 26.2108 9.95057 25.9199 9.11696 25.3709C8.28335 24.8219 7.63025 24.0392 7.23945 23.1207ZM19 29.8152C20.1224 29.8154 21.2328 29.5841 22.2617 29.1355V31.3512L19 35.1289L15.7383 31.3512V29.1355C16.7672 29.5841 17.8776 29.8154 19 29.8152ZM1.46094 38.6992C1.46563 37.641 1.79335 36.6095 2.40026 35.7426C3.00716 34.8758 3.86431 34.2149 4.85703 33.8484L6.71641 44.4648H1.46094V38.6992ZM36.5391 44.4648H31.2887L33.1477 33.8496C34.1389 34.2174 34.9945 34.8785 35.6004 35.745C36.2063 36.6114 36.5338 37.642 36.5391 38.6992V44.4648Z" fill="#218E36"/>
<path d="M17.4602 5.78593H18.5344V6.86015C18.5344 7.04145 18.6064 7.21533 18.7346 7.34353C18.8628 7.47173 19.0367 7.54375 19.218 7.54375C19.3993 7.54375 19.5732 7.47173 19.7014 7.34353C19.8296 7.21533 19.9016 7.04145 19.9016 6.86015V5.78593H20.9758C21.1571 5.78593 21.331 5.71391 21.4592 5.58571C21.5874 5.45752 21.6594 5.28364 21.6594 5.10234C21.6594 4.92104 21.5874 4.74717 21.4592 4.61897C21.331 4.49077 21.1571 4.41875 20.9758 4.41875H19.9016V3.34453C19.9016 3.16323 19.8296 2.98935 19.7014 2.86115C19.5732 2.73296 19.3993 2.66093 19.218 2.66093C19.0367 2.66093 18.8628 2.73296 18.7346 2.86115C18.6064 2.98935 18.5344 3.16323 18.5344 3.34453V4.41875H17.4602C17.2789 4.41875 17.105 4.49077 16.9768 4.61897C16.8486 4.74717 16.7766 4.92104 16.7766 5.10234C16.7766 5.28364 16.8486 5.45752 16.9768 5.58571C17.105 5.71391 17.2789 5.78593 17.4602 5.78593Z" fill="#218E36"/>
<path d="M16.6121 20.157V18.3102C16.6121 18.1288 16.54 17.955 16.4118 17.8268C16.2836 17.6986 16.1098 17.6266 15.9285 17.6266C15.7472 17.6266 15.5733 17.6986 15.4451 17.8268C15.3169 17.955 15.2449 18.1288 15.2449 18.3102V20.157C15.2449 20.3383 15.3169 20.5122 15.4451 20.6404C15.5733 20.7686 15.7472 20.8406 15.9285 20.8406C16.1098 20.8406 16.2836 20.7686 16.4118 20.6404C16.54 20.5122 16.6121 20.3383 16.6121 20.157Z" fill="#218E36"/>
<path d="M22.0715 20.8406C22.1613 20.8407 22.2502 20.823 22.3332 20.7887C22.4162 20.7544 22.4915 20.704 22.555 20.6405C22.6185 20.577 22.6689 20.5016 22.7032 20.4187C22.7375 20.3357 22.7552 20.2468 22.7551 20.157V18.3102C22.7551 18.1288 22.6831 17.955 22.5549 17.8268C22.4267 17.6986 22.2528 17.6266 22.0715 17.6266C21.8902 17.6266 21.7164 17.6986 21.5882 17.8268C21.46 17.955 21.3879 18.1288 21.3879 18.3102V20.157C21.3879 20.2468 21.4055 20.3357 21.4399 20.4187C21.4742 20.5016 21.5246 20.577 21.588 20.6405C21.6515 20.704 21.7269 20.7544 21.8099 20.7887C21.8928 20.823 21.9817 20.8407 22.0715 20.8406Z" fill="#218E36"/>
<path d="M21.4219 24.5422C21.3323 24.3846 21.1838 24.269 21.009 24.2208C20.8343 24.1727 20.6475 24.196 20.4899 24.2855C19.9912 24.597 19.4151 24.7622 18.8272 24.7622C18.2392 24.7622 17.6631 24.597 17.1645 24.2855C17.0864 24.2404 17.0001 24.2111 16.9107 24.1995C16.8212 24.1878 16.7304 24.1939 16.6433 24.2176C16.5562 24.2412 16.4747 24.2818 16.4034 24.3371C16.3321 24.3923 16.2725 24.4612 16.2279 24.5396C16.1833 24.618 16.1547 24.7045 16.1438 24.794C16.1328 24.8836 16.1396 24.9744 16.1639 25.0613C16.1882 25.1482 16.2294 25.2294 16.2852 25.3003C16.341 25.3711 16.4103 25.4302 16.4891 25.4742C17.1924 25.9064 18.0017 26.1352 18.8272 26.1352C19.6527 26.1352 20.462 25.9064 21.1653 25.4742C21.2434 25.4299 21.3119 25.3706 21.3671 25.2998C21.4223 25.229 21.4629 25.1479 21.4868 25.0614C21.5106 24.9748 21.5171 24.8844 21.506 24.7953C21.4949 24.7062 21.4663 24.6202 21.4219 24.5422Z" fill="#218E36"/>
</svg>
