<svg xmlns="http://www.w3.org/2000/svg" width="128" height="128" viewBox="0 0 128 128">
  <title>NURSE</title>
  <g>
    <path d="M99.2,87.83c-1.037-.224.445.011-23.346-3.329v-6.73a21.241,21.241,0,0,0,2.533-2.061H82.11A16.48,16.48,0,0,0,97.331,65.673,41.162,41.162,0,0,0,91.559,23.9l3.379-6.751a1.748,1.748,0,0,0-.557-2.214,51.978,51.978,0,0,0-59.647,0,1.748,1.748,0,0,0-.557,2.214l2.962,5.917a41.1,41.1,0,0,0-6.47,42.6A16.479,16.479,0,0,0,45.89,75.71h3.727a21.162,21.162,0,0,0,2.533,2.061V84.5c-27.956,3.924-21.313,2.978-23.273,3.312-.017,0-.032.01-.049.013l-.016,0A16.816,16.816,0,0,0,15.6,104.19V120.7a1.749,1.749,0,0,0,1.75,1.75h93.3a1.749,1.749,0,0,0,1.75-1.75V104.19C112.4,90.44,98.376,87.3,99.2,87.83ZM36.107,118.95l-4.9-27.974,14.871-2.083,6.171,17.154a1.751,1.751,0,0,0,2.71.8L64,99.931l9.041,6.914a1.751,1.751,0,0,0,2.71-.8l6.171-17.154,14.883,2.084-4.9,27.973ZM78.38,88.4l-5.112,14.214L66.54,97.467,74.8,87.9ZM53.2,87.9l8.262,9.571-6.728,5.144L49.62,88.4ZM46.491,60.439V48.022c9.98-.659,15.05-4.1,17.582-7.028,5.122,5.57,12.9,6.836,17.436,7.067V60.439a17.509,17.509,0,0,1-35.018,0Zm-3.5-4.558H42.65a3.887,3.887,0,0,1,0-7.773h.341ZM85.35,48.108a3.887,3.887,0,0,1,0,7.773h-.341V48.108Zm5.774-31.152-3.192,6.377c-.013.024-.026.048-.037.073L83.713,31.76a45.237,45.237,0,0,0-38.311,0l-7.411-14.8A48.486,48.486,0,0,1,91.124,16.956ZM33.893,64.309A37.678,37.678,0,0,1,38.85,26.488l4.206,8.4a1.75,1.75,0,0,0,2.379.765,41.579,41.579,0,0,1,38.245,0,1.752,1.752,0,0,0,2.38-.765l3.765-7.523a37.749,37.749,0,0,1,4.283,36.941,12.987,12.987,0,0,1-12,7.9h-.719a20.884,20.884,0,0,0,3.618-11.771V59.381h.341a7.387,7.387,0,0,0,0-14.773c-7.714-.007-15.54-1.182-19.912-7.5a1.749,1.749,0,0,0-2.953.119c-4.742,8.2-19.7,7.345-19.835,7.379a7.387,7.387,0,0,0,0,14.773h.341v1.058A20.884,20.884,0,0,0,46.609,72.21H45.89A12.985,12.985,0,0,1,33.893,64.309ZM64,81.447a20.886,20.886,0,0,0,8.35-1.74v5.672L64,95.05l-8.35-9.671V79.707A20.886,20.886,0,0,0,64,81.447ZM19.1,104.19a13.3,13.3,0,0,1,8.694-12.418l4.76,27.178H19.1Zm89.8,14.76H95.459l4.759-27.175A13.313,13.313,0,0,1,108.9,104.19Z" fill="#ffffff"/>
    <path d="M60.058,19.932h2.75v2.75a1.75,1.75,0,1,0,3.5,0v-2.75h2.75a1.75,1.75,0,0,0,0-3.5h-2.75v-2.75a1.75,1.75,0,0,0-3.5,0v2.75h-2.75a1.75,1.75,0,0,0,0,3.5Z" fill="#ffffff"/>
    <path d="M57.887,56.722V51.994a1.75,1.75,0,0,0-3.5,0v4.728a1.75,1.75,0,1,0,3.5,0Z" fill="#ffffff"/>
    <path d="M71.863,58.472a1.749,1.749,0,0,0,1.75-1.75V51.994a1.75,1.75,0,0,0-3.5,0v4.728A1.749,1.749,0,0,0,71.863,58.472Z" fill="#ffffff"/>
    <path d="M70.2,67.948a1.75,1.75,0,0,0-2.386-.657,8.034,8.034,0,0,1-8.513,0,1.75,1.75,0,1,0-1.729,3.043,11.432,11.432,0,0,0,11.971,0A1.749,1.749,0,0,0,70.2,67.948Z" fill="#ffffff"/>
  </g>
</svg>