<svg xmlns="http://www.w3.org/2000/svg" width="48" height="42" viewBox="0 0 48 42" fill="none">
<path d="M28.5254 30.6754L28.3242 28.6851C34.0459 28.1051 38.5459 23.7154 38.5684 18.691C38.585 15.2027 36.3682 11.0279 32.1016 9.79938C27.8662 8.57575 23.1045 10.7789 21.0332 14.9185L19.2441 14.024C21.7393 9.03571 27.5049 6.39509 32.6553 7.87751C37.876 9.38142 40.5879 14.4605 40.5684 18.7008C40.541 24.734 35.251 29.9937 28.5254 30.6754Z" fill="#749d6e"/>
<path d="M28.5166 37.9995L28.3311 36.0073C38.0938 35.0933 45.8545 27.482 45.9971 18.6792C46.1025 12.2105 41.9004 4.30715 33.9072 2.40285C25.5498 0.407735 16.6045 5.95754 13.957 14.7593L12.041 14.1831C14.9902 4.38527 25.002 -1.77586 34.3701 0.457539C43.3789 2.60305 48.1143 11.4644 47.9971 18.7124C47.8379 28.5191 39.2813 36.9907 28.5166 37.9995Z" fill="#749d6e"/>
<path d="M32 22.895C29.7939 22.895 28 21.1284 28 18.9575C28 16.7856 29.7939 15.019 32 15.019C34.2061 15.019 36 16.7856 36 18.9575C36 21.1284 34.2061 22.895 32 22.895ZM32 17.019C30.8975 17.019 30 17.8882 30 18.9575C30 20.0259 30.8975 20.895 32 20.895C33.1025 20.895 34 20.0259 34 18.9575C34 17.8882 33.1025 17.019 32 17.019Z" fill="#749d6e"/>
<path d="M25.3994 21.9155H1C0.447265 21.9155 0 21.4683 0 20.9155V16.9985C0 16.4458 0.447265 15.9985 1 15.9985H25.3994C25.9521 15.9985 26.3994 16.4458 26.3994 16.9985V20.9155C26.3994 21.4683 25.9521 21.9155 25.3994 21.9155ZM2 19.9155H24.3994V17.9985H2V19.9155Z" fill="#749d6e"/>
<path d="M32 23.8335H2V25.8335H32V23.8335Z" fill="#749d6e"/>
<path d="M9.50334 23.9265L8.10352 25.3558L24.4951 41.4095L25.8949 39.9803L9.50334 23.9265Z" fill="#749d6e"/>
<path d="M24.4978 23.9286L8.10156 39.9777L9.50098 41.4073L25.8972 25.3583L24.4978 23.9286Z" fill="#749d6e"/>
</svg>