<svg xmlns="http://www.w3.org/2000/svg" viewBox="0 0 64 64"><title>Artboard-1</title><g id="Calendar"><path d="M55,13H51V11a4,4,0,0,0-8,0v2H36V11a4,4,0,0,0-8,0v2H21V11a4,4,0,0,0-8,0v2H9a5.0059,5.0059,0,0,0-5,5V52a5.0059,5.0059,0,0,0,5,5H51a1.0041,1.0041,0,0,0,.707-.293l8-8A1.1184,1.1184,0,0,0,60,48V18A5.0059,5.0059,0,0,0,55,13ZM45,11a2,2,0,0,1,4,0v2H45ZM30,11a2,2,0,0,1,4,0v2H30ZM15,11a2,2,0,0,1,4,0v2H15ZM9,15h4v2a4,4,0,0,0,8,0H19a2,2,0,0,1-4,0V15H28v2a4,4,0,0,0,8,0H34a2,2,0,0,1-4,0V15H43v2a4,4,0,0,0,8,0H49a2,2,0,0,1-4,0V15H55a3.0033,3.0033,0,0,1,3,3v5H6V18A3.0033,3.0033,0,0,1,9,15ZM6,52V25H58V47H51a1,1,0,0,0-1,1v7H9A3.0033,3.0033,0,0,1,6,52Zm46,1.5859V49h4.5859Z" style="fill:#0a4fa5"/><rect x="30" y="38" width="4" height="4" style="fill:#0a4fa5"/><rect x="30" y="46" width="4" height="4" style="fill:#0a4fa5"/><rect x="30" y="30" width="4" height="4" style="fill:#0a4fa5"/><rect x="21" y="38" width="4" height="4" style="fill:#0a4fa5"/><rect x="21" y="46" width="4" height="4" style="fill:#0a4fa5"/><rect x="21" y="30" width="4" height="4" style="fill:#0a4fa5"/><rect x="12" y="38" width="4" height="4" style="fill:#0a4fa5"/><rect x="12" y="46" width="4" height="4" style="fill:#0a4fa5"/><rect x="12" y="30" width="4" height="4" style="fill:#0a4fa5"/><rect x="39" y="38" width="4" height="4" style="fill:#0a4fa5"/><rect x="39" y="46" width="4" height="4" style="fill:#0a4fa5"/><rect x="39" y="30" width="4" height="4" style="fill:#0a4fa5"/><rect x="48" y="38" width="4" height="4" style="fill:#0a4fa5"/><rect x="48" y="30" width="4" height="4" style="fill:#0a4fa5"/></g></svg>