<svg width="106" height="157" viewBox="0 0 106 157" fill="none" xmlns="http://www.w3.org/2000/svg">
<path d="M15.3951 81.9049C22.2458 80.9465 28.7739 78.674 34.6378 75.2914C40.2503 72.0558 45.2745 67.7859 49.4209 62.6574V53.9802C46.8543 51.9069 43.5096 50.8774 40.2313 50.8774C36.5355 50.8774 32.7449 52.1916 30.1023 54.8246C28.8735 56.0487 26.8857 56.0487 25.6522 54.8246C23.0096 52.1868 19.2142 50.8774 15.5185 50.8774C11.8939 50.8774 8.18385 52.1346 5.54604 54.6728C4.96724 55.337 4.11327 55.7545 3.16442 55.7545C1.41853 55.7545 0 54.336 0 52.5901C0 38.0727 5.88762 24.9216 15.4046 15.4046C24.9216 5.88762 38.0727 0 52.5901 0C67.1075 0 80.2586 5.88762 89.7756 15.4046C99.2926 24.9216 105.18 38.0727 105.18 52.5901C105.171 53.3966 104.862 54.1984 104.25 54.8151C103.022 56.0487 101.024 56.0534 99.7907 54.8246C97.1482 52.1868 93.3527 50.8774 89.6617 50.8774C85.9707 50.8774 82.1705 52.1916 79.528 54.8246C78.2992 56.0487 76.3114 56.0487 75.0779 54.8246C72.4353 52.1868 68.6399 50.8774 64.9489 50.8774C61.6706 50.8774 58.3212 51.9069 55.7593 53.9849V62.6384C59.901 67.767 64.9347 72.0415 70.5613 75.2914C76.4822 78.712 83.0672 80.9892 89.9654 81.9333C91.3886 82.1231 92.4608 83.238 92.6648 84.5948C95.0038 99.9046 92.1525 115.058 85.3492 127.763C78.5222 140.52 67.7053 150.81 54.1415 156.328C53.3492 156.646 52.5047 156.627 51.7693 156.328C38.1438 150.787 27.0897 140.421 20.0777 127.583C13.1606 114.92 10.1669 99.8334 12.5011 84.5948C12.7241 83.1051 13.9576 82.014 15.3999 81.9096L15.3951 81.9049ZM46.1189 87.3275H59.0565C60.8024 87.3275 62.2209 88.7461 62.2209 90.492V98.9367H70.661C72.4069 98.9367 73.8254 100.355 73.8254 102.101V115.034C73.8254 116.78 72.4069 118.198 70.661 118.198H62.2209V126.643C62.2209 128.389 60.8024 129.808 59.0565 129.808H46.1189C44.373 129.808 42.9545 128.389 42.9545 126.643V118.198H34.5145C32.7686 118.198 31.3501 116.78 31.3501 115.034V102.101C31.3501 100.355 32.7686 98.9367 34.5145 98.9367H42.9545V90.492C42.9545 88.7461 44.373 87.3275 46.1189 87.3275ZM55.8921 93.6564H49.2833V102.101C49.2833 103.847 47.8648 105.266 46.1189 105.266H37.6789V111.874H46.1189C47.8648 111.874 49.2833 113.293 49.2833 115.039V123.484H55.8921V115.039C55.8921 113.293 57.3106 111.874 59.0565 111.874H67.4965V105.266H59.0565C57.3106 105.266 55.8921 103.847 55.8921 102.101V93.6564ZM55.7498 10.2096V46.5933C58.62 45.2365 61.7702 44.5486 64.9394 44.5486C68.0611 44.5486 70.7938 45.1701 73.6356 46.3656C72.7247 39.4248 70.6562 32.7354 67.5677 26.5631C64.5646 20.5521 60.5794 15.0203 55.745 10.2049L55.7498 10.2096ZM49.4209 46.5981V10.2096C44.5818 15.0203 40.6014 20.5521 37.5935 26.5631C34.5097 32.7354 32.4365 39.4248 31.5256 46.3656C34.2251 45.1606 37.2709 44.5486 40.2266 44.5486C43.4289 44.5486 46.5317 45.2365 49.4162 46.5933L49.4209 46.5981ZM61.6421 7.22076C66.3057 12.1548 70.196 17.734 73.2039 23.7498C76.7905 30.9183 79.1247 38.7179 80.0404 46.8021C83.0103 45.3124 86.3313 44.5533 89.6522 44.5533C92.7977 44.5533 95.5588 45.1843 98.4338 46.4083C97.058 36.1085 92.29 26.8762 85.297 19.8832C78.9587 13.5449 70.7843 9.03781 61.6421 7.22076ZM25.1256 46.8021C26.0412 38.7179 28.3754 30.9183 31.9621 23.7498C34.9699 17.734 38.8602 12.1548 43.5238 7.22076C34.3816 9.03781 26.2073 13.5449 19.8737 19.8832C12.8807 26.8762 8.11268 36.1085 6.73684 46.4083C9.63559 45.189 12.3446 44.5533 15.5185 44.5533C18.8679 44.5533 22.1414 45.3077 25.1303 46.8021H25.1256ZM37.7738 80.7567C31.834 84.1821 25.2964 86.5874 18.4409 87.8115C16.9323 100.887 19.6792 113.72 25.6048 124.57C31.7248 135.776 41.2371 144.88 52.9459 149.975C64.5551 144.918 73.8396 135.899 79.7794 124.802C85.6149 113.905 88.2337 100.986 86.7108 87.8162C79.8553 86.5922 73.3225 84.1868 67.3874 80.7615C61.8794 77.5828 56.8694 73.5075 52.5901 68.6779C48.3108 73.5028 43.3008 77.5781 37.7738 80.7662V80.7567Z" fill="#749D6E"/>
</svg>
