<?xml version="1.0" encoding="utf-8"?>
<!-- Generator: Adobe Illustrator 16.0.0, SVG Export Plug-In . SVG Version: 6.00 Build 0)  -->
<!DOCTYPE svg PUBLIC "-//W3C//DTD SVG 1.1//EN" "http://www.w3.org/Graphics/SVG/1.1/DTD/svg11.dtd">
<svg version="1.1" id="Layer_1" xmlns="http://www.w3.org/2000/svg" xmlns:xlink="http://www.w3.org/1999/xlink" x="0px" y="0px"
	 width="190.625px" height="235.938px" viewBox="0 0 190.625 235.938" enable-background="new 0 0 190.625 235.938"
	 xml:space="preserve">
<g transform="translate(64.000000, 576.000000)">
	<path fill="#245FAD" d="M50.948-444.569c2.589,1.084,4.796,2.018,6.622,2.8c20.534,8.806,34.723,27.62,34.723,49.408v15.638
		H-29.669v-15.638c0-21.737,14.124-40.516,34.586-49.349l6.068-2.859"/>
	<path fill="#FFFFFF" d="M31.313-441.77c-34.147,0-44.72-34.04-44.72-60.981s20.021-36.589,44.72-36.589s44.719,9.647,44.719,36.589
		S65.459-441.77,31.313-441.77z"/>
	<path fill="#54ABDF" d="M-13.407-498.781v-3.97c0-20.208,16.381-36.589,36.589-36.589h16.262c20.208,0,36.588,16.381,36.588,36.589
		v4.065H33.456c-12.246,0-23.439-6.297-28.9-16.262C4.556-506.019-3.406-498.781-13.407-498.781z"/>
	<path fill="#164F84" d="M-25.604-380.788v-11.573c0-19.562,12.602-37.188,32.13-45.617l6.189-2.91
		c2.033-0.956,2.904-3.378,1.948-5.411c-0.957-2.029-3.379-2.902-5.41-1.945l-6.07,2.858c-22.28,9.612-36.918,30.086-36.918,53.025
		v15.638c0,2.248,1.82,4.066,4.065,4.066H92.293c2.248,0,4.066-1.818,4.066-4.066v-15.638c0-22.991-14.706-43.505-37.188-53.145
		c-1.839-0.786-4.054-1.723-6.65-2.811c-2.072-0.87-4.454,0.106-5.319,2.18c-0.866,2.072,0.11,4.454,2.184,5.319
		c2.572,1.08,4.771,2.006,6.582,2.783c19.601,8.405,32.262,26.064,32.262,45.673v11.573H-25.604z"/>
	<path fill="#164F84" d="M31.313-437.704c32.364,0,48.785-28.22,48.785-65.047c0-27.211-18.822-40.654-48.785-40.654
		s-48.785,13.443-48.785,40.654C-17.473-465.924-1.053-437.704,31.313-437.704z M31.313-445.835
		c-26.695,0-40.654-23.988-40.654-56.916c0-22.022,14.707-32.523,40.654-32.523c25.948,0,40.654,10.501,40.654,32.523
		C71.967-469.823,58.008-445.835,31.313-445.835z"/>
	<path fill="#164F84" d="M33.456-494.62h42.575c2.248,0,4.066-1.818,4.066-4.065v-4.065c0-22.451-18.199-40.654-40.654-40.654
		H23.182c-22.453,0-40.654,18.203-40.654,40.654v3.97c0,2.247,1.82,4.065,4.065,4.065c8.591,0,16.063-4.482,19.692-11.112
		C13.098-498.785,22.945-494.62,33.456-494.62z M23.182-535.274h16.262c17.961,0,32.523,14.563,32.523,32.523H33.456
		c-10.795,0-20.604-5.519-25.335-14.149c-2.023-3.692-7.631-2.255-7.631,1.953c0,5.407-4.069,10.064-9.826,11.581
		C-9.009-521.046,5.425-535.274,23.182-535.274z"/>
</g>
</svg>
