<?xml version="1.0" encoding="utf-8"?>
<!-- Generator: Adobe Illustrator 16.0.0, SVG Export Plug-In . SVG Version: 6.00 Build 0)  -->
<!DOCTYPE svg PUBLIC "-//W3C//DTD SVG 1.1//EN" "http://www.w3.org/Graphics/SVG/1.1/DTD/svg11.dtd">
<svg version="1.1" id="Layer_1" xmlns="http://www.w3.org/2000/svg" xmlns:xlink="http://www.w3.org/1999/xlink" x="0px" y="0px"
	 width="700px" height="700px" viewBox="0 0 700 700" enable-background="new 0 0 700 700" xml:space="preserve">
<g>
	<path fill="#61AE63" d="M528.5,105h-357c-17.637,0-34.551,7.008-47.023,19.477C112.008,136.95,105,153.864,105,171.5v357
		c0,17.637,7.008,34.551,19.477,47.023C136.95,587.992,153.864,595,171.5,595h357c17.637,0,34.551-7.008,47.023-19.477
		C587.992,563.05,595,546.136,595,528.5v-357c0-17.637-7.008-34.551-19.477-47.023C563.05,112.008,546.136,105,528.5,105z
		 M409.99,210l25.444-70h67.763l-25.445,70H409.99z M199.99,210l25.445-70h67.762l-25.445,70H199.99z M330.44,140h67.762l-25.445,70
		h-67.762L330.44,140z M140.01,171.5c0-8.355,3.32-16.367,9.227-22.273S163.154,140,171.51,140h16.766l-25.516,70h-22.75V171.5z
		 M560.01,528.5c0,8.355-3.32,16.367-9.227,22.273c-5.906,5.905-13.918,9.227-22.272,9.227H171.51
		c-8.355,0-16.366-3.32-22.272-9.227c-5.905-5.906-9.227-13.918-9.227-22.273V245h420L560.01,528.5z M560.01,210h-45.012
		l24.676-67.883c5.969,2.262,11.105,6.281,14.738,11.527c3.629,5.25,5.582,11.477,5.598,17.854V210z"/>
	<path fill="#61AE63" d="M297.99,505.43c2.797,1.496,5.945,2.203,9.109,2.051s6.23-1.164,8.863-2.926l131.25-87.5
		c4.871-3.246,7.793-8.707,7.793-14.559s-2.922-11.313-7.793-14.559l-131.25-87.5c-3.527-2.355-7.797-3.348-12.004-2.793
		s-8.07,2.621-10.867,5.816c-2.797,3.191-4.34,7.289-4.34,11.535v174.999c0,3.168,0.859,6.277,2.484,8.996
		C292.865,501.71,295.197,503.937,297.99,505.43L297.99,505.43z M323.752,347.7l82.25,54.793l-82.25,54.793V347.7z"/>
</g>
</svg>
