<svg width="65" height="65" viewBox="0 0 65 65" fill="none" xmlns="http://www.w3.org/2000/svg">
<g clip-path="url(#clip0_1035_36)">
<path d="M28.444 19.4226C29.4218 18.8775 30.4734 18.477 31.566 18.2336L31.524 15.1646C29.8811 15.4563 28.2948 16.0065 26.824 16.7946C26.0607 16.8784 25.319 17.1004 24.635 17.4496C22.901 18.3906 21.935 19.9736 22.483 20.9886C23.031 22.0036 24.883 22.0526 26.615 21.1136C27.3431 20.6933 27.968 20.1156 28.444 19.4226ZM38.632 42.6436C38.632 40.8746 36.906 39.9776 34.909 39.1696L34.881 41.3846C35.809 41.8056 36.423 42.2326 36.423 42.7846C36.423 44.3676 35.431 45.2746 34.179 46.0166L34.366 30.8546C34.066 31.0146 33.766 31.1736 33.476 31.3246L32.376 31.9306L32.559 46.8866C30.803 47.7926 29.107 48.7756 29.107 50.9866C29.107 55.4006 37.074 55.9676 37.074 55.9676C36.0368 55.7393 35.028 55.3969 34.066 54.9466L34.14 49.0286C33.574 49.3866 33.04 49.7286 32.602 50.0626L32.649 54.1076C32.1588 53.8057 31.7483 53.3902 31.4524 52.8962C31.1566 52.4023 30.9839 51.8443 30.949 51.2696C30.951 48.8906 38.632 47.3886 38.632 42.6436ZM35.205 14.9616L35.167 18.0136C37.151 18.2696 38.619 19.2476 38.619 21.0016C38.619 23.4616 36.719 25.1686 34.419 26.6486L34.593 12.4986C35.1653 12.2211 35.6264 11.7578 35.9012 11.1843C36.176 10.6108 36.2481 9.961 36.1057 9.3412C35.9634 8.7214 35.615 8.1682 35.1176 7.77204C34.6201 7.37587 34.003 7.16016 33.367 7.16016C32.7311 7.16016 32.114 7.37587 31.6165 7.77204C31.119 8.1682 30.7707 8.7214 30.6283 9.3412C30.486 9.961 30.5581 10.6108 30.8329 11.1843C31.1076 11.7578 31.5688 12.2211 32.141 12.4986L32.324 27.9046C29.29 29.6546 26.299 31.2886 26.299 33.8576C26.299 37.3396 29.154 39.0106 31.833 40.1466L31.804 37.8816C30.191 37.0876 28.923 36.0686 28.923 34.3216C28.924 30.8136 41.794 29.7136 41.794 20.7486C41.795 17.0726 38.846 15.2426 35.205 14.9616ZM32.696 57.6136C32.696 57.6136 32.796 58.2316 33.364 58.2316C33.932 58.2316 34.035 57.6136 34.035 57.6136L34.054 56.0846C33.609 55.9676 33.144 55.8246 32.668 55.6486L32.696 57.6136Z" fill="white"/>
<path d="M6.93702 17.1009C10.9391 10.5011 17.1468 5.52964 24.4616 3.0663C31.7764 0.602955 39.7268 0.806489 46.906 3.64089C40.0678 0.07336 32.173 -0.910303 24.6684 0.870178C17.1639 2.65066 10.5523 7.07602 6.04551 13.3352C1.53872 19.5944 -0.561434 27.2681 0.129966 34.9499C0.821367 42.6317 4.258 49.8071 9.81003 55.1609C7.93597 50.1061 7.00096 44.7516 7.05102 39.3609C7.05102 27.5119 11.207 17.3809 17.08 13.2909C11.855 17.3349 8.20702 26.4979 8.20702 37.1559C8.11253 43.0956 9.37563 48.9785 11.9 54.3559C12.0793 51.436 13.0157 48.6131 14.617 46.1649C26.324 26.8529 11.991 23.8509 18.454 13.1899C20.9792 9.25789 24.6739 6.21685 29.018 4.49489C24.5473 5.21606 20.2856 6.89592 16.5253 9.41919C12.7649 11.9425 9.59498 15.2494 7.23299 19.1131C4.871 22.9768 3.37287 27.3058 2.84141 31.8029C2.30994 36.3001 2.75772 40.8591 4.15402 45.1669C2.48853 40.5786 1.87395 35.675 2.35561 30.8176C2.83727 25.9602 4.40287 21.2728 6.93702 17.1009Z" fill="white"/>
<path d="M57.212 47.0483C53.2104 53.6486 47.0029 58.6207 39.6881 61.0846C32.3732 63.5485 24.4226 63.3454 17.243 60.5113C24.0817 64.08 31.9775 65.0645 39.4831 63.2843C46.9887 61.5041 53.6013 57.0785 58.1088 50.8187C62.6164 44.5588 64.7168 36.8841 64.0251 29.2013C63.3335 21.5186 59.8961 14.3424 54.343 8.98828C56.2166 14.0432 57.1515 19.3976 57.102 24.7883C57.102 36.6373 52.946 46.7683 47.073 50.8583C52.298 46.8143 55.945 37.6503 55.945 26.9923C56.0398 21.0525 54.7766 15.1696 52.252 9.79228C52.0728 12.7125 51.1364 15.5357 49.535 17.9843C37.829 37.2963 52.16 40.2983 45.698 50.9613C43.1723 54.8901 39.4784 57.9283 35.136 59.6483C39.6056 58.9263 43.8661 57.2461 47.6253 54.723C51.3845 52.1998 54.5535 48.8934 56.9149 45.0305C59.2762 41.1676 60.7741 36.8396 61.3058 32.3435C61.8375 27.8473 61.3903 23.2894 59.995 18.9823C61.6607 23.5706 62.2753 28.4742 61.7937 33.3316C61.312 38.189 59.7463 42.8765 57.212 47.0483Z" fill="white"/>
</g>
<defs>
<clipPath id="clip0_1035_36">
<rect width="64.15" height="64.148" fill="white"/>
</clipPath>
</defs>
</svg>
