<svg width="14" height="14" viewBox="0 0 14 14" fill="none" xmlns="http://www.w3.org/2000/svg">
<path d="M13.6792 2.83828L12.2048 0.358203C12.0736 0.136719 11.8394 0 11.5899 0H2.40914C2.15955 0 1.9254 0.136719 1.79418 0.358203L0.317235 2.83828C-0.444394 4.11797 0.22975 5.89805 1.65266 6.10313C1.75558 6.1168 1.86108 6.125 1.964 6.125C2.63557 6.125 3.23252 5.81328 3.64164 5.33203C4.05076 5.81328 4.64771 6.125 5.31928 6.125C5.99085 6.125 6.58781 5.81328 6.99692 5.33203C7.40604 5.81328 8.003 6.125 8.67457 6.125C9.34871 6.125 9.94309 5.81328 10.3522 5.33203C10.7639 5.81328 11.3583 6.125 12.0298 6.125C12.1353 6.125 12.2383 6.1168 12.3412 6.10313C13.7692 5.90078 14.446 4.1207 13.6818 2.83828H13.6792ZM12.4467 6.96992H12.4441C12.3077 6.98906 12.1688 7 12.0273 7C11.7082 7 11.402 6.94805 11.1164 6.85508V10.5H2.88259V6.85234C2.5944 6.94805 2.28563 7 1.96657 7C1.82505 7 1.68353 6.98906 1.54716 6.96992H1.54459C1.43909 6.95352 1.33617 6.93438 1.23582 6.90703V10.5V12.25C1.23582 13.2152 1.97429 14 2.88259 14H11.1164C12.0247 14 12.7632 13.2152 12.7632 12.25V10.5V6.90703C12.6603 6.93438 12.5573 6.95625 12.4467 6.96992Z" fill="url(#paint0_linear_835_1365)"/>
<defs>
<linearGradient id="paint0_linear_835_1365" x1="7" y1="0" x2="7" y2="14" gradientUnits="userSpaceOnUse">
<stop stop-color="#699270"/>
<stop offset="1" stop-color="#2C527B"/>
</linearGradient>
</defs>
</svg>
