<svg width="15" height="15" viewBox="0 0 15 15" fill="none" xmlns="http://www.w3.org/2000/svg">
<path d="M0.813352 14.0115C0.741934 14.0115 0.673441 13.9831 0.62294 13.9326C0.57244 13.8821 0.544069 13.8136 0.544069 13.7422V2.43228C0.54389 2.37726 0.56057 2.3235 0.591863 2.27825C0.623157 2.23299 0.667562 2.19841 0.719103 2.17915L5.02764 0.56345C5.06847 0.54842 5.11234 0.543509 5.15549 0.549137C5.19863 0.554765 5.23977 0.570763 5.27538 0.595764C5.31105 0.62051 5.34021 0.653513 5.36037 0.691962C5.38054 0.73041 5.3911 0.773163 5.39118 0.816577V12.1265C5.39135 12.1815 5.37467 12.2353 5.34338 12.2805C5.31209 12.3258 5.26768 12.3604 5.21614 12.3796L0.907602 13.9953C0.877401 14.0063 0.845481 14.0118 0.813352 14.0115ZM1.08264 2.61808V13.3544L4.85261 11.9407V1.20434L1.08264 2.61808Z" fill="url(#paint0_linear_835_333)"/>
<path d="M9.43042 14.0115C9.359 14.0115 9.29051 13.9831 9.24001 13.9326C9.1895 13.8821 9.16113 13.8136 9.16113 13.7422V2.43228C9.16096 2.37726 9.17763 2.3235 9.20893 2.27825C9.24022 2.23299 9.28463 2.19841 9.33617 2.17915L13.6447 0.56345C13.6855 0.54842 13.7294 0.543509 13.7726 0.549137C13.8157 0.554765 13.8568 0.570763 13.8924 0.595764C13.9281 0.62051 13.9573 0.653513 13.9774 0.691962C13.9976 0.73041 14.0082 0.773163 14.0082 0.816577V12.1265C14.0084 12.1815 13.9917 12.2353 13.9604 12.2805C13.9292 12.3258 13.8847 12.3604 13.8332 12.3796L9.52467 13.9953C9.49447 14.0063 9.46255 14.0118 9.43042 14.0115ZM9.6997 2.61808V13.3544L13.4697 11.9407V1.20434L9.6997 2.61808Z" fill="url(#paint1_linear_835_333)"/>
<path d="M9.43036 14.0115C9.39823 14.0118 9.36632 14.0063 9.33611 13.9953L5.02757 12.3796C4.97603 12.3604 4.93163 12.3258 4.90034 12.2805C4.86904 12.2353 4.85236 12.1815 4.85254 12.1265V0.816577C4.85261 0.773163 4.86318 0.73041 4.88334 0.691962C4.9035 0.653513 4.93266 0.62051 4.96833 0.595764C5.00394 0.570763 5.04508 0.554765 5.08823 0.549137C5.13137 0.543509 5.17524 0.54842 5.21607 0.56345L9.52461 2.17915C9.57615 2.19841 9.62056 2.23299 9.65185 2.27825C9.68315 2.3235 9.69983 2.37726 9.69965 2.43228V13.7422C9.69965 13.8136 9.67128 13.8821 9.62078 13.9326C9.57028 13.9831 9.50178 14.0115 9.43036 14.0115ZM5.39111 11.9407L9.16108 13.3544V2.61808L5.39111 1.20434V11.9407Z" fill="url(#paint2_linear_835_333)"/>
<path d="M2.96761 9.43318C2.90408 9.43374 2.84238 9.41183 2.79345 9.3713C2.74451 9.33077 2.71148 9.27424 2.7002 9.21171C2.68892 9.14918 2.70011 9.08468 2.7318 9.0296C2.76349 8.97453 2.81363 8.93244 2.87336 8.91077L5.02763 8.10291C5.09477 8.07792 5.16908 8.08061 5.23423 8.11041C5.29937 8.1402 5.35001 8.19466 5.37501 8.26179C5.40001 8.32893 5.39731 8.40324 5.36751 8.46838C5.33772 8.53353 5.28327 8.58417 5.21613 8.60917L3.06186 9.41702C3.03166 9.42798 2.99974 9.43346 2.96761 9.43318Z" fill="url(#paint3_linear_835_333)"/>
<path d="M9.43038 10.2418C9.36685 10.2423 9.30515 10.2204 9.25622 10.1799C9.20728 10.1394 9.17425 10.0828 9.16297 10.0203C9.15169 9.95778 9.16288 9.89327 9.19457 9.8382C9.22626 9.78312 9.2764 9.74103 9.33613 9.71936L11.4904 8.91151C11.5575 8.88651 11.6318 8.88921 11.697 8.919C11.7621 8.9488 11.8128 9.00325 11.8378 9.07039C11.8628 9.13752 11.8601 9.21183 11.8303 9.27698C11.8005 9.34212 11.746 9.39276 11.6789 9.41776L9.52463 10.2256C9.49443 10.2366 9.46251 10.242 9.43038 10.2418Z" fill="url(#paint4_linear_835_333)"/>
<path d="M9.43045 10.241C9.39832 10.2413 9.3664 10.2358 9.3362 10.2249L5.02766 8.60917C4.99442 8.59679 4.96394 8.57799 4.93797 8.55383C4.91199 8.52968 4.89103 8.50064 4.87628 8.46838C4.86153 8.43613 4.85327 8.40128 4.85198 8.36583C4.8507 8.33039 4.85641 8.29503 4.86878 8.26179C4.88116 8.22855 4.89996 8.19807 4.92412 8.1721C4.94828 8.14612 4.97731 8.12516 5.00957 8.11041C5.04182 8.09566 5.07667 8.0874 5.11212 8.08612C5.14757 8.08483 5.18292 8.09054 5.21616 8.10291L9.5247 9.71862C9.58443 9.74029 9.63457 9.78238 9.66626 9.83746C9.69795 9.89253 9.70914 9.95703 9.69786 10.0196C9.68658 10.0821 9.65355 10.1386 9.60461 10.1791C9.55568 10.2197 9.49399 10.2416 9.43045 10.241Z" fill="url(#paint5_linear_835_333)"/>
<path d="M11.5847 8.69134L11.4743 8.64018C11.4124 8.62671 9.96899 7.94004 9.96899 6.45359C9.96899 6.02508 10.1392 5.61412 10.4422 5.31112C10.7452 5.00812 11.1562 4.83789 11.5847 4.83789C12.0132 4.83789 12.4242 5.00812 12.7272 5.31112C13.0302 5.61412 13.2004 6.02508 13.2004 6.45359C13.2004 7.94004 11.757 8.60786 11.6951 8.64018L11.5847 8.69134ZM11.5847 5.39531C11.3023 5.39526 11.0311 5.50616 10.8296 5.7041C10.6282 5.90204 10.5125 6.1712 10.5076 6.45359C10.5076 7.38531 11.2912 7.92388 11.5847 8.09084C11.8836 7.92388 12.6618 7.3907 12.6618 6.45359C12.6569 6.1712 12.5412 5.90204 12.3398 5.7041C12.1383 5.50616 11.8671 5.39526 11.5847 5.39531Z" fill="url(#paint6_linear_835_333)"/>
<path d="M11.5847 6.98534C11.4771 6.98523 11.3721 6.95294 11.2831 6.89261C11.1941 6.83229 11.1251 6.74671 11.0852 6.64688C11.0452 6.54705 11.0361 6.43755 11.0589 6.33247C11.0817 6.22739 11.1355 6.13155 11.2132 6.05728C11.291 5.98302 11.3892 5.93373 11.4952 5.91577C11.6012 5.89781 11.7102 5.91199 11.8081 5.9565C11.906 6.001 11.9883 6.07379 12.0445 6.16548C12.1006 6.25718 12.1281 6.36359 12.1232 6.47101C12.117 6.6096 12.0575 6.74044 11.9572 6.83626C11.8568 6.93208 11.7234 6.98548 11.5847 6.98534Z" fill="url(#paint7_linear_835_333)"/>
<path d="M2.96765 8.62717C2.89623 8.62717 2.82774 8.5988 2.77724 8.5483C2.72674 8.4978 2.69836 8.42931 2.69836 8.35789V7.01147C2.69836 6.94005 2.72674 6.87156 2.77724 6.82106C2.82774 6.77056 2.89623 6.74219 2.96765 6.74219C3.03907 6.74219 3.10756 6.77056 3.15806 6.82106C3.20856 6.87156 3.23693 6.94005 3.23693 7.01147V8.35789C3.23693 8.42931 3.20856 8.4978 3.15806 8.5483C3.10756 8.5988 3.03907 8.62717 2.96765 8.62717Z" fill="url(#paint8_linear_835_333)"/>
<path d="M2.96764 7.27732C2.7546 7.27732 2.54635 7.21414 2.36921 7.09579C2.19208 6.97743 2.05402 6.8092 1.9725 6.61238C1.89097 6.41556 1.86964 6.19899 1.9112 5.99004C1.95276 5.7811 2.05535 5.58917 2.20599 5.43853C2.35663 5.28789 2.54856 5.18531 2.7575 5.14374C2.96644 5.10218 3.18302 5.12351 3.37984 5.20504C3.57666 5.28657 3.74489 5.42462 3.86324 5.60176C3.9816 5.77889 4.04477 5.98715 4.04477 6.20018C4.04477 6.48586 3.93129 6.75983 3.72929 6.96183C3.52729 7.16383 3.25331 7.27732 2.96764 7.27732ZM2.96764 5.66161C2.86112 5.66161 2.75699 5.6932 2.66843 5.75238C2.57986 5.81156 2.51083 5.89567 2.47007 5.99408C2.4293 6.09249 2.41864 6.20078 2.43942 6.30525C2.4602 6.40972 2.51149 6.50569 2.58681 6.58101C2.66213 6.65633 2.7581 6.70762 2.86257 6.7284C2.96704 6.74918 3.07533 6.73852 3.17374 6.69775C3.27215 6.65699 3.35626 6.58796 3.41544 6.49939C3.47462 6.41083 3.50621 6.3067 3.50621 6.20018C3.50621 6.05735 3.44946 5.92036 3.34846 5.81936C3.24746 5.71836 3.11048 5.66161 2.96764 5.66161Z" fill="url(#paint9_linear_835_333)"/>
<defs>
<linearGradient id="paint0_linear_835_333" x1="2.96762" y1="0.546875" x2="2.96762" y2="14.0115" gradientUnits="userSpaceOnUse">
<stop stop-color="#6C956C"/>
<stop offset="1" stop-color="#547789"/>
</linearGradient>
<linearGradient id="paint1_linear_835_333" x1="11.5847" y1="0.546875" x2="11.5847" y2="14.0115" gradientUnits="userSpaceOnUse">
<stop stop-color="#6C956C"/>
<stop offset="1" stop-color="#547789"/>
</linearGradient>
<linearGradient id="paint2_linear_835_333" x1="7.27609" y1="0.546875" x2="7.27609" y2="14.0115" gradientUnits="userSpaceOnUse">
<stop stop-color="#6C956C"/>
<stop offset="1" stop-color="#547789"/>
</linearGradient>
<linearGradient id="paint3_linear_835_333" x1="4.04395" y1="8.08594" x2="4.04395" y2="9.43319" gradientUnits="userSpaceOnUse">
<stop stop-color="#6C956C"/>
<stop offset="1" stop-color="#547789"/>
</linearGradient>
<linearGradient id="paint4_linear_835_333" x1="10.5067" y1="8.89453" x2="10.5067" y2="10.2418" gradientUnits="userSpaceOnUse">
<stop stop-color="#6C956C"/>
<stop offset="1" stop-color="#547789"/>
</linearGradient>
<linearGradient id="paint5_linear_835_333" x1="7.27697" y1="8.08594" x2="7.27697" y2="10.241" gradientUnits="userSpaceOnUse">
<stop stop-color="#6C956C"/>
<stop offset="1" stop-color="#547789"/>
</linearGradient>
<linearGradient id="paint6_linear_835_333" x1="11.5847" y1="4.83789" x2="11.5847" y2="8.69134" gradientUnits="userSpaceOnUse">
<stop stop-color="#6C956C"/>
<stop offset="1" stop-color="#547789"/>
</linearGradient>
<linearGradient id="paint7_linear_835_333" x1="11.5852" y1="5.9082" x2="11.5852" y2="6.98534" gradientUnits="userSpaceOnUse">
<stop stop-color="#6C956C"/>
<stop offset="1" stop-color="#547789"/>
</linearGradient>
<linearGradient id="paint8_linear_835_333" x1="2.96765" y1="6.74219" x2="2.96765" y2="8.62717" gradientUnits="userSpaceOnUse">
<stop stop-color="#6C956C"/>
<stop offset="1" stop-color="#547789"/>
</linearGradient>
<linearGradient id="paint9_linear_835_333" x1="2.96764" y1="5.12305" x2="2.96764" y2="7.27732" gradientUnits="userSpaceOnUse">
<stop stop-color="#6C956C"/>
<stop offset="1" stop-color="#547789"/>
</linearGradient>
</defs>
</svg>
