<svg width="17" height="14" viewBox="0 0 17 14" fill="none" xmlns="http://www.w3.org/2000/svg">
<path d="M12.0417 3.33044C12.0417 4.84579 9.8842 7.54622 8.9368 8.65914C8.70955 8.92557 8.2875 8.92557 8.06319 8.65914C7.1158 7.54622 4.95833 4.84579 4.95833 3.33044C4.95833 1.49037 6.54323 0 8.5 0C10.4568 0 12.0417 1.49037 12.0417 3.33044ZM12.2778 5.56183C12.3811 5.37033 12.4755 5.17883 12.5611 4.9901C12.5759 4.9568 12.5906 4.92072 12.6054 4.88742L16.029 3.59965C16.4953 3.4248 17 3.74674 17 4.21855V11.7342C17 12.0062 16.8229 12.2505 16.5543 12.3531L12.2778 13.9601V9.76096V5.56183ZM4.06111 3.83833C4.13194 4.22966 4.27361 4.62376 4.43889 4.9901C4.52448 5.17883 4.61892 5.37033 4.72222 5.56183V12.5391L0.971007 13.9518C0.504688 14.1266 0 13.8047 0 13.3328V5.81716C0 5.54518 0.177083 5.30095 0.44566 5.19826L4.06406 3.83833H4.06111ZM9.67465 9.21421C10.0849 8.7313 10.7283 7.94587 11.3333 7.07718V13.9962L5.66667 12.4725V7.07718C6.2717 7.94587 6.9151 8.7313 7.32535 9.21421C7.93038 9.9247 9.06962 9.9247 9.67465 9.21421ZM8.5 4.21855C8.8131 4.21855 9.11338 4.10159 9.33478 3.8934C9.55618 3.68521 9.68056 3.40284 9.68056 3.10841C9.68056 2.81398 9.55618 2.53161 9.33478 2.32342C9.11338 2.11522 8.8131 1.99826 8.5 1.99826C8.1869 1.99826 7.88662 2.11522 7.66522 2.32342C7.44382 2.53161 7.31944 2.81398 7.31944 3.10841C7.31944 3.40284 7.44382 3.68521 7.66522 3.8934C7.88662 4.10159 8.1869 4.21855 8.5 4.21855Z" fill="white"/>
</svg>
