<svg width="12" height="17" viewBox="0 0 12 17" fill="none" xmlns="http://www.w3.org/2000/svg">
<path d="M1.05882 15.5231V15.5731H1.10882H9.97934H10.0293V15.5231V8.31585V8.26585H9.97934H1.10882H1.05882V8.31585V15.5231ZM10.5337 16.582H0.554408C0.42063 16.582 0.292332 16.5288 0.197738 16.4342C0.103143 16.3396 0.05 16.2113 0.05 16.0776V7.76144C0.05 7.62766 0.103143 7.49936 0.197738 7.40477C0.292332 7.31017 0.42063 7.25703 0.554408 7.25703H10.5337C10.6675 7.25703 10.7958 7.31017 10.8904 7.40477C10.985 7.49936 11.0382 7.62766 11.0382 7.76144V16.0776C11.0382 16.2113 10.985 16.3396 10.8904 16.4342C10.7958 16.5288 10.6675 16.582 10.5337 16.582Z" fill="url(#paint0_linear_1026_27)" stroke="#4AAA65" stroke-width="0.1"/>
<path d="M9.425 8.26612C9.29122 8.26612 9.16293 8.21297 9.06833 8.11838C8.97374 8.02378 8.92059 7.89549 8.92059 7.76171V4.43526C8.92059 3.53977 8.56486 2.68096 7.93166 2.04775C7.29845 1.41455 6.43964 1.05882 5.54415 1.05882C4.64866 1.05882 3.78985 1.41455 3.15664 2.04775C2.52343 2.68096 2.1677 3.53977 2.1677 4.43526V7.76171C2.1677 7.89549 2.11456 8.02378 2.01996 8.11838C1.92537 8.21297 1.79707 8.26612 1.66329 8.26612C1.52952 8.26612 1.40122 8.21297 1.30662 8.11838C1.21203 8.02378 1.15889 7.89549 1.15889 7.76171V4.43526C1.15889 3.27222 1.6209 2.15681 2.4433 1.33441C3.2657 0.512017 4.3811 0.05 5.54415 0.05C6.70719 0.05 7.8226 0.512017 8.645 1.33441C9.46739 2.15681 9.92941 3.27222 9.92941 4.43526V7.76171C9.92941 7.89549 9.87627 8.02378 9.78167 8.11838C9.68708 8.21297 9.55878 8.26612 9.425 8.26612Z" fill="url(#paint1_linear_1026_27)" stroke="#4AAA65" stroke-width="0.1"/>
<path d="M5.54408 14.3655C5.11623 14.3655 4.7059 14.1955 4.40336 13.8929C4.10082 13.5904 3.93086 13.1801 3.93086 12.7522V11.089C3.93086 10.6612 4.10082 10.2508 4.40336 9.94828C4.7059 9.64575 5.11623 9.47578 5.54408 9.47578C5.97194 9.47578 6.38227 9.64575 6.6848 9.94828C6.98734 10.2508 7.15731 10.6612 7.15731 11.089V12.7522C7.15731 13.1801 6.98734 13.5904 6.6848 13.8929C6.38227 14.1955 5.97194 14.3655 5.54408 14.3655ZM5.54408 10.4846C5.38378 10.4846 5.23005 10.5483 5.1167 10.6616C5.00335 10.775 4.93967 10.9287 4.93967 11.089V12.7522C4.93967 12.9125 5.00335 13.0663 5.1167 13.1796C5.23005 13.293 5.38378 13.3566 5.54408 13.3566C5.70438 13.3566 5.85811 13.293 5.97146 13.1796C6.08481 13.0663 6.14849 12.9125 6.14849 12.7522V11.089C6.14849 10.9287 6.08481 10.775 5.97146 10.6616C5.85811 10.5483 5.70438 10.4846 5.54408 10.4846Z" fill="url(#paint2_linear_1026_27)" stroke="#709B66" stroke-width="0.1"/>
<defs>
<linearGradient id="paint0_linear_1026_27" x1="5.54408" y1="7.20703" x2="5.54408" y2="16.632" gradientUnits="userSpaceOnUse">
<stop stop-color="#709B66"/>
<stop offset="1" stop-color="#709B66"/>
</linearGradient>
<linearGradient id="paint1_linear_1026_27" x1="5.54415" y1="0" x2="5.54415" y2="8.31612" gradientUnits="userSpaceOnUse">
<stop stop-color="#709B66"/>
<stop offset="1" stop-color="#6E9869"/>
</linearGradient>
<linearGradient id="paint2_linear_1026_27" x1="5.54408" y1="9.42578" x2="5.54408" y2="14.4155" gradientUnits="userSpaceOnUse">
<stop stop-color="#709B66"/>
<stop offset="1" stop-color="#4C6C93"/>
</linearGradient>
</defs>
</svg>
