<svg width="13" height="12" viewBox="0 0 13 12" fill="none" xmlns="http://www.w3.org/2000/svg">
<g clip-path="url(#clip0_835_694)">
<path d="M1.18846 1.5C0.532332 1.5 0 2.00391 0 2.625C0 2.97891 0.175793 3.31172 0.475385 3.525L5.86308 7.35C6.14534 7.54922 6.53159 7.54922 6.81385 7.35L12.2015 3.525C12.5011 3.31172 12.6769 2.97891 12.6769 2.625C12.6769 2.00391 12.1446 1.5 11.4885 1.5H1.18846ZM0 4.125V9C0 9.82734 0.710601 10.5 1.58462 10.5H11.0923C11.9663 10.5 12.6769 9.82734 12.6769 9V4.125L7.28923 7.95C6.72471 8.35078 5.95221 8.35078 5.38769 7.95L0 4.125Z" fill="white"/>
</g>
<defs>
<clipPath id="clip0_835_694">
<rect width="12.6769" height="12" fill="white"/>
</clipPath>
</defs>
</svg>
