<svg width="9" height="11" viewBox="0 0 9 11" fill="none" xmlns="http://www.w3.org/2000/svg">
<g clip-path="url(#clip0_835_304)">
<path d="M4.49989 5.17282C3.98074 5.17282 3.47324 5.02113 3.04158 4.73693C2.60992 4.45273 2.27348 4.04879 2.07481 3.57619C1.87614 3.10358 1.82416 2.58354 1.92544 2.08183C2.02672 1.58011 2.27672 1.11926 2.64381 0.757543C3.01091 0.395827 3.47862 0.149495 3.9878 0.0496983C4.49698 -0.0500989 5.02476 0.00112067 5.50439 0.19688C5.98403 0.392639 6.39398 0.724146 6.68241 1.14948C6.97084 1.57481 7.12478 2.07487 7.12478 2.58641C7.12399 3.27213 6.84718 3.92954 6.35509 4.41441C5.863 4.89929 5.19581 5.17204 4.49989 5.17282ZM4.49989 0.738975C4.12907 0.738975 3.76657 0.847325 3.45824 1.05032C3.14991 1.25332 2.9096 1.54185 2.76769 1.87943C2.62578 2.217 2.58865 2.58846 2.661 2.94683C2.73334 3.30519 2.91191 3.63438 3.17412 3.89274C3.43633 4.15111 3.77041 4.32706 4.13411 4.39835C4.49781 4.46963 4.8748 4.43305 5.21739 4.29322C5.55999 4.15339 5.85281 3.9166 6.05883 3.61279C6.26485 3.30898 6.37481 2.9518 6.37481 2.58641C6.37422 2.09662 6.17649 1.62706 5.825 1.28072C5.47352 0.93439 4.99697 0.739562 4.49989 0.738975Z" fill="url(#paint0_linear_835_304)"/>
<path d="M4.49985 10.999C3.17735 10.9979 1.8733 10.6932 0.691138 10.1089C0.431392 9.97647 0.225896 9.75987 0.109242 9.4956C-0.00741075 9.23132 -0.0280976 8.93551 0.0506643 8.65797C0.361808 7.74121 0.960292 6.94544 1.75988 6.38533C2.55947 5.82523 3.51887 5.52971 4.49985 5.54135C5.47993 5.5302 6.43836 5.82556 7.23733 6.38497C8.03631 6.94438 8.63468 7.73902 8.94642 8.65465C9.03242 8.93111 9.01612 9.22867 8.90043 9.49441C8.78473 9.76016 8.57715 9.97686 8.31457 10.106C7.13114 10.6929 5.82473 10.9987 4.49985 10.999ZM4.49985 6.28032C3.67929 6.26822 2.87599 6.51297 2.20558 6.97934C1.53517 7.44571 1.03222 8.10965 0.769134 8.8756C0.742836 8.98632 0.754297 9.1025 0.801746 9.20615C0.849195 9.30981 0.929986 9.39518 1.03162 9.44904C2.10815 9.98095 3.29556 10.2586 4.49985 10.2601C5.70695 10.2602 6.89731 9.98184 7.97558 9.44719C8.0801 9.39685 8.16304 9.31153 8.20961 9.20649C8.25618 9.10145 8.26335 8.98352 8.22983 8.87375C7.9663 8.10837 7.4633 7.44501 6.7931 6.97903C6.1229 6.51304 5.32002 6.26842 4.49985 6.28032Z" fill="url(#paint1_linear_835_304)"/>
</g>
<defs>
<linearGradient id="paint0_linear_835_304" x1="4.49989" y1="0" x2="4.49989" y2="5.17282" gradientUnits="userSpaceOnUse">
<stop stop-color="#6C956C"/>
<stop offset="1" stop-color="#547789"/>
</linearGradient>
<linearGradient id="paint1_linear_835_304" x1="4.50226" y1="5.54102" x2="4.50226" y2="10.999" gradientUnits="userSpaceOnUse">
<stop stop-color="#6C956C"/>
<stop offset="1" stop-color="#547789"/>
</linearGradient>
<clipPath id="clip0_835_304">
<rect width="9" height="11" fill="white"/>
</clipPath>
</defs>
</svg>
