<svg width="12" height="16" viewBox="0 0 12 16" fill="none" xmlns="http://www.w3.org/2000/svg">
<path d="M0.4375 0.06823C0.703125 -0.053653 1.01562 -0.00990015 1.2375 0.180737L2.5 1.26206L3.7625 0.180737C4.04375 -0.0599034 4.45938 -0.0599034 4.7375 0.180737L6 1.26206L7.2625 0.180737C7.54375 -0.0599034 7.95625 -0.0599034 8.2375 0.180737L9.5 1.26206L10.7625 0.180737C10.9844 -0.00990015 11.2969 -0.053653 11.5625 0.06823C11.8281 0.190113 12 0.455755 12 0.749525V15.2505C12 15.5442 11.8281 15.8099 11.5625 15.9318C11.2969 16.0537 10.9844 16.0099 10.7625 15.8193L9.5 14.7379L8.2375 15.8193C7.95625 16.0599 7.54375 16.0599 7.2625 15.8193L6 14.7379L4.7375 15.8193C4.45625 16.0599 4.04063 16.0599 3.7625 15.8193L2.5 14.7379L1.2375 15.8193C1.01562 16.0099 0.703125 16.0537 0.4375 15.9318C0.171875 15.8099 0 15.5442 0 15.2505V0.749525C0 0.455755 0.171875 0.190113 0.4375 0.06823ZM3 4.49977C2.725 4.49977 2.5 4.72478 2.5 4.9998C2.5 5.27482 2.725 5.49984 3 5.49984H9C9.275 5.49984 9.5 5.27482 9.5 4.9998C9.5 4.72478 9.275 4.49977 9 4.49977H3ZM2.5 11.0002C2.5 11.2752 2.725 11.5002 3 11.5002H9C9.275 11.5002 9.5 11.2752 9.5 11.0002C9.5 10.7252 9.275 10.5002 9 10.5002H3C2.725 10.5002 2.5 10.7252 2.5 11.0002ZM3 7.49997C2.725 7.49997 2.5 7.72498 2.5 8C2.5 8.27502 2.725 8.50003 3 8.50003H9C9.275 8.50003 9.5 8.27502 9.5 8C9.5 7.72498 9.275 7.49997 9 7.49997H3Z" fill="url(#paint0_linear_641_1140)"/>
<defs>
<linearGradient id="paint0_linear_641_1140" x1="6" y1="0" x2="6" y2="16" gradientUnits="userSpaceOnUse">
<stop stop-color="#7BA957"/>
<stop offset="1" stop-color="#3B58A6"/>
</linearGradient>
</defs>
</svg>
