<svg width="13" height="15" viewBox="0 0 13 15" fill="none" xmlns="http://www.w3.org/2000/svg">
<path d="M5.55659 6.88124C4.92979 6.88124 4.31707 6.69537 3.79591 6.34714C3.27475 5.99891 2.86855 5.50396 2.62869 4.92488C2.38882 4.3458 2.32606 3.70859 2.44835 3.09384C2.57063 2.47909 2.87246 1.9144 3.31567 1.47119C3.75888 1.02798 4.32357 0.726146 4.93832 0.603864C5.55307 0.481582 6.19028 0.544342 6.76936 0.784206C7.34844 1.02407 7.8434 1.43027 8.19162 1.95143C8.53985 2.47259 8.72572 3.08531 8.72572 3.7121C8.72476 4.55232 8.39056 5.35784 7.79644 5.95196C7.20232 6.54608 6.3968 6.88028 5.55659 6.88124ZM5.55659 1.44844C5.10888 1.44844 4.67122 1.5812 4.29896 1.82993C3.9267 2.07867 3.63656 2.43221 3.46523 2.84584C3.2939 3.25947 3.24907 3.71462 3.33642 4.15372C3.42376 4.59283 3.63935 4.99618 3.95593 5.31276C4.27251 5.62934 4.67586 5.84493 5.11497 5.93228C5.55408 6.01962 6.00922 5.97479 6.42285 5.80346C6.83649 5.63213 7.19002 5.34199 7.43876 4.96973C7.68749 4.59747 7.82025 4.15982 7.82025 3.7121C7.81953 3.11196 7.58081 2.53661 7.15645 2.11224C6.73208 1.68788 6.15673 1.44916 5.55659 1.44844Z" fill="url(#paint0_linear_835_317)"/>
<path d="M5.5566 14.0217C3.95989 14.0203 2.38546 13.6469 0.95819 12.9311C0.644589 12.7688 0.396485 12.5034 0.255645 12.1795C0.114805 11.8557 0.0898291 11.4933 0.184921 11.1532C0.560577 10.0299 1.28315 9.05483 2.24852 8.36853C3.2139 7.68223 4.37223 7.32013 5.5566 7.33439C7.06435 7.33324 8.51281 7.92156 9.59272 8.97374C9.63717 9.01499 9.67287 9.06476 9.69772 9.12008C9.72256 9.1754 9.73604 9.23514 9.73735 9.29577C9.73866 9.3564 9.72778 9.41667 9.70535 9.47302C9.68291 9.52936 9.64939 9.58062 9.60677 9.62376C9.56415 9.66689 9.51329 9.70103 9.45723 9.72414C9.40116 9.74724 9.34102 9.75885 9.28038 9.75827C9.21974 9.75769 9.15984 9.74493 9.10422 9.72075C9.04861 9.69658 8.99842 9.66147 8.95663 9.61752C8.04643 8.73231 6.82628 8.23791 5.5566 8.23986C4.56591 8.22503 3.59605 8.52492 2.78664 9.09637C1.97722 9.66781 1.37 10.4813 1.05236 11.4199C1.02061 11.5555 1.03445 11.6979 1.09173 11.8249C1.14902 11.9519 1.24656 12.0565 1.36927 12.1225C2.66901 12.7742 4.10262 13.1145 5.5566 13.1162C6.49924 13.1137 7.43625 12.9709 8.33684 12.6925C8.39377 12.6743 8.45373 12.6676 8.51326 12.6727C8.5728 12.6778 8.63073 12.6947 8.68372 12.7223C8.73672 12.7499 8.78372 12.7877 8.82202 12.8336C8.86032 12.8795 8.88916 12.9325 8.90687 12.9895C8.92459 13.0466 8.93084 13.1066 8.92525 13.1661C8.91966 13.2256 8.90235 13.2834 8.87432 13.3362C8.84628 13.389 8.80808 13.4357 8.76191 13.4736C8.71574 13.5115 8.66252 13.5399 8.60531 13.5572C7.61776 13.8625 6.59026 14.0191 5.5566 14.0217Z" fill="url(#paint1_linear_835_317)"/>
<path d="M10.084 14.1262C9.5467 14.1262 9.02151 13.9668 8.5748 13.6684C8.12809 13.3699 7.77993 12.9456 7.57433 12.4493C7.36873 11.9529 7.31494 11.4067 7.41975 10.8798C7.52456 10.3529 7.78327 9.86887 8.16317 9.48898C8.54307 9.10908 9.02708 8.85037 9.55401 8.74556C10.0809 8.64074 10.6271 8.69454 11.1235 8.90013C11.6198 9.10573 12.0441 9.4539 12.3426 9.90061C12.641 10.3473 12.8004 10.8725 12.8004 11.4098C12.7995 12.1299 12.5131 12.8204 12.0038 13.3296C11.4946 13.8389 10.8041 14.1253 10.084 14.1262ZM10.084 9.59883C9.72579 9.59883 9.37566 9.70504 9.07786 9.90403C8.78005 10.103 8.54794 10.3858 8.41087 10.7167C8.27381 11.0477 8.23794 11.4118 8.30782 11.7631C8.37769 12.1143 8.55017 12.437 8.80343 12.6903C9.0567 12.9435 9.37937 13.116 9.73066 13.1859C10.0819 13.2558 10.4461 13.2199 10.777 13.0828C11.1079 12.9458 11.3907 12.7137 11.5897 12.4159C11.7887 12.1181 11.8949 11.7679 11.8949 11.4098C11.8949 10.9295 11.7041 10.4689 11.3645 10.1292C11.0249 9.78962 10.5642 9.59883 10.084 9.59883Z" fill="url(#paint2_linear_835_317)"/>
<path d="M10.084 12.7652C9.96389 12.7652 9.84873 12.7175 9.76383 12.6326C9.67892 12.5477 9.63123 12.4326 9.63123 12.3125V10.5016C9.63123 10.3815 9.67892 10.2663 9.76383 10.1814C9.84873 10.0965 9.96389 10.0488 10.084 10.0488C10.204 10.0488 10.3192 10.0965 10.4041 10.1814C10.489 10.2663 10.5367 10.3815 10.5367 10.5016V12.3125C10.5367 12.4326 10.489 12.5477 10.4041 12.6326C10.3192 12.7175 10.204 12.7652 10.084 12.7652Z" fill="url(#paint3_linear_835_317)"/>
<path d="M10.9895 11.8586H9.17856C9.05849 11.8586 8.94334 11.8109 8.85843 11.726C8.77353 11.6411 8.72583 11.5259 8.72583 11.4059C8.72583 11.2858 8.77353 11.1706 8.85843 11.0857C8.94334 11.0008 9.05849 10.9531 9.17856 10.9531H10.9895C11.1096 10.9531 11.2247 11.0008 11.3096 11.0857C11.3945 11.1706 11.4422 11.2858 11.4422 11.4059C11.4422 11.5259 11.3945 11.6411 11.3096 11.726C11.2247 11.8109 11.1096 11.8586 10.9895 11.8586Z" fill="url(#paint4_linear_835_317)"/>
<defs>
<linearGradient id="paint0_linear_835_317" x1="5.55659" y1="0.542969" x2="5.55659" y2="6.88124" gradientUnits="userSpaceOnUse">
<stop stop-color="#6C956C"/>
<stop offset="1" stop-color="#547789"/>
</linearGradient>
<linearGradient id="paint1_linear_835_317" x1="4.93281" y1="7.33398" x2="4.93281" y2="14.0217" gradientUnits="userSpaceOnUse">
<stop stop-color="#6C956C"/>
<stop offset="1" stop-color="#547789"/>
</linearGradient>
<linearGradient id="paint2_linear_835_317" x1="10.084" y1="8.69336" x2="10.084" y2="14.1262" gradientUnits="userSpaceOnUse">
<stop stop-color="#6C956C"/>
<stop offset="1" stop-color="#547789"/>
</linearGradient>
<linearGradient id="paint3_linear_835_317" x1="10.084" y1="10.0488" x2="10.084" y2="12.7652" gradientUnits="userSpaceOnUse">
<stop stop-color="#6C956C"/>
<stop offset="1" stop-color="#547789"/>
</linearGradient>
<linearGradient id="paint4_linear_835_317" x1="10.084" y1="10.9531" x2="10.084" y2="11.8586" gradientUnits="userSpaceOnUse">
<stop stop-color="#6C956C"/>
<stop offset="1" stop-color="#547789"/>
</linearGradient>
</defs>
</svg>
