<svg width="32" height="32" viewBox="0 0 32 32" fill="none" xmlns="http://www.w3.org/2000/svg">
<rect opacity="0.1" width="32" height="32" rx="6" fill="#58A961"/>
<path d="M11.4362 11.4424C11.4324 11.4424 11.4293 11.4393 11.4293 11.4355V9.40171C11.4293 8.93213 11.7258 8.50846 12.1724 8.34252L15.6017 7.0715C15.8589 6.97617 16.1447 6.97617 16.4054 7.0715L19.8348 8.34252C20.2813 8.50846 20.5778 8.9286 20.5778 9.40171V11.4373C20.5778 11.4401 20.5755 11.4424 20.5727 11.4424V11.4424C20.5697 11.4424 20.5673 11.445 20.5675 11.448C20.5744 11.538 20.5778 11.6314 20.5778 11.7249V13.1371C20.5778 15.6333 18.5309 17.6563 16.0054 17.6563C13.4798 17.6563 11.4329 15.6333 11.4329 13.1371V11.7249C11.4329 11.6321 11.4363 11.5393 11.4431 11.4498C11.4434 11.4458 11.4402 11.4424 11.4362 11.4424V11.4424ZM13.144 13.1371C13.144 14.6976 14.4229 15.9616 16.0018 15.9616C17.5807 15.9616 18.8596 14.6976 18.8596 13.1371V13.1371C18.8596 12.8251 18.6067 12.5722 18.2947 12.5722H13.7089C13.3969 12.5722 13.144 12.8251 13.144 13.1371V13.1371ZM11.558 18.6521C12.1929 18.3921 12.8986 18.6355 13.3718 19.1323L15.5838 21.4553C15.8089 21.6918 16.1911 21.6918 16.4162 21.4553L18.6284 19.1321C19.1015 18.6353 19.8069 18.3919 20.4418 18.6516C22.5316 19.5062 24 21.5409 24 23.9161C24 24.5163 23.507 25 22.9033 25H9.09667C8.49297 25 8 24.5128 8 23.9161C8 21.5414 9.47046 19.5071 11.558 18.6521ZM15.4302 8.61791V8.61791C15.4302 8.92989 15.1773 9.18281 14.8653 9.18281H14.8587C14.7015 9.18281 14.5729 9.30991 14.5729 9.46526V10.0302C14.5729 10.1855 14.7015 10.3126 14.8587 10.3126H14.8653C15.1773 10.3126 15.4302 10.5655 15.4302 10.8775V10.8775C15.4302 11.0329 15.5588 11.16 15.716 11.16H16.2876C16.4447 11.16 16.5733 11.0329 16.5733 10.8775V10.8775C16.5733 10.5655 16.8263 10.3126 17.1382 10.3126H17.1449C17.3021 10.3126 17.4307 10.1855 17.4307 10.0302V9.46526C17.4307 9.30991 17.3021 9.18281 17.1449 9.18281H17.1382C16.8263 9.18281 16.5733 8.92989 16.5733 8.61791V8.61791C16.5733 8.46256 16.4447 8.33546 16.2876 8.33546H15.716C15.5588 8.33546 15.4302 8.46256 15.4302 8.61791Z" fill="url(#paint0_linear_1215_17413)"/>
<defs>
<linearGradient id="paint0_linear_1215_17413" x1="16" y1="7" x2="16" y2="25" gradientUnits="userSpaceOnUse">
<stop stop-color="#FF7867"/>
<stop offset="1" stop-color="#FF3A21"/>
</linearGradient>
</defs>
</svg>
