<svg width="32" height="32" viewBox="0 0 32 32" fill="none" xmlns="http://www.w3.org/2000/svg">
<rect opacity="0.1" width="32" height="32" rx="6" fill="#58A961"/>
<path d="M16 16.5C18.2094 16.5 20 14.5975 20 12.25C20 9.90254 18.2094 8 16 8C13.7906 8 12 9.90254 12 12.25C12 14.5975 13.7906 16.5 16 16.5ZM13 18.3328C10.6875 19.0533 9 21.3244 9 24.0139C9 24.5584 9.41563 25 9.92812 25H22.0719C22.5844 25 23 24.5584 23 24.0139C23 21.3244 21.3125 19.0533 19 18.3328V20.0195C19.8625 20.2553 20.5 21.0887 20.5 22.0781V23.4062C20.5 23.6984 20.275 23.9375 20 23.9375H19.5C19.225 23.9375 19 23.6984 19 23.4062C19 23.1141 19.225 22.875 19.5 22.875V22.0781C19.5 21.4904 19.0531 21.0156 18.5 21.0156C17.9469 21.0156 17.5 21.4904 17.5 22.0781V22.875C17.775 22.875 18 23.1141 18 23.4062C18 23.6984 17.775 23.9375 17.5 23.9375H17C16.725 23.9375 16.5 23.6984 16.5 23.4062V22.0781C16.5 21.0887 17.1375 20.2553 18 20.0195V18.1236C17.8125 18.1037 17.6219 18.0938 17.4281 18.0938H14.5719C14.3781 18.0938 14.1875 18.1037 14 18.1236V20.2951C14.7219 20.5242 15.25 21.2348 15.25 22.0781C15.25 23.1041 14.4656 23.9375 13.5 23.9375C12.5344 23.9375 11.75 23.1041 11.75 22.0781C11.75 21.2348 12.2781 20.5242 13 20.2951V18.3328ZM13.5 22.875C13.9156 22.875 14.25 22.5197 14.25 22.0781C14.25 21.6365 13.9156 21.2812 13.5 21.2812C13.0844 21.2812 12.75 21.6365 12.75 22.0781C12.75 22.5197 13.0844 22.875 13.5 22.875Z" fill="url(#paint0_linear_1215_17412)"/>
<defs>
<linearGradient id="paint0_linear_1215_17412" x1="16" y1="8" x2="16" y2="25" gradientUnits="userSpaceOnUse">
<stop stop-color="#5E57B0"/>
<stop offset="1" stop-color="#5E55BF"/>
</linearGradient>
</defs>
</svg>
