<svg width="16" height="13" viewBox="0 0 16 13" fill="none" xmlns="http://www.w3.org/2000/svg">
<path d="M0.103871 0.300193L1.72867 0.983355C1.75517 0.994403 1.78325 1 1.81219 1C1.88404 1 1.94838 0.966269 1.98029 0.912211C2.0265 0.833997 1.98866 0.738692 1.89607 0.699807L0.27127 0.0166447C0.24494 0.00559729 0.216863 0 0.187919 0C0.116076 0 0.0517322 0.0337311 0.0198238 0.0877887C-0.0265614 0.166003 0.0112792 0.261308 0.103871 0.300193Z" fill="url(#paint0_linear_1177_16472)"/>
<path d="M1.8123 7C1.78318 7 1.75511 7.00574 1.72877 7.01664L0.103936 7.69981C0.0113421 7.73869 -0.0264997 7.834 0.0197125 7.91206C0.0516235 7.96627 0.115967 8 0.187812 8C0.216759 8 0.244832 7.99426 0.271165 7.98336L1.896 7.30019C1.9886 7.26131 2.02644 7.166 1.9804 7.08794C1.94831 7.03373 1.88397 7 1.8123 7Z" fill="url(#paint1_linear_1177_16472)"/>
<path d="M15.9481 7.69981L15.1357 7.01664C15.1224 7.0056 15.1084 7 15.0938 7C15.058 7 15.0257 7.03373 15.0099 7.08779C14.9868 7.166 15.0057 7.26131 15.052 7.30019L15.8644 7.98336C15.8776 7.9944 15.8917 8 15.9061 8C15.9421 8 15.9742 7.96627 15.9902 7.91221C16.0132 7.834 15.9943 7.73869 15.9481 7.69981Z" fill="url(#paint2_linear_1177_16472)"/>
<path d="M15.0939 1C15.1084 1 15.1224 0.994256 15.1356 0.983355L15.948 0.300193C15.9943 0.261308 16.0132 0.166004 15.9902 0.087936C15.9742 0.0337302 15.942 0 15.9061 0C15.8916 0 15.8776 0.00574435 15.8644 0.0166447L15.052 0.699808C15.0057 0.738693 14.9868 0.833997 15.0099 0.912065C15.0259 0.96627 15.0581 1 15.0939 1Z" fill="url(#paint3_linear_1177_16472)"/>
<path d="M2 11H15V13H2V11Z" fill="url(#paint4_linear_1177_16472)"/>
<path d="M13 3.5285C13 2.57287 12.3632 1.71026 11.453 1.43757C10.4913 1.14586 9.4973 1 8.49894 1C7.50059 1 6.50666 1.14585 5.54703 1.43757C4.63486 1.71025 4 2.57079 4 3.5285V11H13L13 3.5285ZM11.0808 6.9197H9.59619C9.50794 6.9197 9.43486 6.99152 9.43486 7.07824V8.53709L7.56305 8.53694V7.07809C7.56305 6.99138 7.49207 6.91956 7.40172 6.91956H5.91923V5.08022H7.40172C7.49207 5.08022 7.56305 5.01047 7.56305 4.92169V3.46491H9.43486V4.92169C9.43486 5.01047 9.50794 5.08022 9.59619 5.08022H11.0808V6.9197Z" fill="url(#paint5_linear_1177_16472)"/>
<defs>
<linearGradient id="paint0_linear_1177_16472" x1="1" y1="0" x2="1" y2="1" gradientUnits="userSpaceOnUse">
<stop stop-color="#6C956C"/>
<stop offset="1" stop-color="#547789"/>
</linearGradient>
<linearGradient id="paint1_linear_1177_16472" x1="1" y1="7" x2="1" y2="8" gradientUnits="userSpaceOnUse">
<stop stop-color="#6C956C"/>
<stop offset="1" stop-color="#547789"/>
</linearGradient>
<linearGradient id="paint2_linear_1177_16472" x1="15.5" y1="7" x2="15.5" y2="8" gradientUnits="userSpaceOnUse">
<stop stop-color="#6C956C"/>
<stop offset="1" stop-color="#547789"/>
</linearGradient>
<linearGradient id="paint3_linear_1177_16472" x1="15.5" y1="0" x2="15.5" y2="1" gradientUnits="userSpaceOnUse">
<stop stop-color="#6C956C"/>
<stop offset="1" stop-color="#547789"/>
</linearGradient>
<linearGradient id="paint4_linear_1177_16472" x1="8.5" y1="11" x2="8.5" y2="13" gradientUnits="userSpaceOnUse">
<stop stop-color="#6C956C"/>
<stop offset="1" stop-color="#547789"/>
</linearGradient>
<linearGradient id="paint5_linear_1177_16472" x1="8.5" y1="1" x2="8.5" y2="11" gradientUnits="userSpaceOnUse">
<stop stop-color="#6C956C"/>
<stop offset="1" stop-color="#547789"/>
</linearGradient>
</defs>
</svg>
