<svg width="16" height="12" viewBox="0 0 16 12" fill="none" xmlns="http://www.w3.org/2000/svg">
<path fill-rule="evenodd" clip-rule="evenodd" d="M16 8.85677V10.4928C16 11.3253 15.296 12 14.4273 12H14.4171C13.5487 12 12.8447 11.3253 12.8447 10.4928V8.85677H16ZM8.37013 9.41681L12.2821 10.6866C12.2973 10.8412 12.3303 10.9911 12.3791 11.134C11.9664 11.6496 11.3173 11.9821 10.5876 11.9821C9.34208 11.9821 8.33089 11.013 8.33089 9.81929C8.33089 9.6819 8.34447 9.54715 8.37013 9.41681ZM12.0388 7.49269C11.6145 7.2489 11.1181 7.10865 10.5877 7.10865C9.02664 7.10865 7.75935 8.32332 7.75935 9.81929C7.75935 10.465 7.99544 11.0582 8.38939 11.5242H1.353C0.994255 11.5242 0.650152 11.3876 0.396353 11.1446C0.142548 10.9013 0 10.5716 0 10.2276V3.63923H12.0387L12.0388 7.49269ZM8.54655 8.89581C8.90815 8.16364 9.6866 7.65644 10.5876 7.65644C11.2573 7.65644 11.8593 7.93674 12.2727 8.38145V10.1052L8.54655 8.89581ZM7.0938 8.43457C7.0938 8.132 6.83792 7.88678 6.52223 7.88678H5.51646C5.20075 7.88678 4.94488 8.13201 4.94488 8.43457V9.39849C4.94488 9.70107 5.20076 9.94628 5.51646 9.94628H6.52223C6.83794 9.94628 7.0938 9.70105 7.0938 9.39849V8.43457ZM3.70785 8.43457C3.70785 8.132 3.45197 7.88678 3.13628 7.88678H2.1305C1.81479 7.88678 1.55893 8.13201 1.55893 8.43457V9.39849C1.55893 9.70107 1.81481 9.94628 2.1305 9.94628H3.13628C3.45199 9.94628 3.70785 9.70105 3.70785 9.39849V8.43457ZM6.52226 8.43457H5.51648V9.39849H6.52226V8.43457ZM3.1363 8.43457H2.13053V9.39849H3.1363V8.43457ZM12.8444 8.30909V6.67309C12.8444 5.84082 13.5484 5.16586 14.4168 5.16586H14.4271C15.2957 5.16586 15.9997 5.84068 15.9997 6.67309V8.30909H12.8444ZM3.70799 5.18935C3.70799 4.88677 3.45212 4.64156 3.13642 4.64156H2.13065C1.81494 4.64156 1.55908 4.88679 1.55908 5.18935V6.15327C1.55908 6.45585 1.81496 6.70106 2.13065 6.70106H3.13642C3.45213 6.70106 3.70799 6.45583 3.70799 6.15327V5.18935ZM10.4799 5.18935C10.4799 4.88677 10.224 4.64156 9.90832 4.64156H8.90255C8.58684 4.64156 8.33098 4.88679 8.33098 5.18935V6.15327C8.33098 6.45585 8.58686 6.70106 8.90255 6.70106H9.90832C10.224 6.70106 10.4799 6.45583 10.4799 6.15327V5.18935ZM7.09394 5.18935C7.09394 4.88677 6.83807 4.64156 6.52237 4.64156H5.5166C5.20089 4.64156 4.94503 4.88679 4.94503 5.18935V6.15327C4.94503 6.45585 5.20091 6.70106 5.5166 6.70106H6.52237C6.83808 6.70106 7.09394 6.45583 7.09394 6.15327V5.18935ZM3.1363 5.18935H2.13053V6.15327H3.1363V5.18935ZM9.90821 5.18935H8.90243V6.15327H9.90821V5.18935ZM6.52226 5.18935H5.51648V6.15327H6.52226V5.18935ZM10.3105 0.722576H10.6858C11.0446 0.722576 11.3889 0.859193 11.6425 1.10244C11.8963 1.34568 12.0388 1.67538 12.0388 2.01928V3.09129H8.83113e-05V2.01928C8.83113e-05 1.67546 0.142636 1.34568 0.396441 1.10244C0.650246 0.859193 0.994255 0.722576 1.35308 0.722576H1.72838V1.49576C1.72838 1.98224 2.13993 2.37656 2.64741 2.37656H2.95817C3.46577 2.37656 3.8772 1.98213 3.8772 1.49576V0.722576H8.16148V1.49576C8.16148 1.98224 8.57303 2.37656 9.08051 2.37656H9.39127C9.89911 2.37656 10.3103 1.98213 10.3103 1.49576L10.3105 0.722576ZM3.30566 0.333004C3.30566 0.148973 3.14999 0 2.9582 0H2.64744C2.45553 0 2.29998 0.148967 2.29998 0.333004V1.49574C2.29998 1.67966 2.45564 1.82874 2.64744 1.82874H2.9582C3.15011 1.82874 3.30566 1.67955 3.30566 1.49574V0.333004ZM9.73885 0.333004C9.73885 0.148973 9.58342 0 9.39139 0H9.08063C8.88872 0 8.73317 0.148967 8.73317 0.333004V1.49574C8.73317 1.67966 8.88883 1.82874 9.08063 1.82874H9.39139C9.58341 1.82874 9.73885 1.67955 9.73885 1.49574V0.333004Z" fill="url(#paint0_linear_1177_16479)"/>
<defs>
<linearGradient id="paint0_linear_1177_16479" x1="8" y1="0" x2="8" y2="12" gradientUnits="userSpaceOnUse">
<stop stop-color="#6C956C"/>
<stop offset="1" stop-color="#547789"/>
</linearGradient>
</defs>
</svg>
