<svg width="10" height="12" viewBox="0 0 10 12" fill="none" xmlns="http://www.w3.org/2000/svg">
<path d="M5.35714 1.875H7.64955C7.47321 1.41797 7.1942 1.01953 6.84152 0.705469L5.35714 1.875ZM6.19866 0.276563C5.83259 0.0984375 5.42857 0 5 0C3.80134 0 2.77455 0.775781 2.35045 1.875H4.16741L6.19866 0.276563ZM5 6C6.57812 6 7.85714 4.65703 7.85714 3C7.85714 2.87344 7.85045 2.74687 7.83482 2.625H2.16518C2.14955 2.74687 2.14286 2.87344 2.14286 3C2.14286 4.65703 3.42188 6 5 6ZM2.76786 7.32187C2.55134 7.39453 2.34152 7.48594 2.14286 7.59609V12H5.43973L4.05134 9.56719L2.76786 7.32187ZM3.50446 7.15313L4.56027 9H6.07143C7.05804 9 7.85714 9.83906 7.85714 10.875C7.85714 11.2969 7.72321 11.6859 7.5 12H9.33705C9.70312 12 10 11.6883 10 11.3039C10 8.99531 8.21875 7.125 6.02009 7.125H3.97991C3.8192 7.125 3.66071 7.13437 3.50446 7.15547V7.15313ZM0 11.3039C0 11.6883 0.296875 12 0.662946 12H1.42857V8.09531C0.555804 8.86172 0 10.0148 0 11.3039ZM7.14286 10.875C7.14286 10.2539 6.66295 9.75 6.07143 9.75H4.98884L6.26339 11.9813C6.76339 11.8875 7.14286 11.4281 7.14286 10.875Z" fill="white"/>
</svg>
