<svg width="10" height="15" viewBox="0 0 10 15" fill="none" xmlns="http://www.w3.org/2000/svg">
<path d="M4.83488 6.89866C4.77834 6.98346 4.66526 7.04 4.58046 7.04C4.46738 7.04 4.38257 6.98346 4.32603 6.89866L3.64757 5.9375L3.16699 6.19192L4.7218 7.74673L5.88084 6.58769L5.48507 5.9375L4.83488 6.89866Z" fill="url(#paint0_linear_1177_16465)"/>
<path d="M3.56225 5.23037C3.7036 5.14557 3.87321 5.2021 3.98629 5.34345L4.55168 6.16326L5.1736 5.2021C5.23014 5.1173 5.34321 5.06076 5.45629 5.06076C5.56937 5.06076 5.65418 5.1173 5.73898 5.2021L6.33264 6.13499C6.47399 5.96537 6.53052 5.76749 6.53052 5.5696C6.53052 5.31518 6.44572 5.08903 6.24783 4.91941C5.9086 4.58018 5.28668 4.58018 4.91918 4.91941C4.8061 5.03249 4.57994 5.03249 4.46687 4.91941C4.29725 4.7498 4.0711 4.63672 3.81667 4.63672C3.56225 4.63672 3.3361 4.72153 3.16648 4.91941C2.99687 5.08903 2.88379 5.34345 2.88379 5.5696V5.62614L3.56225 5.23037Z" fill="url(#paint1_linear_1177_16465)"/>
<path d="M2.74219 2.43116H6.67145V1.13077H5.62549C5.45588 1.13077 5.31453 0.989424 5.31453 0.819809V0.593654C5.31453 0.254423 5.03184 0 4.72087 0C4.40991 0 4.12722 0.282693 4.12722 0.593654V0.819809C4.12722 0.989424 3.98587 1.13077 3.81626 1.13077H2.7703V2.43116H2.74219Z" fill="url(#paint2_linear_1177_16465)"/>
<path d="M0.565708 14.5582H8.7919C9.10287 14.5582 9.35729 14.3038 9.35729 13.9929V2.51553C9.35729 2.20457 9.10287 1.95014 8.7919 1.95014H7.26536V2.74168C7.26536 2.9113 7.12402 3.05265 6.9544 3.05265H2.40289C2.23327 3.05265 2.09193 2.9113 2.09193 2.74168V1.92188H0.565385C0.254423 1.92188 0 2.1763 0 2.48726V13.9646C0 14.3038 0.254423 14.5582 0.565385 14.5582H0.565708ZM8.00036 11.4769L6.64344 12.7207C6.5869 12.7773 6.50209 12.8055 6.41728 12.8055H6.38902C6.30421 12.8055 6.2194 12.749 6.16286 12.6925L5.65401 12.0705C5.54094 11.9292 5.54094 11.7313 5.68228 11.6182C5.82363 11.5052 6.02151 11.5052 6.13459 11.6465L6.47382 12.014L7.60459 10.9963C7.74594 10.8832 7.94382 10.8832 8.0569 11.0246C8.14171 11.1659 8.14171 11.3638 8.00036 11.4769ZM8.00036 9.46977L6.64344 10.7136C6.5869 10.7702 6.50209 10.7984 6.41728 10.7984H6.38902C6.30421 10.7984 6.2194 10.7419 6.16286 10.6853L5.62575 10.0634C5.51267 9.92208 5.51267 9.72419 5.65401 9.61111C5.79536 9.49804 5.99325 9.49804 6.10632 9.63938L6.44555 10.0069L7.57632 8.98919C7.71767 8.87611 7.91556 8.87611 8.02863 9.01746C8.14171 9.15881 8.14171 9.35669 8.00036 9.46977ZM1.24417 6.07746H2.06398L2.29013 5.93611C2.26186 5.82303 2.23359 5.68169 2.23359 5.54034C2.23359 5.1163 2.40321 4.72053 2.6859 4.43784C2.99687 4.12688 3.36437 3.98553 3.7884 3.98553C4.09937 3.98553 4.41033 4.07034 4.66475 4.26822C4.91918 4.09861 5.23014 3.98553 5.5411 3.98553C5.96514 3.98553 6.36091 4.15515 6.6436 4.43784C6.95456 4.7488 7.09591 5.1163 7.09591 5.54034C7.09591 5.93611 6.95456 6.27534 6.70014 6.5863H7.97226C8.14187 6.5863 8.28322 6.72765 8.28322 6.89727C8.28322 7.06688 8.14187 7.20823 7.97226 7.20823H6.38918C6.30437 7.20823 6.21956 7.17996 6.16302 7.12342L4.86264 8.42381C4.8061 8.48034 4.72129 8.50861 4.63648 8.50861C4.55167 8.50861 4.46687 8.48034 4.41033 8.42381L2.62936 6.64284C2.57283 6.5863 2.54456 6.52976 2.51629 6.5015L2.23359 6.67111C2.17706 6.69938 2.12052 6.69938 2.06398 6.69938H1.15936C0.989747 6.69938 0.848401 6.55803 0.848401 6.38842C0.904939 6.2188 1.04629 6.07746 1.24417 6.07746ZM1.24417 9.83743H4.49497C4.66459 9.83743 4.80594 9.97878 4.80594 10.1484C4.80594 10.318 4.66459 10.4594 4.49497 10.4594H1.24417C1.07456 10.4594 0.933209 10.318 0.933209 10.1484C0.904939 9.97878 1.04629 9.83743 1.24417 9.83743ZM1.24417 11.9294H4.49497C4.66459 11.9294 4.80594 12.0707 4.80594 12.2403C4.80594 12.4099 4.66459 12.5513 4.49497 12.5513H1.24417C1.07456 12.5513 0.933209 12.4099 0.933209 12.2403C0.904939 12.0707 1.04629 11.9294 1.24417 11.9294Z" fill="url(#paint3_linear_1177_16465)"/>
<defs>
<linearGradient id="paint0_linear_1177_16465" x1="4.52392" y1="5.9375" x2="4.52392" y2="7.74673" gradientUnits="userSpaceOnUse">
<stop stop-color="#6C956C"/>
<stop offset="1" stop-color="#547789"/>
</linearGradient>
<linearGradient id="paint1_linear_1177_16465" x1="4.70716" y1="4.63672" x2="4.70716" y2="6.16326" gradientUnits="userSpaceOnUse">
<stop stop-color="#6C956C"/>
<stop offset="1" stop-color="#547789"/>
</linearGradient>
<linearGradient id="paint2_linear_1177_16465" x1="4.70682" y1="0" x2="4.70682" y2="2.43116" gradientUnits="userSpaceOnUse">
<stop stop-color="#6C956C"/>
<stop offset="1" stop-color="#547789"/>
</linearGradient>
<linearGradient id="paint3_linear_1177_16465" x1="4.67864" y1="1.92187" x2="4.67864" y2="14.5582" gradientUnits="userSpaceOnUse">
<stop stop-color="#6C956C"/>
<stop offset="1" stop-color="#547789"/>
</linearGradient>
</defs>
</svg>
