<svg width="15" height="13" viewBox="0 0 15 13" fill="none" xmlns="http://www.w3.org/2000/svg">
<path d="M2.65969 10.2439C2.65969 10.9784 2.0643 11.5738 1.32984 11.5738C0.595387 11.5738 0 10.9784 0 10.2439C0 9.50945 0.595387 8.91406 1.32984 8.91406C2.0643 8.91406 2.65969 9.50945 2.65969 10.2439Z" fill="url(#paint0_linear_1177_16480)"/>
<path d="M14.867 11.8672H0.23943C0.1659 11.8672 0.106445 11.9268 0.106445 12.0002C0.106445 12.0736 0.1659 12.1332 0.23943 12.1332H14.867C14.9405 12.1332 15 12.0736 15 12.0002C15 11.9268 14.9405 11.8672 14.867 11.8672Z" fill="url(#paint1_linear_1177_16480)"/>
<path d="M2.53918 7.01507L3.24089 7.30553L4.03331 7.63356C4.1489 7.68132 4.27539 7.67977 4.39004 7.62946C4.50446 7.57893 4.59106 7.48633 4.63368 7.3687C4.7082 7.16301 4.62537 6.93334 4.43669 6.82263L3.40877 6.21921C3.22486 6.11127 3.16031 5.87988 3.26177 5.69227L3.35436 5.52117C3.38539 5.46421 3.45122 5.44155 3.51073 5.46022C3.5187 5.46271 3.52696 5.46338 3.53461 5.46753C3.59927 5.50244 3.62332 5.58317 3.58836 5.64778L3.49577 5.81888C3.4628 5.87972 3.48369 5.95486 3.54331 5.98988L4.57122 6.5933C4.87056 6.76889 5.00198 7.13311 4.88379 7.45931C4.81614 7.64592 4.67889 7.79282 4.49731 7.87288C4.40394 7.914 4.30548 7.93461 4.20707 7.93461C4.11381 7.93461 4.02056 7.91616 3.93151 7.87931L3.24676 7.59584C3.24615 8.05131 3.21168 8.50635 3.13965 8.95666L3.13411 8.99118C3.37398 8.73292 3.69363 8.54724 4.05985 8.47831C4.2069 8.45066 4.35314 8.43775 4.52008 8.43775C4.65185 8.43775 4.79824 8.44556 4.98071 8.46235L4.98847 8.46307L4.99617 8.46424L7.11811 8.78534C7.0627 8.3886 7.0336 7.98904 7.03338 7.58877L6.3314 7.87933C6.2423 7.91624 6.14893 7.93463 6.05584 7.93463C5.95726 7.93463 5.85885 7.91396 5.76543 7.87279C5.58385 7.79267 5.44659 7.64583 5.37906 7.45933C5.26486 7.14404 5.38537 6.7949 5.66354 6.61326L5.51537 6.35727L5.51427 6.35782C5.38965 6.42997 5.23013 6.38741 5.15804 6.26279L5.00073 5.99101C4.86082 5.74931 4.94338 5.43989 5.18507 5.29999L5.44788 5.75408L5.72632 6.23509L5.87221 6.48716L6.71933 5.98985C6.77895 5.95483 6.79984 5.87969 6.76687 5.81885L6.67428 5.64775C6.63937 5.58314 6.66336 5.50241 6.72803 5.4675C6.73567 5.46334 6.74393 5.46268 6.75196 5.46013C6.81164 5.44129 6.87747 5.46423 6.90828 5.52113L7.00087 5.69223C7.10227 5.87986 7.03778 6.11125 6.85387 6.21918L5.82596 6.82259C5.63739 6.9333 5.55455 7.16298 5.62908 7.36877C5.67169 7.48635 5.75819 7.57894 5.87261 7.62942C5.98714 7.67996 6.11393 7.68145 6.22951 7.63358L7.72361 7.01504C8.09812 6.86 8.33606 6.49796 8.32958 6.09273C8.32775 5.98202 8.30753 5.87336 8.26946 5.77002L7.7184 4.26953C7.59362 3.92993 7.36488 3.648 7.07691 3.45312C6.80263 3.26755 6.4746 3.16088 6.13001 3.16088H5.98633C5.90532 3.16742 5.82713 3.19418 5.76036 3.24133L5.29048 3.57323C5.20027 3.6369 5.07981 3.6369 4.9896 3.57323L4.51973 3.24133C4.45041 3.19241 4.36878 3.1652 4.28451 3.16016C4.28324 3.16021 4.28218 3.16088 4.28096 3.16088H4.13269C3.80377 3.16088 3.49021 3.25845 3.2238 3.42868C2.9181 3.624 2.67463 3.91518 2.54441 4.26946L1.99325 5.76981C1.95518 5.8737 1.93496 5.98226 1.93324 6.09258C1.92665 6.49807 2.16458 6.86011 2.53915 7.0151L2.53918 7.01507Z" fill="url(#paint2_linear_1177_16480)"/>
<path d="M12.5511 6.2132C12.6108 6.2132 12.6652 6.17269 12.6801 6.11208L12.8425 5.45396C12.8602 5.38265 12.8165 5.31057 12.7453 5.29299C12.6745 5.27531 12.602 5.31898 12.5844 5.39018L12.4219 6.04829C12.4042 6.11961 12.4479 6.19169 12.5191 6.20927C12.5298 6.21192 12.5406 6.2132 12.5511 6.2132Z" fill="url(#paint3_linear_1177_16480)"/>
<path d="M10.8692 5.44086C10.9136 5.44086 10.957 5.41864 10.9822 5.37819L11.4198 4.67598C11.4587 4.61364 11.4397 4.53163 11.3774 4.49279C11.3149 4.454 11.233 4.4729 11.1941 4.53535L10.7565 5.23756C10.7176 5.2999 10.7366 5.38191 10.7989 5.42075C10.8209 5.43438 10.8452 5.44086 10.8692 5.44086Z" fill="url(#paint4_linear_1177_16480)"/>
<path d="M9.55052 4.14465L10.2461 3.5716C10.3028 3.52484 10.3109 3.44111 10.2641 3.38438C10.2177 3.32775 10.1339 3.31955 10.077 3.36626L9.38147 3.9393C9.32473 3.98607 9.31664 4.06979 9.36341 4.12653C9.38962 4.1585 9.42768 4.17496 9.46614 4.17496C9.49584 4.17496 9.5257 4.16504 9.55052 4.14465Z" fill="url(#paint5_linear_1177_16480)"/>
<path d="M13.6274 5.2575C13.7666 5.2575 13.8793 5.2211 13.9588 5.14452C14.0137 5.09155 14.0491 5.02123 14.068 4.93739C14.9158 3.22285 14.4528 1.10588 14.2994 0.524152C14.2743 0.429124 14.1983 0.356031 14.1026 0.333818C11.2335 -0.331658 9.92734 0.16903 9.54661 0.373492C9.50101 0.391389 9.46006 0.415271 9.42588 0.447353C9.42482 0.44835 9.42344 0.44896 9.42239 0.450013C9.00105 0.855832 9.67501 2.23576 10.9277 3.53199C11.944 4.58368 13.029 5.2575 13.6274 5.2575ZM13.7743 4.95291C13.7411 4.98477 13.6761 4.99147 13.6274 4.99147C13.1704 4.99147 12.1621 4.42668 11.1189 3.34729C10.0864 2.27893 9.55457 1.25514 9.5628 0.795974C9.56357 0.753419 9.57028 0.676732 9.60674 0.641598C9.63987 0.609737 9.70493 0.603032 9.75362 0.603032C10.2106 0.603032 11.2189 1.16782 12.2621 2.24722C13.2946 3.31557 13.8264 4.33936 13.8182 4.79853C13.8174 4.84109 13.8107 4.91777 13.7743 4.95291Z" fill="url(#paint6_linear_1177_16480)"/>
<path d="M13.121 4.45754C13.1471 4.48436 13.1817 4.49788 13.2164 4.49788C13.2498 4.49788 13.2832 4.48542 13.309 4.46026C13.3618 4.40917 13.363 4.32495 13.3119 4.27219L13.0527 4.00518C13.0014 3.95254 12.9172 3.95121 12.8646 4.00246C12.8119 4.05355 12.8106 4.13777 12.8618 4.19053L13.121 4.45754Z" fill="url(#paint7_linear_1177_16480)"/>
<path d="M12.1806 3.4874L12.4399 3.75448C12.466 3.78129 12.5007 3.79481 12.5354 3.79481C12.5688 3.79481 12.6022 3.78235 12.628 3.75719C12.6808 3.70605 12.682 3.62188 12.6309 3.56913L12.3716 3.30205C12.3203 3.24941 12.2361 3.24808 12.1835 3.29934C12.1308 3.35048 12.1294 3.43465 12.1806 3.4874Z" fill="url(#paint8_linear_1177_16480)"/>
<path d="M11.6914 2.60279C11.6401 2.55021 11.5557 2.54888 11.5033 2.60008C11.4506 2.65122 11.4493 2.73544 11.5004 2.78814L11.7597 3.05516C11.7858 3.08198 11.8205 3.0955 11.8552 3.0955C11.8886 3.0955 11.9221 3.08303 11.9478 3.05788C12.0006 3.00673 12.0018 2.92251 11.9507 2.86981L11.6914 2.60279Z" fill="url(#paint9_linear_1177_16480)"/>
<path d="M11.0102 1.89967C10.9589 1.84714 10.8747 1.8457 10.8222 1.89695C10.7694 1.94804 10.7681 2.03226 10.8193 2.08502L11.0785 2.35204C11.1046 2.37885 11.1393 2.39237 11.1739 2.39237C11.2073 2.39237 11.2407 2.37991 11.2665 2.35475C11.3193 2.30366 11.3206 2.21944 11.2694 2.16669L11.0102 1.89967Z" fill="url(#paint10_linear_1177_16480)"/>
<path d="M10.33 1.20045C10.2787 1.14792 10.1946 1.14648 10.142 1.19773C10.0892 1.24888 10.088 1.33305 10.1391 1.3858L10.3984 1.65287C10.4245 1.67969 10.4592 1.69321 10.4939 1.69321C10.5272 1.69321 10.5607 1.68074 10.5865 1.65559C10.6392 1.60445 10.6405 1.52028 10.5894 1.46752L10.33 1.20045Z" fill="url(#paint11_linear_1177_16480)"/>
<path d="M8.46745 2.64657C8.4838 2.64657 8.50042 2.64352 8.51643 2.63715L9.33823 2.31133C9.40655 2.28424 9.4399 2.20699 9.41292 2.13867C9.38588 2.0703 9.30797 2.03705 9.24032 2.06409L8.41852 2.38991C8.3502 2.417 8.31684 2.49424 8.34383 2.56256C8.3645 2.61476 8.41459 2.64657 8.46745 2.64657Z" fill="url(#paint12_linear_1177_16480)"/>
<path d="M13.9859 11.5704C14.3854 11.5704 14.7092 11.2466 14.7092 10.8472C14.7092 10.4895 14.4478 10.1856 14.2437 10.132L4.95602 8.72662C4.7858 8.71094 4.6445 8.70312 4.51978 8.70312C4.36529 8.70312 4.23613 8.71515 4.10874 8.73909C3.61198 8.83256 3.21642 9.17699 3.04198 9.62637C2.98048 9.78485 2.9459 9.95606 2.94485 10.1343C2.94036 10.9261 3.58102 11.5704 4.37285 11.5704H8.30011C8.52524 11.519 8.69407 11.3181 8.69407 11.0776C8.69407 10.8265 8.50656 10.6109 8.25783 10.5761L4.90846 10.1077C4.83577 10.0976 4.78507 10.0303 4.7952 9.95759C4.80518 9.88489 4.87211 9.83331 4.94531 9.84433L8.29467 10.3128C8.67401 10.3658 8.95998 10.6947 8.95998 11.0776C8.95998 11.2648 8.89293 11.4366 8.78173 11.5705L13.9859 11.5704Z" fill="url(#paint13_linear_1177_16480)"/>
<path d="M3.55109 2.92987C3.70646 2.92438 3.94583 2.8739 4.23346 2.6772C4.47045 2.89597 4.78623 3.03072 5.13426 3.03072C5.48212 3.03072 5.7978 2.89608 6.03478 2.67743C6.32226 2.87396 6.56157 2.92439 6.71688 2.92994C6.82305 2.93371 6.91071 2.84887 6.91071 2.74265C6.91071 2.69001 6.88816 2.6412 6.84965 2.60535C6.67743 2.44499 6.49353 1.68466 6.43912 1.44572C6.43524 1.4286 6.43203 1.41447 6.42953 1.40317C6.42538 1.3845 6.42261 1.37181 6.42261 1.37181C6.42266 1.37325 6.4225 1.37463 6.42255 1.37607C6.27738 0.79897 5.75652 0.371094 5.13433 0.371094C4.51146 0.371094 3.99016 0.799907 3.84565 1.37795C3.8457 1.3759 3.84548 1.37385 3.84554 1.3718C3.84554 1.3718 3.84199 1.38853 3.8354 1.4179C3.83412 1.42371 3.83218 1.43197 3.83063 1.43879C3.77827 1.66952 3.59236 2.44337 3.41848 2.60533C3.37998 2.64118 3.35742 2.69 3.35742 2.74264C3.35726 2.84881 3.44493 2.93364 3.55109 2.92987ZM5.10066 1.03872C5.24655 1.21394 5.55203 1.43192 6.16558 1.44465C6.17711 1.49103 6.18653 1.53819 6.19174 1.58673L5.61032 1.89631C5.60395 1.89974 5.5998 1.90534 5.5942 1.90955L5.29847 1.7867C5.20184 1.74664 5.09494 1.74581 4.99759 1.7846L4.67372 1.91382C4.66668 1.90789 4.66087 1.90079 4.65239 1.89625L4.07624 1.5895C4.0815 1.53896 4.09142 1.48987 4.10355 1.44166C4.58794 1.4236 4.90312 1.23592 5.10066 1.03872ZM5.13418 2.76475C4.9424 2.76475 4.76288 2.713 4.60734 2.6239V2.35744C4.60734 2.27803 4.65499 2.20771 4.72891 2.17829L5.09617 2.03173C5.12875 2.01882 5.16449 2.01893 5.19657 2.0324L5.54216 2.17597C5.61436 2.20605 5.66113 2.27593 5.66113 2.35406V2.6239C5.50553 2.713 5.32595 2.76475 5.13418 2.76475ZM5.92705 2.40775V2.35405C5.92705 2.25193 5.89264 2.1564 5.83396 2.07855L6.17955 1.89453C6.14348 2.08952 6.05406 2.2655 5.92705 2.40775ZM4.43437 2.08155C4.37569 2.15929 4.34139 2.25482 4.34139 2.35743V2.4078C4.21511 2.26634 4.12585 2.09157 4.08938 1.89786L4.43437 2.08155Z" fill="url(#paint14_linear_1177_16480)"/>
<defs>
<linearGradient id="paint0_linear_1177_16480" x1="1.32984" y1="8.91406" x2="1.32984" y2="11.5738" gradientUnits="userSpaceOnUse">
<stop stop-color="#6C956C"/>
<stop offset="1" stop-color="#547789"/>
</linearGradient>
<linearGradient id="paint1_linear_1177_16480" x1="7.55322" y1="11.8672" x2="7.55322" y2="12.1332" gradientUnits="userSpaceOnUse">
<stop stop-color="#6C956C"/>
<stop offset="1" stop-color="#547789"/>
</linearGradient>
<linearGradient id="paint2_linear_1177_16480" x1="5.13141" y1="3.16016" x2="5.13141" y2="8.99118" gradientUnits="userSpaceOnUse">
<stop stop-color="#6C956C"/>
<stop offset="1" stop-color="#547789"/>
</linearGradient>
<linearGradient id="paint3_linear_1177_16480" x1="12.6322" y1="5.28906" x2="12.6322" y2="6.2132" gradientUnits="userSpaceOnUse">
<stop stop-color="#6C956C"/>
<stop offset="1" stop-color="#547789"/>
</linearGradient>
<linearGradient id="paint4_linear_1177_16480" x1="11.0882" y1="4.47266" x2="11.0882" y2="5.44086" gradientUnits="userSpaceOnUse">
<stop stop-color="#6C956C"/>
<stop offset="1" stop-color="#547789"/>
</linearGradient>
<linearGradient id="paint5_linear_1177_16480" x1="9.81378" y1="3.33594" x2="9.81378" y2="4.17496" gradientUnits="userSpaceOnUse">
<stop stop-color="#6C956C"/>
<stop offset="1" stop-color="#547789"/>
</linearGradient>
<linearGradient id="paint6_linear_1177_16480" x1="11.9304" y1="0" x2="11.9304" y2="5.2575" gradientUnits="userSpaceOnUse">
<stop stop-color="#6C956C"/>
<stop offset="1" stop-color="#547789"/>
</linearGradient>
<linearGradient id="paint7_linear_1177_16480" x1="13.0868" y1="3.96484" x2="13.0868" y2="4.49788" gradientUnits="userSpaceOnUse">
<stop stop-color="#6C956C"/>
<stop offset="1" stop-color="#547789"/>
</linearGradient>
<linearGradient id="paint8_linear_1177_16480" x1="12.4057" y1="3.26172" x2="12.4057" y2="3.79481" gradientUnits="userSpaceOnUse">
<stop stop-color="#6C956C"/>
<stop offset="1" stop-color="#547789"/>
</linearGradient>
<linearGradient id="paint9_linear_1177_16480" x1="11.7256" y1="2.5625" x2="11.7256" y2="3.0955" gradientUnits="userSpaceOnUse">
<stop stop-color="#6C956C"/>
<stop offset="1" stop-color="#547789"/>
</linearGradient>
<linearGradient id="paint10_linear_1177_16480" x1="11.0443" y1="1.85938" x2="11.0443" y2="2.39237" gradientUnits="userSpaceOnUse">
<stop stop-color="#6C956C"/>
<stop offset="1" stop-color="#547789"/>
</linearGradient>
<linearGradient id="paint11_linear_1177_16480" x1="10.3642" y1="1.16016" x2="10.3642" y2="1.69321" gradientUnits="userSpaceOnUse">
<stop stop-color="#6C956C"/>
<stop offset="1" stop-color="#547789"/>
</linearGradient>
<linearGradient id="paint12_linear_1177_16480" x1="8.87837" y1="2.05469" x2="8.87837" y2="2.64657" gradientUnits="userSpaceOnUse">
<stop stop-color="#6C956C"/>
<stop offset="1" stop-color="#547789"/>
</linearGradient>
<linearGradient id="paint13_linear_1177_16480" x1="8.82701" y1="8.70312" x2="8.82701" y2="11.5705" gradientUnits="userSpaceOnUse">
<stop stop-color="#6C956C"/>
<stop offset="1" stop-color="#547789"/>
</linearGradient>
<linearGradient id="paint14_linear_1177_16480" x1="5.13407" y1="0.371094" x2="5.13407" y2="3.03072" gradientUnits="userSpaceOnUse">
<stop stop-color="#6C956C"/>
<stop offset="1" stop-color="#547789"/>
</linearGradient>
</defs>
</svg>
