<svg width="9" height="11" viewBox="0 0 9 11" fill="none" xmlns="http://www.w3.org/2000/svg">
<g clip-path="url(#clip0_1177_16435)">
<path d="M5.28571 2.42857H7.11964C6.97857 2.08036 6.75536 1.77679 6.47321 1.5375L5.28571 2.42857ZM5.95893 1.21071C5.66607 1.075 5.34286 1 5 1C4.04107 1 3.21964 1.59107 2.88036 2.42857H4.33393L5.95893 1.21071ZM5 5.57143C6.2625 5.57143 7.28571 4.54821 7.28571 3.28571C7.28571 3.18929 7.28036 3.09286 7.26786 3H2.73214C2.71964 3.09286 2.71429 3.18929 2.71429 3.28571C2.71429 4.54821 3.7375 5.57143 5 5.57143ZM3.21429 6.57857C3.04107 6.63393 2.87321 6.70357 2.71429 6.7875V10.1429H5.35179L4.24107 8.28929L3.21429 6.57857ZM3.80357 6.45L4.64821 7.85714H5.85714C6.64643 7.85714 7.28571 8.49643 7.28571 9.28571C7.28571 9.60714 7.17857 9.90357 7 10.1429H8.46964C8.7625 10.1429 9 9.90536 9 9.6125C9 7.85357 7.575 6.42857 5.81607 6.42857H4.18393C4.05536 6.42857 3.92857 6.43571 3.80357 6.45179V6.45ZM1 9.6125C1 9.90536 1.2375 10.1429 1.53036 10.1429H2.14286V7.16786C1.44464 7.75179 1 8.63036 1 9.6125ZM6.71429 9.28571C6.71429 8.8125 6.33036 8.42857 5.85714 8.42857H4.99107L6.01071 10.1286C6.41071 10.0571 6.71429 9.70714 6.71429 9.28571Z" fill="#63AB5F"/>
</g>
<defs>
<clipPath id="clip0_1177_16435">
<rect width="8" height="9.14286" fill="white" transform="translate(1 1)"/>
</clipPath>
</defs>
</svg>
