<svg xmlns="http://www.w3.org/2000/svg" width="335.147" height="64.148" viewBox="0 0 335.147 64.148">
  <g id="Group_3" data-name="Group 3" transform="translate(-710 -512)">
    <g id="Group_1" data-name="Group 1" transform="translate(710 512)">
      <path id="Path_1" data-name="Path 1" d="M37.12,22.209a11.583,11.583,0,0,1,3.122-1.189L40.2,17.951a15.8,15.8,0,0,0-4.7,1.63,6.333,6.333,0,0,0-2.189.655c-1.734.941-2.7,2.524-2.152,3.539s2.4,1.064,4.132.125A5.639,5.639,0,0,0,37.12,22.209ZM47.308,45.43c0-1.769-1.726-2.666-3.723-3.474l-.028,2.215c.928.421,1.542.848,1.542,1.4,0,1.583-.992,2.49-2.244,3.232l.187-15.162c-.3.16-.6.319-.89.47l-1.1.606.183,14.956c-1.756.906-3.452,1.889-3.452,4.1,0,4.414,7.967,4.981,7.967,4.981a14.39,14.39,0,0,1-3.008-1.021l.074-5.918c-.566.358-1.1.7-1.538,1.034l.047,4.045a3.588,3.588,0,0,1-1.7-2.838C39.627,51.677,47.308,50.175,47.308,45.43ZM43.881,17.748,43.843,20.8c1.984.256,3.452,1.234,3.452,2.988,0,2.46-1.9,4.167-4.2,5.647l.174-14.15a2.81,2.81,0,1,0-2.452,0L41,30.691c-3.034,1.75-6.025,3.384-6.025,5.953,0,3.482,2.855,5.153,5.534,6.289l-.029-2.265c-1.613-.794-2.881-1.813-2.881-3.56C37.6,33.6,50.47,32.5,50.47,23.535,50.471,19.859,47.522,18.029,43.881,17.748ZM41.372,60.4s.1.618.668.618.671-.618.671-.618l.019-1.529c-.445-.117-.91-.26-1.386-.436Z" transform="translate(-8.676 -2.788)" fill="#fff"/>
      <path id="Path_2" data-name="Path 2" d="M6.937,17.1A32.7,32.7,0,0,1,46.906,3.64,32.071,32.071,0,0,0,9.81,55.16a44.268,44.268,0,0,1-2.759-15.8c0-11.849,4.156-21.98,10.029-26.07-5.225,4.044-8.873,13.207-8.873,23.865a39.015,39.015,0,0,0,3.693,17.2,16.85,16.85,0,0,1,2.717-8.191c11.707-19.312-2.626-22.314,3.837-32.975A22.337,22.337,0,0,1,29.018,4.494,31.393,31.393,0,0,0,4.154,45.166,32.621,32.621,0,0,1,6.937,17.1Z" transform="translate(0)" fill="#fff"/>
      <path id="Path_3" data-name="Path 3" d="M63.91,50.537A32.7,32.7,0,0,1,23.941,64a32.073,32.073,0,0,0,37.1-51.523,44.293,44.293,0,0,1,2.759,15.8c0,11.849-4.156,21.98-10.029,26.07,5.225-4.044,8.872-13.208,8.872-23.866a39.009,39.009,0,0,0-3.693-17.2,16.853,16.853,0,0,1-2.717,8.192c-11.706,19.312,2.625,22.314-3.837,32.977a22.334,22.334,0,0,1-10.562,8.687A31.393,31.393,0,0,0,66.693,22.471,32.619,32.619,0,0,1,63.91,50.537Z" transform="translate(-6.698 -3.49)" fill="#fff"/>
    </g>
    <g id="Group_2" data-name="Group 2" transform="translate(681 508.388)">
      <path id="Path_4" data-name="Path 4" d="M130.3,42.958h6.43a15,15,0,0,1-2.058,6.607,12.278,12.278,0,0,1-4.912,4.533,16.4,16.4,0,0,1-7.691,1.658,15.15,15.15,0,0,1-6.25-1.243,13.715,13.715,0,0,1-4.757-3.575,16.2,16.2,0,0,1-3.035-5.622A24.617,24.617,0,0,1,107,37.958V34.824a24.05,24.05,0,0,1,1.054-7.358,16.292,16.292,0,0,1,3.087-5.622,13.345,13.345,0,0,1,4.81-3.6A15.627,15.627,0,0,1,122.3,17a15.81,15.81,0,0,1,7.561,1.657,11.919,11.919,0,0,1,4.784,4.586,16.3,16.3,0,0,1,2.109,6.71h-6.429a12.068,12.068,0,0,0-1.131-4.171,5.854,5.854,0,0,0-2.521-2.642,8.936,8.936,0,0,0-4.372-.933,8.47,8.47,0,0,0-3.858.829,7.293,7.293,0,0,0-2.752,2.436,11.785,11.785,0,0,0-1.672,3.964,23.817,23.817,0,0,0-.539,5.337v3.186a25.339,25.339,0,0,0,.488,5.181,12.753,12.753,0,0,0,1.543,3.964,7.484,7.484,0,0,0,2.675,2.565,7.847,7.847,0,0,0,3.884.906,9.685,9.685,0,0,0,4.45-.88,5.851,5.851,0,0,0,2.6-2.565A11.811,11.811,0,0,0,130.3,42.958Zm28.42,5.674V27.208h6.224V55.239h-5.864ZM159.6,42.8l2.084-.052a20.764,20.764,0,0,1-.617,5.208,12.135,12.135,0,0,1-1.9,4.119,8.929,8.929,0,0,1-3.292,2.72,12.279,12.279,0,0,1-8.538.363,7.641,7.641,0,0,1-2.934-1.839,8.39,8.39,0,0,1-1.877-3.238,15.074,15.074,0,0,1-.669-4.766V27.208h6.2v18.16a7.865,7.865,0,0,0,.36,2.564,4.338,4.338,0,0,0,.978,1.633,3.479,3.479,0,0,0,1.44.88,5.8,5.8,0,0,0,1.749.258,7.308,7.308,0,0,0,4.167-1.036,5.73,5.73,0,0,0,2.186-2.85A11.412,11.412,0,0,0,159.6,42.8Zm17.928-10.258V55.239h-6.2V27.208h5.915Zm8.514-5.518-.052,5.8a12.1,12.1,0,0,0-1.235-.155c-.429-.034-.857-.052-1.288-.052a7.761,7.761,0,0,0-2.8.466,5.285,5.285,0,0,0-2.033,1.3A5.711,5.711,0,0,0,177.4,36.4a9.091,9.091,0,0,0-.516,2.669l-1.413.1a22,22,0,0,1,.514-4.9,13.388,13.388,0,0,1,1.544-3.964,7.934,7.934,0,0,1,2.623-2.669,7,7,0,0,1,3.678-.958,7.623,7.623,0,0,1,1.209.1A5.126,5.126,0,0,1,186.038,27.026Zm15.635,28.73a14.737,14.737,0,0,1-5.58-1.011,12.311,12.311,0,0,1-4.218-2.875,12.756,12.756,0,0,1-2.649-4.327,15.234,15.234,0,0,1-.926-5.362V41.145a17.647,17.647,0,0,1,.951-5.958,13.574,13.574,0,0,1,2.65-4.56,11.378,11.378,0,0,1,4.013-2.927,12.391,12.391,0,0,1,5.014-1.011,12.565,12.565,0,0,1,5.22,1.011,9.809,9.809,0,0,1,3.7,2.849,11.861,11.861,0,0,1,2.213,4.327,19.474,19.474,0,0,1,.745,5.543v2.668h-21.5V38.607h15.38v-.493a8.786,8.786,0,0,0-.668-3.16,5.383,5.383,0,0,0-1.826-2.384,5.439,5.439,0,0,0-3.292-.907,5.547,5.547,0,0,0-2.752.674,5.455,5.455,0,0,0-1.981,1.891,10,10,0,0,0-1.235,3.005,17.041,17.041,0,0,0-.412,3.912v1.037a11.528,11.528,0,0,0,.49,3.419,8.187,8.187,0,0,0,1.492,2.72,7.069,7.069,0,0,0,2.366,1.839,7.4,7.4,0,0,0,3.164.648,8.532,8.532,0,0,0,3.986-.906,9.164,9.164,0,0,0,3.035-2.565l3.266,3.186a12.78,12.78,0,0,1-2.341,2.538A11.667,11.667,0,0,1,206.458,55,13.89,13.89,0,0,1,201.674,55.757Z" transform="translate(0 -0.385)" fill="#fff"/>
      <path id="Path_5" data-name="Path 5" d="M290.619,16.988h5.751l10.809,29.2,10.784-29.2h5.749L309.435,54.851h-4.568Zm-2.619,0h5.47l.949,25.277V54.851H288Zm32.862,0h5.493V54.851h-6.443V42.265Zm24.774,38.384a14.663,14.663,0,0,1-5.571-1.014,12.3,12.3,0,0,1-4.21-2.887,12.839,12.839,0,0,1-2.643-4.343,15.36,15.36,0,0,1-.925-5.383V40.7a17.793,17.793,0,0,1,.95-5.981,13.609,13.609,0,0,1,2.644-4.576,11.372,11.372,0,0,1,4-2.939,12.325,12.325,0,0,1,5.006-1.014,12.487,12.487,0,0,1,5.212,1.014,9.819,9.819,0,0,1,3.7,2.86,11.9,11.9,0,0,1,2.206,4.343,19.557,19.557,0,0,1,.746,5.565v2.679H335.29v-4.5h15.353v-.495a8.9,8.9,0,0,0-.668-3.172,5.026,5.026,0,0,0-5.108-3.3,5.38,5.38,0,0,0-4.726,2.575,10.047,10.047,0,0,0-1.23,3.016,17.061,17.061,0,0,0-.412,3.927v1.041a11.633,11.633,0,0,0,.488,3.432,8.2,8.2,0,0,0,1.489,2.731,7.047,7.047,0,0,0,2.363,1.846,7.344,7.344,0,0,0,3.158.651,8.482,8.482,0,0,0,3.978-.91A9.146,9.146,0,0,0,353,46.92l3.262,3.2a12.949,12.949,0,0,1-2.338,2.549,11.7,11.7,0,0,1-3.516,1.95A13.836,13.836,0,0,1,345.636,55.372Zm28.677-28.657v4.576H358.653V26.715Zm-11.142-6.892h6.188V47.076a4.513,4.513,0,0,0,.357,2,1.931,1.931,0,0,0,1.054.909,4.733,4.733,0,0,0,1.567.235,9.584,9.584,0,0,0,1.232-.078c.392-.052.708-.1.949-.156l.025,4.785a15.3,15.3,0,0,1-1.8.416,13.07,13.07,0,0,1-2.309.182,8.942,8.942,0,0,1-3.774-.755A5.586,5.586,0,0,1,364.1,52.1a9.909,9.909,0,0,1-.924-4.629V19.823ZM385.3,32.071v22.78h-6.187V26.715h5.9Zm8.5-5.539-.052,5.825a12.131,12.131,0,0,0-1.232-.156q-.642-.052-1.283-.052a7.693,7.693,0,0,0-2.8.468,5.248,5.248,0,0,0-2.028,1.3,5.714,5.714,0,0,0-1.232,2.029,9.2,9.2,0,0,0-.514,2.678l-1.412.1a22.123,22.123,0,0,1,.514-4.915,13.513,13.513,0,0,1,1.54-3.979,7.958,7.958,0,0,1,2.619-2.679,6.96,6.96,0,0,1,3.671-.962,7.549,7.549,0,0,1,1.207.1A5.023,5.023,0,0,1,393.8,26.532Zm10.5.183V54.851h-6.212V26.715Zm-6.624-7.386a3.228,3.228,0,0,1,.925-2.366,4.007,4.007,0,0,1,5.211,0,3.388,3.388,0,0,1,0,4.706,4.092,4.092,0,0,1-5.211,0A3.2,3.2,0,0,1,397.675,19.329Zm24.749,31.05a6.02,6.02,0,0,0,2.722-.6,5.173,5.173,0,0,0,1.977-1.716,4.72,4.72,0,0,0,.847-2.522H433.8a8.869,8.869,0,0,1-1.592,4.967,11.085,11.085,0,0,1-4.081,3.563,12.171,12.171,0,0,1-5.623,1.3,13.126,13.126,0,0,1-5.546-1.092,10.986,10.986,0,0,1-3.927-3.069,13.544,13.544,0,0,1-2.362-4.5,18.806,18.806,0,0,1-.77-5.46V40.34a18.794,18.794,0,0,1,.77-5.46,13.5,13.5,0,0,1,2.362-4.525,10.721,10.721,0,0,1,3.927-3.043,12.77,12.77,0,0,1,5.521-1.118,12.176,12.176,0,0,1,5.853,1.352,9.9,9.9,0,0,1,3.954,3.719,10.606,10.606,0,0,1,1.515,5.513H427.97a6.344,6.344,0,0,0-.77-2.808,5.137,5.137,0,0,0-1.9-2.028,5.361,5.361,0,0,0-2.9-.755,5.706,5.706,0,0,0-3.107.781,5.231,5.231,0,0,0-1.926,2.081,10.25,10.25,0,0,0-1,2.938,19.426,19.426,0,0,0-.282,3.355v.91a19.865,19.865,0,0,0,.282,3.38,9.7,9.7,0,0,0,.976,2.939,5.716,5.716,0,0,0,1.951,2.055A5.91,5.91,0,0,0,422.424,50.378Z" transform="translate(-69.652)" fill="#fff"/>
    </g>
  </g>
</svg>
