<svg width="72" height="72" viewBox="0 0 72 72" fill="none" xmlns="http://www.w3.org/2000/svg">
<circle cx="36" cy="36" r="36" fill="white"/>
<path d="M43.4472 40.2656C45.0043 37.8877 45.4926 34.8996 44.7519 32.2693C43.9775 29.517 41.8732 27.2483 39.2595 26.3436C35.6948 25.1148 32.7995 26.8655 30.0005 28.5574C27.1765 30.2661 25.5058 33.7297 25.9392 36.9832C26.4442 40.7878 29.6259 44.0325 33.5064 44.6933C34.003 44.7775 34.5038 44.8196 35.0046 44.8196C38.2875 44.8236 41.6037 43.0813 43.4469 40.2658L43.4472 40.2656ZM33.6496 43.8681C30.1816 43.2748 27.2272 40.2698 26.7769 36.8733C26.3898 33.9441 27.8964 30.8212 30.4426 29.2769C33.1949 27.6104 35.7958 26.0363 38.9901 27.139C41.3469 27.9513 43.2451 30.005 43.9435 32.4965C44.6168 34.8953 44.1707 37.6265 42.744 39.8024C40.7955 42.778 37.05 44.4487 33.6494 43.8679L33.6496 43.8681Z" fill="#F2944D" stroke="#F2944D" stroke-width="0.5"/>
<path d="M35.7922 31.8651C33.7805 31.8651 32.1434 33.5022 32.1434 35.5139C32.1434 37.5255 33.7805 39.1627 35.7922 39.1627C37.8038 39.1627 39.4409 37.5255 39.4409 35.5139C39.4409 33.5022 37.7996 31.8651 35.7922 31.8651ZM35.7922 38.3214C34.2433 38.3214 32.9851 37.063 32.9851 35.5143C32.9851 33.9655 34.2435 32.7073 35.7922 32.7073C37.341 32.7073 38.5992 33.9657 38.5992 35.5143C38.595 37.063 37.3366 38.3214 35.7922 38.3214Z" fill="#F2944D" stroke="#F2944D" stroke-width="0.5"/>
<path d="M35.7921 33.9358C34.9208 33.9358 34.2139 34.6427 34.2139 35.514C34.2139 36.3852 34.9208 37.0922 35.7921 37.0922C36.6633 37.0922 37.3703 36.3852 37.3703 35.514C37.366 34.6429 36.6589 33.9358 35.7921 33.9358ZM35.7921 36.2505C35.388 36.2505 35.0556 35.9223 35.0556 35.514C35.0556 35.1057 35.3838 34.7775 35.7921 34.7775C36.2003 34.7775 36.5286 35.1057 36.5286 35.514C36.5286 35.9223 36.1961 36.2505 35.7921 36.2505Z" fill="#F2944D" stroke="#F2944D" stroke-width="0.5"/>
<path d="M35.6868 46.8521C34.5378 46.8521 33.6372 48.4009 33.6372 50.3748C33.6372 51.9572 34.2138 53.2619 35.0344 53.7206C34.8407 54.2003 34.8996 54.7938 35.0975 55.2777C35.1734 55.4587 35.2617 55.6313 35.3501 55.808C35.5269 56.1532 35.691 56.4814 35.7079 56.8096C35.729 57.2052 35.5354 57.6093 35.3334 58.0343C35.1904 58.3289 35.043 58.6361 34.9547 58.9685C34.618 60.2016 35.1019 61.4011 35.6743 62.6257C35.7459 62.7771 35.8973 62.8698 36.0572 62.8698C36.1162 62.8698 36.1793 62.8572 36.234 62.832C36.4444 62.7353 36.5371 62.4827 36.436 62.2723C35.9352 61.1949 35.5058 60.1513 35.7668 59.1917C35.8384 58.9308 35.9605 58.6698 36.0951 58.3963C36.335 57.8955 36.5832 57.3735 36.5496 56.7634C36.5202 56.2583 36.3055 55.8374 36.0993 55.4293C36.0193 55.2736 35.9394 55.1179 35.8763 54.9579C35.7206 54.5749 35.691 54.0909 35.9225 53.8762C36.9579 53.6785 37.7364 52.2138 37.7364 50.3789C37.7405 48.4009 36.8399 46.8521 35.6868 46.8521L35.6868 46.8521ZM35.6868 53.0555C35.1144 53.0555 34.4789 51.9108 34.4789 50.3748C34.4789 48.8386 35.1186 47.694 35.6868 47.694C36.255 47.694 36.8947 48.8388 36.8947 50.3748C36.8946 51.9109 36.2592 53.0555 35.6868 53.0555Z" fill="#F2944D" stroke="#F2944D" stroke-width="0.5"/>
<path d="M28.3724 43.5271C27.8632 43.2158 27.1898 43.2745 26.4787 43.6955C25.8515 44.07 25.2498 44.6928 24.7826 45.4589C24.3154 46.2205 24.0292 47.0413 23.9829 47.7694C23.9493 48.2786 24.0334 48.712 24.2228 49.0445C23.8104 49.3518 23.5495 49.8904 23.4695 50.3997C23.4401 50.5933 23.4232 50.7868 23.4063 50.9847C23.3769 51.3719 23.3474 51.7381 23.1917 52.0283C23.0023 52.3777 22.6278 52.6216 22.2322 52.8785C21.9544 53.0553 21.6724 53.2405 21.4198 53.476C20.4897 54.3513 20.2751 55.6266 20.1236 56.9691C20.0983 57.2006 20.2626 57.4068 20.4939 57.4363C20.5108 57.4363 20.5275 57.4405 20.5401 57.4405C20.7505 57.4405 20.9315 57.2806 20.9569 57.066C21.0916 55.8877 21.2724 54.7682 21.9964 54.0907C22.1942 53.9054 22.4341 53.7498 22.6909 53.5856C23.1581 53.2826 23.642 52.9712 23.9324 52.4284C24.1724 51.9823 24.2102 51.5109 24.248 51.0521C24.2607 50.8795 24.2774 50.7028 24.3027 50.5344C24.3659 50.1261 24.5973 49.6969 24.9087 49.638C25.0686 49.7012 25.2369 49.7305 25.4179 49.7305C25.78 49.7305 26.1756 49.6085 26.5879 49.3643C27.215 48.9898 27.8167 48.3669 28.284 47.6009C29.3111 45.9177 29.3531 44.1249 28.3725 43.5271L28.3724 43.5271ZM27.5603 47.1592C27.1689 47.7989 26.6554 48.3375 26.1504 48.6406C25.7295 48.8932 25.355 48.9562 25.1277 48.8174C24.9005 48.6784 24.7868 48.3166 24.8204 47.8285C24.8582 47.2434 25.1066 46.5407 25.498 45.9009C25.8894 45.2611 26.4028 44.7225 26.9079 44.4195C27.1814 44.2553 27.4382 44.1711 27.6444 44.1711C27.7538 44.1711 27.8505 44.1964 27.9306 44.2427C28.4189 44.5413 28.3642 45.8502 27.5603 47.1592L27.5603 47.1592Z" fill="#F2944D" stroke="#F2944D" stroke-width="0.5"/>
<path d="M52.3148 55.4898C51.2289 55.0058 50.2231 54.4924 49.7939 53.596C49.676 53.3518 49.6002 53.0741 49.5203 52.7794C49.3731 52.2408 49.2215 51.6851 48.7965 51.2432C48.4472 50.8812 48.0053 50.7004 47.5844 50.5278C47.4245 50.4605 47.2604 50.3973 47.1047 50.3175C46.7385 50.1322 46.3977 49.7829 46.4356 49.4673C47.092 48.6425 46.7218 47.0221 45.5223 45.6333C44.9372 44.9557 44.2429 44.4339 43.5611 44.1688C42.791 43.8657 42.1177 43.9161 41.6674 44.3077C40.7961 45.0611 41.1287 46.8201 42.4207 48.3143C43.3298 49.3664 44.4408 49.9683 45.3205 49.9683C45.4426 49.9683 45.5562 49.9514 45.6656 49.9305C45.834 50.4186 46.2674 50.8353 46.7304 51.0668C46.9029 51.1551 47.0881 51.2309 47.269 51.3025C47.6268 51.4497 47.9677 51.5887 48.1949 51.8244C48.4727 52.1106 48.5905 52.5398 48.7126 52.9985C48.8009 53.3141 48.8894 53.6425 49.0366 53.9539C49.5879 55.1071 50.7369 55.7004 51.97 56.2517C52.0247 56.277 52.0836 56.2895 52.1426 56.2895C52.3025 56.2895 52.4581 56.197 52.5255 56.0411C52.6219 55.8348 52.5294 55.5864 52.3148 55.4897L52.3148 55.4898ZM43.0599 47.767C42.0584 46.6055 41.789 45.3218 42.2225 44.9473C42.3234 44.859 42.4624 44.8167 42.6392 44.8167C42.816 44.8167 43.0306 44.863 43.2621 44.9557C43.8092 45.1703 44.4027 45.6206 44.895 46.1845C45.8966 47.346 46.1659 48.6298 45.7324 49.0043C45.2946 49.379 44.0615 48.9286 43.06 47.767L43.0599 47.767Z" fill="#F2944D" stroke="#F2944D" stroke-width="0.5"/>
<path d="M60.7758 44.6385C59.589 44.7143 58.4611 44.7353 57.6657 44.1461C57.451 43.9863 57.2532 43.7759 57.047 43.5528C56.6683 43.1446 56.2727 42.7238 55.6876 42.5343C55.2079 42.3787 54.7365 42.4249 54.282 42.467C54.1094 42.4839 53.9326 42.5006 53.7601 42.5048C53.3603 42.5301 52.8848 42.3658 52.7712 42.0671C52.9648 41.0318 51.8832 39.7735 50.1702 39.1044C48.3312 38.3848 46.5593 38.6625 46.1426 39.7357C45.7259 40.8089 46.8413 42.2103 48.6803 42.9257C49.3706 43.1951 50.0524 43.3256 50.6541 43.3256C51.3402 43.3256 51.9168 43.153 52.3039 42.8374C52.6702 43.1826 53.2214 43.3467 53.7307 43.3467H53.7769C53.9706 43.3425 54.1683 43.3256 54.362 43.3046C54.7491 43.2668 55.1154 43.233 55.4267 43.334C55.8054 43.4561 56.1085 43.7843 56.4325 44.1295C56.6556 44.3694 56.887 44.6176 57.1648 44.8239C57.9182 45.3836 58.8188 45.5226 59.7784 45.5226C60.1235 45.5226 60.477 45.5057 60.8347 45.4806C61.0662 45.4637 61.2429 45.266 61.2261 45.0345C61.2049 44.8026 61.0157 44.63 60.7757 44.6385L60.7758 44.6385ZM48.979 42.1428C47.548 41.5873 46.7147 40.5731 46.9209 40.0427C47.1271 39.5123 48.4275 39.3315 49.8585 39.8912C51.2895 40.4467 52.1228 41.461 51.9166 41.9914C51.7104 42.5215 50.41 42.6983 48.979 42.1428Z" fill="#F2944D" stroke="#F2944D" stroke-width="0.5"/>
<path d="M61.946 34.1675C61.8324 33.9656 61.5757 33.894 61.3736 34.0076C60.3382 34.5884 59.3282 35.0935 58.3519 34.904C58.0868 34.8535 57.8174 34.7483 57.5354 34.6389C57.0177 34.437 56.4833 34.2264 55.8689 34.3065C55.3681 34.3739 54.964 34.6178 54.5726 34.8536C54.4212 34.9419 54.2738 35.0346 54.1181 35.1144C53.7519 35.2996 53.268 35.3628 53.0365 35.1522C52.9059 34.6557 52.4894 34.2347 51.8328 33.9485C51.1636 33.6581 50.3008 33.536 49.4129 33.6034C48.5207 33.6708 47.6874 33.919 47.0688 34.3063C46.3701 34.744 46.0083 35.3121 46.0503 35.9139C46.1303 36.966 47.4938 37.7109 49.2445 37.7109C49.4002 37.7109 49.5559 37.7067 49.7202 37.694C50.6123 37.6266 51.4456 37.3785 52.0643 36.9911C52.4977 36.7218 52.8008 36.3978 52.9606 36.0484C53.1163 36.0989 53.2847 36.1285 53.453 36.1285C53.815 36.1285 54.1853 36.0275 54.5009 35.8718C54.6734 35.7835 54.8418 35.6824 55.0101 35.5814C55.3426 35.3795 55.6541 35.19 55.9824 35.148C56.378 35.0975 56.7905 35.2574 57.2324 35.43C57.5397 35.5478 57.8552 35.6741 58.1919 35.7373C59.4461 35.9814 60.6076 35.409 61.786 34.7483C61.9881 34.6263 62.0597 34.3696 61.9461 34.1675L61.946 34.1675ZM51.6183 36.2718C51.1217 36.5832 50.4061 36.7937 49.6571 36.8485C48.1294 36.9621 46.9342 36.4108 46.8921 35.8427C46.871 35.5776 47.0983 35.2745 47.515 35.0136C48.0115 34.7023 48.7271 34.4917 49.4761 34.437C50.2211 34.3823 50.9618 34.4833 51.5004 34.7147C51.9507 34.9084 52.22 35.1735 52.2411 35.4428C52.258 35.7079 52.0308 36.011 51.6183 36.2718V36.2718Z" fill="#F2944D" stroke="#F2944D" stroke-width="0.5"/>
<path d="M45.5014 29.7147C45.7791 30.3165 46.482 30.628 47.3742 30.628C48.0349 30.628 48.7968 30.4554 49.5584 30.1061C50.3707 29.7316 51.0651 29.2097 51.5111 28.6331C51.8225 28.229 51.995 27.8208 52.0204 27.442C52.5339 27.4167 53.0515 27.1096 53.4009 26.7308C53.5314 26.5878 53.6535 26.4362 53.7754 26.2805C54.0153 25.9775 54.2468 25.6872 54.537 25.5356C54.8864 25.3503 55.3367 25.3588 55.8079 25.363C56.1362 25.3672 56.4728 25.3757 56.818 25.3167C58.0806 25.1064 58.9686 24.1677 59.8396 23.1368C59.9911 22.96 59.9659 22.6949 59.7891 22.5434C59.6124 22.392 59.3473 22.4171 59.1958 22.5939C58.4299 23.4988 57.6596 24.3278 56.6792 24.4877C56.4141 24.5297 56.1237 24.5255 55.8206 24.5213C55.2651 24.5129 54.6884 24.5044 54.1456 24.7906C53.6995 25.0263 53.4048 25.3966 53.1186 25.7586C53.0092 25.8934 52.904 26.0321 52.7862 26.1584C52.5084 26.4573 52.0792 26.6888 51.7888 26.5667C51.4942 26.1458 50.9556 25.8976 50.24 25.8598C49.5077 25.8219 48.6618 26.007 47.8495 26.3817C46.0526 27.2065 45.0215 28.671 45.5013 29.7147L45.5014 29.7147ZM48.199 27.1433C48.8808 26.832 49.6089 26.6677 50.1939 26.6972C50.682 26.7226 51.0271 26.8782 51.1408 27.1182C51.2502 27.3623 51.145 27.7242 50.8461 28.1113C50.4883 28.5743 49.8908 29.0204 49.209 29.336C47.816 29.9757 46.5071 29.8746 46.2672 29.3571C46.0272 28.8436 46.8017 27.7872 48.1989 27.1434L48.199 27.1433Z" fill="#F2944D" stroke="#F2944D" stroke-width="0.5"/>
<path d="M41.112 26.1374C41.2803 26.2132 41.4571 26.2468 41.6423 26.2468C42.6103 26.2468 43.7424 25.2619 44.4116 23.7426C44.7736 22.9221 44.9461 22.0719 44.8955 21.3439C44.8619 20.8346 44.7187 20.4137 44.4872 20.1108C44.8534 19.7488 45.0385 19.1848 45.0511 18.6673C45.0554 18.4736 45.0469 18.2759 45.0343 18.078C45.0131 17.6909 44.9922 17.3247 45.1101 17.0175C45.249 16.6473 45.5898 16.3568 45.9475 16.0495C46.1959 15.8349 46.4526 15.6161 46.6714 15.3466C47.4795 14.3535 47.5173 13.0615 47.4879 11.7103C47.4837 11.4789 47.3111 11.2979 47.0587 11.2979C46.8272 11.3021 46.642 11.4956 46.6462 11.7271C46.6715 12.9139 46.6462 14.0418 46.0149 14.8161C45.8465 15.0264 45.6277 15.2117 45.3962 15.4094C44.9753 15.7714 44.5376 16.1459 44.3188 16.7225C44.142 17.1939 44.1674 17.6694 44.1925 18.1239C44.201 18.2965 44.2136 18.4732 44.2094 18.6458C44.201 19.0583 44.0284 19.517 43.7297 19.618C42.7028 19.3781 41.3981 20.4092 40.6574 22.0884C40.2954 22.909 40.1228 23.7591 40.1735 24.4872C40.2322 25.3081 40.5647 25.8932 41.1119 26.1373L41.112 26.1374ZM41.4275 22.4255C42.0462 21.0241 43.09 20.2287 43.6159 20.4602C43.8601 20.5696 44.02 20.9105 44.0536 21.3986C44.0914 21.9836 43.9442 22.7117 43.6411 23.3977C43.0224 24.7991 41.9746 25.5904 41.4527 25.3631C41.2085 25.2537 41.0486 24.9128 41.015 24.4246C40.973 23.8394 41.1244 23.1114 41.4275 22.4255Z" fill="#F2944D" stroke="#F2944D" stroke-width="0.5"/>
<path d="M36.0824 25.0095H36.1035C36.7011 25.001 37.2399 24.5885 37.6102 23.8522C37.9384 23.204 38.111 22.3498 38.0983 21.4534C38.073 19.871 37.4754 18.5748 36.6464 18.1287C36.8316 17.6448 36.7642 17.0513 36.5581 16.5758C36.4823 16.399 36.3897 16.2222 36.2972 16.0497C36.1162 15.7046 35.9437 15.3806 35.9227 15.0523C35.8934 14.6567 36.0826 14.2484 36.2763 13.8235C36.4153 13.5246 36.554 13.2175 36.6425 12.8808C36.9623 11.6393 36.4573 10.4482 35.864 9.23623C35.763 9.02585 35.5104 8.94159 35.3001 9.04256C35.0897 9.14352 35.0054 9.39613 35.1064 9.60651C35.6283 10.6755 36.0744 11.7108 35.826 12.6746C35.7586 12.9355 35.6365 13.1965 35.5104 13.4743C35.2789 13.9793 35.0348 14.5054 35.0812 15.1156C35.1148 15.6207 35.3379 16.0374 35.5526 16.4455C35.6327 16.6012 35.7167 16.7528 35.7841 16.9127C35.9482 17.2914 35.9818 17.7755 35.7547 17.9943C34.7236 18.2089 33.9661 19.6862 33.9955 21.521C34.0082 22.4174 34.2101 23.2633 34.5595 23.9031C34.9545 24.6182 35.4931 25.0095 36.0824 25.0095L36.0824 25.0095ZM36.0066 18.8061H36.0151C36.5832 18.8061 37.2355 19.9382 37.2608 21.4659C37.2735 22.2151 37.1303 22.9474 36.8652 23.4691C36.6422 23.9067 36.3644 24.1594 36.0951 24.1636H36.0866C35.8216 24.1636 35.5354 23.9194 35.3039 23.4944C35.0219 22.981 34.8536 22.2529 34.8409 21.5038C34.8156 19.9718 35.4342 18.8145 36.0066 18.8061L36.0066 18.8061Z" fill="#F2944D" stroke="#F2944D" stroke-width="0.5"/>
<path d="M17.531 16.5883C18.6378 17.0217 19.6689 17.4804 20.1403 18.3559C20.2666 18.5958 20.3592 18.8652 20.4517 19.1556C20.6242 19.6859 20.801 20.233 21.2471 20.6538C21.6174 20.9989 22.0637 21.1588 22.4929 21.3102C22.657 21.3692 22.8211 21.4281 22.981 21.4955C23.3555 21.6638 23.7133 21.9962 23.6922 22.312C23.0778 23.1664 23.5239 24.7655 24.7907 26.0955C25.4094 26.7437 26.129 27.2319 26.8192 27.4633C27.1223 27.5643 27.4043 27.6148 27.6652 27.6148C28.0819 27.6148 28.4395 27.4843 28.7047 27.2318C29.1382 26.8193 29.2518 26.1544 29.0245 25.359C28.8268 24.6561 28.3763 23.9155 27.7577 23.2673C26.6676 22.1225 25.3462 21.5755 24.4372 21.8112C24.2477 21.3315 23.7932 20.9399 23.3177 20.7295C23.1409 20.6495 22.9557 20.5865 22.7707 20.5192C22.4044 20.3886 22.0595 20.2666 21.8196 20.0435C21.5291 19.77 21.3904 19.3491 21.2472 18.8988C21.1462 18.5874 21.041 18.2632 20.8769 17.9603C20.2709 16.8324 19.0925 16.2978 17.8341 15.8055C17.6153 15.7212 17.3754 15.8266 17.287 16.0454C17.2068 16.26 17.3122 16.5042 17.531 16.5882L17.531 16.5883ZM24.8877 22.5938C25.4643 22.5938 26.3607 23.023 27.1519 23.8522C27.6696 24.3951 28.0568 25.0306 28.2209 25.5945C28.3556 26.0659 28.3218 26.4404 28.1284 26.6257C27.9347 26.8109 27.5559 26.8276 27.093 26.6677C26.5375 26.4782 25.923 26.0617 25.4054 25.5187C24.3491 24.4077 24.0166 23.1366 24.429 22.7452C24.5342 22.64 24.69 22.5938 24.8877 22.5938L24.8877 22.5938Z" fill="#F2944D" stroke="#F2944D" stroke-width="0.5"/>
<path d="M12.6872 33.2417C12.9481 33.3133 13.2049 33.4394 13.4784 33.5741C13.9541 33.8056 14.4422 34.0455 15.0104 34.0455C15.044 34.0455 15.0777 34.0455 15.1113 34.0413C15.6164 34.016 16.0415 33.8056 16.4496 33.5994C16.6053 33.5236 16.761 33.4438 16.921 33.3764C17.304 33.2207 17.7881 33.1954 17.9985 33.4269C18.0868 33.9319 18.4699 34.3864 19.101 34.7231C19.745 35.0682 20.5909 35.2577 21.4873 35.266H21.5294C23.4821 35.266 25.014 34.3822 25.0224 33.2417C25.0267 32.6441 24.6268 32.0969 23.8988 31.7097C23.2548 31.3646 22.4089 31.1751 21.5125 31.1669H21.4662C20.5867 31.1669 19.7533 31.3479 19.1179 31.6761C18.6634 31.9118 18.3351 32.2065 18.1499 32.5389C17.6742 32.3452 17.0809 32.3999 16.6011 32.5936C16.42 32.6652 16.2433 32.7535 16.0665 32.842C15.7171 33.0146 15.3889 33.1787 15.0607 33.1956C14.6777 33.2167 14.2652 33.0188 13.8403 32.8126C13.5456 32.6696 13.2385 32.518 12.906 32.4255C11.673 32.0803 10.4692 32.556 9.24461 33.1199C9.03423 33.2167 8.94153 33.465 9.03846 33.6796C9.1352 33.89 9.3878 33.9827 9.59817 33.8858C10.6839 33.3931 11.7317 32.9723 12.6872 33.2416L12.6872 33.2417ZM19.5091 32.4294C20.0225 32.1643 20.7337 32.0126 21.4702 32.0126H21.508C22.2572 32.0169 22.9853 32.181 23.5029 32.4545C23.9363 32.686 24.1847 32.9722 24.1805 33.2373C24.1763 33.8097 23.0105 34.4452 21.4913 34.4283C20.7421 34.4241 20.014 34.26 19.4964 33.9864C19.0629 33.755 18.8145 33.4687 18.8188 33.2037C18.823 32.9386 19.0754 32.6524 19.509 32.4293L19.5091 32.4294Z" fill="#F2944D" stroke="#F2944D" stroke-width="0.5"/>
<path d="M21.3945 41.0608C21.7185 41.0608 22.0636 41.0315 22.413 40.9725C23.2967 40.8211 24.1006 40.4969 24.6815 40.055C25.3379 39.5543 25.6452 38.9525 25.5442 38.3632C25.3506 37.2311 23.6756 36.604 21.7271 36.9322C20.8434 37.0837 20.0395 37.4079 19.4587 37.8497C19.0504 38.1611 18.7811 38.5104 18.6548 38.8682C18.1498 38.763 17.5774 38.9187 17.1398 39.1922C16.9756 39.2974 16.8157 39.4111 16.6601 39.5289C16.3487 39.7604 16.0541 39.9792 15.7341 40.0508C15.347 40.1391 14.9176 40.0172 14.4632 39.8867C14.1477 39.7984 13.8192 39.7015 13.4783 39.6679C12.2074 39.5416 11.1047 40.2191 9.99372 40.9894C9.80427 41.1199 9.75378 41.385 9.88853 41.5745C9.96857 41.6923 10.1031 41.7555 10.2337 41.7555C10.3179 41.7555 10.3978 41.7301 10.4736 41.6797C11.45 41.0021 12.3969 40.4088 13.3985 40.5055C13.6678 40.5309 13.9456 40.6107 14.236 40.695C14.7705 40.8506 15.326 41.0105 15.9236 40.8718C16.4159 40.7581 16.7989 40.4761 17.1651 40.2069C17.3041 40.1017 17.4471 39.9965 17.5901 39.908C17.9436 39.685 18.4275 39.5755 18.6759 39.7817C18.9704 40.5685 20.0393 41.0609 21.3945 41.0609V41.0608ZM19.9678 38.5189C20.435 38.1611 21.125 37.8875 21.8658 37.7612C22.1731 37.7108 22.4633 37.6854 22.7411 37.6854C23.8311 37.6854 24.6348 38.0557 24.7106 38.502C24.7569 38.7671 24.5592 39.087 24.1678 39.3857C23.7006 39.7435 23.0105 40.0171 22.2698 40.1433C20.7547 40.4 19.5174 39.9623 19.4247 39.4026C19.3786 39.1375 19.5764 38.8177 19.9678 38.5188V38.5189Z" fill="#F2944D" stroke="#F2944D" stroke-width="0.5"/>
</svg>
