<svg width="72" height="72" viewBox="0 0 72 72" fill="none" xmlns="http://www.w3.org/2000/svg">
<circle cx="36" cy="36" r="36" fill="white"/>
<path d="M27.6925 59.0002C27.4166 59.0002 27.1406 58.7702 27.1406 58.4482V58.3563C27.1406 54.4923 29.9466 50.7203 35.6046 47.0403C40.8946 43.5903 43.7466 39.6803 43.7466 36.0003V35.9083C43.7466 32.2283 40.8947 28.3183 35.6046 24.8683C29.9466 21.2801 27.1406 17.4619 27.1406 13.5983V13.5064C27.1406 13.2302 27.3706 13.0002 27.6925 13.0002C27.9685 13.0002 28.2445 13.2302 28.2445 13.5522V13.6441C28.2445 17.0941 30.9126 20.5901 36.2025 24.0401C41.7685 27.6742 44.8505 31.9061 44.8505 35.9541V36.0461C44.8505 40.0941 41.8145 44.3261 36.2025 47.9601C30.9125 51.4101 28.2445 54.9061 28.2445 58.3561V58.448C28.1985 58.7703 27.9685 59.0003 27.6925 59.0003V59.0002Z" fill="#F2944D" stroke="#F2944D" stroke-width="0.5"/>
<path d="M44.2525 59.0002C43.9766 59.0002 43.7006 58.7702 43.7006 58.4482V58.3563C43.7006 54.9063 41.0325 51.4103 35.7426 47.9603C30.1766 44.3262 27.0946 40.0943 27.0946 36.0463V35.9543C27.0946 31.9063 30.1306 27.6743 35.7426 24.0403C41.0786 20.5902 43.7466 17.0483 43.7466 13.5983V13.5064C43.7466 13.2302 43.9766 13.0002 44.2526 13.0002C44.5285 13.0002 44.8045 13.2302 44.8045 13.5522V13.6441C44.8045 17.5081 41.9985 21.2801 36.3405 24.9601C31.0505 28.4101 28.1985 32.3201 28.1985 36.0001V36.0921C28.1985 39.7721 31.0504 43.6821 36.3405 47.1321C41.9525 50.7203 44.8045 54.5385 44.8045 58.4021V58.494C44.8045 58.7702 44.5745 59.0002 44.2526 59.0002H44.2525Z" fill="#F2944D" stroke="#F2944D" stroke-width="0.5"/>
<path d="M30.7746 49.3401C30.6365 49.3401 30.5446 49.2941 30.4526 49.202C25.5306 45.2 22.9546 40.646 23.0006 36.046V35.954C22.9545 31.354 25.5306 26.8 30.4526 22.798C30.6826 22.614 31.0045 22.66 31.1886 22.89C31.3726 23.12 31.3266 23.4419 31.0966 23.6259C26.4506 27.444 24.0126 31.6759 24.0586 35.9539V36.0459C24.0586 40.3239 26.4506 44.6019 31.0966 48.3739C31.3266 48.5579 31.3726 48.8799 31.1886 49.1099C31.0966 49.2479 30.9126 49.3399 30.7745 49.3399L30.7746 49.3401Z" fill="#F2944D" stroke="#F2944D" stroke-width="0.5"/>
<path d="M35.9725 48.0981L35.6966 47.9141C30.1766 44.2801 27.1406 40.0941 27.1406 36.0461V35.9542C27.1406 31.9061 30.1306 27.7201 35.6966 24.0861L35.9725 23.9021L36.2485 24.0861C41.7685 27.7202 44.8045 31.9061 44.8045 35.9542V36.0461C44.8045 40.0941 41.8145 44.2801 36.2485 47.9141L35.9725 48.0981ZM35.9725 25.1901C30.9585 28.5482 28.1985 32.3661 28.1985 35.9541V36.0461C28.1985 39.6341 30.9126 43.4521 35.9725 46.8101C40.9866 43.452 43.7466 39.6341 43.7466 36.0461V35.9541C43.7466 32.366 40.9866 28.5481 35.9725 25.1901V25.1901Z" fill="#F2944D" stroke="#F2944D" stroke-width="0.5"/>
<path d="M35.9726 14.0582H27.6925C27.4166 14.0582 27.1406 13.8282 27.1406 13.5062C27.1406 13.2301 27.3706 13.0001 27.6925 13.0001H35.9726C36.2485 13.0001 36.5245 13.2301 36.5245 13.552C36.5245 13.8282 36.2485 14.0582 35.9726 14.0582Z" fill="#F2944D" stroke="#F2944D" stroke-width="0.5"/>
<path d="M35.9726 16.726H30.4526C30.1766 16.726 29.9006 16.496 29.9006 16.1741C29.9006 15.8522 30.1306 15.6222 30.4526 15.6222H35.9726C36.2485 15.6222 36.5245 15.8522 36.5245 16.1741C36.5245 16.4961 36.2485 16.726 35.9726 16.726Z" fill="#F2944D" stroke="#F2944D" stroke-width="0.5"/>
<path d="M35.9726 19.348H32.3845C32.1085 19.348 31.8326 19.118 31.8326 18.7961C31.8326 18.5201 32.0626 18.2442 32.3845 18.2442L35.9726 18.244C36.2486 18.244 36.5245 18.474 36.5245 18.7959C36.5245 19.118 36.2485 19.348 35.9726 19.348V19.348Z" fill="#F2944D" stroke="#F2944D" stroke-width="0.5"/>
<path d="M44.1605 59.0001H35.8805C35.6046 59.0001 35.3286 58.7701 35.3286 58.4482C35.3286 58.1722 35.5586 57.8962 35.8805 57.8962H44.1605C44.4365 57.8962 44.7125 58.1262 44.7125 58.4482C44.7125 58.7701 44.4825 59.0001 44.1605 59.0001Z" fill="#F2944D" stroke="#F2944D" stroke-width="0.5"/>
<path d="M41.4005 56.3781H35.8805C35.6046 56.3781 35.3286 56.1481 35.3286 55.8262C35.3286 55.5043 35.5586 55.2743 35.8805 55.2743H41.4005C41.6765 55.2743 41.9525 55.5043 41.9525 55.8262C41.9525 56.1481 41.7225 56.3781 41.4005 56.3781Z" fill="#F2944D" stroke="#F2944D" stroke-width="0.5"/>
<path d="M39.4686 53.71H35.8805C35.6045 53.71 35.3286 53.4801 35.3286 53.1581C35.3286 52.8362 35.5586 52.6062 35.8805 52.6062H39.4686C39.7445 52.6062 40.0205 52.8362 40.0205 53.1581C40.0206 53.4801 39.7445 53.71 39.4686 53.71Z" fill="#F2944D" stroke="#F2944D" stroke-width="0.5"/>
<path d="M39.0086 36.5521H32.9366C32.6606 36.5521 32.3846 36.3221 32.3846 36.0002C32.3846 35.7242 32.6146 35.4482 32.9366 35.4482H39.0086C39.2845 35.4482 39.5605 35.6782 39.5605 36.0002C39.5145 36.2761 39.2845 36.5521 39.0086 36.5521Z" fill="#F2944D" stroke="#F2944D" stroke-width="0.5"/>
<path d="M37.8586 33.976H34.0405C33.7645 33.976 33.4886 33.746 33.4886 33.4241C33.4886 33.1481 33.7186 32.8722 34.0405 32.8722H37.8586C38.1346 32.8722 38.4105 33.1022 38.4105 33.4241C38.4107 33.7461 38.1807 33.976 37.8586 33.976Z" fill="#F2944D" stroke="#F2944D" stroke-width="0.5"/>
<path d="M37.8586 39.0821H34.0405C33.7645 39.0821 33.4886 38.8521 33.4886 38.5302C33.4886 38.2542 33.7186 37.9783 34.0405 37.9783H37.8586C38.1346 37.9783 38.4105 38.2083 38.4105 38.5302C38.4107 38.8522 38.1807 39.0821 37.8586 39.0821Z" fill="#F2944D" stroke="#F2944D" stroke-width="0.5"/>
<path d="M48.3926 59.0001C48.1166 59.0001 47.8407 58.7701 47.8407 58.4482V58.4022C47.8407 54.2162 45.4947 50.2142 40.7567 46.4882C40.5267 46.3042 40.4807 45.9823 40.6647 45.7523C40.8488 45.5223 41.1707 45.4763 41.4007 45.6603C46.3687 49.5703 48.8987 53.8943 48.8527 58.4023V58.4483C48.9446 58.7702 48.7146 59.0002 48.3927 59.0002L48.3926 59.0001Z" fill="#F2944D" stroke="#F2944D" stroke-width="0.5"/>
<path d="M41.1246 26.478C40.9865 26.478 40.8026 26.3861 40.7105 26.294C40.5265 26.064 40.5725 25.7421 40.8025 25.5581C45.4945 21.8321 47.8865 17.83 47.8865 13.644V13.5981C47.8866 13.23 48.1166 13 48.3926 13C48.6686 13 48.9445 13.23 48.9445 13.5519V13.5979C48.9445 18.1519 46.4605 22.4299 41.4925 26.3399C41.4006 26.432 41.2625 26.4781 41.1244 26.4781L41.1246 26.478Z" fill="#F2944D" stroke="#F2944D" stroke-width="0.5"/>
</svg>
