<svg width="72" height="72" viewBox="0 0 72 72" fill="none" xmlns="http://www.w3.org/2000/svg">
<circle cx="36" cy="36" r="36" fill="white"/>
<path d="M57.8089 28.5152C58.9812 29.1428 59.9874 30.5212 60.6877 32.3686C61.3575 34.1354 61.7558 36.3431 61.7558 38.7341C61.7558 41.2288 61.322 43.5245 60.5985 45.3284C59.8426 47.2132 58.76 48.5753 57.508 49.0974C56.7683 49.4058 56.7165 49.4967 56.4624 49.9422C56.3958 50.0589 56.3182 50.195 56.2232 50.3511C54.0012 54.0028 50.7892 57.0477 46.9337 59.1579C43.2136 61.194 38.896 62.3595 34.2926 62.3595C27.3131 62.3595 20.9929 59.6832 16.4167 55.3561C11.8343 51.0232 9 45.0368 9 38.424C9 35.8308 9.43601 33.3335 10.2425 30.9941C11.0772 28.5729 12.3099 26.3204 13.8677 24.3056C14.2188 23.8514 14.4192 23.5619 14.5382 23.2678C14.6561 22.9765 14.7044 22.6536 14.7517 22.1317C15.0527 18.8118 17.2848 16.0349 20.7838 14.0846C24.2958 12.1271 29.094 11 34.4864 11C40.0241 11 45.0447 12.3924 48.6852 14.6437C52.3782 16.9274 54.6624 20.099 54.6624 23.6173C54.6624 24.2807 55.1129 25.277 55.7121 26.2131C56.3787 27.2545 57.2114 28.1954 57.8089 28.5152V28.5152ZM57.0005 23.3754C56.8871 23.4326 56.7488 23.387 56.6916 23.2737C56.6345 23.1603 56.68 23.022 56.7934 22.9649L61.9985 20.3459C62.1119 20.2888 62.2501 20.3343 62.3073 20.4477C62.3645 20.561 62.3189 20.6993 62.2056 20.7565L57.0005 23.3754ZM41.3497 30.7757L49.3942 26.7282C49.5075 26.671 49.6458 26.7165 49.703 26.8299C49.7602 26.9433 49.7146 27.0815 49.6012 27.1387L41.5199 31.2048C41.6547 31.6739 41.6824 32.2557 41.6073 32.9129C41.4666 34.1432 40.9681 35.6739 40.1454 37.2137L40.1423 37.2193C40.1428 37.2196 40.1393 37.225 40.1388 37.2258C39.6881 38.0676 39.1856 38.8271 38.6682 39.4732L53.5952 31.8417C53.7758 31.7494 53.997 31.821 54.0893 32.0016C54.1816 32.1821 54.11 32.4034 53.9294 32.4956L36.8297 41.238C36.5346 41.4346 36.2453 41.5832 35.9676 41.6785C35.939 41.6919 35.9096 41.7013 35.8798 41.707C35.4087 41.8508 34.9737 41.8371 34.605 41.6401C33.8649 41.2446 33.5897 40.217 33.7431 38.8754C33.8839 37.6451 34.3823 36.1143 35.2051 34.5746C36.0278 33.0349 37.0237 31.7697 37.9688 30.9685C38.4856 30.5304 38.9966 30.226 39.471 30.0813L49.3892 25.091C49.5705 24.9995 49.7918 25.0724 49.8833 25.2538C49.9747 25.4352 49.9019 25.6564 49.7205 25.7479L40.8505 30.2107C41.0579 30.347 41.2239 30.5381 41.3497 30.7757V30.7757ZM40.8755 32.8294C40.9939 31.7938 40.8447 31.0343 40.3998 30.7965L40.3996 30.7964C40.2285 30.7049 40.0176 30.6927 39.7777 30.7503C39.7404 30.7677 39.7016 30.7783 39.6626 30.7826C39.3029 30.8975 38.886 31.1558 38.4441 31.5303C37.5639 32.2765 36.6308 33.4654 35.8534 34.9202L35.8533 34.9203C35.076 36.375 34.6061 37.8118 34.4749 38.9589C34.3565 39.9946 34.5057 40.7541 34.9508 40.9919C35.1389 41.0925 35.3751 41.0974 35.645 41.0188L36.4615 40.6014C36.606 40.5013 36.7547 40.3865 36.9063 40.258C37.7844 39.5136 38.7152 38.3285 39.4915 36.8785C39.4942 36.873 39.497 36.8676 39.5 36.8623H39.5002C40.2757 35.4095 40.7445 33.975 40.8755 32.8294V32.8294ZM62.5323 27.2725C62.7129 27.1802 62.9341 27.2518 63.0264 27.4324C63.1187 27.613 63.0471 27.8342 62.8665 27.9265L60.0422 29.3704C59.8616 29.4627 59.6404 29.3911 59.5481 29.2105C59.4558 29.0299 59.5274 28.8087 59.708 28.7164L62.5323 27.2725ZM55.6359 22.7715C55.4546 22.863 55.2333 22.7902 55.1418 22.6088C55.0504 22.4274 55.1232 22.2062 55.3046 22.1147L61.8886 18.802C62.07 18.7105 62.2912 18.7834 62.3827 18.9648C62.4742 19.1462 62.4013 19.3674 62.2199 19.4589L55.6359 22.7715ZM25.4839 33.9977C26.1148 33.9977 26.686 34.2534 27.0995 34.6669C27.513 35.0804 27.7687 35.6516 27.7687 36.2825C27.7687 36.9134 27.513 37.4846 27.0995 37.8981C26.686 38.3115 26.1148 38.5673 25.4839 38.5673C24.853 38.5673 24.2818 38.3115 23.8683 37.8981C23.4548 37.4846 23.199 36.9134 23.199 36.2825C23.199 35.6516 23.4548 35.0804 23.8683 34.6669C24.2818 34.2534 24.853 33.9977 25.4839 33.9977V33.9977ZM26.7736 34.9928C26.4435 34.6628 25.9876 34.4586 25.4839 34.4586C24.9802 34.4586 24.5242 34.6628 24.1942 34.9928C23.8642 35.3228 23.66 35.7788 23.66 36.2825C23.66 36.7861 23.8642 37.2421 24.1942 37.5721C24.5242 37.9022 24.9802 38.1063 25.4839 38.1063C25.9876 38.1063 26.4435 37.9022 26.7736 37.5721C27.1036 37.2421 27.3078 36.7861 27.3078 36.2825C27.3078 35.7788 27.1036 35.3228 26.7736 34.9928V34.9928ZM25.4839 31.9019C26.6935 31.9019 27.7887 32.3923 28.5814 33.185C29.3742 33.9777 29.8645 35.0729 29.8645 36.2825C29.8645 37.4921 29.3742 38.5872 28.5814 39.38C27.7887 40.1727 26.6935 40.663 25.4839 40.663C24.2743 40.663 23.1791 40.1727 22.3864 39.38C21.5936 38.5872 21.1033 37.4921 21.1033 36.2825C21.1033 35.0729 21.5936 33.9777 22.3864 33.185C23.1791 32.3923 24.2743 31.9019 25.4839 31.9019V31.9019ZM28.06 33.7064C27.4007 33.0472 26.4899 32.6395 25.4839 32.6395C24.4778 32.6395 23.5671 33.0472 22.9078 33.7064C22.2486 34.3657 21.8408 35.2764 21.8408 36.2825C21.8408 37.2885 22.2486 38.1993 22.9078 38.8585C23.5671 39.5177 24.4778 39.9255 25.4839 39.9255C26.4899 39.9255 27.4007 39.5177 28.06 38.8585C28.7192 38.1993 29.127 37.2885 29.127 36.2825C29.127 35.2764 28.7192 34.3657 28.06 33.7064V33.7064ZM18.9395 51.1865C18.9327 51.18 18.9262 51.1732 18.9201 51.1658C18.8893 51.133 18.8587 51.1001 18.8282 51.0671C18.7934 51.0295 18.7736 50.9834 18.7685 50.9361C17.9636 49.6333 17.573 47.7427 17.7495 46.0157C17.8269 45.2585 18.0129 44.5302 18.3203 43.8931C18.6322 43.2464 19.0691 42.6932 19.6443 42.2969C20.354 41.8078 21.2671 41.5613 22.406 41.6777C24.6937 41.9116 27.0818 42.1269 28.822 41.4379C30.52 40.7655 31.6203 39.1968 31.4278 35.8532C31.3749 34.9347 31.1795 33.9892 30.8206 33.1429C30.461 32.2949 29.9371 31.5471 29.2281 31.0292C28.5251 30.5156 27.6343 30.2269 26.5333 30.2902C25.7933 30.3328 24.9586 30.5338 24.0221 30.9308C23.2929 31.24 22.4308 31.5797 21.5578 31.7977C20.6656 32.0205 19.7578 32.1178 18.9548 31.9332C17.049 31.4951 16.5331 30.2333 16.624 28.7831C16.7105 27.4039 17.3645 25.8661 17.8533 24.7477C18.2765 23.7794 18.7793 22.8074 19.3005 21.9617C19.7933 21.162 20.3036 20.4739 20.7806 20.0057C22.2009 18.6114 24.1973 17.4941 26.5932 16.7295C28.9467 15.9784 31.6861 15.5667 34.6424 15.5667C39.1976 15.5667 43.326 16.7113 46.3183 18.5617C49.3435 20.4324 51.2146 23.0272 51.2146 25.9027C51.2146 26.4648 51.5913 27.3012 52.0925 28.0841C52.6483 28.9525 53.3459 29.7388 53.8497 30.0085C54.8008 30.5176 55.619 31.6411 56.1906 33.1489C56.7401 34.5984 57.0669 36.4108 57.0669 38.3746C57.0669 40.2822 56.7585 42.047 56.2371 43.4753C55.6941 44.9628 54.9159 46.0923 54.0074 46.6515C53.6752 46.8559 53.327 47.1643 52.9991 47.5071C52.5822 47.9428 52.1963 48.4354 51.9144 48.8448C50.0257 51.5874 47.4332 53.857 44.3789 55.4243C41.4352 56.9348 38.0641 57.7928 34.4825 57.7928C31.4214 57.7928 28.5144 57.1667 25.8968 56.0424C23.2299 54.8971 20.8631 53.2332 18.9395 51.1865V51.1865ZM18.2069 46.0625C18.0314 47.7787 18.4436 49.6579 19.2775 50.8762C21.1557 52.8735 23.4693 54.4987 26.0786 55.6193C28.6397 56.7192 31.4851 57.3318 34.4825 57.3318C37.9914 57.3318 41.2913 56.4928 44.1701 55.0156C47.1556 53.4835 49.6899 51.2649 51.5362 48.5838C51.8277 48.1605 52.2295 47.6482 52.6678 47.1901C53.0239 46.8179 53.403 46.4824 53.7661 46.2589C54.5857 45.7545 55.2976 44.7085 55.805 43.3187C56.3083 41.9399 56.6059 40.2297 56.6059 38.3746C56.6059 36.4656 56.2906 34.7098 55.7602 33.3109C55.2275 31.9057 54.4837 30.8687 53.6336 30.4136C53.062 30.1076 52.2979 29.2585 51.7053 28.3326C51.1621 27.4839 50.7536 26.5573 50.7536 25.9027C50.7536 23.1971 48.9665 20.7392 46.0771 18.9524C43.1549 17.1454 39.1124 16.0277 34.6424 16.0277C31.7299 16.0277 29.038 16.4311 26.7318 17.1671C24.4054 17.9095 22.472 18.9894 21.1029 20.3334C20.6522 20.7758 20.1651 21.4339 19.6912 22.203C19.1824 23.0286 18.6902 23.9806 18.2746 24.9314C17.7999 26.0176 17.1648 27.5098 17.0832 28.8119C17.006 30.0429 17.4429 31.1137 19.0574 31.4849C19.7797 31.6509 20.616 31.5584 21.4462 31.3512C22.2955 31.1391 23.1343 30.8085 23.8439 30.5077C24.8316 30.0888 25.7177 29.8766 26.5081 29.8311C27.7244 29.7611 28.7142 30.0842 29.5 30.6582C30.2798 31.2279 30.8531 32.0433 31.2437 32.9646C31.6242 33.862 31.8313 34.8605 31.887 35.828C32.0937 39.4206 30.8725 41.1215 28.9912 41.8664C27.1522 42.5946 24.7033 42.3747 22.3592 42.1351C21.3382 42.0307 20.528 42.246 19.9054 42.675C19.3998 43.0234 19.0132 43.5151 18.7344 44.093C18.451 44.6805 18.279 45.3565 18.2069 46.0625V46.0625ZM59.9991 32.6279C59.361 30.9446 58.4739 29.7045 57.4631 29.1634C56.7571 28.7855 55.8181 27.744 55.0927 26.6107C54.4261 25.5692 53.9248 24.4286 53.9248 23.6173C53.9248 20.3709 51.775 17.4182 48.2992 15.2689C44.7709 13.087 39.8879 11.7375 34.4864 11.7375C29.2172 11.7375 24.5448 12.8299 21.1411 14.7271C17.8547 16.5589 15.7609 19.1385 15.4835 22.198C15.4293 22.7964 15.3708 23.1741 15.221 23.5444C15.0723 23.9118 14.844 24.2449 14.4496 24.755C12.9423 26.7046 11.7489 28.8862 10.9397 31.2332C10.1594 33.4967 9.73754 35.9136 9.73754 38.424C9.73754 44.8267 12.4827 50.6237 16.9209 54.8203C21.3653 59.0227 27.507 61.622 34.2926 61.622C38.7719 61.622 42.9692 60.4901 46.5822 58.5126C50.3229 56.4652 53.4392 53.511 55.5952 49.9679C55.6896 49.8127 55.7613 49.687 55.8228 49.5792C56.1812 48.9506 56.2543 48.8225 57.2257 48.4174C58.2893 47.974 59.2327 46.7577 59.9157 45.0547C60.605 43.3362 61.0182 41.1365 61.0182 38.7341C61.0182 36.4308 60.6382 34.3137 59.9991 32.6279V32.6279Z" fill="#F2944D" stroke="#F2944D" stroke-width="0.5"/>
</svg>
