<svg width="72" height="72" viewBox="0 0 72 72" fill="none" xmlns="http://www.w3.org/2000/svg">
<circle cx="36" cy="36" r="36" fill="white"/>
<path d="M36.1165 55.5983C34.6523 55.5983 33.1916 55.4586 31.754 55.1809C31.4514 55.1223 31.2535 54.8295 31.3121 54.5269C31.3707 54.2243 31.6635 54.0264 31.9661 54.085C37.9724 55.2467 44.1753 53.8261 47.7699 50.4669C50.0833 48.3041 51.1011 45.5153 50.7139 42.4017C50.7116 42.3719 50.7116 42.3422 50.7139 42.3124C50.7139 42.2711 50.8065 38.0716 47.0835 34.9267C46.8566 34.7256 46.8319 34.38 47.0277 34.1484C47.2238 33.9171 47.5686 33.8845 47.8044 34.0752C51.7785 37.4366 51.8388 41.7756 51.8299 42.3047C52.2484 45.7721 51.1101 48.8757 48.5354 51.2817C45.5668 54.0539 40.9735 55.5984 36.1166 55.5984L36.1165 55.5983Z" fill="#F2944D" stroke="#F2944D" stroke-width="0.5"/>
<path d="M31.8601 55.1888C31.8227 55.1892 31.7853 55.1856 31.7485 55.1787C26.3916 54.1431 23.8761 50.5563 22.709 47.7306C21.9443 45.8663 21.5203 43.88 21.4568 41.8662C21.3642 40.9645 20.8542 40.2212 20.4401 39.7547C20.208 39.4936 19.9692 39.2358 19.7382 38.9858C18.8989 38.0807 18.0318 37.1455 17.4124 35.9302C16.626 34.404 16.2155 32.712 16.215 30.9952C16.2161 28.5947 16.9908 26.2584 18.4239 24.3328C19.8573 22.4071 21.873 20.9945 24.1722 20.3044C26.4713 19.6141 28.9317 19.6831 31.1884 20.5012C33.4453 21.3192 35.3784 22.8427 36.7014 24.8457C38.0244 26.8488 38.6668 29.2248 38.5333 31.6215C38.3998 34.0183 37.4977 36.3084 35.9604 38.1521C35.7625 38.3885 35.4106 38.4197 35.1742 38.2218C34.9378 38.0239 34.9065 37.672 35.1044 37.4356C36.4892 35.7763 37.3024 33.7148 37.4233 31.5569C37.5442 29.3991 36.9664 27.2597 35.7757 25.4563C34.5849 23.6529 32.8444 22.2811 30.8126 21.5446C28.7807 20.8082 26.5657 20.7462 24.4959 21.3679C22.4258 21.9897 20.6116 23.2619 19.3219 24.9962C18.0322 26.7302 17.3358 28.8339 17.3358 30.9953C17.3365 32.5359 17.7053 34.0543 18.4116 35.4236C18.9607 36.5006 19.7374 37.3398 20.561 38.227C20.7965 38.4815 21.0398 38.7438 21.2798 39.0138C21.8076 39.6098 22.4605 40.5762 22.5754 41.786V41.8418C22.6398 43.7295 23.0395 45.5906 23.7562 47.3381C25.3063 51.0611 28.0684 53.3301 31.9643 54.0834C32.2468 54.1377 32.4417 54.3981 32.4144 54.6846C32.3869 54.971 32.146 55.1897 31.8582 55.1894L31.8601 55.1888Z" fill="#F2944D" stroke="#F2944D" stroke-width="0.5"/>
<path d="M53.1107 44.367C52.4706 44.3683 51.833 44.2878 51.2134 44.1271C50.9151 44.0493 50.7362 43.7446 50.8139 43.4463C50.8916 43.1479 51.1963 42.969 51.4947 43.0468C54.4186 43.809 57.3224 42.2912 58.4509 40.9699C58.8973 40.4532 59.087 39.9498 58.9598 39.6563C58.865 39.4173 58.673 39.23 58.432 39.1408C57.7244 38.864 56.5995 39.2311 56.2245 39.3963C55.9485 39.5182 55.6258 39.3984 55.4958 39.1262C55.1431 38.3897 53.8631 36.1722 52.1556 34.0227C50.0296 31.3443 47.9561 29.6558 46.1617 29.1359C45.03 28.8078 44.0268 28.9328 43.0927 29.5187C38.1196 32.6357 43.2221 41.2299 43.2746 41.3161C43.434 41.5802 43.349 41.9234 43.0849 42.0828C42.8207 42.2422 42.4776 42.1572 42.3181 41.8931C41.3889 40.2804 40.676 38.5525 40.1977 36.7539C39.2346 32.9516 40.0315 30.1223 42.5034 28.5724C43.7053 27.8192 45.0423 27.6484 46.4753 28.0635C48.5231 28.6583 50.7295 30.4295 53.033 33.3289C54.2446 34.8569 55.3271 36.4829 56.2694 38.1901C56.8843 37.9914 57.9434 37.7548 58.8362 38.0997C59.3542 38.2976 59.769 38.6982 59.9845 39.209C60.2992 39.9288 60.0571 40.8115 59.3027 41.6954C58.065 43.1384 55.6611 44.366 53.1111 44.3671L53.1107 44.367Z" fill="#F2944D" stroke="#F2944D" stroke-width="0.5"/>
<path d="M32.5486 39.5268C32.2999 39.527 32.0811 39.3628 32.0121 39.1239C31.9429 38.8851 32.0402 38.6293 32.2506 38.4967C32.3901 38.4086 35.728 36.3584 41.1338 37.1575C41.283 37.1759 41.4184 37.2537 41.5094 37.3733C41.6005 37.4929 41.6394 37.6441 41.6174 37.7929C41.5955 37.9415 41.5146 38.0751 41.3928 38.1632C41.2711 38.2514 41.119 38.2867 40.9709 38.2612C35.9688 37.5269 32.8752 39.4241 32.8452 39.442C32.7561 39.4976 32.6533 39.527 32.5483 39.5268L32.5486 39.5268Z" fill="#F2944D" stroke="#F2944D" stroke-width="0.5"/>
<path d="M38.4177 43.1071C38.1899 43.1071 37.9849 42.9685 37.8999 42.7572C37.8149 42.5457 37.867 42.3039 38.0316 42.1462C39.1264 41.0982 41.8752 40.3148 42.1854 40.2289C42.4824 40.1466 42.7901 40.3207 42.8723 40.6178C42.9545 40.9148 42.7804 41.2225 42.4834 41.3047C41.7166 41.5179 39.5594 42.2287 38.8005 42.9519C38.6975 43.0507 38.5604 43.1061 38.4177 43.1071L38.4177 43.1071Z" fill="#F2944D" stroke="#F2944D" stroke-width="0.5"/>
<path d="M44.166 29.0456C44.0613 29.0456 43.9586 29.0158 43.8703 28.9596C43.6097 28.7956 43.5314 28.4515 43.695 28.1907C44.9729 26.1574 45.1336 24.1731 41.7565 21.1088C38.8862 18.4996 39.0067 15.5577 39.6127 13.5502C40.0329 12.2077 40.7057 10.9575 41.5947 9.86737C41.7966 9.63431 42.149 9.6092 42.3821 9.81101C42.6151 10.0128 42.6402 10.3653 42.4384 10.5983C41.6472 11.5795 41.0479 12.7009 40.6718 13.904C39.9397 16.3648 40.5602 18.5097 42.5065 20.2798C44.3144 21.9214 45.3199 23.4414 45.581 24.9268C45.8042 26.1845 45.5029 27.4099 44.6392 28.7826C44.5374 28.9461 44.3587 29.0454 44.166 29.0456Z" fill="#F2944D" stroke="#F2944D" stroke-width="0.5"/>
<path d="M36.3417 63.7549C29.0902 63.7549 22.1359 60.8742 17.0081 55.7464C11.8808 50.6191 9 43.6642 9 36.4128C9 29.1613 11.8808 22.207 17.0081 17.0792C20.3974 13.6649 24.6276 11.2052 29.2716 9.94912C33.9155 8.69248 38.8087 8.68358 43.457 9.92308C48.1053 11.1626 52.3445 13.6066 55.7462 17.0084C59.148 20.4101 61.5921 24.6493 62.8315 29.2976C64.071 33.9462 64.0621 38.8394 62.8055 43.483C61.549 48.1268 59.0896 52.3572 55.6754 55.7465C53.1425 58.2936 50.1296 60.3128 46.8107 61.6876C43.4921 63.0621 39.9335 63.7648 36.3418 63.755L36.3417 63.7549ZM36.3417 10.1867C29.3859 10.1867 22.7154 12.9497 17.7971 17.8682C12.8788 22.7864 10.1156 29.457 10.1156 36.4128C10.1156 43.3681 12.8787 50.0391 17.7971 54.9574C21.0512 58.2183 25.1067 60.5647 29.5559 61.7598C34.0049 62.9554 38.6901 62.9578 43.1403 61.7671C47.5906 60.5763 51.6489 58.2344 54.9063 54.977C58.1637 51.7196 60.5055 47.6613 61.6964 43.211C62.8871 38.7608 62.8847 34.0754 61.6891 29.6266C60.4937 25.1776 58.1475 21.1219 54.8867 17.8678C52.4571 15.4247 49.567 13.4879 46.3838 12.1691C43.2006 10.8506 39.7876 10.1766 36.3421 10.1861L36.3417 10.1867Z" fill="#F2944D" stroke="#F2944D" stroke-width="0.5"/>
</svg>
