<svg width="72" height="72" viewBox="0 0 72 72" fill="none" xmlns="http://www.w3.org/2000/svg">
<circle cx="36" cy="36" r="36" fill="white"/>
<path d="M21.4632 14C18.9919 14 16.9883 16.0035 16.9883 18.4749C16.9883 20.9462 18.9919 22.9498 21.4632 22.9498C23.9346 22.9498 25.9381 20.9462 25.9381 18.4749C25.9381 16.0035 23.9346 14 21.4632 14ZM18.1638 18.4749C18.1638 16.6556 19.6439 15.1755 21.4632 15.1755C23.2825 15.1755 24.7627 16.6556 24.7627 18.4749C24.7627 20.2942 23.2825 21.7743 21.4632 21.7743C19.6439 21.7743 18.1638 20.2942 18.1638 18.4749Z" fill="#F2944D" stroke="#F2944D" stroke-width="0.5"/>
<path d="M27.3827 28.0042C27.0945 26.8524 26.0642 26.048 24.8764 26.048H19.6964C17.539 26.048 15.6662 27.5096 15.1315 29.6593L13.0065 44.0293C12.9586 44.351 13.1809 44.6495 13.5021 44.6969C13.5314 44.701 13.5602 44.703 13.5886 44.703C13.8757 44.703 14.1264 44.493 14.1696 44.2012L14.2169 43.8806L16.2833 29.8878C16.6759 28.3186 18.0794 27.2229 19.6969 27.2229H24.8769C25.5238 27.2229 26.0858 27.6614 26.2433 28.2898L28.7687 38.3795C28.7743 38.4016 28.7893 38.4181 28.797 38.4392C28.9009 38.7151 29.1902 38.8808 29.4815 38.8067C29.7959 38.7279 29.9879 38.4089 29.9086 38.0939L27.3827 28.0042Z" fill="#F2944D" stroke="#F2944D" stroke-width="0.5"/>
<path d="M18.9857 42.6841C18.6609 42.6841 18.3979 42.9471 18.3979 43.2718V56.5622C18.3979 56.8869 18.6609 57.1499 18.9857 57.1499C19.3104 57.1499 19.5734 56.8869 19.5734 56.5622V43.2718C19.5734 42.9471 19.3104 42.6841 18.9857 42.6841Z" fill="#F2944D" stroke="#F2944D" stroke-width="0.5"/>
<path d="M23.9397 42.6841C23.6149 42.6841 23.3519 42.9471 23.3519 43.2718V56.5622C23.3519 56.8869 23.6149 57.1499 23.9397 57.1499C24.2644 57.1499 24.5274 56.8869 24.5274 56.5622V43.2718C24.5279 42.9471 24.2649 42.6841 23.9397 42.6841Z" fill="#F2944D" stroke="#F2944D" stroke-width="0.5"/>
<path d="M46.3806 20.8263C46.3806 23.2977 48.3841 25.3012 50.8554 25.3012C53.3268 25.3012 55.3303 23.2977 55.3303 20.8263C55.3303 18.355 53.3268 16.3514 50.8554 16.3514C48.3841 16.3514 46.3806 18.355 46.3806 20.8263ZM50.8554 17.5269C52.6747 17.5269 54.1549 19.007 54.1549 20.8263C54.1549 22.6456 52.6747 24.1258 50.8554 24.1258C49.0362 24.1258 47.556 22.6456 47.556 20.8263C47.556 19.007 49.0362 17.5269 50.8554 17.5269Z" fill="#F2944D" stroke="#F2944D" stroke-width="0.5"/>
<path d="M52.6218 27.2235H49.0887C46.9313 27.2235 45.0585 28.6851 44.5407 30.7571L42.4157 38.0729C42.3251 38.3847 42.5042 38.711 42.8156 38.8016C43.1151 38.8891 43.4167 38.7244 43.5238 38.4403C43.5289 38.4264 43.5397 38.4161 43.5444 38.4012L45.6755 31.0638C46.0682 29.4947 47.4717 28.399 49.0892 28.399H52.6223C54.2393 28.399 55.6433 29.4947 56.0251 31.0144L58.0971 43.8791L58.1501 44.209C58.1965 44.4978 58.4466 44.7031 58.7301 44.7031C58.761 44.7031 58.7929 44.701 58.8243 44.6954C59.1444 44.6439 59.3626 44.3423 59.3112 44.0212L57.1759 30.7772C56.6515 28.6851 54.7792 27.2235 52.6218 27.2235Z" fill="#F2944D" stroke="#F2944D" stroke-width="0.5"/>
<path d="M53.3324 42.6841C53.0077 42.6841 52.7447 42.9471 52.7447 43.2718V56.5622C52.7447 56.8869 53.0077 57.1499 53.3324 57.1499C53.6572 57.1499 53.9202 56.8869 53.9202 56.5622V43.2718C53.9202 42.9471 53.6572 42.6841 53.3324 42.6841Z" fill="#F2944D" stroke="#F2944D" stroke-width="0.5"/>
<path d="M48.3784 42.6841C48.0537 42.6841 47.7907 42.9471 47.7907 43.2718V56.5622C47.7907 56.8869 48.0537 57.1499 48.3784 57.1499C48.7032 57.1499 48.9661 56.8869 48.9661 56.5622V43.2718C48.9661 42.9471 48.7032 42.6841 48.3784 42.6841Z" fill="#F2944D" stroke="#F2944D" stroke-width="0.5"/>
<path d="M36.0093 41.9594C38.0159 41.9594 39.6479 40.3275 39.6479 38.3208C39.6479 36.3142 38.0159 34.6823 36.0093 34.6823C34.0027 34.6823 32.3707 36.3142 32.3707 38.3208C32.3707 40.3275 34.0027 41.9594 36.0093 41.9594ZM36.0093 35.8582C37.3675 35.8582 38.4719 36.9627 38.4719 38.3208C38.4719 39.679 37.3675 40.7834 36.0093 40.7834C34.6511 40.7834 33.5467 39.679 33.5467 38.3208C33.5467 36.9627 34.6511 35.8582 36.0093 35.8582Z" fill="#F2944D" stroke="#F2944D" stroke-width="0.5"/>
<path d="M41.6216 42.4078C41.3261 42.2724 40.9772 42.4042 40.8429 42.6996L39.3942 45.8832C39.2104 46.2867 38.3448 46.7046 37.2136 46.7046H34.8055C33.6748 46.7046 32.8087 46.2867 32.625 45.8832L31.1762 42.6996C31.0419 42.4047 30.6945 42.2724 30.3975 42.4078C30.1021 42.5421 29.9714 42.8905 30.1057 43.1864L31.5545 46.3701C31.9657 47.2738 33.2714 47.8806 34.805 47.8806H37.2131C38.7462 47.8806 40.0524 47.2738 40.4636 46.3701L41.9123 43.1864C42.0472 42.8905 41.917 42.5421 41.6216 42.4078Z" fill="#F2944D" stroke="#F2944D" stroke-width="0.5"/>
<path d="M34.3208 50.0682C33.996 50.0682 33.733 50.3312 33.733 50.656V56.9105C33.733 57.2353 33.996 57.4982 34.3208 57.4982C34.6455 57.4982 34.9085 57.2353 34.9085 56.9105V50.656C34.909 50.3312 34.646 50.0682 34.3208 50.0682Z" fill="#F2944D" stroke="#F2944D" stroke-width="0.5"/>
<path d="M37.6984 50.0682C37.3736 50.0682 37.1107 50.3312 37.1107 50.656V56.9105C37.1107 57.2353 37.3736 57.4982 37.6984 57.4982C38.0231 57.4982 38.2861 57.2353 38.2861 56.9105V50.656C38.2861 50.3312 38.0231 50.0682 37.6984 50.0682Z" fill="#F2944D" stroke="#F2944D" stroke-width="0.5"/>
</svg>
