<svg width="72" height="72" viewBox="0 0 72 72" fill="none" xmlns="http://www.w3.org/2000/svg">
<circle cx="36" cy="36" r="36" fill="white"/>
<path d="M28.9495 28.946C29.4342 29.7091 31.2836 30.8366 33.6759 31.4657C34.0781 31.5723 34.4804 31.6135 34.8826 31.6135C35.7214 31.6135 36.5567 31.4244 37.4091 31.2045C38.4644 30.9329 39.4338 30.1835 40.0731 29.1489C40.3274 28.733 40.5372 28.2689 40.6952 27.767L40.9668 28.0386C41.0321 28.1039 41.1215 28.1383 41.2109 28.1383C41.2625 28.1383 41.314 28.1279 41.3656 28.1039C41.4962 28.0386 41.5719 27.8943 41.5512 27.7499C41.5478 27.7156 41.0975 24.4155 41.3965 21.913C41.6715 19.5652 42.1321 15.6328 37.5775 14.3093C33.6107 13.1543 32.0054 15.4952 30.9429 17.0421C30.8192 17.2243 30.6988 17.3961 30.5855 17.5509C30.1455 18.149 29.8224 18.1112 29.3376 18.0527C28.8461 17.9943 28.2377 17.9187 27.5776 18.5787C27.2236 18.9327 26.9829 19.5069 26.7491 20.0638C26.4707 20.7273 26.1579 21.4766 25.7454 21.5281C25.4979 21.559 24.917 21.3768 23.7585 19.8335C20.4896 15.4744 15.6838 15.6498 15.4984 15.6598L15.488 16.0036L15.5155 16.3475C15.5636 16.3475 20.1697 16.186 23.2087 20.239C24.2949 21.6897 25.1096 22.2946 25.8315 22.2052C26.6359 22.1055 27.0174 21.2015 27.3817 20.3249C27.5881 19.8299 27.8046 19.3178 28.0623 19.0598C28.4852 18.637 28.8083 18.6782 29.2517 18.7298C29.7879 18.7952 30.4583 18.8777 31.1354 17.953C31.2522 17.7915 31.376 17.6126 31.5066 17.4235C32.5138 15.9557 33.8957 13.9448 37.3846 14.9622C41.0765 16.0347 41.0662 18.8226 40.7156 21.8271C40.506 23.5837 40.6435 25.6599 40.7603 26.8563L39.7771 25.8732C39.6705 25.7666 39.5056 25.7426 39.3749 25.8112L38.3027 26.3717L38.3508 25.2958C38.3577 25.1308 38.2511 24.9864 38.0896 24.9486L36.8968 24.6495L37.0928 24.4742C37.1753 24.4021 37.2165 24.292 37.2063 24.1854C37.196 24.0788 37.1342 23.9791 37.0379 23.9242L36.7664 23.7627C37.5089 23.7008 38.1722 23.3949 38.4748 22.68L38.5745 22.4497C39.1761 21.0438 40.087 18.9194 37.8801 17.6097C36.653 16.8844 35.443 16.7193 34.4736 17.1456C33.8582 17.4171 33.0539 18.0599 32.7308 19.5828C32.4833 20.755 31.6824 20.7309 30.4861 20.5625C29.8159 20.4662 29.1215 20.3699 28.874 20.9337C28.8327 21.0265 28.788 21.1468 28.7365 21.2877C28.4855 21.9752 28.0628 23.1268 27.083 23.4706C26.344 23.7284 25.3746 23.5015 24.1956 22.79C24.0788 22.7179 23.9309 22.7247 23.8209 22.8038C23.7074 22.8828 23.6559 23.0203 23.6799 23.1509C23.6834 23.1647 23.9584 24.581 23.6249 25.3852C23.563 25.5296 23.6111 25.7015 23.7384 25.7943C23.8347 25.8631 25.6772 27.2001 28.1381 27.2001C28.4406 27.2001 28.757 27.1795 29.0766 27.1313C28.8498 27.53 28.7432 27.9082 28.757 28.2622C27.2753 28.2553 24.3088 28.0593 23.4221 27.1726C23.3362 27.0866 23.2125 27.0523 23.0921 27.0832C22.9753 27.1141 22.8825 27.2034 22.848 27.3204C22.8377 27.3547 21.8579 30.6857 19.8952 32.6517C19.8127 32.7342 19.7784 32.8512 19.8024 32.9645C19.8127 33.0196 20.9058 38.4682 19.7335 41.9126C19.266 43.2979 19.0873 45.2779 18.9772 47.0309L18.6403 52.4037L18.5956 52.8643C18.465 54.2255 18.2552 56.4392 17.9356 57.3159H17.5024C17.5333 56.2502 17.6295 53.0224 17.6708 51.1147C17.9149 48.5262 18.4889 39.7641 18.4958 39.6747C18.5061 39.5303 18.4202 39.3962 18.2861 39.3378C18.1521 39.2793 17.9939 39.3171 17.8943 39.4237C17.8188 39.5027 17.5403 39.7399 17.0694 39.379C16.5297 38.9631 16.021 35.4775 16.021 32.2051C16.021 30.8852 16.6981 29.6648 17.4166 28.3757C18.1248 27.1039 18.8536 25.7907 19.077 24.2029C19.4757 21.3944 21.8923 21.4219 21.992 21.4253C22.1673 21.4288 22.3117 21.3085 22.3426 21.14C22.37 20.9716 22.2704 20.8065 22.1053 20.7549C19.0561 19.7928 15.6048 20.0815 15.4812 20.0918C15.2921 20.0918 15.1373 20.2465 15.1373 20.4356C15.1373 20.6247 15.2921 20.7794 15.4812 20.7794H15.519C15.6358 20.769 18.0284 20.5698 20.5344 21.0613C19.6544 21.4463 18.661 22.285 18.4031 24.1035C18.1968 25.5644 17.4991 26.8226 16.8218 28.0395C16.0588 29.411 15.3402 30.7036 15.3402 32.2024C15.3402 33.9417 15.5809 39.0911 16.6567 39.9194C17.0761 40.2426 17.4645 40.2976 17.7739 40.2357C17.6364 42.2878 17.1931 48.8981 16.9902 51.0604V51.0707C16.9902 51.0741 16.9867 51.0776 16.9867 51.0845C16.9455 53.0026 16.8492 56.265 16.8184 57.3098L15.3438 57.3095C15.1547 57.3095 15 57.4643 15 57.6534C15 57.8424 15.1547 57.9972 15.3438 57.9972H18.1626C18.2898 57.9972 18.4067 57.9251 18.4651 57.815C18.8638 57.0587 19.0804 55.0685 19.2831 52.9235L19.6647 47.0659C19.7713 45.3575 19.9397 43.436 20.3831 42.1261C21.5072 38.8262 20.6959 34.0034 20.5068 32.9996C22.0812 31.3462 23.0094 28.981 23.353 27.9772C24.8692 28.9054 28.0284 28.9535 28.9496 28.9466L28.9495 28.946ZM37.6534 25.5464L37.5915 26.9386C37.5846 27.0623 37.6465 27.1793 37.7497 27.2445C37.8529 27.3099 37.9835 27.3166 38.0935 27.2583L39.4685 26.5399L40.1387 27.2068C39.9875 27.7912 39.7744 28.3241 39.489 28.7847C38.9425 29.6682 38.1209 30.3075 37.2375 30.5378C36.0722 30.837 34.9344 31.0809 33.8516 30.7956C31.356 30.1424 29.6956 28.9703 29.5029 28.5199L29.4926 28.5233C29.4891 28.5095 29.4891 28.4959 29.4823 28.4821L29.4891 28.4787C29.3723 28.1486 29.4685 27.7603 29.7848 27.2755C29.9292 27.0486 30.108 26.8389 30.2455 26.6808C31.3282 25.4365 32.3321 24.3777 33.6624 24.0546C34.2949 23.9033 34.9445 23.9274 35.632 23.9549L35.7626 23.9651L36.2886 24.2744L35.9586 24.5701C35.8623 24.656 35.8245 24.7866 35.852 24.9105C35.8794 25.0342 35.9791 25.1304 36.103 25.1615L37.6534 25.5464ZM24.3502 25.3711C24.498 24.828 24.4877 24.1852 24.4465 23.7073C25.5499 24.2573 26.5124 24.3913 27.3099 24.1129C28.5956 23.6626 29.1043 22.2669 29.3793 21.5175C29.424 21.3938 29.4652 21.2838 29.4996 21.2047C29.5924 21.1257 30.0908 21.1979 30.3865 21.2391C31.3627 21.3766 33.0023 21.6103 33.4012 19.7232C33.6108 18.7435 34.0749 18.0698 34.7487 17.7741C35.5118 17.4406 36.4984 17.5884 37.5297 18.2003C39.0938 19.1285 38.664 20.4931 37.9422 22.1775L37.8425 22.4112C37.3853 23.4974 35.5119 22.9681 35.2987 22.9062C35.2883 22.9027 35.2814 22.9062 35.2713 22.9027C35.2404 22.8958 35.2093 22.8924 35.175 22.8924C35.1646 22.8924 35.1543 22.8958 35.1475 22.8958C35.1132 22.9027 35.0787 22.9096 35.0478 22.9267C35.0409 22.9302 35.034 22.9336 35.0271 22.9371C34.9963 22.9543 34.9687 22.9783 34.9447 23.0059C34.9378 23.0128 34.9343 23.0197 34.9274 23.0266C34.9171 23.0404 34.9034 23.0506 34.8931 23.0678C34.8827 23.0851 34.8827 23.1022 34.8759 23.1229C34.8724 23.1263 34.869 23.1298 34.869 23.1367V23.1505C34.8621 23.1848 34.8586 23.2193 34.8586 23.2502V23.2536C34.4083 23.2536 33.9511 23.2776 33.4974 23.3877C31.844 23.7898 30.6169 25.2027 29.7231 26.2305C29.7058 26.2511 29.6853 26.2751 29.6646 26.2993C27.2033 26.959 25.0169 25.7835 24.3501 25.371L24.3502 25.3711Z" fill="#F2944D" stroke="#F2944D" stroke-width="0.5"/>
<path d="M41.3177 49.6431C41.2592 49.571 41.2009 49.4987 41.1424 49.4266C40.7677 48.9487 40.6164 48.55 40.6887 48.2373C41.4932 47.9588 41.9709 46.9173 41.7715 45.8001C41.5584 44.5901 40.6337 43.7377 39.709 43.8992C38.7843 44.0641 38.2103 45.1813 38.4234 46.3914C38.5231 46.9586 38.7808 47.4673 39.1452 47.8214C39.3995 48.0689 39.6883 48.2235 39.9874 48.282C39.9497 48.753 40.1524 49.2788 40.6028 49.8495C40.6613 49.9251 40.7231 50.0008 40.785 50.0764C41.1081 50.4751 41.4175 50.8532 41.4552 51.2795C41.4827 51.5718 41.3797 51.8811 41.2696 52.2042C41.2318 52.3143 41.1975 52.4207 41.1664 52.5308C41.1114 52.713 41.218 52.9021 41.4002 52.9571C41.4311 52.9674 41.4656 52.9709 41.4965 52.9709C41.6443 52.9709 41.7818 52.8746 41.8265 52.7233C41.8574 52.6236 41.8884 52.5204 41.9228 52.4209C42.0499 52.0427 42.1805 51.6509 42.1393 51.2177C42.081 50.5815 41.6754 50.0831 41.3178 49.6431L41.3177 49.6431ZM39.1039 46.2709C38.9595 45.4459 39.293 44.6691 39.8326 44.5728C40.3723 44.48 40.9533 45.0919 41.0977 45.9169C41.2421 46.7419 40.9086 47.5187 40.369 47.615C40.1215 47.6562 39.8602 47.5565 39.6265 47.3297C39.3653 47.0719 39.1796 46.6972 39.1039 46.2709V46.2709Z" fill="#F2944D" stroke="#F2944D" stroke-width="0.5"/>
<path d="M43.5107 41.1457C43.3492 40.6988 42.9435 40.3069 42.2972 39.9769C42.2113 39.9322 42.1254 39.8909 42.0395 39.8463C41.5788 39.6194 41.1422 39.4063 40.9291 39.0316C40.7847 38.7773 40.7469 38.4542 40.7126 38.1138C40.6988 38.0003 40.6886 37.8835 40.6714 37.77C40.6439 37.5809 40.4685 37.4503 40.2829 37.4812C40.0938 37.5086 39.9666 37.6841 39.9941 37.8697C40.0079 37.9729 40.0215 38.0793 40.0319 38.1859C40.0765 38.5812 40.1212 38.9904 40.3377 39.3719C40.6574 39.9288 41.2316 40.2107 41.7436 40.4615C41.8261 40.5027 41.9086 40.544 41.9912 40.5852C42.5377 40.8671 42.8403 41.1695 42.8986 41.4858C42.2765 42.0804 42.2731 43.1942 42.9295 44.1463C43.2561 44.6207 43.7029 44.9748 44.1843 45.1466C44.3939 45.2222 44.6002 45.2567 44.7962 45.2567C45.0884 45.2567 45.3634 45.1742 45.5972 45.0126C46.3809 44.4695 46.436 43.2389 45.7243 42.2111C45.1469 41.3864 44.2429 40.9773 43.5107 41.1457L43.5107 41.1457ZM45.1538 42.6066C45.6282 43.2941 45.6522 44.1397 45.1985 44.4525C44.9956 44.5935 44.7138 44.6107 44.4078 44.5041C44.0607 44.3804 43.7341 44.1156 43.49 43.7616C43.0156 43.0741 42.9916 42.2284 43.4453 41.9156C43.5621 41.8332 43.7031 41.7954 43.8578 41.7954C44.2841 41.7919 44.8032 42.098 45.1538 42.6066Z" fill="#F2944D" stroke="#F2944D" stroke-width="0.5"/>
<path d="M53.3093 42.3452C53.0687 41.9258 52.6458 41.7162 52.2713 41.534L52.096 41.4481C51.766 41.2797 51.5803 41.1043 51.5253 40.929C51.955 40.465 51.9482 39.6503 51.4703 38.9594C51.2262 38.6054 50.8928 38.344 50.5318 38.2134C50.1365 38.0725 49.7377 38.1103 49.4387 38.32C49.1395 38.5263 48.9608 38.8872 48.9541 39.3066C48.9472 39.6883 49.0778 40.0939 49.3219 40.4444C49.6897 40.9772 50.2259 41.2763 50.721 41.2763C50.7864 41.2763 50.8481 41.2694 50.9101 41.2591C51.051 41.565 51.3398 41.8332 51.7832 42.0601C51.8451 42.091 51.9069 42.122 51.9688 42.1529C52.2816 42.3076 52.5773 42.452 52.7113 42.6891C52.8042 42.8506 52.8282 43.0672 52.8523 43.301C52.8626 43.3835 52.8695 43.4659 52.8832 43.5485C52.9072 43.7204 53.055 43.8408 53.2236 43.8408C53.2408 43.8408 53.2579 43.8408 53.2751 43.8373C53.4642 43.8099 53.5914 43.6345 53.5639 43.4488C53.5536 43.3767 53.5467 43.301 53.5365 43.2254C53.5087 42.9468 53.4743 42.6306 53.3093 42.3452L53.3093 42.3452ZM49.889 40.049C49.7275 39.8187 49.638 39.5506 49.6449 39.3134C49.6483 39.1999 49.6723 38.9903 49.8339 38.8802C49.9061 38.8286 49.9887 38.8114 50.0677 38.8114C50.1605 38.8114 50.2464 38.8354 50.3049 38.8561C50.5283 38.9351 50.7483 39.1138 50.9065 39.3442C51.2089 39.7808 51.2331 40.3239 50.965 40.513C50.6934 40.7022 50.1916 40.4857 49.889 40.049L49.889 40.049Z" fill="#F2944D" stroke="#F2944D" stroke-width="0.5"/>
<path d="M51.5091 45.054C51.3716 44.7481 51.0793 44.4766 50.6359 44.2496C50.574 44.2187 50.5122 44.1876 50.4503 44.1567C50.1375 44.002 49.8418 43.8576 49.7078 43.6205C49.615 43.4591 49.591 43.2389 49.5668 43.0086C49.5565 42.9262 49.5496 42.8437 49.536 42.7611C49.5085 42.572 49.3331 42.4414 49.1475 42.4723C48.9584 42.4997 48.8312 42.6752 48.8587 42.8608C48.869 42.9329 48.8759 43.0086 48.8861 43.0808C48.917 43.3592 48.9515 43.672 49.113 43.9573C49.3536 44.3767 49.7765 44.5864 50.151 44.7685L50.3263 44.8544C50.6563 45.0228 50.842 45.1983 50.897 45.3735C50.4673 45.8376 50.4741 46.6522 50.9555 47.3432C51.1996 47.6937 51.5329 47.9585 51.8905 48.0891C52.0487 48.1442 52.2033 48.1716 52.3546 48.1716C52.5849 48.1716 52.8014 48.1062 52.9836 47.9825C53.5852 47.5666 53.6368 46.6316 53.1004 45.8581C52.6813 45.2638 52.0521 44.9646 51.5091 45.054L51.5091 45.054ZM52.5885 47.426C52.4303 47.536 52.2241 47.4879 52.1175 47.4499C51.8941 47.3709 51.6741 47.1922 51.5159 46.9619C51.2135 46.5252 51.1894 45.9822 51.4575 45.7931C51.5228 45.7484 51.6053 45.7243 51.6912 45.7243C51.9628 45.7243 52.3031 45.9271 52.53 46.257C52.8324 46.6903 52.86 47.2369 52.5885 47.426H52.5885Z" fill="#F2944D" stroke="#F2944D" stroke-width="0.5"/>
<path d="M51.4361 52.5904L51.2986 52.4564C51.0374 52.1952 50.9101 51.9717 50.9136 51.7827C51.1611 51.6417 51.357 51.4011 51.4635 51.0883C51.5873 50.7274 51.5873 50.3011 51.4601 49.892C51.3329 49.483 51.0992 49.129 50.7966 48.8952C50.4631 48.6409 50.0713 48.5583 49.7241 48.6614C49.3735 48.768 49.0985 49.0567 48.9643 49.4521C48.8406 49.813 48.8406 50.2393 48.9678 50.6483C49.0915 51.0574 49.3287 51.4114 49.6313 51.6452C49.8169 51.7896 50.0231 51.8755 50.2294 51.9064C50.2672 52.2398 50.4631 52.5869 50.8171 52.9377C50.8653 52.9858 50.9134 53.0339 50.965 53.0821C51.216 53.3227 51.4531 53.5531 51.5115 53.8211C51.5493 54.0033 51.5081 54.2198 51.4599 54.4467C51.4427 54.5292 51.4256 54.6116 51.4152 54.6908C51.3844 54.8764 51.5115 55.0552 51.6971 55.0861C51.7178 55.0895 51.7349 55.0895 51.7522 55.0895C51.9171 55.0895 52.065 54.9693 52.0925 54.8007C52.1063 54.7286 52.12 54.6529 52.1338 54.5808C52.1888 54.3092 52.2506 53.9999 52.1854 53.6767C52.0754 53.2056 51.7385 52.8792 51.4361 52.5904L51.4361 52.5904ZM49.6211 50.4522C49.5386 50.1841 49.5351 49.8988 49.6107 49.6754C49.6485 49.5653 49.7379 49.3762 49.92 49.3214C49.9544 49.311 49.9922 49.3076 50.0267 49.3076C50.171 49.3076 50.3016 49.39 50.3738 49.4451C50.5628 49.5895 50.7176 49.8267 50.7966 50.0948C50.8791 50.3629 50.8825 50.6482 50.807 50.8716C50.7692 50.9817 50.6798 51.1708 50.4942 51.2256C50.3086 51.2807 50.1298 51.1741 50.0405 51.1054C49.8583 50.9575 49.7036 50.7203 49.6211 50.4522L49.6211 50.4522Z" fill="#F2944D" stroke="#F2944D" stroke-width="0.5"/>
<path d="M35.515 47.5223C35.178 47.4088 34.848 47.3951 34.5559 47.4707C34.3841 47.0308 33.9716 46.6457 33.3185 46.3295C33.2326 46.2883 33.1466 46.247 33.0573 46.2058C32.5897 45.9893 32.1498 45.7829 31.9297 45.4151C31.7784 45.1641 31.7372 44.841 31.6925 44.5042C31.6787 44.3907 31.6616 44.2739 31.6444 44.1604C31.6135 43.9748 31.4347 43.8476 31.2491 43.8785C31.0635 43.9094 30.9363 44.0881 30.9672 44.2738C30.9845 44.3769 30.9981 44.4834 31.0119 44.59C31.0635 44.9853 31.1185 45.3945 31.3419 45.7656C31.6719 46.3156 32.2563 46.5871 32.7719 46.8278C32.8544 46.8656 32.9403 46.9068 33.0229 46.9446C33.5695 47.2092 33.8788 47.5015 33.9476 47.8177C33.6623 48.0996 33.5077 48.5017 33.511 48.9727C33.511 49.4849 33.7001 50.0211 34.037 50.4886C34.5285 51.1692 35.2505 51.5543 35.8967 51.5543C36.1959 51.5543 36.4811 51.4718 36.7217 51.2965C37.1068 51.0181 37.3198 50.5609 37.3164 50.0075C37.3164 49.4953 37.1273 48.9591 36.7904 48.4916C36.4535 48.0311 35.9997 47.6838 35.515 47.5223L35.515 47.5223ZM36.3159 50.7432C35.8726 51.0663 35.0819 50.7639 34.5903 50.0866C34.336 49.7361 34.195 49.3406 34.195 48.9728C34.195 48.6463 34.3051 48.3885 34.5043 48.2407C34.6246 48.1547 34.769 48.1101 34.9341 48.1101C35.0476 48.1101 35.1678 48.1308 35.295 48.172C35.6421 48.2888 35.9755 48.5433 36.23 48.8973C36.4843 49.2479 36.6253 49.6433 36.6253 50.0111C36.6287 50.3377 36.5188 50.5988 36.3159 50.7433L36.3159 50.7432Z" fill="#F2944D" stroke="#F2944D" stroke-width="0.5"/>
<path d="M39.4649 41.6819C39.513 41.2075 39.3136 40.7469 38.901 40.3791C38.5194 40.0387 37.9936 39.8187 37.4229 39.7602C36.8488 39.6983 36.292 39.8049 35.8485 40.0594C35.5391 40.2347 35.3088 40.4684 35.1713 40.74C34.7279 40.5716 34.1676 40.6232 33.4972 40.8982C33.4079 40.9325 33.3219 40.9703 33.2326 41.0117C32.7582 41.2145 32.3113 41.4035 31.8919 41.3244C31.6031 41.2694 31.3385 41.0838 31.0531 40.8913C30.9569 40.8259 30.864 40.7607 30.7678 40.6987C30.6063 40.5956 30.3965 40.6437 30.2934 40.8053C30.1902 40.9668 30.2383 41.1766 30.4 41.2798C30.4893 41.3382 30.5787 41.3966 30.6646 41.4585C30.9947 41.6854 31.3316 41.9157 31.7611 41.9982C31.8747 42.0188 31.9846 42.029 32.0981 42.029C32.6034 42.029 33.0778 41.8262 33.5039 41.644C33.5899 41.6062 33.6758 41.5719 33.7582 41.5374C34.322 41.3071 34.7449 41.2727 35.0266 41.4308C35.0473 41.8295 35.2431 42.2145 35.5938 42.5273C35.9754 42.8677 36.5013 43.0877 37.072 43.1461C37.1786 43.1565 37.2885 43.1634 37.3917 43.1634C38.4885 43.1566 39.372 42.5482 39.4648 41.6819L39.4649 41.6819ZM37.1376 42.4553C36.7079 42.4106 36.3195 42.249 36.0445 42.005C35.8004 41.7885 35.6836 41.5341 35.7076 41.2867C35.735 41.0391 35.9035 40.8157 36.1854 40.6542C36.4432 40.5063 36.7629 40.4273 37.1067 40.4273C37.1857 40.4273 37.2682 40.4307 37.3508 40.4411C37.7805 40.4858 38.1688 40.6474 38.4439 40.8914C38.688 41.1079 38.8048 41.3624 38.7808 41.6098C38.7223 42.1561 37.9694 42.5412 37.1376 42.4553L37.1376 42.4553Z" fill="#F2944D" stroke="#F2944D" stroke-width="0.5"/>
<path d="M55.908 25.3949H46.6268C46.4377 25.3949 46.283 25.5496 46.283 25.7387V30.472C46.283 30.6611 46.4377 30.8158 46.6268 30.8158H47.2318V35.766C44.8428 33.4285 41.6218 32.1017 38.2635 32.1017C31.1959 32.1017 25.4485 37.8526 25.4485 44.9201C25.4485 51.9842 31.1994 57.7316 38.2635 57.7316C41.6253 57.7316 44.8462 56.4013 47.2353 54.0639C47.2627 56.2399 49.04 57.9999 51.2193 57.9999H51.3121C53.5121 57.9999 55.2996 56.2125 55.2996 54.0124V30.8157H55.9081C56.0972 30.8157 56.2519 30.661 56.2519 30.4719L56.2518 25.7386C56.2518 25.5495 56.0972 25.3948 55.9081 25.3948L55.908 25.3949ZM47.2318 49.5984C45.4821 52.9534 42.0513 55.0365 38.2634 55.0365C32.6845 55.0365 28.1435 50.4955 28.1435 44.9165C28.1435 39.3341 32.6845 34.7931 38.2634 34.7931C42.055 34.7931 45.4822 36.8763 47.2318 40.2347V49.5984ZM38.2634 57.044C31.574 57.044 26.1359 51.606 26.1359 44.92C26.1359 38.2306 31.5774 32.789 38.2634 32.789C41.6734 32.789 44.9321 34.2328 47.2318 36.7558V38.8974C45.238 35.9171 41.9108 34.1088 38.2634 34.1088C32.3025 34.1088 27.456 38.9592 27.456 44.9197C27.456 50.8806 32.3029 55.7271 38.2634 55.7271C41.9106 55.7271 45.2415 53.919 47.2318 50.942V53.0802C44.9321 55.5964 41.6736 57.0435 38.2634 57.0435V57.044ZM51.3121 57.3087H51.2193C49.4008 57.3087 47.9194 55.8271 47.9194 54.0087V53.201V53.1872V49.7118V49.7015V40.1316V40.1212V37.2784H54.6157V54.0087C54.6157 55.8306 53.1341 57.3087 51.3122 57.3087L51.3121 57.3087ZM54.6157 36.5944H47.9193V30.8193H54.6157V36.5944ZM55.5644 30.1283H46.9706V26.0825H55.5644V30.1283Z" fill="#F2944D" stroke="#F2944D" stroke-width="0.5"/>
<path d="M35.034 25.6836C34.838 25.3467 34.4255 25.1095 33.9478 25.1095C33.2809 25.1095 32.7378 25.5598 32.7378 26.1167C32.7378 26.6701 33.2809 27.1238 33.9478 27.1238C34.5082 27.1238 34.9791 26.8041 35.1132 26.371C35.3126 26.371 35.5119 26.4329 35.6701 26.5462C35.7491 26.6047 35.8282 26.6768 35.9073 26.7559C36.0344 26.8796 36.1823 27.0205 36.3679 27.1237C36.4195 27.1511 36.478 27.1649 36.5328 27.1649C36.6531 27.1649 36.7735 27.0995 36.8353 26.9862C36.9281 26.8212 36.8662 26.6115 36.7012 26.5186C36.5946 26.4602 36.4949 26.3639 36.3884 26.2609C36.2922 26.1681 36.1959 26.0753 36.0757 25.9893C35.7765 25.773 35.4018 25.6664 35.034 25.6836L35.034 25.6836ZM33.9477 26.4365C33.6485 26.4365 33.4251 26.2681 33.4251 26.1168C33.4251 25.9655 33.6485 25.7971 33.9477 25.7971C34.1952 25.7971 34.3843 25.9106 34.4461 26.0343C34.4426 26.0721 34.4426 26.1134 34.453 26.1511C34.453 26.158 34.4599 26.1615 34.4599 26.1649C34.4186 26.3023 34.2125 26.4365 33.9476 26.4365L33.9477 26.4365Z" fill="#F2944D" stroke="#F2944D" stroke-width="0.5"/>
<path d="M36.0517 28.3821C35.8522 28.3718 35.6564 28.3031 35.5017 28.1793C35.4261 28.1173 35.3504 28.0383 35.2748 27.9559C35.1511 27.8253 35.0136 27.6774 34.8314 27.5674C34.6699 27.4676 34.4567 27.5192 34.357 27.6809C34.2573 27.8423 34.3089 28.0556 34.4705 28.1553C34.5737 28.2172 34.67 28.3202 34.773 28.4303C34.8623 28.5265 34.9586 28.6262 35.0721 28.7191C35.3609 28.9528 35.7287 29.0765 36.0965 29.0765C36.2753 29.4236 36.674 29.6781 37.1553 29.7021C37.1793 29.7021 37.2034 29.7055 37.2274 29.7055C37.8633 29.7055 38.3859 29.293 38.4133 28.7603C38.4271 28.4784 38.2998 28.1999 38.0627 28.0005C37.8462 27.8183 37.5609 27.7117 37.255 27.6946C36.6911 27.6569 36.2098 27.956 36.0517 28.3821L36.0517 28.3821ZM37.1791 28.3752H37.2169C37.3716 28.3821 37.516 28.4337 37.6156 28.5196C37.6568 28.554 37.7291 28.6297 37.7256 28.7191C37.7187 28.8704 37.4884 29.025 37.1894 29.0113C36.9453 28.9975 36.7563 28.8773 36.7014 28.7501C36.7083 28.7123 36.7083 28.6711 36.7014 28.6333C36.7014 28.6298 36.6979 28.6298 36.6979 28.6264C36.7391 28.4957 36.9282 28.3752 37.1791 28.3752L37.1791 28.3752Z" fill="#F2944D" stroke="#F2944D" stroke-width="0.5"/>
<path d="M34.4875 28.9667C34.2812 28.9152 34.0784 28.9186 33.8997 28.9221C33.7862 28.9255 33.6797 28.9255 33.58 28.9152C33.3841 28.8912 33.1984 28.7984 33.0506 28.6642C33.133 28.4889 33.1674 28.286 33.1296 28.0729C33.0815 27.7945 32.9336 27.5299 32.7102 27.3201C32.2221 26.8664 31.5174 26.8251 31.1392 27.2307C30.9467 27.437 30.8642 27.7326 30.9158 28.0385C30.964 28.3169 31.1118 28.5815 31.3352 28.7913C31.5964 29.0354 31.923 29.1626 32.2256 29.1626C32.3287 29.1626 32.425 29.1453 32.5178 29.1144C32.7756 29.3791 33.1194 29.5544 33.4872 29.5991C33.6316 29.6163 33.7691 29.6163 33.9031 29.6129C34.051 29.6094 34.1919 29.6094 34.3087 29.6369C34.3362 29.6437 34.3672 29.6472 34.3946 29.6472C34.5494 29.6472 34.6869 29.544 34.7281 29.3894C34.783 29.2005 34.6731 29.0149 34.4875 28.9667L34.4875 28.9667ZM31.8131 28.2826C31.6996 28.176 31.624 28.0453 31.6 27.9182C31.5897 27.8632 31.5862 27.76 31.6481 27.6948C31.7513 27.5847 32.0297 27.6158 32.2463 27.8185C32.3598 27.9251 32.4353 28.0557 32.4593 28.1828C32.4662 28.2275 32.4697 28.3031 32.4386 28.365C32.4352 28.3685 32.4283 28.3685 32.4248 28.3719C32.3974 28.3892 32.3733 28.4166 32.3527 28.4408C32.2256 28.4992 31.9987 28.4614 31.8131 28.2826L31.8131 28.2826Z" fill="#F2944D" stroke="#F2944D" stroke-width="0.5"/>
</svg>
