<svg width="72" height="72" viewBox="0 0 72 72" fill="none" xmlns="http://www.w3.org/2000/svg">
<circle cx="36" cy="36" r="36" fill="white"/>
<path d="M29.1894 36.7263C29.0684 36.8473 29.0684 37.0894 29.0684 37.2104C29.0684 37.3314 29.1894 37.4526 29.3105 37.5735C29.4315 37.6945 29.5527 37.6945 29.6737 37.6945C29.9158 37.6945 30.0368 37.5735 30.1579 37.4524C30.6422 36.8471 31.1263 36.2418 31.7316 35.7575C33.7895 33.6996 36.4527 32.2469 38.2684 32.2469C38.9946 32.2469 39.4789 32.3679 39.842 32.7312C39.963 32.8522 40.0842 32.9733 40.0842 33.0943C40.2052 33.3365 40.5685 33.4574 40.9316 33.3365C41.0526 33.2155 41.1737 33.0943 41.1737 32.9733V32.4891C41.0528 32.2469 40.9316 32.0048 40.6895 31.8838C40.0842 31.2785 39.2368 31.0364 38.2684 31.0364C35.9683 31.0364 33.1842 32.4891 30.7632 34.9101C30.1579 35.5158 29.6736 36.121 29.1893 36.7263L29.1894 36.7263Z" fill="#F2944D" stroke="#F2944D" stroke-width="0.5"/>
<path d="M28.7051 38.6631C28.463 38.5421 27.9789 38.6631 27.8577 38.9052C27.7368 39.0262 27.7368 39.2683 27.8577 39.3895C27.8577 39.5105 27.9787 39.6316 28.2208 39.7526H28.463C28.7051 39.7526 28.9473 39.6316 29.0683 39.3895C29.1892 39.2685 29.1892 39.0264 29.0683 38.9052C28.9473 38.7842 28.8261 38.6631 28.7051 38.6631H28.7051Z" fill="#F2944D" stroke="#F2944D" stroke-width="0.5"/>
<path d="M40.9314 34.5472C40.5683 34.5472 40.3262 34.6682 40.2052 35.0315C40.2052 35.1525 40.2052 35.3946 40.3262 35.5158C40.4471 35.6368 40.5683 35.758 40.6893 35.758H40.8103C41.0524 35.758 41.2945 35.5158 41.4155 35.2737C41.4155 35.1527 41.4155 34.9106 41.2945 34.7894C41.2945 34.6682 41.1736 34.6682 40.9314 34.5472H40.9314Z" fill="#F2944D" stroke="#F2944D" stroke-width="0.5"/>
<path d="M12.121 58.0314C12 58.1524 12 58.2736 12 58.5157C12 58.8788 12.3631 59 12.6053 59H12.7262C15.1473 58.6369 17.2052 57.9104 18.6578 56.9421C18.7788 56.8211 18.8999 56.6999 18.8999 56.579C18.8999 56.458 18.8999 56.2158 18.779 56.0947C18.5368 55.8525 18.1737 55.7316 17.9316 55.9737C16.6001 56.8211 14.7843 57.4264 12.4842 57.7895C12.363 57.7893 12.1209 57.9104 12.1209 58.0314H12.121Z" fill="#F2944D" stroke="#F2944D" stroke-width="0.5"/>
<path d="M19.5052 54.3999C19.3842 54.5211 19.3842 54.642 19.3842 54.8842C19.3842 55.1263 19.5052 55.1263 19.6263 55.2473C19.7473 55.3683 19.8685 55.3683 19.9894 55.3683C20.2316 55.3683 20.3526 55.2473 20.4737 55.1261C20.7159 54.884 20.5947 54.5209 20.3528 54.2787C20.1104 54.0368 19.7473 54.1577 19.5051 54.3999L19.5052 54.3999Z" fill="#F2944D" stroke="#F2944D" stroke-width="0.5"/>
<path d="M27.6157 44.9578H28.1C28.7052 45.3209 29.3105 45.5631 30.1579 45.5631C32.458 45.5631 35.1209 44.1104 37.6631 41.6894C38.8737 40.4788 39.9632 39.0262 40.5685 37.6947C40.6895 37.4525 40.5685 37.0894 40.3264 36.8473C39.9632 36.7263 39.7211 36.8473 39.4789 37.0894C38.8737 38.2999 37.9053 39.6314 36.8157 40.8419C34.7578 43.021 32.0946 44.3525 30.2789 44.3525C29.5527 44.3525 29.0684 44.1104 28.7053 43.8683C28.3422 43.6261 28.221 43.0208 28.221 42.2946C28.221 42.0525 28.221 41.8103 28.342 41.5684C28.342 41.2053 28.221 40.9632 27.8577 40.8422C27.4946 40.8422 27.2524 40.9632 27.1315 41.3265C27.0105 41.6896 27.0105 42.0527 27.0105 42.2949C27.0105 42.7791 27.1315 43.2632 27.2526 43.7475C25.1947 43.7475 22.6527 44.2318 21.2 46.1686C20.4738 47.2582 20.3526 48.3475 20.3526 49.0739V50.1635V51.2531C20.3526 51.6162 20.3526 51.9793 20.2316 52.3427C20.2316 52.7058 20.3526 52.9479 20.7159 53.0689H20.8369C21.079 53.0689 21.4422 52.8267 21.4422 52.5846C21.4422 52.2215 21.5631 51.7372 21.5631 51.3741V50.1635V49.074C21.5631 48.3477 21.6841 47.6213 22.1684 46.8951C23.258 45.2001 26.0421 44.9579 27.6157 44.9579L27.6157 44.9578Z" fill="#F2944D" stroke="#F2944D" stroke-width="0.5"/>
<path d="M46.0156 13C38.6314 13 32.5788 19.0526 32.5788 26.4368C32.5788 26.7999 32.821 27.0421 33.1841 27.0421C33.5472 27.0421 33.7894 26.7999 33.7894 26.4368C33.7894 19.6579 39.2367 14.2105 46.0156 14.2105C52.7946 14.2105 58.2419 19.7789 58.2419 26.4368C58.2419 33.2157 52.7946 38.6631 46.0156 38.6631C45.6525 38.6631 45.4104 38.9052 45.4104 39.2684C45.4104 39.6315 45.6525 39.8736 46.0156 39.8736C53.3998 39.8736 59.4525 33.821 59.4525 26.4368C59.4525 19.0526 53.3998 13 46.0156 13V13Z" fill="#F2944D" stroke="#F2944D" stroke-width="0.5"/>
<path d="M52.1893 32.9737C52.1893 33.0947 52.3103 33.3368 52.4314 33.458C52.5524 33.579 52.6736 33.579 52.7946 33.579C52.9155 33.579 53.1577 33.458 53.2789 33.3368C54.9737 31.521 55.9421 29.1 55.9421 26.5579C55.9421 21.1105 51.4631 16.6316 46.0158 16.6316C40.5685 16.6316 36.0895 21.1106 36.0895 26.5579C36.0895 26.921 36.3316 27.1631 36.6947 27.1631C37.0579 27.1631 37.3 26.921 37.3 26.5579C37.3 21.7158 41.1737 17.8421 46.0158 17.8421C50.8578 17.8421 54.7315 21.7158 54.7315 26.5579C54.7315 28.7368 53.8841 30.9157 52.4314 32.4894C52.1893 32.6104 52.1893 32.7316 52.1893 32.9735L52.1893 32.9737Z" fill="#F2944D" stroke="#F2944D" stroke-width="0.5"/>
<path d="M48.5577 34.9104C47.7103 35.1526 46.8629 35.2736 46.0157 35.2736C45.6526 35.2736 45.4105 35.5157 45.4105 35.8788C45.4105 36.2419 45.6526 36.4841 46.0157 36.4841C46.9841 36.4841 47.9525 36.3631 48.9211 35.9998C49.042 35.9998 49.1632 35.8788 49.2842 35.7576C49.4052 35.6367 49.4052 35.3945 49.2842 35.2734C49.2842 34.9104 48.9211 34.7893 48.5578 34.9104L48.5577 34.9104Z" fill="#F2944D" stroke="#F2944D" stroke-width="0.5"/>
<path d="M50.9788 35.0316C51.0997 35.0316 51.2209 35.0316 51.3419 34.9106C51.584 34.7896 51.705 34.3053 51.584 34.0632C51.4631 33.821 50.9788 33.7 50.7366 33.821C50.6156 33.942 50.4945 34.0632 50.4945 34.1841C50.4945 34.3051 50.4945 34.5473 50.6154 34.6684C50.4947 34.9106 50.7368 35.0315 50.9788 35.0315L50.9788 35.0316Z" fill="#F2944D" stroke="#F2944D" stroke-width="0.5"/>
<path d="M51.2209 24.7421C51.2209 24.0159 50.6156 23.2894 49.7682 23.2894C48.9208 23.2894 48.3156 23.8947 48.3156 24.7421C48.3156 25.5895 48.9208 26.1948 49.7682 26.1948C50.6156 26.1948 51.2209 25.4686 51.2209 24.7421ZM49.5263 24.7421C49.5263 24.6211 49.6472 24.5 49.7684 24.5C49.8894 24.5 50.0106 24.6209 50.0106 24.7421C50.0106 24.8631 49.8896 24.9843 49.7684 24.9843C49.6472 24.8633 49.5263 24.8633 49.5263 24.7421Z" fill="#F2944D" stroke="#F2944D" stroke-width="0.5"/>
</svg>
