<svg width="72" height="72" viewBox="0 0 72 72" fill="none" xmlns="http://www.w3.org/2000/svg">
<circle cx="36" cy="36" r="36" fill="white"/>
<path d="M28.0923 40.1846C35.8621 40.1846 42.1846 33.8625 42.1846 26.0923C42.1845 18.3226 35.8621 12 28.0923 12C20.3226 12 14 18.3222 14 26.0923C14 33.8621 20.3222 40.1846 28.0923 40.1846V40.1846ZM28.0923 12.7504C35.4496 12.7504 41.4343 18.7355 41.4343 26.0923C41.4343 33.4496 35.4492 39.4347 28.0923 39.4347C20.735 39.4347 14.7504 33.4496 14.7504 26.0927C14.7502 18.7355 20.735 12.7504 28.0923 12.7504Z" fill="#F2944D" stroke="#F2944D" stroke-width="0.5"/>
<path d="M28.0923 37.9799C34.6473 37.9799 39.9758 32.6477 39.9758 26.0965C39.9756 19.5453 34.6431 14.2092 28.0923 14.2092C21.5411 14.2092 16.2051 19.5377 16.2051 26.0927C16.2051 32.6477 21.5373 37.9799 28.0923 37.9799V37.9799ZM28.0923 14.9592C34.2311 14.9592 39.2258 19.9544 39.2258 26.0927C39.2258 32.2314 34.2307 37.2262 28.0923 37.2262C21.9536 37.2264 16.955 32.2352 16.955 26.0927C16.955 19.9539 21.954 14.9592 28.0923 14.9592Z" fill="#F2944D" stroke="#F2944D" stroke-width="0.5"/>
<path d="M28.2757 27.7124C28.3845 28.3349 28.6657 28.8936 29.0707 29.2837C29.3518 29.5575 29.6669 29.7261 29.997 29.7899C29.952 30.3074 30.1769 30.8848 30.672 31.5149C30.7358 31.5974 30.8032 31.68 30.8708 31.7624C31.227 32.2011 31.5644 32.6174 31.6095 33.0899C31.6394 33.4125 31.527 33.75 31.407 34.1099C31.3657 34.23 31.3283 34.3499 31.2907 34.47C31.2306 34.6687 31.3469 34.8787 31.5457 34.935C31.5794 34.9463 31.617 34.95 31.6507 34.95C31.812 34.95 31.962 34.845 32.0107 34.68C32.0444 34.5674 32.082 34.4587 32.1195 34.3463C32.2582 33.93 32.4006 33.4988 32.3594 33.0225C32.2956 32.3213 31.8494 31.7738 31.4557 31.29C31.3919 31.2113 31.3283 31.1325 31.2645 31.0538C30.852 30.5287 30.6833 30.0863 30.7658 29.7413C31.1821 29.5988 31.527 29.2763 31.7519 28.8114C31.9957 28.3051 32.067 27.6863 31.9582 27.0602C31.8494 26.4377 31.5683 25.8791 31.1633 25.489C30.7283 25.0652 30.207 24.8815 29.6933 24.9714C28.6733 25.155 28.0396 26.3811 28.2758 27.7124L28.2757 27.7124ZM29.8169 25.7138C29.8581 25.7062 29.8993 25.7025 29.9407 25.7025C30.1732 25.7025 30.417 25.815 30.6344 26.0288C30.9231 26.31 31.1294 26.7262 31.212 27.1951C31.2944 27.6639 31.2457 28.125 31.0695 28.4888C30.912 28.8113 30.6796 29.0174 30.4095 29.0663C30.1394 29.1151 29.847 29.0026 29.592 28.7513C29.3033 28.4701 29.097 28.0539 29.0144 27.585C28.8531 26.6738 29.2207 25.8188 29.8169 25.7138L29.8169 25.7138Z" fill="#F2944D" stroke="#F2944D" stroke-width="0.5"/>
<path d="M25.6737 50.5422C25.6099 50.5722 25.5463 50.6023 25.4825 50.6322C25.2312 50.7447 24.9501 50.8684 24.7287 51.1085C24.4062 51.461 24.335 51.9185 24.275 52.3198L24.2451 52.5035C24.2076 52.7321 24.1288 53.0059 23.9788 53.1371C23.4125 52.8859 22.655 53.1409 22.1563 53.7896C21.59 54.5283 21.5937 55.4546 22.1751 55.9008C22.3738 56.0546 22.61 56.1259 22.8575 56.1259C23.3301 56.1259 23.8437 55.8596 24.2188 55.3759C24.6499 54.8172 24.7474 54.1497 24.5188 53.666C24.7512 53.4409 24.9087 53.0959 24.9875 52.6273L25.0175 52.4323C25.0662 52.106 25.1112 51.7986 25.28 51.6148C25.3963 51.491 25.5837 51.4048 25.7825 51.3148C25.8576 51.2811 25.9287 51.251 26 51.2136C26.1875 51.1236 26.2626 50.8985 26.1726 50.7111C26.0825 50.5272 25.8612 50.4521 25.6737 50.5423L25.6737 50.5422ZM23.6225 54.9185C23.2962 55.3459 22.8389 55.466 22.6326 55.3047C22.4263 55.1472 22.4263 54.671 22.7526 54.2472C23.079 53.8234 23.5401 53.7035 23.7426 53.861C23.9487 54.0184 23.9525 54.4947 23.6225 54.9185Z" fill="#F2944D" stroke="#F2944D" stroke-width="0.5"/>
<path d="M30.3682 19.9987C30.7169 20.61 31.3506 20.9212 31.9131 21.1986C32.0068 21.2436 32.0968 21.2886 32.1869 21.3336C32.7907 21.6449 33.1244 21.9785 33.1882 22.331C32.5206 22.9797 32.5131 24.2247 33.2218 25.2523C33.758 26.0248 34.5568 26.4673 35.2768 26.4673C35.5918 26.4673 35.8918 26.3811 36.1506 26.2047C36.998 25.6198 37.0581 24.2398 36.2893 23.126C35.6594 22.2148 34.6655 21.7648 33.8593 21.9523C33.6831 21.4611 33.2367 21.0297 32.5244 20.6661C32.4306 20.6173 32.3369 20.5724 32.2394 20.5236C31.7332 20.2724 31.2533 20.0362 31.0169 19.6274C30.8556 19.3463 30.8182 18.9938 30.777 18.6187C30.7619 18.4913 30.7508 18.3674 30.732 18.24C30.702 18.0338 30.5144 17.8913 30.3082 17.925C30.1019 17.9549 29.9632 18.1463 29.9931 18.3488C30.0082 18.4651 30.0231 18.5812 30.0344 18.6975C30.0833 19.1326 30.132 19.5826 30.3682 19.9987L30.3682 19.9987ZM35.6745 23.55C36.1995 24.3075 36.2219 25.2412 35.7232 25.5861C35.2245 25.9311 34.362 25.5824 33.8371 24.8249C33.312 24.0674 33.2896 23.1337 33.7883 22.7923C33.9195 22.7024 34.0733 22.6611 34.2421 22.6611C34.7145 22.6538 35.2881 22.9912 35.6745 23.55V23.55Z" fill="#F2944D" stroke="#F2944D" stroke-width="0.5"/>
<path d="M22.055 28.1961C22.1487 28.2411 22.2386 28.2823 22.3288 28.3273C22.9401 28.6235 23.2812 28.9498 23.3526 29.3023C22.6963 29.9661 22.7151 31.211 23.4463 32.2198C23.9862 32.9697 24.7776 33.3935 25.4899 33.3935C25.8199 33.3935 26.1311 33.3036 26.3974 33.1124C27.2299 32.5086 27.2637 31.1286 26.4725 30.0337C25.8238 29.1375 24.8188 28.7061 24.0201 28.9124C23.8327 28.4249 23.3789 28.0049 22.6589 27.6562C22.5652 27.6112 22.4677 27.5662 22.3739 27.5212C21.8601 27.2813 21.3765 27.0562 21.1327 26.6512C20.9677 26.3738 20.919 26.0213 20.8702 25.6462C20.8552 25.5188 20.8365 25.395 20.8177 25.2711C20.784 25.0686 20.589 24.9262 20.3865 24.9636C20.184 24.9973 20.0453 25.1923 20.079 25.3948C20.0978 25.5111 20.1127 25.6272 20.1278 25.7435C20.184 26.1785 20.2441 26.6247 20.4915 27.0372C20.8475 27.6336 21.4887 27.9338 22.055 28.1962L22.055 28.1961ZM24.436 29.6061C24.9048 29.6061 25.471 29.9286 25.8648 30.4724C26.4048 31.2186 26.446 32.1486 25.9586 32.5049C25.4674 32.8612 24.5973 32.5275 24.0574 31.7811C23.5174 31.0349 23.4762 30.1048 23.9637 29.7486C24.0948 29.6511 24.2599 29.6061 24.436 29.6061V29.6061Z" fill="#F2944D" stroke="#F2944D" stroke-width="0.5"/>
<path d="M21.3087 22.909C21.8637 22.909 22.385 22.6877 22.8574 22.4852C22.9511 22.444 23.0448 22.4065 23.1385 22.3689C23.7611 22.1177 24.2297 22.0764 24.5372 22.2526C24.586 23.1863 25.5384 24.0075 26.7834 24.1387C26.8997 24.15 27.0121 24.1575 27.1246 24.1575C27.6309 24.1575 28.1145 24.0375 28.512 23.8126C29.0407 23.5126 29.3595 23.0588 29.4157 22.5413C29.5245 21.5175 28.5158 20.5688 27.1733 20.4301C26.547 20.3626 25.9284 20.4789 25.4446 20.76C25.1034 20.955 24.8521 21.21 24.6984 21.51C24.2109 21.3263 23.5959 21.3826 22.8572 21.6826C22.7597 21.72 22.6622 21.765 22.5647 21.8064C22.0435 22.0277 21.5522 22.2376 21.0872 22.1476C20.7684 22.0876 20.4759 21.8851 20.1647 21.6713C20.0597 21.6 19.9547 21.5288 19.8496 21.4613C19.6735 21.3487 19.4446 21.4012 19.3321 21.5776C19.2196 21.7537 19.2721 21.9826 19.4484 22.0951C19.5459 22.1589 19.6434 22.2225 19.7409 22.29C20.1009 22.5375 20.4758 22.7925 20.9446 22.8863C21.0612 22.8977 21.1849 22.909 21.3087 22.909L21.3087 22.909ZM25.8123 21.4015C26.0972 21.2403 26.4497 21.1541 26.8248 21.1541C26.911 21.1541 27.0009 21.1578 27.0911 21.1691C28.0098 21.2666 28.7297 21.8553 28.6661 22.459C28.6361 22.7329 28.4485 22.9803 28.1374 23.1565C27.7849 23.359 27.3312 23.4414 26.8586 23.3889C25.9399 23.2914 25.22 22.7027 25.2836 22.099C25.3098 21.8289 25.4972 21.5815 25.8123 21.4015L25.8123 21.4015Z" fill="#F2944D" stroke="#F2944D" stroke-width="0.5"/>
<path d="M56.8486 18.109H47.2188C46.5701 18.109 46.0413 18.6377 46.0413 19.2866V22.069C46.0413 22.7178 46.5699 23.2466 47.2188 23.2466H47.4851V55.6161C47.4851 58.0349 49.4539 59.9999 51.8689 59.9999H52.1988C54.6176 59.9999 56.5826 58.0312 56.5826 55.6161V23.2466H56.8489C57.4976 23.2466 58.0265 22.7179 58.0265 22.069V19.2866C58.0263 18.638 57.4973 18.109 56.8486 18.109ZM52.1989 59.2495H51.869C49.8666 59.2495 48.2353 57.6182 48.2353 55.6158V33.3078H55.8325V55.6162C55.8325 57.6186 54.2051 59.2495 52.1989 59.2495ZM55.8326 32.5577H48.2354V23.2465H55.8326V27.9021V32.5577ZM57.2763 22.069C57.2763 22.3052 57.0851 22.4965 56.8489 22.4965H56.2077L47.8601 22.4966H47.2189C46.9827 22.4966 46.7915 22.3054 46.7915 22.0692V19.2867C46.7915 19.0505 46.9827 18.8593 47.2189 18.8593H56.8487C57.0849 18.8593 57.2761 19.0505 57.2761 19.2867L57.2763 22.069Z" fill="#F2944D" stroke="#F2944D" stroke-width="0.5"/>
<path d="M49.8007 49.6117C49.5945 49.6117 49.4257 49.7805 49.4257 49.9868V51.6329C49.4257 51.8392 49.5945 52.008 49.8007 52.008C50.007 52.008 50.1758 51.8392 50.1758 51.6329V49.9868C50.1756 49.7805 50.0068 49.6117 49.8007 49.6117Z" fill="#F2944D" stroke="#F2944D" stroke-width="0.5"/>
<path d="M49.8007 35.6735C49.5945 35.6735 49.4257 35.8423 49.4257 36.0485V47.2721C49.4257 47.4783 49.5945 47.6471 49.8007 47.6471C50.007 47.6471 50.1758 47.4783 50.1758 47.2721L50.1756 36.0485C50.1756 35.8385 50.0068 35.6735 49.8007 35.6735V35.6735Z" fill="#F2944D" stroke="#F2944D" stroke-width="0.5"/>
<path d="M21.0612 46.1358C20.9713 46.1883 18.89 47.4295 19.13 50.7709C19.145 50.9696 19.3099 51.1196 19.505 51.1196H19.5312C19.7375 51.1046 19.8912 50.9246 19.8762 50.7184C19.6699 47.8685 21.3575 46.8297 21.4362 46.7847C21.6161 46.6797 21.6761 46.451 21.5711 46.2747C21.4699 46.0947 21.2374 46.0347 21.0612 46.136V46.1358Z" fill="#F2944D" stroke="#F2944D" stroke-width="0.5"/>
<path d="M20.3146 51.922C20.247 51.727 20.0334 51.622 19.8383 51.6896C19.6433 51.7571 19.5383 51.9707 19.6058 52.1659C19.6809 52.3834 19.8271 52.6983 20.1121 52.9646C20.1834 53.0322 20.2771 53.0659 20.3671 53.0659C20.4683 53.0659 20.5658 53.0246 20.6409 52.9458C20.7834 52.7958 20.7759 52.5558 20.6259 52.4171C20.4535 52.2557 20.3596 52.0569 20.3146 51.922H20.3146Z" fill="#F2944D" stroke="#F2944D" stroke-width="0.5"/>
<path d="M44.2695 34.8449C43.8532 34.7848 43.4407 34.8898 43.1033 35.1411L31.1708 44.2646C30.0045 43.4508 28.587 42.9259 26.8435 42.6672C24.121 42.2622 21.7437 42.8509 19.58 44.4709C17.4914 46.0421 16.2501 48.6935 16.3476 51.3931C16.4375 53.9731 17.735 56.5269 19.8087 58.2328C21.2149 59.3803 22.7975 59.9991 24.3161 59.9991C24.4585 59.9991 24.6048 59.9953 24.7472 59.984C26.8022 59.8152 28.5009 58.5516 30.1997 57.1603C31.3958 56.1779 32.8883 54.9516 33.7284 53.3203C34.7934 51.2353 34.6733 48.6103 33.4284 46.6343C33.4058 46.6006 33.3797 46.578 33.3497 46.5518L44.9857 37.6569C45.3194 37.4057 45.5407 37.0381 45.6008 36.6258C45.6608 36.2095 45.5558 35.797 45.3045 35.4633C45.0534 35.1256 44.6859 34.9045 44.2698 34.8445L44.2695 34.8449ZM32.791 47.0319C33.901 48.7906 34.006 51.1231 33.0611 52.9755C32.3523 54.3592 31.1823 55.3829 29.7273 56.5754C28.1224 57.8879 26.5287 59.0803 24.6911 59.2303C23.2399 59.3466 21.6762 58.7841 20.2889 57.6478C18.3764 56.0765 17.184 53.7291 17.1014 51.3629C17.0152 48.9029 18.1401 46.4916 20.0339 45.0667C22.0288 43.5742 24.2188 43.0305 26.7388 43.4054C28.265 43.6341 29.5175 44.073 30.5524 44.7403L28.1299 46.5928L28.1262 46.5965C27.6161 46.979 27.2149 47.4515 26.9974 47.9314C26.7461 48.4864 26.7612 48.9965 27.0348 49.3638C27.2635 49.6676 27.631 49.8288 28.0961 49.8288C28.1936 49.8288 28.2948 49.8213 28.3998 49.8063C28.9249 49.735 29.4947 49.4837 30.0048 49.1013L30.0085 49.0975L32.7798 46.9788C32.7798 47.0018 32.7835 47.0169 32.791 47.0318L32.791 47.0319ZM30.4473 47.4595C30.2823 47.8233 29.9562 48.2057 29.5512 48.5057C29.1462 48.8094 28.6849 49.0157 28.2912 49.0682C27.9761 49.1094 27.7362 49.0569 27.6311 48.9182C27.5261 48.7795 27.5449 48.532 27.6761 48.2432C27.8412 47.8794 28.1673 47.497 28.5723 47.197C29.101 46.8033 29.6486 46.6158 30.0348 46.6158C30.2486 46.6158 30.4099 46.6721 30.4923 46.7846C30.5936 46.9233 30.5785 47.1708 30.4473 47.4595V47.4595ZM44.8546 36.5136C44.8246 36.7311 44.7083 36.9224 44.532 37.0536L31.3023 47.167C31.336 46.8482 31.2648 46.5633 31.0923 46.3346C30.9048 46.0833 30.6159 45.9409 30.2748 45.8959L43.5572 35.741C43.7334 35.6098 43.9509 35.5573 44.1647 35.5872C44.3823 35.6171 44.5735 35.7334 44.7047 35.906C44.8321 36.082 44.8884 36.2996 44.8547 36.5134L44.8546 36.5136Z" fill="#F2944D" stroke="#F2944D" stroke-width="0.5"/>
</svg>
