<svg width="72" height="72" viewBox="0 0 72 72" fill="none" xmlns="http://www.w3.org/2000/svg">
<circle cx="36" cy="36" r="36" fill="white"/>
<mask id="path-2-outside-1_215_6" maskUnits="userSpaceOnUse" x="14.5715" y="23.6909" width="43" height="30" fill="black">
<rect fill="white" x="14.5715" y="23.6909" width="43" height="30"/>
<path d="M56.4274 32.9701C56.4274 32.7964 56.2868 32.6558 56.1131 32.6558C55.9394 32.6558 55.7988 32.7964 55.7988 32.9701V38.8772C55.448 38.5043 54.9755 38.2489 54.4447 38.1739V34.95C54.4447 34.357 53.9625 33.8746 53.3695 33.8746C52.7968 33.8746 52.3272 34.3245 52.2959 34.8892H38.0696V34.3107C38.0696 34.137 37.929 33.9964 37.7553 33.9964H33.2565C33.0828 33.9964 32.9422 34.137 32.9422 34.3107V34.6719H30.5046C29.4924 34.6719 28.5413 35.0657 27.8265 35.7805C27.241 36.366 26.8725 37.1117 26.7581 37.9148C26.7513 37.9109 26.744 37.9083 26.7372 37.9044L24.9337 36.858C26.2387 36.6477 27.2396 35.5186 27.2396 34.1572C27.2396 32.6469 26.0089 31.4183 24.4961 31.4183C22.9857 31.4183 21.7568 32.6469 21.7568 34.1572C21.7568 34.4955 21.8214 34.8182 21.934 35.1174L19.9346 33.9574C18.8337 33.3181 17.4179 33.6944 16.7783 34.7959C16.1408 35.8953 16.5153 37.3102 17.6131 37.9502L24.7917 42.1329H16.2V25.0052C16.2 24.8315 16.0595 24.6909 15.8858 24.6909C15.712 24.6909 15.5715 24.8315 15.5715 25.0052V51.9242C15.5715 52.0979 15.712 52.2385 15.8858 52.2385C16.0595 52.2385 16.2 52.0979 16.2 51.9242V48.7098H55.7988V51.9242C55.7988 52.0979 55.9394 52.2385 56.1131 52.2385C56.2868 52.2385 56.4274 52.0979 56.4274 51.9242V48.3956L56.4286 42.4471C56.4286 42.445 56.4274 42.4432 56.4274 42.441V32.9701ZM38.0696 35.5178H52.6084C52.7821 35.5178 52.9227 35.3772 52.9227 35.2035V34.95C52.9227 34.7036 53.1231 34.5031 53.3695 34.5031C53.6157 34.5031 53.8161 34.7036 53.8161 34.95V38.1484H39.5823C39.7257 37.9266 39.804 37.6672 39.804 37.394C39.804 36.6313 39.1837 36.011 38.421 36.011H38.0696V35.5178V35.5178ZM33.5708 34.9999C33.571 34.9951 33.5735 34.9911 33.5735 34.9862C33.5735 34.9813 33.571 34.9773 33.5708 34.9725V34.625H37.441V36.011H33.5708V34.9999ZM28.2709 36.225C28.8669 35.6289 29.6603 35.3005 30.5046 35.3005H32.9422V36.011H32.0291C31.8554 36.011 31.7148 36.1516 31.7148 36.3253C31.7148 36.499 31.8554 36.6396 32.0291 36.6396H33.2489C33.2516 36.6397 33.2538 36.6411 33.2565 36.6411H37.7553C37.758 36.6411 37.7602 36.6397 37.7629 36.6396H38.421C38.8369 36.6396 39.1754 36.9781 39.1754 37.394C39.1754 37.5987 39.0978 37.789 38.9597 37.9274C38.8142 38.0699 38.623 38.1484 38.421 38.1484H27.6432C27.5495 38.1484 27.4566 38.1388 27.3644 38.1243C27.438 37.4097 27.7533 36.7426 28.2709 36.225ZM24.4961 32.0469C25.6624 32.0469 26.6111 32.9937 26.6111 34.1572C26.6111 35.3208 25.6624 36.2676 24.4961 36.2676C23.3322 36.2676 22.3854 35.3208 22.3854 34.1572C22.3854 32.9937 23.3322 32.0469 24.4961 32.0469ZM55.7988 48.0813H16.2L16.2013 42.7614H26.5282H54.1209H55.7988V48.0813V48.0813ZM55.7988 42.1329H55.6986C55.7331 42.1005 55.7664 42.0671 55.7988 42.0326V42.1329ZM54.1209 42.1329H26.5282C26.2093 42.1329 25.895 42.0478 25.6191 41.8873H25.6194L17.9298 37.4069C17.1306 36.9413 16.8581 35.9113 17.3221 35.1115C17.7874 34.3095 18.8187 34.0363 19.6191 34.5013L26.4217 38.4483C26.7917 38.663 27.213 38.7763 27.6405 38.7768C27.6408 38.7768 27.6411 38.777 27.6414 38.777H27.6432H38.421H54.1209C54.1212 38.777 54.1214 38.7771 54.1217 38.7771C54.1247 38.7771 54.1273 38.7788 54.1304 38.7788C54.1314 38.7788 54.1322 38.7782 54.1333 38.7782C55.0528 38.7851 55.7988 39.5339 55.7988 40.4549C55.7988 41.3803 55.0463 42.1329 54.1209 42.1329Z"/>
</mask>
<path d="M56.4274 32.9701C56.4274 32.7964 56.2868 32.6558 56.1131 32.6558C55.9394 32.6558 55.7988 32.7964 55.7988 32.9701V38.8772C55.448 38.5043 54.9755 38.2489 54.4447 38.1739V34.95C54.4447 34.357 53.9625 33.8746 53.3695 33.8746C52.7968 33.8746 52.3272 34.3245 52.2959 34.8892H38.0696V34.3107C38.0696 34.137 37.929 33.9964 37.7553 33.9964H33.2565C33.0828 33.9964 32.9422 34.137 32.9422 34.3107V34.6719H30.5046C29.4924 34.6719 28.5413 35.0657 27.8265 35.7805C27.241 36.366 26.8725 37.1117 26.7581 37.9148C26.7513 37.9109 26.744 37.9083 26.7372 37.9044L24.9337 36.858C26.2387 36.6477 27.2396 35.5186 27.2396 34.1572C27.2396 32.6469 26.0089 31.4183 24.4961 31.4183C22.9857 31.4183 21.7568 32.6469 21.7568 34.1572C21.7568 34.4955 21.8214 34.8182 21.934 35.1174L19.9346 33.9574C18.8337 33.3181 17.4179 33.6944 16.7783 34.7959C16.1408 35.8953 16.5153 37.3102 17.6131 37.9502L24.7917 42.1329H16.2V25.0052C16.2 24.8315 16.0595 24.6909 15.8858 24.6909C15.712 24.6909 15.5715 24.8315 15.5715 25.0052V51.9242C15.5715 52.0979 15.712 52.2385 15.8858 52.2385C16.0595 52.2385 16.2 52.0979 16.2 51.9242V48.7098H55.7988V51.9242C55.7988 52.0979 55.9394 52.2385 56.1131 52.2385C56.2868 52.2385 56.4274 52.0979 56.4274 51.9242V48.3956L56.4286 42.4471C56.4286 42.445 56.4274 42.4432 56.4274 42.441V32.9701ZM38.0696 35.5178H52.6084C52.7821 35.5178 52.9227 35.3772 52.9227 35.2035V34.95C52.9227 34.7036 53.1231 34.5031 53.3695 34.5031C53.6157 34.5031 53.8161 34.7036 53.8161 34.95V38.1484H39.5823C39.7257 37.9266 39.804 37.6672 39.804 37.394C39.804 36.6313 39.1837 36.011 38.421 36.011H38.0696V35.5178V35.5178ZM33.5708 34.9999C33.571 34.9951 33.5735 34.9911 33.5735 34.9862C33.5735 34.9813 33.571 34.9773 33.5708 34.9725V34.625H37.441V36.011H33.5708V34.9999ZM28.2709 36.225C28.8669 35.6289 29.6603 35.3005 30.5046 35.3005H32.9422V36.011H32.0291C31.8554 36.011 31.7148 36.1516 31.7148 36.3253C31.7148 36.499 31.8554 36.6396 32.0291 36.6396H33.2489C33.2516 36.6397 33.2538 36.6411 33.2565 36.6411H37.7553C37.758 36.6411 37.7602 36.6397 37.7629 36.6396H38.421C38.8369 36.6396 39.1754 36.9781 39.1754 37.394C39.1754 37.5987 39.0978 37.789 38.9597 37.9274C38.8142 38.0699 38.623 38.1484 38.421 38.1484H27.6432C27.5495 38.1484 27.4566 38.1388 27.3644 38.1243C27.438 37.4097 27.7533 36.7426 28.2709 36.225ZM24.4961 32.0469C25.6624 32.0469 26.6111 32.9937 26.6111 34.1572C26.6111 35.3208 25.6624 36.2676 24.4961 36.2676C23.3322 36.2676 22.3854 35.3208 22.3854 34.1572C22.3854 32.9937 23.3322 32.0469 24.4961 32.0469ZM55.7988 48.0813H16.2L16.2013 42.7614H26.5282H54.1209H55.7988V48.0813V48.0813ZM55.7988 42.1329H55.6986C55.7331 42.1005 55.7664 42.0671 55.7988 42.0326V42.1329ZM54.1209 42.1329H26.5282C26.2093 42.1329 25.895 42.0478 25.6191 41.8873H25.6194L17.9298 37.4069C17.1306 36.9413 16.8581 35.9113 17.3221 35.1115C17.7874 34.3095 18.8187 34.0363 19.6191 34.5013L26.4217 38.4483C26.7917 38.663 27.213 38.7763 27.6405 38.7768C27.6408 38.7768 27.6411 38.777 27.6414 38.777H27.6432H38.421H54.1209C54.1212 38.777 54.1214 38.7771 54.1217 38.7771C54.1247 38.7771 54.1273 38.7788 54.1304 38.7788C54.1314 38.7788 54.1322 38.7782 54.1333 38.7782C55.0528 38.7851 55.7988 39.5339 55.7988 40.4549C55.7988 41.3803 55.0463 42.1329 54.1209 42.1329Z" fill="#F2944D"/>
<path d="M56.4274 32.9701C56.4274 32.7964 56.2868 32.6558 56.1131 32.6558C55.9394 32.6558 55.7988 32.7964 55.7988 32.9701V38.8772C55.448 38.5043 54.9755 38.2489 54.4447 38.1739V34.95C54.4447 34.357 53.9625 33.8746 53.3695 33.8746C52.7968 33.8746 52.3272 34.3245 52.2959 34.8892H38.0696V34.3107C38.0696 34.137 37.929 33.9964 37.7553 33.9964H33.2565C33.0828 33.9964 32.9422 34.137 32.9422 34.3107V34.6719H30.5046C29.4924 34.6719 28.5413 35.0657 27.8265 35.7805C27.241 36.366 26.8725 37.1117 26.7581 37.9148C26.7513 37.9109 26.744 37.9083 26.7372 37.9044L24.9337 36.858C26.2387 36.6477 27.2396 35.5186 27.2396 34.1572C27.2396 32.6469 26.0089 31.4183 24.4961 31.4183C22.9857 31.4183 21.7568 32.6469 21.7568 34.1572C21.7568 34.4955 21.8214 34.8182 21.934 35.1174L19.9346 33.9574C18.8337 33.3181 17.4179 33.6944 16.7783 34.7959C16.1408 35.8953 16.5153 37.3102 17.6131 37.9502L24.7917 42.1329H16.2V25.0052C16.2 24.8315 16.0595 24.6909 15.8858 24.6909C15.712 24.6909 15.5715 24.8315 15.5715 25.0052V51.9242C15.5715 52.0979 15.712 52.2385 15.8858 52.2385C16.0595 52.2385 16.2 52.0979 16.2 51.9242V48.7098H55.7988V51.9242C55.7988 52.0979 55.9394 52.2385 56.1131 52.2385C56.2868 52.2385 56.4274 52.0979 56.4274 51.9242V48.3956L56.4286 42.4471C56.4286 42.445 56.4274 42.4432 56.4274 42.441V32.9701ZM38.0696 35.5178H52.6084C52.7821 35.5178 52.9227 35.3772 52.9227 35.2035V34.95C52.9227 34.7036 53.1231 34.5031 53.3695 34.5031C53.6157 34.5031 53.8161 34.7036 53.8161 34.95V38.1484H39.5823C39.7257 37.9266 39.804 37.6672 39.804 37.394C39.804 36.6313 39.1837 36.011 38.421 36.011H38.0696V35.5178V35.5178ZM33.5708 34.9999C33.571 34.9951 33.5735 34.9911 33.5735 34.9862C33.5735 34.9813 33.571 34.9773 33.5708 34.9725V34.625H37.441V36.011H33.5708V34.9999ZM28.2709 36.225C28.8669 35.6289 29.6603 35.3005 30.5046 35.3005H32.9422V36.011H32.0291C31.8554 36.011 31.7148 36.1516 31.7148 36.3253C31.7148 36.499 31.8554 36.6396 32.0291 36.6396H33.2489C33.2516 36.6397 33.2538 36.6411 33.2565 36.6411H37.7553C37.758 36.6411 37.7602 36.6397 37.7629 36.6396H38.421C38.8369 36.6396 39.1754 36.9781 39.1754 37.394C39.1754 37.5987 39.0978 37.789 38.9597 37.9274C38.8142 38.0699 38.623 38.1484 38.421 38.1484H27.6432C27.5495 38.1484 27.4566 38.1388 27.3644 38.1243C27.438 37.4097 27.7533 36.7426 28.2709 36.225ZM24.4961 32.0469C25.6624 32.0469 26.6111 32.9937 26.6111 34.1572C26.6111 35.3208 25.6624 36.2676 24.4961 36.2676C23.3322 36.2676 22.3854 35.3208 22.3854 34.1572C22.3854 32.9937 23.3322 32.0469 24.4961 32.0469ZM55.7988 48.0813H16.2L16.2013 42.7614H26.5282H54.1209H55.7988V48.0813V48.0813ZM55.7988 42.1329H55.6986C55.7331 42.1005 55.7664 42.0671 55.7988 42.0326V42.1329ZM54.1209 42.1329H26.5282C26.2093 42.1329 25.895 42.0478 25.6191 41.8873H25.6194L17.9298 37.4069C17.1306 36.9413 16.8581 35.9113 17.3221 35.1115C17.7874 34.3095 18.8187 34.0363 19.6191 34.5013L26.4217 38.4483C26.7917 38.663 27.213 38.7763 27.6405 38.7768C27.6408 38.7768 27.6411 38.777 27.6414 38.777H27.6432H38.421H54.1209C54.1212 38.777 54.1214 38.7771 54.1217 38.7771C54.1247 38.7771 54.1273 38.7788 54.1304 38.7788C54.1314 38.7788 54.1322 38.7782 54.1333 38.7782C55.0528 38.7851 55.7988 39.5339 55.7988 40.4549C55.7988 41.3803 55.0463 42.1329 54.1209 42.1329Z" stroke="#F2944D" mask="url(#path-2-outside-1_215_6)"/>
<path d="M42.8621 25.989H40.054V24.0125H42.8621C43.1739 24.0125 43.4264 23.76 43.4264 23.4482V20.64H45.3999V23.4482C45.3999 23.76 45.6524 24.0125 45.9641 24.0125H48.772V25.989H45.9641C45.6524 25.989 45.3999 26.2415 45.3999 26.5533V29.3611H43.4264V26.5533C43.4264 26.2415 43.1739 25.989 42.8621 25.989ZM42.8621 30.4897H45.9641C46.2759 30.4897 46.5284 30.2372 46.5284 29.9254V27.1176H49.3363C49.6481 27.1176 49.9006 26.8651 49.9006 26.5533V23.4482C49.9006 23.1364 49.6481 22.8839 49.3363 22.8839H46.5284V20.0758C46.5284 19.764 46.2759 19.5115 45.9641 19.5115H42.8621C42.5503 19.5115 42.2978 19.764 42.2978 20.0758V22.8839H39.4897C39.1779 22.8839 38.9254 23.1364 38.9254 23.4482V26.5533C38.9254 26.8651 39.1779 27.1176 39.4897 27.1176H42.2978V29.9254C42.2978 30.2372 42.5503 30.4897 42.8621 30.4897Z" fill="#F2944D" stroke="#F2944D" stroke-width="0.5"/>
</svg>
