<svg width="72" height="72" viewBox="0 0 72 72" fill="none" xmlns="http://www.w3.org/2000/svg">
<g clip-path="url(#clip0_458_16)">
<path d="M36 72C55.8823 72 72 55.8823 72 36C72 16.1177 55.8823 0 36 0C16.1177 0 0 16.1177 0 36C0 55.8823 16.1177 72 36 72Z" fill="white"/>
<path d="M34.2631 35.8734C34.2631 35.0868 34.0299 34.3178 33.5928 33.6637C33.1558 33.0097 32.5347 32.4999 31.8079 32.1989C31.0812 31.8978 30.2815 31.8191 29.5099 31.9725C28.7384 32.126 28.0297 32.5048 27.4735 33.061C26.9173 33.6173 26.5385 34.3259 26.385 35.0975C26.2316 35.869 26.3103 36.6687 26.6113 37.3954C26.9124 38.1222 27.4222 38.7433 28.0762 39.1804C28.7303 39.6174 29.4992 39.8507 30.2859 39.8507C31.3403 39.8494 32.3512 39.43 33.0968 38.6844C33.8424 37.9387 34.2619 36.9278 34.2631 35.8734V35.8734ZM30.2859 38.2598C29.8139 38.2598 29.3525 38.1198 28.9601 37.8576C28.5676 37.5954 28.2618 37.2227 28.0812 36.7866C27.9005 36.3506 27.8533 35.8707 27.9454 35.4078C28.0374 34.9449 28.2647 34.5197 28.5985 34.186C28.9322 33.8522 29.3574 33.625 29.8203 33.5329C30.2832 33.4408 30.763 33.4881 31.1991 33.6687C31.6351 33.8493 32.0078 34.1552 32.2701 34.5476C32.5323 34.94 32.6722 35.4014 32.6722 35.8734C32.6722 36.5063 32.4208 37.1133 31.9733 37.5608C31.5258 38.0083 30.9188 38.2598 30.2859 38.2598V38.2598Z" fill="#F2944D"/>
<path d="M58.3596 14.6292L47.7006 25.2883C47.3036 24.8448 46.8824 24.4236 46.439 24.0267L57.0981 13.3676C57.174 13.2942 57.2346 13.2065 57.2763 13.1094C57.318 13.0124 57.3399 12.908 57.3409 12.8024C57.3418 12.6967 57.3217 12.592 57.2817 12.4942C57.2417 12.3965 57.1826 12.3077 57.1079 12.233C57.0332 12.1583 56.9444 12.0992 56.8467 12.0592C56.7489 12.0192 56.6441 11.9991 56.5385 12C56.4329 12.0009 56.3285 12.0229 56.2315 12.0646C56.1344 12.1063 56.0467 12.1669 55.9733 12.2428L45.1933 23.0228C42.2493 20.8714 38.6546 19.7986 35.0129 19.9848C31.3713 20.1709 27.9047 21.6047 25.1955 24.0452C22.4863 26.4857 20.6995 29.7842 20.1353 33.3867C19.5711 36.9891 20.2639 40.676 22.0973 43.828H19.1493C18.9384 43.828 18.7361 43.9118 18.5869 44.061L12.2233 50.4247C12.0784 50.5747 11.9982 50.7756 12 50.9842C12.0018 51.1928 12.0855 51.3923 12.233 51.5397C12.3805 51.6872 12.58 51.7709 12.7885 51.7727C12.9971 51.7745 13.198 51.6943 13.3481 51.5494L19.4786 45.4189H22.7973L23.3748 45.9964L19.5892 47.8888C19.5127 47.9271 19.4428 47.9776 19.3824 48.0383L14.6097 52.811C14.5337 52.8844 14.4731 52.9722 14.4314 53.0692C14.3897 53.1663 14.3678 53.2707 14.3668 53.3763C14.3659 53.4819 14.3861 53.5866 14.426 53.6844C14.466 53.7822 14.5251 53.871 14.5998 53.9457C14.6745 54.0203 14.7633 54.0794 14.8611 54.1194C14.9588 54.1594 15.0636 54.1795 15.1692 54.1786C15.2748 54.1777 15.3792 54.1557 15.4762 54.1141C15.5733 54.0724 15.6611 54.0118 15.7344 53.9358L20.4157 49.2545L24.5298 47.1975L22.4727 51.3108L17.7915 55.9928C17.7155 56.0662 17.6549 56.154 17.6132 56.251C17.5715 56.3481 17.5496 56.4525 17.5487 56.5581C17.5477 56.6637 17.5679 56.7685 17.6079 56.8662C17.6479 56.964 17.7069 57.0528 17.7816 57.1275C17.8563 57.2022 17.9451 57.2612 18.0429 57.3012C18.1406 57.3412 18.2454 57.3613 18.351 57.3604C18.4566 57.3595 18.561 57.3376 18.658 57.2959C18.7551 57.2542 18.8429 57.1936 18.9162 57.1176L23.689 52.3449C23.7493 52.2842 23.7998 52.2144 23.8385 52.1381L25.7309 48.3525L26.3084 48.93V52.2486L20.1778 58.3792C20.1019 58.4526 20.0413 58.5404 19.9996 58.6374C19.9579 58.7345 19.9359 58.8388 19.935 58.9445C19.9341 59.0501 19.9542 59.1548 19.9942 59.2526C20.0342 59.3503 20.0933 59.4392 20.168 59.5138C20.2427 59.5885 20.3315 59.6476 20.4292 59.6876C20.527 59.7276 20.6317 59.7477 20.7374 59.7468C20.843 59.7459 20.9474 59.7239 21.0444 59.6822C21.1415 59.6406 21.2292 59.58 21.3026 59.504L27.6662 53.1403C27.8154 52.9912 27.8993 52.7889 27.8993 52.578V49.63C31.0512 51.4634 34.7381 52.1562 38.3406 51.592C41.943 51.0278 45.2416 49.241 47.6821 46.5318C50.1226 43.8225 51.5563 40.3559 51.7425 36.7143C51.9287 33.0727 50.8559 29.478 48.7044 26.534L59.4844 15.754C59.5604 15.6806 59.621 15.5928 59.6627 15.4958C59.7044 15.3987 59.7263 15.2944 59.7272 15.1887C59.7281 15.0831 59.708 14.9784 59.668 14.8806C59.628 14.7828 59.569 14.694 59.4943 14.6193C59.4196 14.5447 59.3308 14.4856 59.233 14.4456C59.1353 14.4056 59.0305 14.3855 58.9249 14.3864C58.8193 14.3873 58.7149 14.4093 58.6178 14.4509C58.5208 14.4926 58.433 14.5532 58.3596 14.6292V14.6292ZM46.5742 26.4147L42.2787 30.7101C41.7464 30.4189 41.3088 29.9811 41.0179 29.4485L45.3134 25.1531C45.7591 25.5474 46.1802 25.9687 46.5742 26.4147V26.4147ZM42.686 32.5603C42.8387 32.5961 42.9891 32.624 43.141 32.6447C44.0307 32.787 44.8353 33.2564 45.3971 33.9609C45.9588 34.6654 46.2373 35.5542 46.1781 36.4533C46.1514 36.9297 46.0927 37.4038 46.0023 37.8724C45.6395 39.7109 44.7839 41.4163 43.527 42.8062C42.27 44.1962 40.659 45.2185 38.8662 45.7638C37.0733 46.3091 35.1659 46.357 33.3479 45.9023C31.5299 45.4476 29.8697 44.5074 28.5446 43.1823C27.2196 41.8571 26.2795 40.1968 25.8249 38.3788C25.3704 36.5608 25.4184 34.6534 25.9638 32.8606C26.5092 31.0677 27.5316 29.4568 28.9216 28.2C30.3117 26.9432 32.0171 26.0877 33.8557 25.725C34.324 25.6349 34.7978 25.5762 35.274 25.5492C35.344 25.5452 35.4132 25.5436 35.4832 25.5436C36.3479 25.5354 37.1869 25.8379 37.8474 26.3962C38.5079 26.9545 38.9459 27.7314 39.0818 28.5855C39.1025 28.7366 39.1311 28.8901 39.1669 29.0405V29.0468L37.6754 30.5383C37.5271 30.6878 37.4442 30.8901 37.4448 31.1007V35.8734C37.4447 36.0307 37.4913 36.1845 37.5787 36.3153C37.666 36.4462 37.7902 36.5482 37.9356 36.6084C38.0321 36.6487 38.1357 36.6692 38.2402 36.6689C38.4512 36.6688 38.6535 36.585 38.8026 36.4358L42.6804 32.5588L42.686 32.5603ZM41.1261 31.8627L39.0357 33.9532V31.43L39.8645 30.6011C40.2022 31.0971 40.6302 31.5251 41.1261 31.8627V31.8627ZM50.172 35.8734C50.1804 39.0892 49.1087 42.2147 47.1288 44.7488C45.149 47.2829 42.3756 49.0789 39.2532 49.8488C36.1309 50.6186 32.8405 50.3178 29.9096 48.9946C26.9786 47.6714 24.5768 45.4023 23.0892 42.5512C21.6016 39.7002 21.1144 36.4322 21.7057 33.2712C22.297 30.1101 23.9325 27.2392 26.35 25.1186C28.7676 22.998 31.8272 21.7505 35.0383 21.5762C38.2494 21.4018 41.426 22.3107 44.059 24.1572L40.5128 27.7033C40.1795 26.5685 39.4706 25.5806 38.5023 24.9013C37.534 24.2221 36.3638 23.8918 35.1833 23.9647C34.6358 23.9952 34.091 24.0627 33.5526 24.1667C30.6446 24.7397 28.0539 26.3746 26.2851 28.7529C24.5163 31.1312 23.6961 34.0828 23.984 37.0327C24.272 39.9826 25.6476 42.7198 27.843 44.7111C30.0383 46.7025 32.8963 47.8054 35.8602 47.8052C36.3368 47.8063 36.813 47.7798 37.2865 47.7257C39.7854 47.4165 42.1234 46.3278 43.9684 44.6143C45.8134 42.9008 47.0717 40.6495 47.5645 38.1802C47.668 37.6415 47.7357 37.0964 47.7674 36.5488C47.8369 35.3682 47.5047 34.1989 46.825 33.2312C46.1453 32.2635 45.1581 31.5543 44.024 31.2192L47.5701 27.6731C49.2627 30.0726 50.1716 32.937 50.172 35.8734V35.8734Z" fill="#F2944D"/>
<path d="M34.6608 40.1155C33.1001 40.1155 31.8767 41.0478 31.8767 42.237C31.8767 43.4262 33.1001 44.3585 34.6608 44.3585C35.1708 44.3898 35.6799 44.2832 36.1345 44.0499C36.5891 43.8165 36.9725 43.4651 37.2444 43.0324H39.8313C40.4642 43.0324 41.0711 42.781 41.5187 42.3335C41.9662 41.8859 42.2176 41.279 42.2176 40.6461C42.2176 40.4351 42.3014 40.2328 42.4506 40.0836C42.5998 39.9344 42.8021 39.8506 43.0131 39.8506C43.646 39.8506 44.253 39.5992 44.7005 39.1517C45.148 38.7041 45.3994 38.0971 45.3994 37.4642V35.8733C45.3994 35.6624 45.3156 35.46 45.1665 35.3109C45.0173 35.1617 44.8149 35.0779 44.604 35.0779C44.393 35.0779 44.1907 35.1617 44.0415 35.3109C43.8923 35.46 43.8085 35.6624 43.8085 35.8733V37.4642C43.8085 37.6752 43.7247 37.8775 43.5755 38.0267C43.4264 38.1759 43.224 38.2597 43.0131 38.2597C42.3802 38.2597 41.7732 38.5111 41.3257 38.9587C40.8781 39.4062 40.6267 40.0132 40.6267 40.6461C40.6267 40.857 40.5429 41.0594 40.3937 41.2085C40.2445 41.3577 40.0422 41.4415 39.8313 41.4415H37.2444C36.9725 41.0089 36.5891 40.6574 36.1345 40.4241C35.6799 40.1907 35.1708 40.0842 34.6608 40.1155V40.1155ZM34.6608 42.7675C33.9322 42.7675 33.4676 42.4191 33.4676 42.237C33.4676 42.0548 33.9322 41.7064 34.6608 41.7064C35.3894 41.7064 35.854 42.0548 35.854 42.237C35.854 42.4191 35.3894 42.7675 34.6608 42.7675Z" fill="#F2944D"/>
</g>
<defs>
<clipPath id="clip0_458_16">
<rect width="72" height="72" fill="white"/>
</clipPath>
</defs>
</svg>
