<svg width="72" height="72" viewBox="0 0 72 72" fill="none" xmlns="http://www.w3.org/2000/svg">
<circle cx="36" cy="36" r="36" fill="white"/>
<path d="M35.9997 10.0001C22.2142 10.0001 11 21.0888 11 34.7188C11 45.7052 18.2871 55.0348 28.3306 58.2446C27.5549 62.6116 31.1353 64.5705 31.1776 64.5925C31.2468 64.628 31.3204 64.6452 31.3941 64.6452C31.559 64.6452 31.7183 64.5568 31.8002 64.4029C31.92 64.1807 31.8342 63.9048 31.6096 63.7873C31.4649 63.7107 28.6198 62.1489 29.2157 58.5057C31.3748 59.1086 33.648 59.4383 35.9989 59.4383C37.8724 59.4383 39.6972 59.227 41.4537 58.8382C42.1455 59.6624 42.8179 60.5449 42.923 61.9166C43.1071 64.2956 40.3558 66.546 40.3292 66.5679C40.132 66.7272 40.1025 67.0132 40.2629 67.2082C40.3551 67.3193 40.4867 67.3766 40.6212 67.3766C40.7225 67.3766 40.8258 67.343 40.9104 67.2747C41.0394 67.1718 44.0633 64.7037 43.8432 61.8477C43.7318 60.4023 43.1054 59.426 42.445 58.6008C53.1162 55.7829 61 46.1451 61 34.7183C60.9998 21.0887 49.7843 10 35.9999 10L35.9997 10.0001ZM29.423 57.6183C29.5556 57.1664 29.7233 56.6965 29.9674 56.1892C30.1986 55.7082 30.3994 55.2585 30.5864 54.8241C32.3144 55.2794 34.1281 55.5254 35.9996 55.5254C37.2854 55.5254 38.5418 55.4042 39.7642 55.1857C39.7853 55.8003 39.907 56.4443 40.2007 57.09C40.3554 57.4324 40.57 57.7439 40.8077 58.0508C39.2538 58.3633 37.6465 58.528 36.0004 58.528C33.7191 58.528 31.5148 58.2066 29.4227 57.6183H29.423ZM28.1849 46.4186C28.1849 43.4367 29.5795 41.8766 30.9557 41.8766C31.6474 41.8766 32.2995 42.2518 32.7933 42.9339C33.2124 43.5122 33.7117 44.586 33.7117 46.4184C33.7117 47.9285 32.4775 49.1562 30.9576 49.1616H30.9373C29.4191 49.1554 28.1849 47.9287 28.1849 46.4186H28.1849ZM31.6714 50.0006C33.3579 49.6663 34.6328 48.1881 34.6328 46.4186C34.6328 44.7765 34.2561 43.3885 33.5413 42.404C32.8808 41.4896 31.9376 40.9659 30.9557 40.9659C29.1779 40.9659 27.2638 42.6726 27.2638 46.4187C27.2638 48.3613 28.803 49.9386 30.7327 50.0516C30.8368 50.252 31.0716 51.1017 30.0446 53.7247C21.8479 51.2093 15.8791 43.6411 15.8791 34.7194C15.8791 23.7492 24.9051 14.8246 35.9999 14.8246C47.0947 14.8246 56.1212 23.7492 56.1212 34.7194C56.1212 44.0619 49.574 51.9164 40.7791 54.0437C40.9828 52.9936 41.4524 52.1548 41.6477 51.8388C43.4098 51.5665 44.7657 50.0637 44.7657 48.2413C44.7657 46.5992 44.389 45.2112 43.6742 44.2267C43.0129 43.3113 42.0697 42.7876 41.0878 42.7876C39.3101 42.7876 37.396 44.4944 37.396 48.2404C37.396 50.0874 38.7897 51.6029 40.5857 51.8452C40.2965 52.399 39.9382 53.2533 39.8082 54.2524C38.574 54.4873 37.3019 54.6149 35.9995 54.6149C34.2512 54.6149 32.5545 54.3927 30.9364 53.9765C31.6393 52.1657 31.8788 50.8415 31.6716 50.0008L31.6714 50.0006ZM41.0804 50.9843C39.557 50.9843 38.317 49.7529 38.317 48.2402C38.317 45.2583 39.7117 43.6982 41.0878 43.6982C41.7796 43.6982 42.4316 44.0734 42.9254 44.7555C43.3446 45.3338 43.8438 46.4076 43.8438 48.24C43.8438 49.7529 42.6039 50.9843 41.0804 50.9843H41.0804ZM41.8007 57.8252C41.4894 57.4518 41.2085 57.0893 41.0399 56.7178C40.7782 56.1403 40.6825 55.5566 40.6844 54.9993C50.0383 52.8872 57.0415 44.5986 57.0415 34.7187C57.0415 23.247 47.602 13.9135 35.999 13.9135C24.3969 13.9135 14.9574 23.247 14.9574 34.7187C14.9574 44.0206 21.1627 51.9148 29.694 54.5704C29.5291 54.952 29.3485 55.3528 29.1349 55.7981C28.8706 56.3481 28.6901 56.8601 28.5435 57.3554C18.9072 54.2433 11.9219 45.275 11.9219 34.7195C11.9219 21.5919 22.7226 10.9111 36.0003 10.9111C49.278 10.9111 60.0797 21.5914 60.0797 34.719C60.0788 45.8694 52.2844 55.2501 41.8013 57.825L41.8007 57.8252Z" fill="#F2944D" stroke="#F2944D" stroke-width="0.5"/>
<path d="M20.7969 30.472C20.843 30.4865 20.8891 30.4919 20.9342 30.4919C21.1305 30.4919 21.3118 30.3672 21.3745 30.1722C21.5818 29.5174 21.8389 28.868 22.139 28.2432C22.2477 28.0164 22.1502 27.745 21.9197 27.6365C21.693 27.5317 21.4159 27.6247 21.3062 27.8533C20.9884 28.5164 20.7147 29.2039 20.4947 29.8998C20.4184 30.1404 20.5538 30.3963 20.7969 30.4719L20.7969 30.472Z" fill="#F2944D" stroke="#F2944D" stroke-width="0.5"/>
<path d="M36.46 19.1077C36.46 18.8563 36.2537 18.6523 35.9995 18.6523C30.8938 18.6523 26.1842 20.9584 23.0782 24.9792C22.9235 25.1796 22.9622 25.4646 23.1647 25.6176C23.2486 25.6804 23.3462 25.7114 23.4447 25.7114C23.5827 25.7114 23.7201 25.6503 23.8104 25.5328C26.7406 21.7386 31.183 19.5627 35.9995 19.5627C36.2538 19.5627 36.46 19.3587 36.46 19.1073L36.46 19.1077Z" fill="#F2944D" stroke="#F2944D" stroke-width="0.5"/>
<path d="M39.6788 27.9774C39.6788 25.5977 37.7205 23.6614 35.3137 23.6614C32.9077 23.6614 30.9496 25.5977 30.9496 27.9774C30.9496 30.3564 32.9079 32.2917 35.3137 32.2917C37.7205 32.2927 39.6788 30.3573 39.6788 27.9774ZM31.8695 27.9774C31.8695 26.0994 33.4141 24.5721 35.3125 24.5721C37.2109 24.5721 38.7565 26.1003 38.7565 27.9774C38.7565 29.8545 37.2109 31.3809 35.3125 31.3809C33.4142 31.3809 31.8695 29.8545 31.8695 27.9774Z" fill="#F2944D" stroke="#F2944D" stroke-width="0.5"/>
<path d="M48.4445 26.8461C48.4445 27.3506 48.031 27.7596 47.5207 27.7596C47.0104 27.7596 46.5969 27.3506 46.5969 26.8461C46.5969 26.3417 47.0104 25.9326 47.5207 25.9326C48.0311 25.9326 48.4445 26.3417 48.4445 26.8461Z" fill="#F2944D" stroke="#F2944D" stroke-width="0.5"/>
<path d="M22.1832 38.6918C22.1832 39.1963 21.7695 39.6052 21.2593 39.6052C20.7491 39.6052 20.3356 39.1963 20.3356 38.6918C20.3356 38.1873 20.7491 37.7783 21.2593 37.7783C21.7695 37.7783 22.1832 38.1874 22.1832 38.6918Z" fill="#F2944D" stroke="#F2944D" stroke-width="0.5"/>
<path d="M53.5542 35.2319C53.5542 35.7364 53.1407 36.1454 52.6304 36.1454C52.12 36.1454 51.7065 35.7363 51.7065 35.2319C51.7065 34.7274 52.12 34.3184 52.6304 34.3184C53.1406 34.3184 53.5542 34.7274 53.5542 35.2319Z" fill="#F2944D" stroke="#F2944D" stroke-width="0.5"/>
<path d="M43.3835 36.8647C43.3835 37.3692 42.9698 37.7782 42.4596 37.7782C41.9494 37.7782 41.5357 37.3692 41.5357 36.8647C41.5357 36.3602 41.9494 35.9512 42.4596 35.9512C42.9698 35.9512 43.3835 36.3602 43.3835 36.8647Z" fill="#F2944D" stroke="#F2944D" stroke-width="0.5"/>
<path d="M29.1061 35.9592C29.1061 36.4636 28.6924 36.8727 28.1822 36.8727C27.6721 36.8727 27.2584 36.4636 27.2584 35.9592C27.2584 35.4547 27.6721 35.0457 28.1822 35.0457C28.6924 35.0457 29.1061 35.4547 29.1061 35.9592Z" fill="#F2944D" stroke="#F2944D" stroke-width="0.5"/>
<path d="M44.295 20.9319C44.295 21.4364 43.8813 21.8454 43.3711 21.8454C42.8609 21.8454 42.4472 21.4364 42.4472 20.9319C42.4472 20.4274 42.8609 20.0184 43.3711 20.0184C43.8813 20.0184 44.295 20.4275 44.295 20.9319Z" fill="#F2944D" stroke="#F2944D" stroke-width="0.5"/>
<path d="M28.1758 28.218C28.1758 28.7227 27.7621 29.1315 27.252 29.1315C26.7418 29.1315 26.3281 28.7227 26.3281 28.218C26.3281 27.7136 26.7418 27.3047 27.252 27.3047C27.7621 27.3047 28.1758 27.7135 28.1758 28.218Z" fill="#F2944D" stroke="#F2944D" stroke-width="0.5"/>
</svg>
