<svg width="72" height="72" viewBox="0 0 72 72" fill="none" xmlns="http://www.w3.org/2000/svg">
<circle cx="36" cy="36" r="36" fill="white"/>
<path d="M30.0498 23.245C30.3591 23.121 30.6176 22.8964 30.7832 22.6072C30.9385 22.3402 31.0402 22.0457 31.083 21.7399V21.4592C31.0861 21.4444 31.0861 21.4293 31.083 21.4146V21.453C31.0552 21.704 30.9886 21.9493 30.8854 22.18C30.7618 22.4978 30.5378 22.7665 30.2476 22.9452C30.0898 23.0239 29.9281 23.0943 29.7629 23.1557C29.4805 23.2715 29.2179 23.4308 28.9847 23.6276C28.796 23.7702 28.6611 23.9724 28.6021 24.2016C28.5575 24.3924 28.5575 24.5911 28.6021 24.7821C28.6403 24.948 28.685 25.1136 28.7234 25.2795H28.7232C28.7996 25.5463 28.6538 25.8263 28.3916 25.9173L28.1429 26.013V26.0128C27.882 26.1051 27.6582 26.2797 27.5052 26.5104C27.3908 26.6837 27.2293 26.821 27.0395 26.9057C26.9311 26.9567 26.8099 26.9885 26.6951 27.0269H26.6953C26.4902 27.106 26.3127 27.2434 26.185 27.4224C25.9635 27.7163 25.8109 28.0562 25.7387 28.4172C25.6945 28.6275 25.6945 28.8447 25.7387 29.055V29.0996C25.7744 29.3091 25.9672 29.4546 26.1786 29.4312C26.3015 29.4222 26.4211 29.3876 26.5294 29.3292C26.9758 29.0994 27.3391 28.7359 27.5689 28.2897C27.6914 28.0684 27.7342 27.8116 27.6902 27.5625C27.6744 27.4419 27.6744 27.3198 27.6902 27.199C27.6926 27.0059 27.7553 26.8186 27.8697 26.6629C27.9841 26.5074 28.1444 26.3916 28.3279 26.3316C28.5247 26.2627 28.7097 26.1636 28.8764 26.0383C29.1079 25.8927 29.2208 25.6156 29.1568 25.3496C29.1568 25.1902 29.074 25.0372 29.0356 24.884H29.0358C28.9804 24.7196 28.9524 24.5473 28.9528 24.3737C28.9762 24.1217 29.1033 23.8908 29.3036 23.7359C29.5241 23.5331 29.7761 23.3672 30.0497 23.245L30.0498 23.245Z" fill="#F2944D" stroke="#F2944D" stroke-width="0.5"/>
<path d="M24.5906 42.0715C24.4332 41.8794 24.3063 41.6643 24.2142 41.4337C24.0753 41.1165 24.046 40.7619 24.1313 40.4262C24.1863 40.2591 24.2503 40.0953 24.3227 39.935C24.439 39.6734 24.5164 39.3963 24.5524 39.1123C24.5854 38.8784 24.538 38.64 24.4182 38.4364C24.3076 38.2757 24.1614 38.1426 23.991 38.0473L23.5573 37.7857V37.7859C23.3007 37.6551 23.1981 37.3415 23.3277 37.0842C23.3277 37.0014 23.3979 36.9184 23.4361 36.8355H23.4363C23.5681 36.5781 23.6086 36.2835 23.5511 36.0001C23.504 35.7871 23.5216 35.565 23.6019 35.3624C23.6466 35.2476 23.7041 35.1456 23.7614 35.0308C23.8511 34.8309 23.8799 34.6092 23.8444 34.3931C23.7929 34.0279 23.6599 33.6791 23.4554 33.3725C23.3445 33.189 23.1969 33.0306 23.0217 32.9071H22.9833C22.8093 32.7823 22.5681 32.8159 22.435 32.9835C22.3528 33.0779 22.292 33.1888 22.2563 33.3088C22.1026 33.7879 22.1026 34.303 22.2563 34.7819C22.326 35.0248 22.4767 35.2366 22.6837 35.3815C22.783 35.4504 22.8731 35.532 22.9515 35.624C23.0857 35.7612 23.1737 35.937 23.2034 36.1268C23.2331 36.3165 23.203 36.5106 23.1174 36.6825C23.0277 36.87 22.9675 37.0699 22.9387 37.2756C22.8797 37.5474 23.0037 37.8262 23.2449 37.9645C23.3788 38.0537 23.5256 38.1303 23.6659 38.2067C23.8216 38.2829 23.9638 38.3842 24.0867 38.5065C24.2422 38.6979 24.3134 38.9441 24.2844 39.1889C24.2582 39.4972 24.1806 39.799 24.0548 40.0818C23.9238 40.3833 23.8968 40.72 23.9784 41.0385C24.0577 41.3362 24.1943 41.6156 24.3801 41.8612C24.4374 41.9378 24.5013 42.0079 24.5586 42.0843C24.5734 42.0874 24.5885 42.0874 24.6032 42.0843V42.0779L24.5906 42.0715Z" fill="#F2944D" stroke="#F2944D" stroke-width="0.5"/>
<path d="M38.8061 32.741C38.9054 32.8099 38.9955 32.8915 39.074 32.9833C39.2081 33.1207 39.2961 33.2965 39.3258 33.4863C39.3555 33.676 39.3256 33.8701 39.2398 34.042C39.1501 34.2295 39.0899 34.4294 39.0613 34.6351C38.9986 34.9025 39.1142 35.1801 39.3482 35.324C39.4821 35.4132 39.6289 35.4898 39.7692 35.5662C39.9247 35.6426 40.0669 35.7439 40.19 35.866C40.3592 36.0607 40.4379 36.318 40.407 36.5739C40.3806 36.8822 40.3032 37.184 40.1774 37.4668C40.0461 37.7683 40.0192 38.1048 40.1008 38.4235C40.1803 38.721 40.3167 39.0004 40.5025 39.246C40.5598 39.3226 40.6237 39.3928 40.681 39.4692V39.4694C40.6957 39.4725 40.7111 39.4725 40.7258 39.4694V39.4374C40.5685 39.2454 40.4416 39.0303 40.3495 38.7997C40.211 38.4822 40.1817 38.1278 40.2666 37.792C40.3229 37.6163 40.3889 37.4438 40.4643 37.2754C40.5805 37.0139 40.658 36.7367 40.6939 36.4527C40.7269 36.2188 40.6798 35.9804 40.56 35.7768C40.4468 35.6045 40.2936 35.4622 40.1134 35.3622L39.6797 35.1006C39.4231 34.97 39.3206 34.6563 39.4503 34.3991C39.4503 34.3163 39.5205 34.2333 39.5587 34.1504C39.6899 33.8976 39.7325 33.6077 39.6797 33.3277C39.6326 33.1149 39.6505 32.8928 39.7308 32.69C39.7754 32.5752 39.833 32.4732 39.8902 32.3584C39.9795 32.1585 40.0084 31.9368 39.9733 31.7207C39.9218 31.3557 39.7887 31.0069 39.5842 30.7003C39.4734 30.5168 39.3258 30.3582 39.1506 30.2347H39.1122C38.9382 30.1101 38.6969 30.1437 38.5637 30.3113C38.4817 30.4055 38.4209 30.5166 38.3851 30.6364C38.2315 31.1155 38.2315 31.6306 38.3851 32.1097C38.4464 32.3632 38.5957 32.587 38.8062 32.7411L38.8061 32.741Z" fill="#F2944D" stroke="#F2944D" stroke-width="0.5"/>
<path d="M31.8609 44.3291C31.9171 44.2485 31.9836 44.1757 32.0585 44.1123C32.2858 43.8902 32.6288 43.8364 32.9132 43.9784C33.0641 44.0515 33.2254 44.1009 33.3915 44.125C33.6072 44.1678 33.8273 44.0741 33.9462 43.8892C34.0164 43.7808 34.0801 43.666 34.1439 43.5512V43.551C34.2058 43.426 34.2875 43.3118 34.3864 43.213C34.5444 43.0766 34.7532 43.0139 34.9604 43.0409C35.2091 43.0618 35.4528 43.1243 35.681 43.2259C35.9239 43.3324 36.1954 43.3548 36.4527 43.2896C36.684 43.2223 36.9003 43.1119 37.0904 42.9643L37.2754 42.8177C37.2783 42.805 37.2783 42.792 37.2754 42.7793C37.1156 42.9061 36.937 43.0073 36.746 43.0791C36.4903 43.1881 36.2059 43.2105 35.9362 43.1428C35.7979 43.1077 35.6617 43.0652 35.528 43.0153C35.3252 42.924 35.1106 42.8617 34.8903 42.8304C34.7003 42.8036 34.5071 42.8418 34.3418 42.9387C34.2098 43.027 34.1006 43.1449 34.0229 43.2832C33.9528 43.398 33.8826 43.5192 33.8124 43.634C33.762 43.7341 33.6736 43.8099 33.5671 43.8445C33.4606 43.8792 33.3445 43.8701 33.2449 43.819L33.0472 43.7297C32.8504 43.6301 32.6268 43.5966 32.4095 43.634C32.2455 43.6683 32.075 43.655 31.9183 43.5958C31.829 43.5638 31.7397 43.513 31.6505 43.4683V43.4681C31.489 43.3946 31.3092 43.3704 31.134 43.398C30.8398 43.4393 30.5585 43.546 30.3113 43.7104C30.1632 43.8007 30.0351 43.9201 29.9349 44.0613C29.8354 44.2004 29.8606 44.3926 29.9924 44.5014C30.0686 44.566 30.1576 44.6139 30.2537 44.6417C30.6397 44.7646 31.0542 44.7646 31.44 44.6417C31.6083 44.5819 31.7551 44.4732 31.861 44.3291L31.8609 44.3291Z" fill="#F2944D" stroke="#F2944D" stroke-width="0.5"/>
<path d="M29.8712 39.5587C29.8828 39.5836 29.9002 39.6056 29.9222 39.6224V39.5458C29.8749 39.1333 29.8921 38.7159 29.9733 38.3088C30.0601 37.7474 30.3316 37.2313 30.745 36.8418C30.9694 36.6573 31.2036 36.4849 31.4465 36.3253C31.8475 36.0594 32.2067 35.7347 32.5115 35.3622C32.7645 35.0639 32.9086 34.6883 32.9196 34.2972C32.91 33.9759 32.8247 33.6611 32.6709 33.3788C32.5434 33.1301 32.4157 32.8814 32.2947 32.6263C32.1795 32.4313 32.1457 32.199 32.2005 31.9794C32.2555 31.7597 32.3946 31.5706 32.5881 31.4529C32.7029 31.3636 32.8303 31.2808 32.958 31.2042C33.3612 30.9663 33.6732 30.6003 33.8445 30.1645C33.9742 29.8403 34.1957 29.5611 34.4822 29.3609C34.6417 29.2397 34.8202 29.1442 34.9861 29.042C35.2888 28.8429 35.5261 28.5591 35.6685 28.2258C35.9141 27.6615 36.0274 27.0487 36 26.4337C36.0056 26.0814 35.9384 25.7318 35.8024 25.4069L35.7704 25.3432C35.7117 25.1823 35.5908 25.0517 35.4349 24.9809C35.279 24.9101 35.1011 24.9052 34.9413 24.9668C34.7461 25.0262 34.5657 25.1261 34.4121 25.2604C33.7849 25.7939 33.3392 26.5093 33.1366 27.3076C33.0203 27.7074 33.0452 28.1353 33.2067 28.5191C33.2865 28.7027 33.3421 28.8955 33.3724 29.0932C33.4386 29.4019 33.4073 29.7236 33.2827 30.0139C33.1584 30.3041 32.9468 30.5485 32.6773 30.7131C32.385 30.8947 32.1224 31.1208 31.8992 31.3828C31.7481 31.5412 31.648 31.7413 31.6117 31.9574C31.5752 32.1733 31.6042 32.3953 31.6951 32.5945C31.8035 32.8368 31.9374 33.0664 32.0651 33.3025V33.3023C32.2139 33.5468 32.3217 33.8138 32.384 34.0932C32.4481 34.5118 32.3323 34.9381 32.0651 35.2666C31.7408 35.6868 31.346 36.0472 30.8979 36.3316C30.447 36.6382 30.1124 37.0875 29.9478 37.6071C29.796 38.0914 29.7397 38.6003 29.7819 39.106C29.8265 39.2525 29.852 39.4055 29.8711 39.5588L29.8712 39.5587Z" fill="#F2944D" stroke="#F2944D" stroke-width="0.5"/>
<path d="M36 11C29.3695 11 23.0105 13.6339 18.3225 18.3225C13.634 23.0108 11 29.3695 11 36C11 42.6305 13.6339 48.9895 18.3225 53.6775C23.0108 58.366 29.3695 61 36 61C42.6305 61 48.9895 58.3661 53.6775 53.6775C58.366 48.9892 61 42.6305 61 36C60.9917 29.3721 58.3549 23.018 53.6685 18.3315C48.9818 13.6451 42.6279 11.0085 36 11V11ZM36 59.7245C29.708 59.7245 23.6733 57.225 19.2244 52.7756C14.7755 48.3263 12.2755 42.292 12.2755 36C12.2755 29.708 14.775 23.6733 19.2244 19.2244C23.6737 14.7755 29.708 12.2755 36 12.2755C42.292 12.2755 48.3267 14.775 52.7756 19.2244C57.2245 23.6737 59.7245 29.708 59.7245 36C59.7162 42.2893 57.214 48.3193 52.7666 52.7666C48.3193 57.2141 42.2899 59.7165 36 59.7245V59.7245Z" fill="#F2944D" stroke="#F2944D" stroke-width="0.5"/>
<path d="M36 16.051C30.7092 16.051 25.6349 18.1528 21.8939 21.8939C18.1527 25.6349 16.051 30.7093 16.051 36C16.051 41.2907 18.1528 46.3651 21.8939 50.1061C25.6349 53.8473 30.7093 55.949 36 55.949C41.2907 55.949 46.3651 53.8472 50.1061 50.1061C53.8473 46.365 55.949 41.2907 55.949 36C55.9423 30.7113 53.8383 25.6413 50.0986 21.9014C46.3589 18.1618 41.2886 16.0579 36 16.051V16.051ZM36 54.6798C31.0478 54.6798 26.2987 52.7128 22.7969 49.2111C19.2948 45.7097 17.3276 40.9607 17.3265 36.0085C17.3259 31.0563 19.2925 26.3067 22.7937 22.8043C26.2949 19.3019 31.0436 17.334 35.9957 17.3329C40.9477 17.3317 45.6976 19.2977 49.2005 22.7985C52.7031 26.2991 54.6719 31.0478 54.6735 36C54.6668 40.9505 52.6973 45.6965 49.1967 49.1967C45.6964 52.6973 40.9506 54.6671 36 54.6735V54.6798Z" fill="#F2944D" stroke="#F2944D" stroke-width="0.5"/>
<path d="M50.4196 33.94C50.4196 33.8126 50.3877 33.6849 50.3686 33.5574C50.3596 33.5379 50.3468 33.5205 50.3304 33.5063V33.5703C50.3837 33.9103 50.3837 34.2568 50.3304 34.5971C50.261 35.0669 50.0364 35.5001 49.6926 35.8279C49.5093 35.9847 49.3177 36.1315 49.1186 36.2679C48.8007 36.4912 48.5172 36.7599 48.2767 37.065C48.0733 37.316 47.9608 37.6285 47.9579 37.9515C47.95 38.2177 48.0046 38.4819 48.1173 38.7232C48.2257 38.9273 48.3405 39.1314 48.4426 39.361C48.6508 39.6942 48.5512 40.1328 48.2194 40.3431C48.1237 40.4197 48.0218 40.4899 47.9197 40.5536C47.5887 40.7564 47.335 41.0639 47.1989 41.4274C47.1034 41.695 46.9329 41.9296 46.7079 42.1034C46.5804 42.2055 46.4337 42.2883 46.2933 42.3776C46.0616 42.5375 45.8785 42.7581 45.7639 43.0154C45.5678 43.4785 45.4785 43.9799 45.5026 44.4823C45.5028 44.7742 45.5636 45.0632 45.6811 45.3304V45.3879C45.7955 45.654 46.0971 45.7852 46.3699 45.6876C46.531 45.6343 46.6788 45.5473 46.8036 45.4325C47.3224 44.9837 47.6882 44.3839 47.8495 43.7169C47.9388 43.3841 47.9118 43.031 47.7729 42.7156C47.7038 42.5653 47.6546 42.4067 47.6264 42.2437C47.5691 41.9886 47.5917 41.7222 47.6909 41.4804C47.7902 41.2385 47.9612 41.033 48.1811 40.8916C48.4217 40.7365 48.637 40.5451 48.8188 40.324C48.9415 40.1901 49.021 40.0226 49.0472 39.8428C49.0734 39.663 49.0449 39.4797 48.9656 39.3163C48.8699 39.1187 48.7551 38.9273 48.6467 38.7359V38.7361C48.5195 38.5399 48.4246 38.3246 48.3661 38.0983C48.3117 37.7527 48.4016 37.3999 48.6148 37.1226C48.8635 36.7811 49.1674 36.4836 49.5141 36.2424C49.8807 35.9827 50.1502 35.6078 50.2793 35.1774C50.4053 34.778 50.4531 34.3578 50.4196 33.9401L50.4196 33.94Z" fill="#F2944D" stroke="#F2944D" stroke-width="0.5"/>
<path d="M43.4617 52.1798C43.1364 52.2719 42.7986 52.3128 42.4605 52.3008C41.9998 52.3033 41.5514 52.153 41.1849 51.8736C41.0083 51.7168 40.8401 51.5507 40.6811 51.3761C40.4176 51.0973 40.1148 50.8588 39.782 50.6682C39.5096 50.5061 39.1905 50.4409 38.8764 50.4833C38.6186 50.5322 38.3759 50.6414 38.1685 50.8021C37.9835 50.936 37.805 51.0764 37.6136 51.2038C37.3196 51.4455 36.8868 51.4087 36.6379 51.121C36.5486 51.0382 36.472 50.9489 36.3892 50.8594V50.8596C36.1454 50.5675 35.8108 50.3653 35.439 50.2856C35.1647 50.2306 34.9123 50.0977 34.7119 49.903C34.5971 49.7882 34.4952 49.6607 34.3866 49.5395C34.1867 49.3225 33.927 49.1693 33.6405 49.0994C33.162 48.9698 32.6606 48.9501 32.1735 49.0419C31.8904 49.0836 31.619 49.1835 31.3763 49.3354L31.3381 49.3927C31.0938 49.5416 31.0097 49.8561 31.1467 50.1071C31.2206 50.2547 31.3249 50.3852 31.4529 50.4897C31.9616 50.9291 32.5947 51.1991 33.2641 51.2613C33.6004 51.3014 33.9405 51.2248 34.2271 51.0444C34.3646 50.958 34.5124 50.8895 34.6673 50.8403C34.906 50.7465 35.1682 50.7293 35.4171 50.7909C35.6662 50.8526 35.89 50.9902 36.0573 51.1847C36.2411 51.3952 36.4564 51.5759 36.6951 51.7206C36.8427 51.8215 37.0171 51.8754 37.1958 51.8754C37.3746 51.8754 37.549 51.8215 37.6966 51.7206C37.8751 51.6058 38.0474 51.4654 38.2131 51.3315C38.3896 51.1787 38.5899 51.0558 38.8062 50.968C39.1332 50.8619 39.49 50.8989 39.7884 51.0699C40.1531 51.2647 40.483 51.5192 40.7641 51.8225C41.0678 52.142 41.4697 52.3508 41.9057 52.4156C42.314 52.4737 42.7298 52.4521 43.1301 52.3519C43.2513 52.3519 43.3724 52.2817 43.4936 52.2435C43.5117 52.2321 43.527 52.2169 43.5382 52.1989H43.4745L43.4617 52.1798Z" fill="#F2944D" stroke="#F2944D" stroke-width="0.5"/>
<path d="M45.8596 25.6046C46.0191 25.6046 46.1721 25.5218 46.3253 25.4834V25.4836C46.4897 25.4282 46.662 25.4001 46.8354 25.4006C47.0874 25.424 47.3185 25.5511 47.4731 25.7514C47.6712 25.9872 47.8286 26.2546 47.9388 26.5422C48.0627 26.8515 48.2874 27.11 48.5765 27.2756C48.8435 27.4309 49.1381 27.5327 49.4439 27.5754H49.7246H49.7244C49.7391 27.5785 49.7545 27.5785 49.769 27.5754H49.7308C49.4796 27.5476 49.2344 27.481 49.0038 27.3778C48.6859 27.2543 48.4171 27.0303 48.2386 26.74C48.1599 26.5822 48.0895 26.4205 48.028 26.2553C47.9245 25.9895 47.7827 25.7402 47.607 25.5154C47.4646 25.3267 47.2622 25.1917 47.0332 25.1328C46.8422 25.0881 46.6437 25.0881 46.4527 25.1328L45.9553 25.254C45.6884 25.3302 45.4085 25.1847 45.3176 24.9223C45.2794 24.8394 45.2474 24.7564 45.2219 24.6735C45.1297 24.4126 44.9551 24.1888 44.7244 24.0358C44.5289 23.9137 44.3771 23.7329 44.2908 23.5193C44.2397 23.4109 44.2079 23.2897 44.1695 23.1749C44.0906 22.9697 43.953 22.7925 43.7743 22.6646C43.4803 22.4433 43.1402 22.2907 42.7792 22.2182C42.5689 22.174 42.3517 22.174 42.1414 22.2182H42.0968C41.8873 22.2541 41.742 22.447 41.7653 22.6583C41.7742 22.781 41.8089 22.9006 41.8672 23.009C42.097 23.4553 42.4605 23.8188 42.9068 24.0486C43.1281 24.1711 43.3847 24.2139 43.6339 24.1697C43.7545 24.1541 43.8768 24.1541 43.9974 24.1697C44.1905 24.1721 44.3779 24.2351 44.5334 24.3494C44.6889 24.4638 44.8048 24.6239 44.8648 24.8074C44.9337 25.0042 45.0327 25.1894 45.1581 25.3559C45.3142 25.5809 45.5966 25.681 45.8596 25.6046L45.8596 25.6046Z" fill="#F2944D" stroke="#F2944D" stroke-width="0.5"/>
</svg>
