<svg width="14" height="12" viewBox="0 0 14 12" fill="none" xmlns="http://www.w3.org/2000/svg">
<g clip-path="url(#clip0_934_37)">
<path d="M0 1.05449C0 0.472322 0.470312 0 1.05 0H8.05C8.62969 0 9.1 0.472322 9.1 1.05449V2.10897H10.2091C10.5809 2.10897 10.9375 2.25616 11.2 2.51978L12.8909 4.21795C13.1534 4.48157 13.3 4.83966 13.3 5.21312V5.62393V6.32692V7.73291C13.6872 7.73291 14 8.04706 14 8.4359C14 8.82474 13.6872 9.13889 13.3 9.13889H12.6C12.6 10.3032 11.6594 11.2479 10.5 11.2479C9.34062 11.2479 8.4 10.3032 8.4 9.13889H5.6C5.6 10.3032 4.65938 11.2479 3.5 11.2479C2.34063 11.2479 1.4 10.3032 1.4 9.13889H1.05C0.470312 9.13889 0 8.66657 0 8.0844V1.05449ZM9.1 5.62393H11.9V5.21312L10.2091 3.51496H9.1V5.62393ZM3.5 10.1934C3.77848 10.1934 4.04555 10.0823 4.24246 9.88452C4.43938 9.68677 4.55 9.41856 4.55 9.13889C4.55 8.85922 4.43938 8.59101 4.24246 8.39325C4.04555 8.1955 3.77848 8.0844 3.5 8.0844C3.22152 8.0844 2.95445 8.1955 2.75754 8.39325C2.56062 8.59101 2.45 8.85922 2.45 9.13889C2.45 9.41856 2.56062 9.68677 2.75754 9.88452C2.95445 10.0823 3.22152 10.1934 3.5 10.1934ZM11.55 9.13889C11.55 8.85922 11.4394 8.59101 11.2425 8.39325C11.0455 8.1955 10.7785 8.0844 10.5 8.0844C10.2215 8.0844 9.95445 8.1955 9.75754 8.39325C9.56062 8.59101 9.45 8.85922 9.45 9.13889C9.45 9.41856 9.56062 9.68677 9.75754 9.88452C9.95445 10.0823 10.2215 10.1934 10.5 10.1934C10.7785 10.1934 11.0455 10.0823 11.2425 9.88452C11.4394 9.68677 11.55 9.41856 11.55 9.13889ZM3.85 1.75748V2.81197H2.8C2.6075 2.81197 2.45 2.97014 2.45 3.16346V3.86645C2.45 4.05978 2.6075 4.21795 2.8 4.21795H3.85V5.27244C3.85 5.46576 4.0075 5.62393 4.2 5.62393H4.9C5.0925 5.62393 5.25 5.46576 5.25 5.27244V4.21795H6.3C6.4925 4.21795 6.65 4.05978 6.65 3.86645V3.16346C6.65 2.97014 6.4925 2.81197 6.3 2.81197H5.25V1.75748C5.25 1.56416 5.0925 1.40598 4.9 1.40598H4.2C4.0075 1.40598 3.85 1.56416 3.85 1.75748Z" fill="url(#paint0_linear_934_37)"/>
</g>
<defs>
<linearGradient id="paint0_linear_934_37" x1="7" y1="0" x2="7" y2="11.2479" gradientUnits="userSpaceOnUse">
<stop stop-color="#7BA957"/>
<stop offset="1" stop-color="#3B58A6"/>
</linearGradient>
<clipPath id="clip0_934_37">
<rect width="14" height="11.2479" fill="white"/>
</clipPath>
</defs>
</svg>
