<svg width="29" height="23" viewBox="0 0 29 23" fill="none" xmlns="http://www.w3.org/2000/svg">
<g filter="url(#filter0_d_587_4782)">
<path d="M5.05 0C5.63078 0 6.1 0.478795 6.1 1.07143V5.96786C6.1 7.9975 7.74535 9.64286 9.775 9.64286C11.8046 9.64286 13.45 7.9975 13.45 5.96785V4.28571C13.45 3.69308 13.9192 3.21429 14.5 3.21429H21.85C23.5891 3.21429 25 4.65402 25 6.42857V13.9286C25 14.5212 24.5308 15 23.95 15C23.3692 15 22.9 14.5212 22.9 13.9286C22.9 13.3368 22.4203 12.8571 21.8286 12.8571H15.55H14.5H7.17143C6.57969 12.8571 6.1 13.3368 6.1 13.9286C6.1 14.5212 5.63078 15 5.05 15C4.46922 15 4 14.5212 4 13.9286V1.07143C4 0.478795 4.46922 0 5.05 0ZM9.775 3.21429C10.4712 3.21429 11.1389 3.49649 11.6312 3.99882C12.1234 4.50115 12.4 5.18246 12.4 5.89286C12.4 6.60326 12.1234 7.28456 11.6312 7.78689C11.1389 8.28922 10.4712 8.57143 9.775 8.57143C9.07881 8.57143 8.41113 8.28922 7.91884 7.78689C7.42656 7.28456 7.15 6.60326 7.15 5.89286C7.15 5.18246 7.42656 4.50115 7.91884 3.99882C8.41113 3.49649 9.07881 3.21429 9.775 3.21429Z" fill="url(#paint0_linear_587_4782)"/>
</g>
<defs>
<filter id="filter0_d_587_4782" x="0" y="0" width="29" height="23" filterUnits="userSpaceOnUse" color-interpolation-filters="sRGB">
<feFlood flood-opacity="0" result="BackgroundImageFix"/>
<feColorMatrix in="SourceAlpha" type="matrix" values="0 0 0 0 0 0 0 0 0 0 0 0 0 0 0 0 0 0 127 0" result="hardAlpha"/>
<feOffset dy="4"/>
<feGaussianBlur stdDeviation="2"/>
<feComposite in2="hardAlpha" operator="out"/>
<feColorMatrix type="matrix" values="0 0 0 0 0 0 0 0 0 0 0 0 0 0 0 0 0 0 0.25 0"/>
<feBlend mode="normal" in2="BackgroundImageFix" result="effect1_dropShadow_587_4782"/>
<feBlend mode="normal" in="SourceGraphic" in2="effect1_dropShadow_587_4782" result="shape"/>
</filter>
<linearGradient id="paint0_linear_587_4782" x1="14.5" y1="0" x2="14.5" y2="15" gradientUnits="userSpaceOnUse">
<stop stop-color="#264C9A"/>
<stop offset="1" stop-color="#0B2F7B"/>
</linearGradient>
</defs>
</svg>
