<svg width="16" height="19" viewBox="0 0 16 19" fill="none" xmlns="http://www.w3.org/2000/svg">
<g clip-path="url(#clip0_445_55)">
<path d="M8.00029 0C7.36815 0 6.85744 0.530664 6.85744 1.1875C6.85744 1.60276 6.56347 1.95425 6.1716 2.09167C3.91336 2.88358 2.28601 5.10441 2.28601 7.71875V8.41641C2.28601 10.1605 1.66815 11.8453 0.553864 13.1516L0.289579 13.4596C-0.0104213 13.8084 -0.0818499 14.3094 0.100293 14.7361C0.282436 15.1629 0.69315 15.4375 1.14315 15.4375H14.8574C15.3074 15.4375 15.7146 15.1629 15.9003 14.7361C16.086 14.3094 16.011 13.8084 15.711 13.4596L15.4467 13.1516C14.3324 11.8453 13.7146 10.1643 13.7146 8.41641V7.71875C13.7146 5.10441 12.0872 2.88358 9.82898 2.09167C9.43712 1.95425 9.14315 1.60276 9.14315 1.1875C9.14315 0.530664 8.63243 0 8.00029 0ZM9.61815 18.3061C10.3281 17.5684 9.45608 16.625 8.43231 16.625H8.00029H7.56828C6.54451 16.625 5.67252 17.5684 6.38243 18.3061C6.81101 18.7514 7.39315 19 8.00029 19C8.60744 19 9.18958 18.7514 9.61815 18.3061Z" fill="url(#paint0_linear_445_55)"/>
</g>
<defs>
<linearGradient id="paint0_linear_445_55" x1="8.00108" y1="0" x2="8.00108" y2="19" gradientUnits="userSpaceOnUse">
<stop stop-color="#6FA65C"/>
<stop offset="1" stop-color="#3EAC67"/>
</linearGradient>
<clipPath id="clip0_445_55">
<rect width="16" height="19" fill="white"/>
</clipPath>
</defs>
</svg>
