<svg width="12" height="13" viewBox="0 0 12 13" fill="none" xmlns="http://www.w3.org/2000/svg">
<g clip-path="url(#clip0_982_28)">
<path d="M10.9641 1.16016H9.63167V1.68709C9.63167 1.93361 9.53243 2.17002 9.35577 2.34434C9.1791 2.51865 8.93948 2.6166 8.68963 2.6166C8.43979 2.6166 8.20019 2.51865 8.02353 2.34434C7.84686 2.17002 7.74762 1.93361 7.74762 1.68709V1.16016H4.24565V1.68709C4.24565 1.93361 4.14638 2.17002 3.96972 2.34434C3.79305 2.51865 3.55345 2.6166 3.30361 2.6166C3.05377 2.6166 2.81417 2.51865 2.6375 2.34434C2.46084 2.17002 2.36157 1.93361 2.36157 1.68709V1.16016H1.02912C0.755471 1.16039 0.493091 1.26776 0.299592 1.45868C0.106094 1.64961 -0.00269709 1.90847 -0.00292969 2.17848V11.9813C-0.00292969 12.2514 0.105802 12.5105 0.299351 12.7014C0.4929 12.8924 0.7554 12.9997 1.02912 12.9997H10.9641C11.2378 12.9997 11.5003 12.8924 11.6939 12.7014C11.8874 12.5105 11.9962 12.2514 11.9962 11.9813V2.17848C11.9962 1.9084 11.8874 1.64939 11.6939 1.45842C11.5003 1.26744 11.2378 1.16016 10.9641 1.16016ZM11.1213 11.6988C11.1213 11.8351 11.0665 11.9658 10.9688 12.0622C10.8711 12.1586 10.7386 12.2128 10.6005 12.2128H1.31282C1.24442 12.2128 1.1767 12.1995 1.1135 12.1736C1.05031 12.1478 0.992889 12.11 0.944523 12.0622C0.896156 12.0145 0.857795 11.9579 0.83162 11.8955C0.805444 11.8331 0.791975 11.7663 0.791975 11.6988V4.18394H11.124L11.1213 11.6988Z" fill="white"/>
<path d="M1.86401 6.77111H3.90527C3.93835 6.77111 3.97007 6.75811 3.99346 6.73503C4.01685 6.71195 4.03002 6.68066 4.03002 6.64802V5.29692C4.03002 5.26428 4.01685 5.23293 3.99346 5.20985C3.97007 5.18677 3.93835 5.17383 3.90527 5.17383H1.86401C1.83093 5.17383 1.79921 5.18677 1.77582 5.20985C1.75243 5.23293 1.73926 5.26428 1.73926 5.29692V6.64802C1.73926 6.68066 1.75243 6.71195 1.77582 6.73503C1.79921 6.75811 1.83093 6.77111 1.86401 6.77111V6.77111Z" fill="white"/>
<path d="M5.62244 5.17383H6.29437C6.40061 5.17383 6.5058 5.19447 6.60395 5.23459C6.7021 5.2747 6.79127 5.3335 6.86639 5.40762C6.94151 5.48174 7.0011 5.56973 7.04175 5.66657C7.08241 5.76341 7.10333 5.86721 7.10333 5.97203C7.10333 6.07685 7.08241 6.18064 7.04175 6.27749C7.0011 6.37433 6.94151 6.46232 6.86639 6.53644C6.79127 6.61056 6.7021 6.66936 6.60395 6.70947C6.5058 6.74958 6.40061 6.77023 6.29437 6.77023H5.62244C5.40789 6.77023 5.20212 6.68613 5.05042 6.53644C4.89871 6.38675 4.81348 6.18372 4.81348 5.97203V5.97203C4.81348 5.76033 4.89871 5.55731 5.05042 5.40762C5.20212 5.25792 5.40789 5.17383 5.62244 5.17383V5.17383Z" fill="white"/>
<path d="M8.69763 5.17383H9.36957C9.4758 5.17383 9.581 5.19447 9.67914 5.23459C9.77729 5.2747 9.86647 5.3335 9.94159 5.40762C10.0167 5.48174 10.0763 5.56973 10.1169 5.66657C10.1576 5.76341 10.1785 5.86721 10.1785 5.97203C10.1785 6.07685 10.1576 6.18064 10.1169 6.27749C10.0763 6.37433 10.0167 6.46232 9.94159 6.53644C9.86647 6.61056 9.77729 6.66936 9.67914 6.70947C9.581 6.74958 9.4758 6.77023 9.36957 6.77023H8.69763C8.48308 6.77023 8.27732 6.68613 8.12561 6.53644C7.9739 6.38675 7.88867 6.18372 7.88867 5.97203C7.88867 5.76033 7.9739 5.55731 8.12561 5.40762C8.27732 5.25792 8.48308 5.17383 8.69763 5.17383Z" fill="white"/>
<path d="M1.86401 8.99767H3.90527C3.93835 8.99767 3.97007 8.98468 3.99346 8.9616C4.01685 8.93852 4.03002 8.90727 4.03002 8.87463V7.52343C4.03002 7.49079 4.01685 7.45955 3.99346 7.43647C3.97007 7.41339 3.93835 7.40039 3.90527 7.40039H1.86401C1.83093 7.40039 1.79921 7.41339 1.77582 7.43647C1.75243 7.45955 1.73926 7.49079 1.73926 7.52343V8.87463C1.73926 8.90727 1.75243 8.93852 1.77582 8.9616C1.79921 8.98468 1.83093 8.99767 1.86401 8.99767Z" fill="white"/>
<path d="M5.62244 7.40039H6.29525C6.40149 7.40039 6.50668 7.42104 6.60483 7.46115C6.70297 7.50126 6.79215 7.56006 6.86727 7.63418C6.94239 7.7083 7.00198 7.79629 7.04263 7.89313C7.08329 7.98997 7.10421 8.09377 7.10421 8.19859V8.19859C7.10421 8.30341 7.08329 8.40721 7.04263 8.50405C7.00198 8.60089 6.94239 8.68888 6.86727 8.763C6.79215 8.83712 6.70297 8.89592 6.60483 8.93603C6.50668 8.97614 6.40149 8.99679 6.29525 8.99679H5.62244C5.40804 8.99679 5.20241 8.91281 5.05073 8.76331C4.89904 8.61381 4.81371 8.411 4.81348 8.19946V8.19946C4.81336 8.09456 4.8342 7.99068 4.8748 7.89373C4.91541 7.79679 4.97497 7.7087 5.0501 7.63448C5.12524 7.56027 5.21445 7.5014 5.31266 7.46123C5.41086 7.42107 5.51613 7.40039 5.62244 7.40039V7.40039Z" fill="white"/>
<path d="M8.69763 7.40039H9.36957C9.4758 7.40039 9.581 7.42104 9.67914 7.46115C9.77729 7.50126 9.86647 7.56006 9.94159 7.63418C10.0167 7.7083 10.0763 7.79629 10.1169 7.89313C10.1576 7.98997 10.1785 8.09377 10.1785 8.19859C10.1785 8.30341 10.1576 8.40721 10.1169 8.50405C10.0763 8.60089 10.0167 8.68888 9.94159 8.763C9.86647 8.83712 9.77729 8.89592 9.67914 8.93603C9.581 8.97614 9.4758 8.99679 9.36957 8.99679H8.69763C8.48323 8.99679 8.27761 8.91281 8.12592 8.76331C7.97424 8.61381 7.88891 8.411 7.88867 8.19946V8.19946C7.88856 8.09456 7.9094 7.99068 7.95 7.89373C7.9906 7.79679 8.05017 7.7087 8.1253 7.63448C8.20043 7.56027 8.28965 7.5014 8.38785 7.46123C8.48606 7.42107 8.59132 7.40039 8.69763 7.40039V7.40039Z" fill="white"/>
<path d="M1.86401 11.2203H3.90527C3.93835 11.2203 3.97007 11.2073 3.99346 11.1843C4.01685 11.1612 4.03002 11.1299 4.03002 11.0973V9.74609C4.03002 9.71345 4.01685 9.6822 3.99346 9.65912C3.97007 9.63604 3.93835 9.62305 3.90527 9.62305H1.86401C1.83093 9.62305 1.79921 9.63604 1.77582 9.65912C1.75243 9.6822 1.73926 9.71345 1.73926 9.74609V11.0973C1.73926 11.1299 1.75243 11.1612 1.77582 11.1843C1.79921 11.2073 1.83093 11.2203 1.86401 11.2203Z" fill="white"/>
<path d="M4.93817 11.2203H6.97949C7.01257 11.2203 7.04429 11.2073 7.06768 11.1843C7.09107 11.1612 7.10418 11.1299 7.10418 11.0973V9.74609C7.10418 9.71345 7.09107 9.6822 7.06768 9.65912C7.04429 9.63604 7.01257 9.62305 6.97949 9.62305H4.93817C4.90509 9.62305 4.87338 9.63604 4.84999 9.65912C4.82659 9.6822 4.81348 9.71345 4.81348 9.74609V11.0973C4.81348 11.1299 4.82659 11.1612 4.84999 11.1843C4.87338 11.2073 4.90509 11.2203 4.93817 11.2203Z" fill="white"/>
<path d="M8.00849 11.2203H10.0497C10.0828 11.2203 10.1146 11.2073 10.138 11.1843C10.1614 11.1612 10.1746 11.1299 10.1746 11.0973V9.74609C10.1746 9.71345 10.1614 9.6822 10.138 9.65912C10.1146 9.63604 10.0828 9.62305 10.0497 9.62305H8.00849C7.97541 9.62305 7.94374 9.63604 7.92035 9.65912C7.89696 9.6822 7.88379 9.71345 7.88379 9.74609V11.0973C7.88379 11.1299 7.89696 11.1612 7.92035 11.1843C7.94374 11.2073 7.97541 11.2203 8.00849 11.2203Z" fill="white"/>
<path d="M3.30669 2.26904C3.463 2.26904 3.61293 2.20777 3.72346 2.09871C3.83399 1.98965 3.89608 1.84175 3.89608 1.68752V0.582495C3.89914 0.504296 3.88613 0.426297 3.85791 0.35316C3.82969 0.280022 3.78681 0.213253 3.73182 0.156858C3.67683 0.100464 3.61089 0.0556036 3.53791 0.0249593C3.46493 -0.00568499 3.38643 -0.0214844 3.30712 -0.0214844C3.22781 -0.0214844 3.14931 -0.00568499 3.07633 0.0249593C3.00335 0.0556036 2.93741 0.100464 2.88242 0.156858C2.82743 0.213253 2.78455 0.280022 2.75633 0.35316C2.72811 0.426297 2.71515 0.504296 2.71821 0.582495V1.68752C2.71821 1.8416 2.78018 1.98936 2.89052 2.09839C3.00085 2.20743 3.15053 2.26881 3.30669 2.26904V2.26904Z" fill="white"/>
<path d="M8.69291 2.26807C8.84922 2.26807 8.99914 2.2068 9.10967 2.09774C9.2202 1.98868 9.2823 1.84078 9.2823 1.68655V0.581525C9.2823 0.427292 9.2202 0.279387 9.10967 0.170329C8.99914 0.0612701 8.84922 0 8.69291 0C8.53659 0 8.38667 0.0612701 8.27614 0.170329C8.16561 0.279387 8.10352 0.427292 8.10352 0.581525V1.68655C8.10352 1.84078 8.16561 1.98868 8.27614 2.09774C8.38667 2.2068 8.53659 2.26807 8.69291 2.26807Z" fill="white"/>
</g>
<defs>
<clipPath id="clip0_982_28">
<rect width="12" height="13" fill="white"/>
</clipPath>
</defs>
</svg>
