<svg width="17" height="17" viewBox="0 0 17 17" fill="none" xmlns="http://www.w3.org/2000/svg">
<path d="M7.72768 4.06531H6.95499V3.32622H7.72768C7.94138 3.32622 8.11409 3.16065 8.11409 2.95661L8.11396 2.21752H8.88665V2.95661C8.88665 3.16065 9.05934 3.32622 9.27306 3.32622H10.0457V4.06531H9.27306C9.05935 4.06531 8.88665 4.23087 8.88665 4.43491V5.174H8.11396V4.43491C8.11396 4.23087 7.94126 4.06531 7.72768 4.06531ZM3.47743 13.3046H4.25012V12.5655H3.47743V13.3046ZM7.3412 9.60879H6.56851V10.3479H7.3412V9.60879ZM13.5232 9.60879H12.7505V10.3479H13.5232V9.60879ZM4.63653 7.02179V0.369608C4.63653 0.165563 4.80923 0 5.02294 0H11.9775C12.1912 0 12.3639 0.165563 12.3639 0.369608V7.02179C12.3639 7.22583 12.1912 7.3914 11.9775 7.3914H5.02294C4.80923 7.3914 4.63653 7.22583 4.63653 7.02179ZM6.18203 4.43491C6.18203 4.63896 6.35473 4.80452 6.56844 4.80452H7.34113V5.54361C7.34113 5.74766 7.51383 5.91322 7.72754 5.91322H9.27305C9.48676 5.91322 9.65946 5.74766 9.65946 5.54361V4.80452H10.4322C10.6459 4.80452 10.8186 4.63896 10.8186 4.43491L10.8184 2.95661C10.8184 2.75257 10.6457 2.587 10.432 2.587H9.65933V1.84791C9.65933 1.64387 9.48664 1.4783 9.27292 1.4783H7.72741C7.51371 1.4783 7.341 1.64387 7.341 1.84791V2.587H6.56832C6.35461 2.587 6.18191 2.75257 6.18191 2.95661L6.18203 4.43491ZM16.6139 4.43491V2.95661C16.6139 2.75257 16.4412 2.587 16.2275 2.587H13.1366V4.8044H16.2275C16.4412 4.8044 16.6139 4.63883 16.6139 4.43491ZM10.432 9.60873H9.65926V10.3478H10.432V9.60873ZM3.86384 7.02173C3.86384 7.633 4.38388 8.13042 5.02294 8.13042H11.9775C12.6166 8.13042 13.1366 7.633 13.1366 7.02173V5.54342H15.8412V15.5217L11.2048 15.5218V12.1957C11.2048 11.9917 11.0321 11.8261 10.8184 11.8261H6.18203C5.96833 11.8261 5.79562 11.9917 5.79562 12.1957V15.5218H1.15923V5.54355H3.86384V7.02173ZM11.9775 10.7175C11.9775 10.9215 12.1502 11.0871 12.3639 11.0871H13.9094C14.1232 11.0871 14.2959 10.9215 14.2959 10.7175V9.23918C14.2959 9.03514 14.1232 8.86958 13.9094 8.86958H12.3639C12.1502 8.86958 11.9775 9.03514 11.9775 9.23918V10.7175ZM11.9775 13.674C11.9775 13.878 12.1502 14.0436 12.3639 14.0436H13.9094C14.1232 14.0436 14.2959 13.878 14.2959 13.674V12.1957C14.2959 11.9916 14.1232 11.8261 13.9094 11.8261H12.3639C12.1502 11.8261 11.9775 11.9916 11.9775 12.1957V13.674ZM8.88664 10.7175C8.88664 10.9215 9.05934 11.0871 9.27305 11.0871H10.8186C11.0323 11.0871 11.205 10.9215 11.205 10.7175V9.23918C11.205 9.03514 11.0323 8.86958 10.8186 8.86958H9.27305C9.05935 8.86958 8.88664 9.03514 8.88664 9.23918V10.7175ZM5.79562 10.7175C5.79562 10.9215 5.96832 11.0871 6.18203 11.0871H7.72754C7.94125 11.0871 8.11395 10.9215 8.11395 10.7175V9.23918C8.11395 9.03514 7.94125 8.86958 7.72754 8.86958H6.18203C5.96833 8.86958 5.79562 9.03514 5.79562 9.23918V10.7175ZM5.02294 12.1958C5.02294 11.9917 4.85024 11.8262 4.63653 11.8262H3.09102C2.87731 11.8262 2.70461 11.9917 2.70461 12.1958V13.6741C2.70461 13.8781 2.87731 14.0437 3.09102 14.0437H4.63653C4.85023 14.0437 5.02294 13.8781 5.02294 13.6741V12.1958ZM3.09115 8.8697C2.87744 8.8697 2.70474 9.03527 2.70474 9.23931V10.7176C2.70474 10.9217 2.87744 11.0872 3.09115 11.0872H4.63666C4.85037 11.0872 5.02307 10.9217 5.02307 10.7176V9.23931C5.02307 9.03527 4.85037 8.8697 4.63666 8.8697H3.09115ZM0.772953 4.80427H3.86384V2.58688H0.772953C0.559245 2.58688 0.386543 2.75244 0.386543 2.95648V4.43479C0.386543 4.63871 0.559242 4.80427 0.772953 4.80427ZM4.25025 9.60873H3.47756V10.3478H4.25025V9.60873ZM0 16.2609V17H17V16.2609H0ZM10.4319 15.5218V12.5653H8.88638V15.5218H10.4319ZM8.11369 15.5218V12.5653H6.56818V15.5218H8.11369ZM13.523 12.5652H12.7503V13.3043H13.523V12.5652Z" fill="url(#paint0_linear_595_7922)"/>
<defs>
<linearGradient id="paint0_linear_595_7922" x1="8.5" y1="0" x2="8.5" y2="17" gradientUnits="userSpaceOnUse">
<stop stop-color="#7BA957"/>
<stop offset="1" stop-color="#3B58A6"/>
</linearGradient>
</defs>
</svg>
