<svg width="40" height="45" viewBox="0 0 40 45" fill="none" xmlns="http://www.w3.org/2000/svg">
<path d="M20 22.5C23.031 22.5 25.9379 21.3147 28.0812 19.205C30.2245 17.0952 31.4286 14.2337 31.4286 11.25C31.4286 8.26631 30.2245 5.40483 28.0812 3.29505C25.9379 1.18526 23.031 0 20 0C16.969 0 14.0621 1.18526 11.9188 3.29505C9.77551 5.40483 8.57143 8.26631 8.57143 11.25C8.57143 14.2337 9.77551 17.0952 11.9188 19.205C14.0621 21.3147 16.969 22.5 20 22.5ZM11.4286 30.6752C11.4286 29.0115 9.82214 27.8161 8.35363 28.5981C3.37796 31.2477 0 36.4307 0 42.3896C0 43.8311 1.1875 45 2.65179 45H37.3482C38.8125 45 40 43.8311 40 42.3896C40 36.2522 36.4165 30.9377 31.1948 28.3668C29.93 27.7441 28.5714 28.758 28.5714 30.1677C28.5714 31.1373 29.2563 31.949 30.0899 32.4443C31.748 33.4296 32.8571 35.2218 32.8571 37.2656V40.7812C32.8571 41.5547 32.2143 42.1875 31.4286 42.1875H30C29.2143 42.1875 28.5714 41.5547 28.5714 40.7812C28.5714 40.7423 28.5731 40.7037 28.5763 40.6655C28.6735 39.5046 30 38.4306 30 37.2656C30 35.71 28.7232 34.4531 27.1429 34.4531C25.5625 34.4531 24.2857 35.71 24.2857 37.2656C24.2857 38.4306 25.6122 39.5046 25.7095 40.6655C25.7127 40.7037 25.7143 40.7423 25.7143 40.7812C25.7143 41.5547 25.0714 42.1875 24.2857 42.1875H22.8571C22.0714 42.1875 21.4286 41.5547 21.4286 40.7812V37.2656C21.4286 35.4592 22.295 33.8492 23.6412 32.8193C24.7242 31.9908 25.7143 30.8614 25.7143 29.4979V28.4344C25.7143 27.5057 25.009 26.7188 24.0804 26.7188H15.9196C14.991 26.7188 14.2857 27.5057 14.2857 28.4344V29.9465C14.2857 31.4876 15.4149 32.7684 16.4844 33.8779C17.3347 34.7601 17.8571 35.952 17.8571 37.2656C17.8571 39.9814 15.6161 42.1875 12.8571 42.1875C10.0982 42.1875 7.85714 39.9814 7.85714 37.2656C7.85714 35.6919 8.60699 34.2929 9.77201 33.3919C10.6493 32.7134 11.4286 31.7843 11.4286 30.6752ZM12.8571 39.375C13.4255 39.375 13.9705 39.1528 14.3724 38.7572C14.7742 38.3616 15 37.8251 15 37.2656C15 36.7062 14.7742 36.1697 14.3724 35.7741C13.9705 35.3785 13.4255 35.1562 12.8571 35.1562C12.2888 35.1562 11.7438 35.3785 11.3419 35.7741C10.9401 36.1697 10.7143 36.7062 10.7143 37.2656C10.7143 37.8251 10.9401 38.3616 11.3419 38.7572C11.7438 39.1528 12.2888 39.375 12.8571 39.375Z" fill="url(#paint0_linear_618_1894)"/>
<defs>
<linearGradient id="paint0_linear_618_1894" x1="20" y1="0" x2="20" y2="45" gradientUnits="userSpaceOnUse">
<stop stop-color="#49AA65"/>
<stop offset="1" stop-color="#66A75E"/>
</linearGradient>
</defs>
</svg>
