<svg width="18" height="21" viewBox="0 0 18 21" fill="none" xmlns="http://www.w3.org/2000/svg">
<path d="M9 10.5C11.8406 10.5 14.1429 8.1498 14.1429 5.25C14.1429 2.3502 11.8406 0 9 0C6.15938 0 3.85714 2.3502 3.85714 5.25C3.85714 8.1498 6.15938 10.5 9 10.5ZM5.14286 12.7641C2.16964 13.6541 0 16.4596 0 19.7818C0 20.4545 0.534375 21 1.1933 21H16.8067C17.4656 21 18 20.4545 18 19.7818C18 16.4596 15.8304 13.6541 12.8571 12.7641V14.8477C13.9661 15.1389 14.7857 16.1684 14.7857 17.3906V19.0312C14.7857 19.3922 14.4964 19.6875 14.1429 19.6875H13.5C13.1464 19.6875 12.8571 19.3922 12.8571 19.0312C12.8571 18.6703 13.1464 18.375 13.5 18.375V17.3906C13.5 16.6646 12.9254 16.0781 12.2143 16.0781C11.5031 16.0781 10.9286 16.6646 10.9286 17.3906V18.375C11.2821 18.375 11.5714 18.6703 11.5714 19.0312C11.5714 19.3922 11.2821 19.6875 10.9286 19.6875H10.2857C9.93214 19.6875 9.64286 19.3922 9.64286 19.0312V17.3906C9.64286 16.1684 10.4625 15.1389 11.5714 14.8477V12.5057C11.3304 12.4811 11.0853 12.4688 10.8362 12.4688H7.16384C6.91473 12.4688 6.66964 12.4811 6.42857 12.5057V15.1881C7.3567 15.4711 8.03571 16.3488 8.03571 17.3906C8.03571 18.658 7.02723 19.6875 5.78571 19.6875C4.5442 19.6875 3.53571 18.658 3.53571 17.3906C3.53571 16.3488 4.21473 15.4711 5.14286 15.1881V12.7641ZM5.78571 18.375C6.32009 18.375 6.75 17.9361 6.75 17.3906C6.75 16.8451 6.32009 16.4062 5.78571 16.4062C5.25134 16.4062 4.82143 16.8451 4.82143 17.3906C4.82143 17.9361 5.25134 18.375 5.78571 18.375Z" fill="url(#paint0_linear_99_2455)"/>
<defs>
<linearGradient id="paint0_linear_99_2455" x1="9" y1="0" x2="9" y2="21" gradientUnits="userSpaceOnUse">
<stop stop-color="#6C956B"/>
<stop offset="1" stop-color="#4F718F"/>
</linearGradient>
</defs>
</svg>
