<svg width="87" height="77" viewBox="0 0 87 77" fill="none" xmlns="http://www.w3.org/2000/svg">
<g clip-path="url(#clip0_1091_48)">
<path d="M4.83333 14.4375H82.1667C84.8401 14.4375 87 12.2869 87 9.625C87 6.96309 84.8401 4.8125 82.1667 4.8125H4.83333C2.1599 4.8125 0 6.96309 0 9.625C0 12.2869 2.1599 14.4375 4.83333 14.4375ZM1.41979 35.1012C-0.468229 36.9811 -0.468229 40.034 1.41979 41.9139C3.30781 43.7938 6.37396 43.7938 8.26198 41.9139L14.5 35.6877V67.375C14.5 70.0369 16.6599 72.1875 19.3333 72.1875C22.0068 72.1875 24.1667 70.0369 24.1667 67.375V35.6877L30.4198 41.9139C32.3078 43.7938 35.374 43.7938 37.262 41.9139C39.15 40.034 39.15 36.9811 37.262 35.1012L22.762 20.6637C20.874 18.7838 17.8078 18.7838 15.9198 20.6637L1.41979 35.1012ZM49.7531 41.9139C51.6411 43.7938 54.7073 43.7938 56.5953 41.9139L62.8333 35.6877V67.375C62.8333 70.0369 64.9932 72.1875 67.6667 72.1875C70.3401 72.1875 72.5 70.0369 72.5 67.375V35.6877L78.7531 41.9139C80.6411 43.7938 83.7073 43.7938 85.5953 41.9139C87.4833 40.034 87.4833 36.9811 85.5953 35.1012L71.0953 20.6637C69.2073 18.7838 66.1411 18.7838 64.2531 20.6637L49.7531 35.1012C47.8651 36.9811 47.8651 40.034 49.7531 41.9139Z" fill="url(#paint0_linear_1091_48)"/>
</g>
<defs>
<linearGradient id="paint0_linear_1091_48" x1="43.5057" y1="4.8125" x2="43.5057" y2="72.1875" gradientUnits="userSpaceOnUse">
<stop stop-color="#335AAA"/>
<stop offset="1" stop-color="#042873"/>
</linearGradient>
<clipPath id="clip0_1091_48">
<rect width="87" height="77" fill="white"/>
</clipPath>
</defs>
</svg>
