<svg width="33" height="38" viewBox="0 0 33 38" fill="none" xmlns="http://www.w3.org/2000/svg">
<g clip-path="url(#clip0_934_34)">
<path d="M16.4175 0C21.5992 0 25.7989 4.25273 25.7989 9.5C25.7989 14.7473 21.5992 19 16.4175 19C11.2357 19 7.03606 14.7473 7.03606 9.5C7.03606 4.25273 11.2357 0 16.4175 0ZM15.3254 26.6594L13.9622 24.3586C13.4931 23.5645 14.0575 22.5625 14.9663 22.5625H16.4175H17.8613C18.7702 22.5625 19.3345 23.5719 18.8654 24.3586L17.5022 26.6594L19.9502 35.8551L22.8452 23.891C28.5034 24.7816 32.835 29.7395 32.835 35.7215C32.835 36.9832 31.8235 38 30.5849 38H19.4298H13.4052H2.25007C1.01143 38 0 36.9758 0 35.7215C0 29.7395 4.33158 24.7816 9.98974 23.891L12.8848 35.8551L15.3328 26.6594H15.3254Z" fill="url(#paint0_linear_934_34)"/>
</g>
<defs>
<linearGradient id="paint0_linear_934_34" x1="16.4175" y1="0" x2="16.4175" y2="38" gradientUnits="userSpaceOnUse">
<stop stop-color="#7BA957"/>
<stop offset="1" stop-color="#3B58A6"/>
</linearGradient>
<clipPath id="clip0_934_34">
<rect width="32.835" height="38" fill="white"/>
</clipPath>
</defs>
</svg>
