<svg width="36" height="48" viewBox="0 0 36 48" fill="none" xmlns="http://www.w3.org/2000/svg">
<path d="M33.75 0H2.25C1.0125 0 0 1.01024 0 2.24498V6.73493C0 7.96967 1.0125 8.97991 2.25 8.97991H33.75C34.9875 8.97991 36 7.96967 36 6.73493V2.24498C36 1.01024 34.9875 0 33.75 0ZM3 44.8996C3 46.5459 4.35 47.8929 6 47.8929H30C31.65 47.8929 33 46.5459 33 44.8996V11.9732H3V44.8996ZM9 27.6881C9 27.2765 9.3375 26.9397 9.75 26.9397H15V21.7015C15 21.2899 15.3375 20.9531 15.75 20.9531H20.25C20.6625 20.9531 21 21.2899 21 21.7015V26.9397H26.25C26.6625 26.9397 27 27.2765 27 27.6881V32.178C27 32.5896 26.6625 32.9263 26.25 32.9263H21V38.1646C21 38.5762 20.6625 38.9129 20.25 38.9129H15.75C15.3375 38.9129 15 38.5762 15 38.1646V32.9263H9.75C9.3375 32.9263 9 32.5896 9 32.178V27.6881Z" fill="url(#paint0_linear_1078_30)"/>
<defs>
<linearGradient id="paint0_linear_1078_30" x1="18" y1="0" x2="18" y2="47.8929" gradientUnits="userSpaceOnUse">
<stop stop-color="#6D9669"/>
<stop offset="1" stop-color="#466698"/>
</linearGradient>
</defs>
</svg>
