<svg width="16" height="23" viewBox="0 0 16 23" fill="none" xmlns="http://www.w3.org/2000/svg">
<path d="M4.75708 13.4781H5.54994V11.4959C5.33102 11.4959 5.15351 11.3184 5.15351 11.0995C5.15351 10.8806 5.33102 10.7031 5.54994 10.7031V10.3066H4.75708V13.4781Z" fill="#2F8C12"/>
<path d="M15.4607 21.4071H15.0643V0.396429C15.0643 0.291305 15.0225 0.190426 14.9482 0.116097C14.8739 0.0417677 14.773 0 14.6679 0H1.18929C0.970367 0 0.792857 0.177509 0.792857 0.396429V21.4071H0.396429C0.177509 21.4071 0 21.5847 0 21.8036C0 22.0225 0.177509 22.2 0.396429 22.2H15.4607C15.6796 22.2 15.8571 22.0225 15.8571 21.8036C15.8571 21.5847 15.6796 21.4071 15.4607 21.4071ZM7.13571 10.7036C7.35463 10.7036 7.53214 10.8811 7.53214 11.1C7.53214 11.3189 7.35463 11.4964 7.13571 11.4964H6.34286V13.875C6.34286 13.9801 6.30109 14.081 6.22676 14.1553C6.15243 14.2297 6.05155 14.2714 5.94643 14.2714H4.36071C4.1418 14.2714 3.96429 14.0939 3.96429 13.875V9.91071C3.96429 9.69179 4.1418 9.51429 4.36071 9.51429H5.94643C6.05155 9.51429 6.15243 9.55605 6.22676 9.63038C6.30109 9.70471 6.34286 9.80559 6.34286 9.91071V10.7036H7.13571ZM7.13571 3.56786C7.13571 3.34894 7.31322 3.17143 7.53214 3.17143H8.325C8.54392 3.17143 8.72143 3.34894 8.72143 3.56786C8.72143 3.78678 8.54392 3.96429 8.325 3.96429H7.53214C7.31322 3.96429 7.13571 3.78678 7.13571 3.56786ZM12.6857 21.4071V2.37857H3.17143V21.4071H2.37857V1.98214C2.37857 1.76322 2.55608 1.58571 2.775 1.58571H13.0821C13.1873 1.58571 13.2881 1.62748 13.3625 1.70181C13.4368 1.77614 13.4786 1.87702 13.4786 1.98214V21.4071H12.6857Z" fill="url(#paint0_linear_573_1234)"/>
<defs>
<linearGradient id="paint0_linear_573_1234" x1="7.92857" y1="0" x2="7.92857" y2="22.2" gradientUnits="userSpaceOnUse">
<stop stop-color="#339A14"/>
<stop offset="1" stop-color="#26730F"/>
</linearGradient>
</defs>
</svg>
