<svg width="103" height="120" viewBox="0 0 103 120" fill="none" xmlns="http://www.w3.org/2000/svg">
<path d="M80.0222 85L100.757 64.2653C102.417 62.6052 102.417 59.9144 100.757 58.2542L94.7458 52.2431C93.0856 50.583 90.3948 50.583 88.7347 52.2431L68 72.9778L45.6981 50.6759C58.2542 49.0875 68 38.4864 68 25.5C68 11.4166 56.5834 0 42.5 0H4.25C1.90188 0 0 1.90188 0 4.25V72.25C0 74.5981 1.90188 76.5 4.25 76.5H12.75C15.0981 76.5 17 74.5981 17 72.25V51H21.9805L55.9805 85L35.2458 105.735C33.5856 107.395 33.5856 110.086 35.2458 111.746L41.2569 117.757C42.917 119.417 45.6078 119.417 47.268 117.757L68 97.0195L88.7347 117.754C90.3948 119.414 93.0856 119.414 94.7458 117.754L100.757 111.743C102.417 110.083 102.417 107.392 100.757 105.732L80.0222 85ZM17 17H42.5C47.1856 17 51 20.8144 51 25.5C51 30.1856 47.1856 34 42.5 34H17V17Z" fill="url(#paint0_linear_1078_35)"/>
<defs>
<linearGradient id="paint0_linear_1078_35" x1="51.001" y1="0" x2="51.001" y2="119.002" gradientUnits="userSpaceOnUse">
<stop stop-color="#7BA957"/>
<stop offset="1" stop-color="#3B58A6"/>
</linearGradient>
</defs>
</svg>
