<svg width="14" height="16" viewBox="0 0 14 16" fill="none" xmlns="http://www.w3.org/2000/svg">
<g clip-path="url(#clip0_1034_28)">
<path d="M7.5 2.5H10.7094C10.4625 1.89062 10.0719 1.35938 9.57812 0.940625L7.5 2.5ZM8.67813 0.36875C8.16563 0.13125 7.6 0 7 0C5.32187 0 3.88438 1.03437 3.29063 2.5H5.83437L8.67813 0.36875ZM7 8C9.20937 8 11 6.20937 11 4C11 3.83125 10.9906 3.6625 10.9688 3.5H3.03125C3.00938 3.6625 3 3.83125 3 4C3 6.20937 4.79063 8 7 8ZM3.875 9.7625C3.57188 9.85937 3.27812 9.98125 3 10.1281V16H7.61562L5.67188 12.7563L3.875 9.7625ZM4.90625 9.5375L6.38438 12H8.5C9.88125 12 11 13.1187 11 14.5C11 15.0625 10.8125 15.5813 10.5 16H13.0719C13.5844 16 14 15.5844 14 15.0719C14 11.9937 11.5063 9.5 8.42813 9.5H5.57188C5.34688 9.5 5.125 9.5125 4.90625 9.54062V9.5375ZM0 15.0719C0 15.5844 0.415625 16 0.928125 16H2V10.7937C0.778125 11.8156 0 13.3531 0 15.0719ZM10 14.5C10 13.6719 9.32812 13 8.5 13H6.98438L8.76875 15.975C9.46875 15.85 10 15.2375 10 14.5Z" fill="url(#paint0_linear_1034_28)"/>
</g>
<defs>
<linearGradient id="paint0_linear_1034_28" x1="7" y1="0" x2="7" y2="16" gradientUnits="userSpaceOnUse">
<stop stop-color="#7BA957"/>
<stop offset="1" stop-color="#3B58A6"/>
</linearGradient>
<clipPath id="clip0_1034_28">
<rect width="14" height="16" fill="white"/>
</clipPath>
</defs>
</svg>
