<svg width="52" height="62" viewBox="0 0 52 62" fill="none" xmlns="http://www.w3.org/2000/svg">
<path d="M24.7266 0C19.8867 0 15.5352 2.64844 12.3789 5.22266C9.22266 7.80078 7.21094 10.3867 7.21094 10.3867L6.30859 11.543L7.71875 11.957C7.71875 11.957 8.26562 12.1094 8.92188 12.7812C9.57422 13.4492 10.2734 14.5898 10.2734 16.75C10.2734 19.5508 10.7031 21.8125 10.918 22.7695C10.3594 23.2773 10 23.9961 10 24.8008C10 25.4492 10.1953 26.0039 10.3555 26.5469C10.4336 26.8203 10.5117 27.0742 10.5625 27.2656C10.6133 27.457 10.625 27.6445 10.625 27.5C10.625 28.8594 11.7656 29.9219 13.1094 29.9688C13.293 33.8438 15.1602 37.2656 18 39.5195V43.25C16.5586 43.6875 13.0977 44.8047 9.57422 46.4688C7.27344 47.5547 4.96094 48.8633 3.16016 50.4141C1.35938 51.9648 0 53.8203 0 56V62H52V56C52 53.8203 50.6406 51.9648 48.8398 50.4141C47.0391 48.8633 44.7266 47.5547 42.4258 46.4688C38.9023 44.8047 35.4414 43.6875 34 43.25V39.5234C36.8398 37.2695 38.707 33.8477 38.8906 29.9688C40.2344 29.9219 41.375 28.8594 41.375 27.5C41.375 27.6445 41.3867 27.457 41.4375 27.2656C41.4883 27.0742 41.5664 26.8203 41.6445 26.5469C41.8047 26.0039 42 25.4492 42 24.8008C42 23.9805 41.6289 23.2578 41.0586 22.7461C41.2422 21.6914 42 17.1758 42 14C42 10.4062 40.6562 7.83203 38.8438 6.23438C37.2148 4.80469 35.3008 4.23047 33.6055 4.10938C33.332 3.67578 32.8477 2.99609 31.8438 2.21094C30.4023 1.08984 28.0898 0 24.7266 0ZM24.7266 2C27.6641 2 29.4883 2.91016 30.6094 3.78906C31.7344 4.66797 32.1055 5.44141 32.1055 5.44141L32.3789 6H33C34.332 6 36.125 6.50781 37.5195 7.73828C38.918 8.96875 40 10.8906 40 14C40 16.7891 39.3359 20.8594 39.1406 22C39.1367 22 39.1328 22 39.125 22C39.0391 22 39.0547 22.0195 39 22.0273V19C39 15.5781 37.6016 13.2773 36.1953 11.9141C34.7891 10.5508 33.3164 10.0508 33.3164 10.0508L32.7461 9.85938L32.3086 10.2773C32.3086 10.2773 31.6797 10.8945 30.1602 11.5898C28.6406 12.2852 26.2891 13 23 13C21.1992 13 18.8281 13.6367 16.7695 15.0742C14.7188 16.5078 13.0117 18.8516 13.0039 22.0312C12.9492 22.0234 12.9609 22 12.875 22C12.8516 22 12.8281 22.0078 12.8047 22.0078C12.6016 21.043 12.2734 19.1602 12.2734 16.75C12.2734 14.1328 11.3359 12.3945 10.3555 11.3867C9.9375 10.957 9.84375 11.0313 9.48047 10.8164C10.1719 10.0039 11.457 8.5625 13.6445 6.77734C16.6172 4.35156 20.6328 2 24.7266 2ZM33 12.1562C33.2422 12.25 33.875 12.4492 34.8047 13.3477C35.8984 14.4102 37 16.1055 37 19V25.3047L38.5039 24.4219C38.7617 24.2734 39 24.1406 39.168 24.0547C39.1875 24.043 39.1953 24.043 39.2148 24.0312C39.6719 24.0781 40 24.3984 40 24.7969V24.8008C40 24.875 39.8789 25.4609 39.7266 25.9844C39.6484 26.2422 39.5703 26.5039 39.5039 26.7422C39.4414 26.9805 39.375 27.1484 39.375 27.5C39.375 27.7656 39.1562 28 38.8125 28H37V29.3672C37 34.7891 33.0898 39.2695 27.9414 40.1875L27.6562 40.2344L27.4414 40.4336C27.0508 40.7891 26.5586 41 26 41C25.4414 41 24.9492 40.7891 24.5586 40.4336L24.3438 40.2344L24.0586 40.1875C18.9102 39.2695 15 34.7891 15 29.3672V28H13.1875C12.8438 28 12.625 27.7656 12.625 27.5C12.625 27.1484 12.5586 26.9805 12.4922 26.7422C12.4258 26.5039 12.3477 26.2422 12.2695 25.9844C12.1172 25.4609 12 24.875 12 24.8008C12 24.3984 12.3281 24.0781 12.7852 24.0312C12.8047 24.043 12.8125 24.043 12.832 24.0547C13 24.1406 13.2383 24.2734 13.4961 24.4219L15 25.3047V22.0508C15 19.5586 16.2422 17.8828 17.9141 16.7148C19.5859 15.5469 21.7109 15 23 15C26.582 15 29.2305 14.2148 30.9922 13.4102C32.3008 12.8125 32.6445 12.4453 33 12.1562ZM20.5 24C19.6719 24 19 24.6719 19 25.5C19 26.3281 19.6719 27 20.5 27C21.3281 27 22 26.3281 22 25.5C22 24.6719 21.3281 24 20.5 24ZM31.5 24C30.6719 24 30 24.6719 30 25.5C30 26.3281 30.6719 27 31.5 27C32.3281 27 33 26.3281 33 25.5C33 24.6719 32.3281 24 31.5 24ZM20 40.8242C21.0664 41.3828 22.2188 41.8125 23.4414 42.0586C24.1484 42.6211 25.0234 43 26 43C26.9727 43 27.8438 42.6211 28.5469 42.0625C29.7734 41.8203 30.9297 41.3906 32 40.8281V46.6875C31.8789 46.9297 30.2969 50 26 50C21.7031 50 20.1211 46.9297 20 46.6875V40.8242ZM18 45.3555V47.2344L18.1055 47.4492C18.1055 47.4492 20.4648 52 26 52C31.5352 52 33.8945 47.4492 33.8945 47.4492L34 47.2344V45.3555C35.6055 45.8594 38.5469 46.8516 41.5742 48.2812C43.7734 49.3203 45.9609 50.5742 47.5352 51.9297C49.1094 53.2852 50 54.6797 50 56V60H2V56C2 54.6797 2.89062 53.2852 4.46484 51.9297C6.03906 50.5742 8.22656 49.3203 10.4258 48.2812C13.4531 46.8516 16.3945 45.8594 18 45.3555ZM6 56C5.44922 56 5 56.4492 5 57C5 57.5508 5.44922 58 6 58C6.55078 58 7 57.5508 7 57C7 56.4492 6.55078 56 6 56ZM10 56C9.44922 56 9 56.4492 9 57C9 57.5508 9.44922 58 10 58C10.5508 58 11 57.5508 11 57C11 56.4492 10.5508 56 10 56ZM14 56C13.4492 56 13 56.4492 13 57C13 57.5508 13.4492 58 14 58C14.5508 58 15 57.5508 15 57C15 56.4492 14.5508 56 14 56ZM18 56C17.4492 56 17 56.4492 17 57C17 57.5508 17.4492 58 18 58C18.5508 58 19 57.5508 19 57C19 56.4492 18.5508 56 18 56ZM22 56C21.4492 56 21 56.4492 21 57C21 57.5508 21.4492 58 22 58C22.5508 58 23 57.5508 23 57C23 56.4492 22.5508 56 22 56ZM26 56C25.4492 56 25 56.4492 25 57C25 57.5508 25.4492 58 26 58C26.5508 58 27 57.5508 27 57C27 56.4492 26.5508 56 26 56ZM30 56C29.4492 56 29 56.4492 29 57C29 57.5508 29.4492 58 30 58C30.5508 58 31 57.5508 31 57C31 56.4492 30.5508 56 30 56ZM34 56C33.4492 56 33 56.4492 33 57C33 57.5508 33.4492 58 34 58C34.5508 58 35 57.5508 35 57C35 56.4492 34.5508 56 34 56ZM38 56C37.4492 56 37 56.4492 37 57C37 57.5508 37.4492 58 38 58C38.5508 58 39 57.5508 39 57C39 56.4492 38.5508 56 38 56ZM42 56C41.4492 56 41 56.4492 41 57C41 57.5508 41.4492 58 42 58C42.5508 58 43 57.5508 43 57C43 56.4492 42.5508 56 42 56ZM46 56C45.4492 56 45 56.4492 45 57C45 57.5508 45.4492 58 46 58C46.5508 58 47 57.5508 47 57C47 56.4492 46.5508 56 46 56Z" fill="url(#paint0_linear_1086_45)"/>
<defs>
<linearGradient id="paint0_linear_1086_45" x1="26" y1="0" x2="26" y2="62" gradientUnits="userSpaceOnUse">
<stop stop-color="#335AAA"/>
<stop offset="1" stop-color="#042873"/>
</linearGradient>
</defs>
</svg>
