<svg width="17" height="17" viewBox="0 0 17 17" fill="none" xmlns="http://www.w3.org/2000/svg">
<path d="M10.4723 0.514648C10.283 0.195898 9.93437 0 9.5625 0C9.19063 0 8.84199 0.195898 8.65273 0.514648L5.46523 5.82715C5.26934 6.15586 5.2627 6.56426 5.45195 6.89629C5.64121 7.22832 5.99316 7.43418 6.375 7.43418H12.75C13.1318 7.43418 13.4871 7.22832 13.673 6.89629C13.859 6.56426 13.8557 6.15586 13.6598 5.82715L10.4723 0.514648ZM9.5625 10.3594V15.1406C9.5625 15.8744 10.1568 16.4688 10.8906 16.4688H15.6719C16.4057 16.4688 17 15.8744 17 15.1406V10.3594C17 9.62559 16.4057 9.03125 15.6719 9.03125H10.8906C10.1568 9.03125 9.5625 9.62559 9.5625 10.3594ZM4.25 17C5.37717 17 6.45817 16.5522 7.2552 15.7552C8.05223 14.9582 8.5 13.8772 8.5 12.75C8.5 11.6228 8.05223 10.5418 7.2552 9.7448C6.45817 8.94777 5.37717 8.5 4.25 8.5C3.12283 8.5 2.04183 8.94777 1.2448 9.7448C0.447767 10.5418 0 11.6228 0 12.75C0 13.8772 0.447767 14.9582 1.2448 15.7552C2.04183 16.5522 3.12283 17 4.25 17Z" fill="white"/>
</svg>
