<svg width="15" height="12" viewBox="0 0 15 12" fill="none" xmlns="http://www.w3.org/2000/svg">
<path d="M0 5.25469C0 2.35781 2.34844 0 5.25 0H6C8.23125 0 10.0828 1.62422 10.4391 3.75234C10.4906 4.05703 10.5961 4.35469 10.7906 4.59844L11.775 5.83125C11.9203 6.01406 12 6.23906 12 6.47344C12 7.04063 11.5406 7.5 10.9734 7.5H10.5V8.25L7.95 8.56875C7.69219 8.60156 7.5 8.81953 7.5 9.07969C7.5 9.35156 7.71094 9.57656 7.98281 9.59297L10.5 9.75V10.125C10.5 10.7461 9.99609 11.25 9.375 11.25H7.5V11.4375C7.5 11.7492 7.24922 12 6.9375 12H6H2.25C1.83516 12 1.5 11.6648 1.5 11.25V9.54609C1.5 9.15469 1.33828 8.78438 1.09922 8.47266C0.389063 7.55625 0 6.42422 0 5.25469ZM8.25 5.25C8.44891 5.25 8.63968 5.17098 8.78033 5.03033C8.92098 4.88968 9 4.69891 9 4.5C9 4.30109 8.92098 4.11032 8.78033 3.96967C8.63968 3.82902 8.44891 3.75 8.25 3.75C8.05109 3.75 7.86032 3.82902 7.71967 3.96967C7.57902 4.11032 7.5 4.30109 7.5 4.5C7.5 4.69891 7.57902 4.88968 7.71967 5.03033C7.86032 5.17098 8.05109 5.25 8.25 5.25ZM10.875 9C10.875 8.85082 10.9343 8.70774 11.0398 8.60225C11.1452 8.49676 11.2883 8.4375 11.4375 8.4375C11.5867 8.4375 11.7298 8.49676 11.8352 8.60225C11.9407 8.70774 12 8.85082 12 9C12 9.14918 11.9407 9.29226 11.8352 9.39775C11.7298 9.50324 11.5867 9.5625 11.4375 9.5625C11.2883 9.5625 11.1452 9.50324 11.0398 9.39775C10.9343 9.29226 10.875 9.14918 10.875 9ZM14.4375 8.4375C14.5867 8.4375 14.7298 8.49676 14.8352 8.60225C14.9407 8.70774 15 8.85082 15 9C15 9.14918 14.9407 9.29226 14.8352 9.39775C14.7298 9.50324 14.5867 9.5625 14.4375 9.5625C14.2883 9.5625 14.1452 9.50324 14.0398 9.39775C13.9343 9.29226 13.875 9.14918 13.875 9C13.875 8.85082 13.9343 8.70774 14.0398 8.60225C14.1452 8.49676 14.2883 8.4375 14.4375 8.4375ZM13.875 11.25C13.875 11.1008 13.9343 10.9577 14.0398 10.8523C14.1452 10.7468 14.2883 10.6875 14.4375 10.6875C14.5867 10.6875 14.7298 10.7468 14.8352 10.8523C14.9407 10.9577 15 11.1008 15 11.25C15 11.3992 14.9407 11.5423 14.8352 11.6477C14.7298 11.7532 14.5867 11.8125 14.4375 11.8125C14.2883 11.8125 14.1452 11.7532 14.0398 11.6477C13.9343 11.5423 13.875 11.3992 13.875 11.25ZM12.9375 7.3125C13.0867 7.3125 13.2298 7.37176 13.3352 7.47725C13.4407 7.58274 13.5 7.72582 13.5 7.875C13.5 8.02418 13.4407 8.16726 13.3352 8.27275C13.2298 8.37824 13.0867 8.4375 12.9375 8.4375C12.7883 8.4375 12.6452 8.37824 12.5398 8.27275C12.4343 8.16726 12.375 8.02418 12.375 7.875C12.375 7.72582 12.4343 7.58274 12.5398 7.47725C12.6452 7.37176 12.7883 7.3125 12.9375 7.3125ZM13.875 6.75C13.875 6.60082 13.9343 6.45774 14.0398 6.35225C14.1452 6.24676 14.2883 6.1875 14.4375 6.1875C14.5867 6.1875 14.7298 6.24676 14.8352 6.35225C14.9407 6.45774 15 6.60082 15 6.75C15 6.89918 14.9407 7.04226 14.8352 7.14775C14.7298 7.25324 14.5867 7.3125 14.4375 7.3125C14.2883 7.3125 14.1452 7.25324 14.0398 7.14775C13.9343 7.04226 13.875 6.89918 13.875 6.75ZM12.9375 9.5625C13.0867 9.5625 13.2298 9.62176 13.3352 9.72725C13.4407 9.83274 13.5 9.97582 13.5 10.125C13.5 10.2742 13.4407 10.4173 13.3352 10.5227C13.2298 10.6282 13.0867 10.6875 12.9375 10.6875C12.7883 10.6875 12.6452 10.6282 12.5398 10.5227C12.4343 10.4173 12.375 10.2742 12.375 10.125C12.375 9.97582 12.4343 9.83274 12.5398 9.72725C12.6452 9.62176 12.7883 9.5625 12.9375 9.5625Z" fill="white"/>
</svg>
