<svg width="35" height="48" viewBox="0 0 35 48" fill="none" xmlns="http://www.w3.org/2000/svg">
<g clip-path="url(#clip0_548_1398)">
<path d="M17.4654 47.1747C7.89529 47.1747 0.130859 39.4102 0.130859 29.8401C0.130859 21.6062 11.8858 6.15861 15.1722 2.00554C15.7139 1.32841 16.5174 0.949219 17.3841 0.949219H17.5467C18.4134 0.949219 19.2169 1.32841 19.7586 2.00554C23.045 6.15861 34.7999 21.6062 34.7999 29.8401C34.7999 39.4102 27.0355 47.1747 17.4654 47.1747ZM8.79813 31.2847C8.79813 30.4902 8.14809 29.8401 7.35359 29.8401C6.55909 29.8401 5.90904 30.4902 5.90904 31.2847C5.90904 36.8733 10.4323 41.3965 16.0209 41.3965C16.8154 41.3965 17.4654 40.7464 17.4654 39.9519C17.4654 39.1574 16.8154 38.5074 16.0209 38.5074C12.0303 38.5074 8.79813 35.2752 8.79813 31.2847Z" fill="url(#paint0_linear_548_1398)"/>
</g>
<defs>
<linearGradient id="paint0_linear_548_1398" x1="17.4654" y1="0.949219" x2="17.4654" y2="47.1747" gradientUnits="userSpaceOnUse">
<stop stop-color="#FF0000"/>
<stop offset="1" stop-color="#EB0C0C"/>
</linearGradient>
<clipPath id="clip0_548_1398">
<rect width="34.6691" height="46.2255" fill="white" transform="translate(0.130859 0.949219)"/>
</clipPath>
</defs>
</svg>
