<svg width="17" height="14" viewBox="0 0 17 14" fill="none" xmlns="http://www.w3.org/2000/svg">
<path d="M3.825 0C4.38859 0 4.92909 0.230468 5.3276 0.640704C5.72612 1.05094 5.95 1.60734 5.95 2.1875C5.95 2.76766 5.72612 3.32406 5.3276 3.7343C4.92909 4.14453 4.38859 4.375 3.825 4.375C3.26142 4.375 2.72091 4.14453 2.3224 3.7343C1.92388 3.32406 1.7 2.76766 1.7 2.1875C1.7 1.60734 1.92388 1.05094 2.3224 0.640704C2.72091 0.230468 3.26142 0 3.825 0ZM13.6 0C14.1636 0 14.7041 0.230468 15.1026 0.640704C15.5011 1.05094 15.725 1.60734 15.725 2.1875C15.725 2.76766 15.5011 3.32406 15.1026 3.7343C14.7041 4.14453 14.1636 4.375 13.6 4.375C13.0364 4.375 12.4959 4.14453 12.0974 3.7343C11.6989 3.32406 11.475 2.76766 11.475 2.1875C11.475 1.60734 11.6989 1.05094 12.0974 0.640704C12.4959 0.230468 13.0364 0 13.6 0ZM0 8.16758C0 6.55703 1.26969 5.25 2.83422 5.25H3.96844C4.39078 5.25 4.79188 5.3457 5.15313 5.51523C5.11859 5.71211 5.10266 5.91719 5.10266 6.125C5.10266 7.16953 5.54891 8.10742 6.25281 8.75C6.2475 8.75 6.24219 8.75 6.23422 8.75H0.565781C0.255 8.75 0 8.4875 0 8.16758ZM10.7658 8.75C10.7605 8.75 10.7552 8.75 10.7472 8.75C11.4538 8.10742 11.8973 7.16953 11.8973 6.125C11.8973 5.91719 11.8788 5.71484 11.8469 5.51523C12.2081 5.34297 12.6092 5.25 13.0316 5.25H14.1658C15.7303 5.25 17 6.55703 17 8.16758C17 8.49023 16.745 8.75 16.4342 8.75H10.7658ZM5.95 6.125C5.95 5.42881 6.21866 4.76113 6.69688 4.26884C7.1751 3.77656 7.8237 3.5 8.5 3.5C9.1763 3.5 9.82491 3.77656 10.3031 4.26884C10.7813 4.76113 11.05 5.42881 11.05 6.125C11.05 6.82119 10.7813 7.48887 10.3031 7.98116C9.82491 8.47344 9.1763 8.75 8.5 8.75C7.8237 8.75 7.1751 8.47344 6.69688 7.98116C6.21866 7.48887 5.95 6.82119 5.95 6.125ZM3.4 13.2699C3.4 11.2574 4.98578 9.625 6.94078 9.625H10.0592C12.0142 9.625 13.6 11.2574 13.6 13.2699C13.6 13.6719 13.2839 14 12.8908 14H4.10922C3.71875 14 3.4 13.6746 3.4 13.2699Z" fill="white"/>
</svg>
