<svg width="13" height="12" viewBox="0 0 13 12" fill="none" xmlns="http://www.w3.org/2000/svg">
<path d="M0 1.625C0 0.728711 0.728711 0 1.625 0H11.375C12.2713 0 13 0.728711 13 1.625V9.75C13 10.6463 12.2713 11.375 11.375 11.375H1.625C0.728711 11.375 0 10.6463 0 9.75V1.625ZM8.22148 4.3291C8.10723 4.16152 7.91934 4.0625 7.71875 4.0625C7.51816 4.0625 7.32773 4.16152 7.21602 4.3291L5.00703 7.56895L4.33418 6.72852C4.21738 6.58379 4.04219 6.5 3.85938 6.5C3.67656 6.5 3.49883 6.58379 3.38457 6.72852L1.75957 8.75977C1.6123 8.94258 1.58438 9.19394 1.68594 9.40469C1.7875 9.61543 2.00078 9.75 2.23438 9.75H4.67188H5.48438H10.7656C10.9916 9.75 11.1998 9.62559 11.3039 9.425C11.408 9.22441 11.3953 8.9832 11.2684 8.79785L8.22148 4.3291ZM2.84375 4.0625C3.5166 4.0625 4.0625 3.5166 4.0625 2.84375C4.0625 2.1709 3.5166 1.625 2.84375 1.625C2.1709 1.625 1.625 2.1709 1.625 2.84375C1.625 3.5166 2.1709 4.0625 2.84375 4.0625Z" fill="url(#paint0_linear_548_1471)"/>
<defs>
<linearGradient id="paint0_linear_548_1471" x1="6.5" y1="0" x2="6.5" y2="11.375" gradientUnits="userSpaceOnUse">
<stop stop-color="#44AB66"/>
<stop offset="1" stop-color="#69A75D"/>
</linearGradient>
</defs>
</svg>
