<svg width="41" height="34" viewBox="0 0 41 34" fill="none" xmlns="http://www.w3.org/2000/svg">
<path d="M18.2818 33.1536L3.81172 20.0536V20.0536C3.42117 19.702 3.68865 19.0908 4.2142 19.0908H9.82559C11.6354 19.0908 13.2689 18.0347 13.9656 16.4117V16.4117C14.2905 15.6557 15.3568 15.6403 15.7034 16.3867L18.7543 22.9578C19.0586 23.6179 19.7232 24.045 20.468 24.0527C21.2127 24.0605 21.8934 23.6645 22.2297 23.02L25.489 16.6914C25.546 16.5807 25.7041 16.5807 25.7611 16.6913V16.6913C26.5219 18.1667 28.0754 19.0985 29.773 19.0985H36.7858C37.3114 19.0985 37.5788 19.7097 37.1883 20.0614V20.0614L22.7182 33.1536C22.1176 33.6972 21.3248 34 20.5 34C19.6752 34 18.8824 33.6972 18.2818 33.1536ZM40.7283 14.0197C40.5442 14.8404 39.7755 15.3634 38.9344 15.3634H29.765C29.5248 15.3634 29.3006 15.2314 29.1885 15.0218L27.3307 11.4265C27.0023 10.7975 26.3377 10.3937 25.609 10.3937C24.8803 10.3937 24.2156 10.7897 23.8873 11.4265L22.4488 14.2164C21.6856 15.6966 19.5535 15.6502 18.8554 14.1383L16.4881 9.01148C16.1758 8.33591 15.4711 7.90105 14.7104 7.91659C13.9496 7.93212 13.2609 8.37473 12.9646 9.06584L10.4182 14.9907C10.3221 15.2237 10.0818 15.3712 9.82559 15.3712H1.28125V15.3712C0.94777 15.3712 0.605364 15.2137 0.506764 14.8951C0.173851 13.8195 0 12.6935 0 11.5507V11.1003C0 5.67243 4.04395 1.04435 9.56133 0.151352C13.2129 -0.438805 16.9285 0.718215 19.5391 3.24968V3.24968C20.0745 3.76889 20.9255 3.76889 21.4609 3.24968V3.24968C24.0715 0.718215 27.7871 -0.438805 31.4387 0.151352C36.9561 1.04435 41 5.67243 41 11.1003V11.5507C41 12.3879 40.9087 13.2156 40.7283 14.0197Z" fill="url(#paint0_linear_548_1426)"/>
<defs>
<linearGradient id="paint0_linear_548_1426" x1="20.5" y1="0" x2="20.5" y2="34" gradientUnits="userSpaceOnUse">
<stop stop-color="#FF7867"/>
<stop offset="1" stop-color="#FF3A21"/>
</linearGradient>
</defs>
</svg>
