<svg width="17" height="20" viewBox="0 0 17 20" fill="none" xmlns="http://www.w3.org/2000/svg">
<path d="M0 2.5C0 1.12109 1.08906 0 2.42857 0H8.5V5C8.5 5.69141 9.04263 6.25 9.71429 6.25H14.5714V11.875H11.2321H10.3214H6.98214H6.07143C4.73192 11.875 3.64286 12.9961 3.64286 14.375V17.5V19.375V20H2.42857C1.08906 20 0 18.8789 0 17.5V2.5ZM14.5714 5H9.71429V0L14.5714 5ZM6.07143 13.75H6.98214C8.15469 13.75 9.10714 14.7305 9.10714 15.9375C9.10714 17.1445 8.15469 18.125 6.98214 18.125H6.67857V19.375C6.67857 19.7188 6.40536 20 6.07143 20C5.7375 20 5.46429 19.7188 5.46429 19.375V17.5V14.375C5.46429 14.0312 5.7375 13.75 6.07143 13.75ZM6.98214 16.875C7.48683 16.875 7.89286 16.457 7.89286 15.9375C7.89286 15.418 7.48683 15 6.98214 15H6.67857V16.875H6.98214ZM10.3214 13.75H11.2321C12.2377 13.75 13.0536 14.5898 13.0536 15.625V18.125C13.0536 19.1602 12.2377 20 11.2321 20H10.3214C9.9875 20 9.71429 19.7188 9.71429 19.375V14.375C9.71429 14.0312 9.9875 13.75 10.3214 13.75ZM11.2321 18.75C11.5661 18.75 11.8393 18.4688 11.8393 18.125V15.625C11.8393 15.2812 11.5661 15 11.2321 15H10.9286V18.75H11.2321ZM13.9643 14.375C13.9643 14.0312 14.2375 13.75 14.5714 13.75H16.3929C16.7268 13.75 17 14.0312 17 14.375C17 14.7188 16.7268 15 16.3929 15H15.1786V16.25H16.3929C16.7268 16.25 17 16.5312 17 16.875C17 17.2188 16.7268 17.5 16.3929 17.5H15.1786V19.375C15.1786 19.7188 14.9054 20 14.5714 20C14.2375 20 13.9643 19.7188 13.9643 19.375V16.875V14.375Z" fill="url(#paint0_linear_561_1320)"/>
<defs>
<linearGradient id="paint0_linear_561_1320" x1="8.5" y1="0" x2="8.5" y2="20" gradientUnits="userSpaceOnUse">
<stop stop-color="#339A14"/>
<stop offset="1" stop-color="#26730F"/>
</linearGradient>
</defs>
</svg>
