<svg width="47" height="43" viewBox="0 0 47 43" fill="none" xmlns="http://www.w3.org/2000/svg">
<path d="M45.3729 14.7887H34.7055C34.342 14.7887 34.0152 15.0274 33.8801 15.3649L31.378 21.6291L29.3489 12.8413C29.2555 12.4361 28.8964 12.1534 28.4777 12.1545C28.0618 12.1568 27.7032 12.4483 27.6143 12.8545L22.6318 35.6326L19.5897 1.41039C19.5538 1.00673 19.2496 0.678639 18.8501 0.61228C18.45 0.546463 18.0564 0.740664 17.892 1.11083L11.015 16.5666H0.925314C0.434439 16.5666 0.036377 16.9646 0.036377 17.4555C0.036377 17.9465 0.434439 18.3444 0.925314 18.3444H11.5927C11.944 18.3444 12.2624 18.155 12.4051 17.834L18.1228 4.97779L21.3747 41.5663C21.4135 42.0037 21.7658 42.3492 22.2038 42.3771C22.223 42.3782 22.2418 42.3799 22.2607 42.3799C22.6756 42.3799 23.0389 42.0917 23.1286 41.6814L28.506 17.0991L30.2835 24.8016C30.3708 25.1802 30.6941 25.4583 31.0815 25.4881C31.4709 25.5182 31.8307 25.2753 31.9751 24.9145L35.3074 16.5665H45.373C45.8639 16.5665 46.2619 16.1684 46.2619 15.6775C46.2618 15.1867 45.8638 14.7887 45.3729 14.7887Z" fill="url(#paint0_linear_548_1437)"/>
<defs>
<linearGradient id="paint0_linear_548_1437" x1="23.1491" y1="0.599609" x2="23.1491" y2="42.3799" gradientUnits="userSpaceOnUse">
<stop stop-color="#729D60"/>
<stop offset="1" stop-color="#38871B"/>
</linearGradient>
</defs>
</svg>
