<svg width="11" height="15" viewBox="0 0 11 15" fill="none" xmlns="http://www.w3.org/2000/svg">
<path d="M1.83333 0C0.822135 0 0 0.84082 0 1.875V13.125C0 14.1592 0.822135 15 1.83333 15H9.16667C10.1779 15 11 14.1592 11 13.125V4.6875H7.33333C6.8263 4.6875 6.41667 4.26855 6.41667 3.75V0H1.83333ZM7.33333 0V3.75H11L7.33333 0ZM2.97917 5.74219H5.04167C5.98984 5.74219 6.76042 6.53027 6.76042 7.5C6.76042 8.24707 6.30495 8.88281 5.66328 9.1377L6.89505 10.3184L7.86328 9.41016C8.09531 9.19043 8.45911 9.20801 8.67396 9.44531C8.8888 9.68262 8.87161 10.0547 8.63958 10.2744L7.73438 11.124L8.64245 11.9941C8.87448 12.2168 8.88594 12.5859 8.66823 12.8232C8.45052 13.0605 8.08958 13.0723 7.85755 12.8496L6.88646 11.918L5.88672 12.8555C5.65469 13.0752 5.29089 13.0576 5.07604 12.8203C4.8612 12.583 4.87839 12.2109 5.11042 11.9912L6.04427 11.1152L4.18802 9.33398C4.16224 9.31055 4.14219 9.28418 4.12214 9.25781H3.55208V10.5469C3.55208 10.8691 3.29427 11.1328 2.97917 11.1328C2.66406 11.1328 2.40625 10.8691 2.40625 10.5469V8.67188V6.32812C2.40625 6.00586 2.66406 5.74219 2.97917 5.74219ZM5.04167 8.08594C5.35677 8.08594 5.61458 7.82227 5.61458 7.5C5.61458 7.17773 5.35677 6.91406 5.04167 6.91406H3.55208V8.08594H5.04167Z" fill="url(#paint0_linear_561_1317)"/>
<defs>
<linearGradient id="paint0_linear_561_1317" x1="5.5" y1="0" x2="5.5" y2="15" gradientUnits="userSpaceOnUse">
<stop stop-color="#339A14"/>
<stop offset="1" stop-color="#26730F"/>
</linearGradient>
</defs>
</svg>
