<svg width="25" height="47" viewBox="0 0 25 47" fill="none" xmlns="http://www.w3.org/2000/svg">
<path d="M12.5 5.875C10.1997 5.875 8.33333 7.84863 8.33333 10.2812V25.3818C8.33333 26.9699 7.71701 28.3102 7.00521 29.2832C6.09375 30.5316 5.55556 32.083 5.55556 33.7812C5.55556 37.8387 8.66319 41.125 12.5 41.125C16.3368 41.125 19.4444 37.8387 19.4444 33.7812C19.4444 32.083 18.9062 30.5316 17.9948 29.2924C17.283 28.3193 16.6667 26.9791 16.6667 25.391V10.2812C16.6667 7.84863 14.8003 5.875 12.5 5.875ZM2.77778 10.2812C2.77778 4.6082 7.12674 0 12.5 0C17.8733 0 22.2222 4.59902 22.2222 10.2812V25.3818C22.2222 25.391 22.2309 25.4094 22.2396 25.4369C22.2569 25.492 22.309 25.5838 22.3872 25.6939C24.0278 27.9338 25 30.7428 25 33.7812C25 41.0791 19.401 47 12.5 47C5.59896 47 0 41.0791 0 33.7812C0 30.7336 0.972222 27.9246 2.61285 25.6939C2.69097 25.5838 2.74306 25.492 2.76042 25.4369C2.7691 25.4094 2.77778 25.391 2.77778 25.3818V10.2812V10.2812ZM16.6667 33.7812C16.6667 36.2139 14.8003 38.1875 12.5 38.1875C10.1997 38.1875 8.33333 36.2139 8.33333 33.7812C8.33333 31.8627 9.49653 30.2287 11.1111 29.6229V13.9531C11.1111 13.1453 11.7361 12.4844 12.5 12.4844C13.2639 12.4844 13.8889 13.1453 13.8889 13.9531V29.6229C15.5035 30.2287 16.6667 31.8627 16.6667 33.7812Z" fill="url(#paint0_linear_548_1432)"/>
<defs>
<linearGradient id="paint0_linear_548_1432" x1="12.5" y1="0" x2="12.5" y2="47" gradientUnits="userSpaceOnUse">
<stop stop-color="#FB9013"/>
<stop offset="1" stop-color="#D33410"/>
</linearGradient>
</defs>
</svg>
