<svg width="29" height="34" viewBox="0 0 29 34" fill="none" xmlns="http://www.w3.org/2000/svg">
<g clip-path="url(#clip0_1051_40)">
<path d="M14.5 16.5714C19.0766 16.5714 22.7857 12.8623 22.7857 8.28571C22.7857 3.70915 19.0766 0 14.5 0C9.92344 0 6.21429 3.70915 6.21429 8.28571C6.21429 12.8623 9.92344 16.5714 14.5 16.5714ZM20.3 18.6429H19.219C17.7819 19.3031 16.183 19.6786 14.5 19.6786C12.817 19.6786 11.2246 19.3031 9.78103 18.6429H8.7C3.89687 18.6429 0 22.5397 0 27.3429V30.0357C0 31.7511 1.39174 33.1429 3.10714 33.1429H25.8929C27.6083 33.1429 29 31.7511 29 30.0357V27.3429C29 22.5397 25.1031 18.6429 20.3 18.6429Z" fill="url(#paint0_linear_1051_40)"/>
</g>
<defs>
<linearGradient id="paint0_linear_1051_40" x1="14.5" y1="0" x2="14.5" y2="33.1429" gradientUnits="userSpaceOnUse">
<stop stop-color="#7BA957"/>
<stop offset="1" stop-color="#3B58A6"/>
</linearGradient>
<clipPath id="clip0_1051_40">
<rect width="29" height="33.1429" fill="white"/>
</clipPath>
</defs>
</svg>
