<svg width="57" height="57" viewBox="0 0 57 57" fill="none" xmlns="http://www.w3.org/2000/svg">
<path d="M6.07652e-06 27.9456C-0.00258346 31.86 0.822515 35.7314 2.42198 39.3096C4.02145 42.8878 6.35969 46.0932 9.28562 48.7186C10.2005 49.5567 11.1774 50.3255 12.2082 51.0186C12.7393 51.4126 13.3359 51.7416 13.9325 52.1366C14.134 52.2676 14.397 52.3996 14.5956 52.5306C14.9271 52.7306 15.2587 52.8596 15.5902 53.0566C16.3441 53.4466 17.1178 53.7977 17.9081 54.1086C18.6829 54.4304 19.481 54.6941 20.2955 54.8976C21.1582 55.1606 22.0198 55.3576 22.949 55.5546C24.7189 55.8988 26.5178 56.0749 28.3214 56.0806C32.2776 56.0944 36.1907 55.2651 39.7959 53.6486C39.9289 53.5826 40.1275 53.5176 40.2605 53.4486L40.6586 53.2486C41.3217 52.9196 41.9848 52.5916 42.6479 52.1966C42.9141 52.0826 43.1604 51.9273 43.3775 51.7366C45.1312 50.6277 46.7538 49.3269 48.2148 47.8586L48.5464 47.5296C49.011 47.0036 49.4746 46.5436 49.9391 46.0176C50.0107 45.8956 50.1 45.7847 50.2042 45.6886C50.7499 45.0159 51.2592 44.3149 51.73 43.5886C54.1771 39.9524 55.7328 35.7984 56.2727 31.4589C56.8126 27.1194 56.3218 22.7147 54.8394 18.597C53.357 14.4794 50.9242 10.7631 47.7356 7.74528C44.5469 4.72745 40.6909 2.49183 36.4758 1.2172C32.2607 -0.057423 27.8036 -0.335697 23.4607 0.404633C19.1179 1.14496 15.0099 2.88336 11.4652 5.48081C7.9205 8.07825 5.03748 11.4627 3.04667 15.3635C1.05585 19.2642 0.0124899 23.5731 6.07652e-06 27.9456Z" fill="#BCC3FF"/>
<path d="M36.4119 26.6961C36.4119 26.6961 26.6627 30.771 19.2999 27.4851C19.2999 27.4851 18.2387 14.5351 21.4888 12.2341C21.4888 12.2341 21.8868 8.48705 29.1821 9.07905C36.4774 9.67105 39.0653 18.8071 36.4119 26.6961Z" fill="#4E2722"/>
<path d="M13.1988 39.5153C13.5999 37.8199 14.2247 36.1844 15.0572 34.6513C15.1305 34.5454 15.1978 34.4356 15.2587 34.3223L16.1869 35.3743L22.1519 41.8163L21.8868 55.2923C21.3557 55.1613 20.7591 55.0293 20.229 54.8983C19.4329 54.6353 18.5713 54.3723 17.8416 54.1093C17.0513 53.7984 16.2777 53.4472 15.5238 53.0573C15.179 52.9078 14.8464 52.7319 14.5291 52.5313C14.3275 52.4003 14.0645 52.2683 13.866 52.1373C13.3349 51.8743 12.8713 51.5453 12.3402 51.2173C12.6677 45.6293 12.9328 40.6983 13.1988 39.5153Z" fill="#EB5D4A"/>
<path d="M15.2566 34.3234V34.7834L15.3866 43.3984L15.5196 52.3384V52.9954C16.2735 53.3853 17.0472 53.7365 17.8375 54.0474C18.6123 54.3692 19.4104 54.6329 20.2249 54.8364C21.0876 55.0994 21.9492 55.2964 22.8784 55.4934C24.6483 55.8375 26.4472 56.0137 28.2508 56.0194C32.207 56.0332 36.1201 55.2038 39.7253 53.5874C39.8583 53.5214 40.0569 53.4564 40.1899 53.3874L40.588 53.1874C41.2511 52.8584 41.9142 52.5304 42.5773 52.1354L42.6438 50.8864L42.9089 44.9044V44.1154L43.0419 41.2234V40.6984L43.3734 33.7984C41.8776 32.6722 40.2541 31.7234 38.5361 30.9714C36.865 30.2094 35.1046 29.6571 33.2957 29.3274H33.2292C33.0962 29.3274 32.9642 29.2614 32.7646 29.2614C32.5651 29.1984 32.3 29.1984 32.1005 29.1294C31.1987 29.0186 30.2899 28.9748 29.3815 28.9984C29.1144 28.9876 28.847 29.0098 28.5854 29.0644C27.7152 29.1008 26.8498 29.2108 25.9984 29.3934C25.962 29.3886 25.925 29.392 25.8901 29.4035C25.8552 29.4149 25.8233 29.434 25.7969 29.4594C25.5953 29.4594 25.4653 29.5254 25.2658 29.5254C25.1328 29.5904 24.9373 29.5904 24.7387 29.6554C22.9938 30.0763 21.3032 30.694 19.6999 31.4964C19.4699 31.633 19.2252 31.7433 18.9702 31.8254C18.9037 31.8254 18.9037 31.8914 18.8372 31.8914C17.5017 32.6316 16.2359 33.4894 15.0551 34.4544C15.3201 34.2574 15.2566 34.3234 15.2566 34.3234Z" fill="#FF7867"/>
<path d="M36.4794 39.4492L42.7135 51.5492V52.0752C42.0504 52.4692 41.3872 52.7982 40.7241 53.1272L40.3261 53.3272C40.193 53.3932 39.9945 53.4582 39.8615 53.5272C38.1743 54.26 36.4197 54.8289 34.6221 55.2262L36.4794 39.4492Z" fill="#EB5D4A"/>
<path d="M23.2795 29.8524C23.8204 29.6599 24.3744 29.5058 24.9373 29.3914C25.0704 29.3254 25.2689 29.3254 25.4684 29.2604C25.6392 29.2017 25.8205 29.1793 26.0005 29.1944C26.037 29.1992 26.074 29.1957 26.1089 29.1843C26.1438 29.1728 26.1757 29.1537 26.2021 29.1284C27.0597 28.9974 27.9223 28.8654 28.785 28.8004C29.0518 28.811 29.3189 28.7889 29.5801 28.7344C30.5083 28.7344 31.4375 28.8004 32.3011 28.8654C32.5273 28.8772 32.7507 28.9213 32.9642 28.9964C33.0973 28.9964 33.2958 29.0624 33.4288 29.0624H33.4953C33.9884 29.1407 34.4758 29.2506 34.9546 29.3914C34.49 31.6264 33.1638 35.5054 29.0521 35.7674C25.0038 36.0974 23.4126 32.7444 23.2795 29.8524Z" fill="white"/>
<path d="M35.5502 38.7276C35.6167 38.5346 35.6167 38.3346 35.6822 38.1346C35.9982 36.7564 36.7127 35.4997 37.738 34.5186C37.8711 34.3876 38.0031 34.3186 38.0696 34.1896C38.6362 33.7618 39.2945 33.4692 39.9934 33.3346C41.0137 33.0239 42.1105 33.0697 43.1008 33.4644C44.0912 33.8591 44.9152 34.5789 45.4354 35.5036C46.1205 36.5972 46.6127 37.7987 46.8906 39.0566C47.2222 40.6346 47.9518 44.2496 48.5484 47.5366L48.2834 47.7996C46.8083 49.2524 45.1875 50.5519 43.4461 51.6776C43.181 51.8086 42.9815 52.0066 42.7164 52.1376C42.0533 52.5316 41.3902 52.8606 40.7271 53.1896L40.329 53.3896C40.196 53.4556 39.9975 53.5206 39.8644 53.5896C39.2013 53.8526 38.5382 54.1156 37.8086 54.3786C37.477 52.6696 37.0124 50.6316 37.0124 50.4346C36.5479 48.5936 36.1498 46.8186 35.8847 45.4346C35.7487 44.8416 35.6167 44.3156 35.5502 43.8546C35.2185 42.1614 35.2185 40.4207 35.5502 38.7276Z" fill="#FF7867"/>
<path d="M22.5499 13.6152C22.5499 13.6152 18.5088 25.1852 25.8 25.7152L25.4019 30.3152C25.677 31.0984 26.2176 31.7625 26.9313 32.1942C27.6449 32.6259 28.4875 32.7984 29.3151 32.6822C32.4987 32.4822 32.9632 29.1322 32.9632 29.1322L32.0351 21.1122L30.2443 18.3482L29.7132 15.9152C29.6467 15.9152 25.2034 17.0332 22.5499 13.6152Z" fill="#E89A83"/>
<path d="M32.8119 16.6351C33.2667 16.6929 33.694 16.8832 34.0397 17.182C34.3855 17.4807 34.6342 17.8745 34.7545 18.3135C34.8747 18.7525 34.8611 19.217 34.7153 19.6484C34.5694 20.0797 34.298 20.4584 33.9353 20.7366C33.5725 21.0149 33.1348 21.1801 32.6774 21.2115C32.22 21.2429 31.7635 21.139 31.3657 20.9129C30.9678 20.6868 30.6464 20.3488 30.4422 19.9415C30.2379 19.5342 30.16 19.0759 30.2182 18.6246C30.2963 18.0195 30.6134 17.47 31.0998 17.0969C31.5862 16.7238 32.2021 16.5577 32.8119 16.6351Z" fill="#E89A83"/>
<path d="M25.801 25.711C26.5024 25.8526 27.2262 25.8437 27.9239 25.6851C28.6215 25.5264 29.2769 25.2216 29.8462 24.791C29.8462 24.791 29.3826 27.355 25.668 27.491L25.801 25.711Z" fill="#D6735C"/>
</svg>
