<svg width="40" height="40" viewBox="0 0 40 40" fill="none" xmlns="http://www.w3.org/2000/svg">
<g clip-path="url(#clip0_548_1419)">
<path d="M29.9273 13.829C29.9273 19.3002 25.4931 23.7344 20.0218 23.7344C14.5506 23.7344 10.1164 19.3002 10.1164 13.829C10.1164 8.35777 14.5506 3.92353 20.0218 3.92353C25.4931 3.92353 29.9273 8.35777 29.9273 13.829ZM30.5309 5.16171C28.0313 2.1359 24.2549 0.208984 20.0218 0.208984C15.7888 0.208984 12.0124 2.1359 9.51278 5.16171H5.16366C2.43193 5.16171 0.210938 7.3827 0.210938 10.1144V34.8781C0.210938 37.6098 2.43193 39.8308 5.16366 39.8308H34.88C37.6118 39.8308 39.8328 37.6098 39.8328 34.8781V10.1144C39.8328 7.3827 37.6118 5.16171 34.88 5.16171H30.5309ZM23.1173 17.5435C23.1173 16.7232 22.8 15.9803 22.2738 15.4231L24.874 9.36379C25.1448 8.73696 24.8508 8.00953 24.2239 7.73868C23.5971 7.46783 22.8697 7.76189 22.5988 8.38872L19.9986 14.4481C18.2961 14.4558 16.9264 15.841 16.9264 17.5435C16.9264 19.2538 18.3116 20.639 20.0218 20.639C21.7321 20.639 23.1173 19.2538 23.1173 17.5435Z" fill="url(#paint0_linear_548_1419)"/>
</g>
<defs>
<linearGradient id="paint0_linear_548_1419" x1="20.0218" y1="0.208984" x2="20.0218" y2="39.8308" gradientUnits="userSpaceOnUse">
<stop stop-color="#335AAA"/>
<stop offset="1" stop-color="#042873"/>
</linearGradient>
<clipPath id="clip0_548_1419">
<rect width="39.6218" height="39.6218" fill="white" transform="translate(0.210938 0.208984)"/>
</clipPath>
</defs>
</svg>
