<svg width="424" height="340" viewBox="0 0 424 340" fill="none" xmlns="http://www.w3.org/2000/svg">
<path d="M244.204 122.841C243.75 122.841 243.297 122.666 242.954 122.316C229.741 108.827 225.944 91.585 232.797 76.194C239.88 60.288 256.846 50.129 275.045 50.883C276.011 50.924 276.76 51.739 276.72 52.705C276.679 53.67 275.845 54.419 274.898 54.38C258.126 53.666 242.499 63.012 235.995 77.617C232.996 84.354 227.912 101.956 245.455 119.866C246.131 120.556 246.12 121.664 245.43 122.341C245.088 122.674 244.646 122.841 244.204 122.841Z" fill="#36417D"/>
<path d="M310.76 100.688C294.6 100.689 287.588 89.2626 284.977 83.0826C279.574 91.4276 270.421 96.8336 258.257 98.8076C248.018 100.469 239.347 99.1436 238.983 99.0866C238.029 98.9366 237.377 98.0416 237.526 97.0876C237.676 96.1336 238.563 95.4806 239.526 95.6296C239.859 95.6836 272.944 100.565 283.779 78.0816C284.102 77.4106 284.812 77.0206 285.555 77.1026C286.295 77.1876 286.9 77.7316 287.063 78.4576C287.245 79.2566 291.779 98.0576 312.198 97.1566C313.156 97.0946 313.982 97.8606 314.025 98.8256C314.069 99.7916 313.321 100.61 312.356 100.653C311.816 100.675 311.282 100.688 310.76 100.688Z" fill="#36417D"/>
<path d="M305.738 122.841C305.296 122.841 304.854 122.675 304.513 122.341C303.823 121.665 303.811 120.557 304.488 119.866C322.031 101.957 316.948 84.354 313.948 77.617C307.445 63.012 291.823 53.674 275.045 54.38C274.085 54.411 273.263 53.671 273.223 52.705C273.183 51.739 273.932 50.924 274.898 50.883C293.086 50.129 310.063 60.288 317.146 76.194C323.999 91.585 320.202 108.826 306.989 122.316C306.645 122.665 306.192 122.841 305.738 122.841Z" fill="#36417D"/>
<path d="M217.07 172.046C216.936 172.046 216.8 172.03 216.665 171.998C215.725 171.775 215.143 170.832 215.366 169.892C216.386 165.591 219.745 162.603 225.348 161.013L259.481 151.325L258.678 143.427C258.58 142.466 259.281 141.607 260.242 141.509C261.205 141.413 262.062 142.113 262.16 143.073L263.111 152.431C263.196 153.275 262.664 154.059 261.848 154.291L226.304 164.38C221.951 165.615 219.487 167.682 218.771 170.699C218.58 171.504 217.862 172.046 217.07 172.046Z" fill="#36417D"/>
<path d="M274.964 224.691C274.743 224.691 274.519 224.65 274.302 224.561C273.8 224.356 273.445 223.944 273.294 223.464L261.609 197.657C261.416 197.23 261.402 196.744 261.57 196.307L271.059 171.636L265.756 165.179C265.45 164.807 265.311 164.325 265.372 163.848C265.433 163.37 265.687 162.939 266.077 162.655L273.94 156.919C274.554 156.471 275.388 156.471 276.003 156.919L283.866 162.655C284.255 162.939 284.51 163.37 284.571 163.848C284.632 164.326 284.493 164.807 284.187 165.179L278.844 171.684L287.022 196.966C287.149 197.36 287.133 197.784 286.977 198.167L276.668 223.397C276.536 223.882 276.195 224.308 275.701 224.532C275.466 224.639 275.242 224.699 274.976 224.688C274.971 224.691 274.967 224.691 274.964 224.691ZM265.099 196.882L274.888 218.5L283.494 197.437L275.218 171.853C275.034 171.286 275.153 170.664 275.531 170.203L280.305 164.391L274.97 160.499L269.636 164.391L274.41 170.203C274.81 170.69 274.917 171.354 274.691 171.942L265.099 196.882Z" fill="#36417D"/>
<path d="M279.356 236.548C278.676 236.548 278.029 236.15 277.745 235.484L244.774 158.196C244.456 157.449 244.692 156.582 245.346 156.1C246 155.619 246.899 155.65 247.517 156.176L259.758 166.577L273.987 156.888C274.785 156.343 275.875 156.55 276.418 157.349C276.962 158.148 276.755 159.236 275.957 159.78L260.626 170.219C259.975 170.663 259.107 170.615 258.508 170.106L250.905 163.646L280.965 234.11C281.344 234.999 280.931 236.027 280.042 236.406C279.817 236.503 279.585 236.548 279.356 236.548Z" fill="#36417D"/>
<path d="M274.978 224.691C274.758 224.691 274.534 224.65 274.317 224.561C273.422 224.196 272.993 223.174 273.358 222.28L296.909 164.563L291.574 169.999C290.981 170.604 290.039 170.697 289.34 170.22L274.009 159.781C273.21 159.237 273.004 158.149 273.548 157.35C274.091 156.551 275.181 156.344 275.979 156.889L290.101 166.505L300.64 155.767C301.226 155.17 302.152 155.071 302.85 155.531C303.549 155.99 303.825 156.88 303.509 157.654L276.598 223.605C276.321 224.281 275.668 224.691 274.978 224.691Z" fill="#36417D"/>
<path d="M274.277 159.937C267.569 159.937 262.494 156.592 260.045 153.75C259.414 153.018 259.496 151.913 260.228 151.282C260.96 150.653 262.062 150.734 262.693 151.461C263.105 151.932 272.755 162.619 287.914 151.21C288.685 150.627 289.783 150.783 290.364 151.556C290.946 152.328 290.791 153.425 290.018 154.006C284.22 158.37 278.866 159.937 274.277 159.937Z" fill="#36417D"/>
<path d="M274.978 148.171C255.442 148.171 240.138 129.483 240.138 105.625C240.138 104.659 240.922 103.875 241.888 103.875C242.854 103.875 243.638 104.659 243.638 105.625C243.638 127.885 257.111 144.671 274.978 144.671C292.844 144.671 306.317 127.885 306.317 105.625C306.317 104.659 307.101 103.875 308.067 103.875C309.033 103.875 309.817 104.659 309.817 105.625C309.817 129.483 294.514 148.171 274.978 148.171Z" fill="#36417D"/>
<path d="M332.797 171.638C332.004 171.638 331.287 171.096 331.096 170.292C330.38 167.276 328.4 165.619 324.032 164.379L288.488 154.29C287.672 154.058 287.139 153.274 287.225 152.43L288.176 143.072C288.274 142.111 289.134 141.411 290.094 141.508C291.055 141.606 291.756 142.464 291.658 143.426L290.855 151.324L324.987 161.012C328.965 162.141 333.206 164.03 334.501 169.483C334.724 170.424 334.143 171.366 333.203 171.59C333.067 171.623 332.931 171.638 332.797 171.638Z" fill="#36417D"/>
<path d="M170.055 156.416C151.046 156.416 136.711 138.955 136.711 115.8C136.711 114.834 137.495 114.05 138.461 114.05C139.427 114.05 140.211 114.834 140.211 115.8C140.211 136.96 153.041 152.916 170.055 152.916C187.069 152.916 199.899 136.96 199.899 115.8C199.899 114.834 200.683 114.05 201.649 114.05C202.615 114.05 203.399 114.834 203.399 115.8C203.4 138.955 189.065 156.416 170.055 156.416Z" fill="#6E2B72"/>
<path d="M137.318 166.164C124.251 166.165 116.139 148.988 115.789 148.234C115.451 147.504 115.654 146.637 116.281 146.133C128.807 136.077 127.509 125.143 126.134 113.566C125.926 111.817 125.711 110.008 125.553 108.231C124.281 93.9818 127.796 81.8738 135.717 73.2128C143.824 64.3498 156.019 59.4688 170.055 59.4688C171.021 59.4688 171.805 60.2527 171.805 61.2188C171.805 62.1848 171.021 62.9688 170.055 62.9688C157.013 62.9688 145.735 67.4458 138.299 75.5748C131.058 83.4908 127.856 94.6747 129.039 107.919C129.193 109.645 129.405 111.428 129.61 113.152C130.934 124.298 132.429 136.892 119.573 147.947C121.631 151.769 128.731 163.46 138.311 162.619C139.28 162.538 140.123 163.25 140.205 164.212C140.288 165.175 139.575 166.023 138.612 166.106C138.175 166.146 137.744 166.164 137.318 166.164Z" fill="#6E2B72"/>
<path d="M202.77 165.99C202.355 165.99 201.937 165.973 201.513 165.94C200.55 165.864 199.83 165.021 199.906 164.058C199.982 163.095 200.814 162.377 201.788 162.451C211.644 163.232 218.532 151.732 220.518 147.959C207.648 136.901 209.145 124.304 210.469 113.154C210.674 111.43 210.886 109.647 211.04 107.921C212.223 94.6767 209.021 83.4927 201.78 75.5767C194.344 67.4477 183.067 62.9707 170.024 62.9707C169.058 62.9707 168.274 62.1867 168.274 61.2207C168.274 60.2547 169.058 59.4707 170.024 59.4707C184.061 59.4707 196.255 64.3517 204.362 73.2147C212.283 81.8747 215.798 93.9837 214.525 108.233C214.366 110.01 214.151 111.818 213.944 113.568C212.569 125.144 211.271 136.079 223.798 146.135C224.419 146.634 224.625 147.488 224.299 148.215C223.964 148.96 216.18 165.988 202.77 165.99Z" fill="#6E2B72"/>
<path d="M190.231 112.62C184.189 112.62 178.66 111.292 173.691 108.638C165.159 104.08 160.281 96.6857 157.793 91.6797C155.885 98.1997 152.695 103.023 148.272 106.058C141.452 110.739 134.271 109.326 133.967 109.263C133.021 109.068 132.412 108.142 132.607 107.195C132.802 106.25 133.726 105.642 134.67 105.834C134.792 105.859 140.799 106.97 146.339 103.139C151.084 99.8577 154.193 93.9597 155.578 85.6087C155.712 84.8027 156.385 84.1967 157.2 84.1487C158.011 84.1087 158.756 84.6217 158.985 85.4057C159.024 85.5397 163.12 99.0437 175.373 105.569C183.508 109.901 193.436 110.267 204.878 106.655C205.802 106.365 206.783 106.876 207.074 107.797C207.365 108.719 206.853 109.702 205.932 109.993C200.379 111.744 195.136 112.62 190.231 112.62Z" fill="#6E2B72"/>
<path d="M171.097 176.397H169.013C161.711 176.397 156.586 171.525 154.952 163.031C154.943 162.987 154.937 162.944 154.932 162.9L153.607 151.378C153.497 150.418 154.186 149.55 155.146 149.439C156.107 149.326 156.974 150.018 157.085 150.978L158.402 162.434C159.337 167.223 161.938 172.897 169.013 172.897H171.097C178.172 172.897 180.774 167.223 181.708 162.434L183.025 150.978C183.136 150.018 183.997 149.325 184.964 149.439C185.924 149.55 186.613 150.418 186.503 151.378L185.178 162.9C185.173 162.944 185.166 162.987 185.157 163.031C183.524 171.525 178.399 176.397 171.097 176.397Z" fill="#6E2B72"/>
<path d="M226.539 216.875C225.573 216.875 224.789 216.092 224.789 215.125V181.641C224.789 176.602 217.98 171.504 205.618 167.287C195.693 163.902 185.645 162.245 185.545 162.228C184.591 162.073 183.943 161.173 184.099 160.22C184.254 159.266 185.156 158.621 186.107 158.774C186.529 158.842 196.547 160.496 206.747 163.975C221.041 168.85 228.289 174.794 228.289 181.641V215.125C228.289 216.092 227.505 216.875 226.539 216.875Z" fill="#6E2B72"/>
<path d="M159.138 189.849C158.801 189.849 158.546 189.736 158.303 189.627C156.734 188.931 154.906 185.581 153.494 182.478C146.97 183.365 142.987 183.136 141.646 181.795C141.036 181.185 139.415 179.564 143.733 162.483C143.97 161.545 144.924 160.979 145.859 161.215C146.796 161.452 147.364 162.403 147.127 163.341C145.537 169.631 144.08 177.199 144.29 179.321C145.693 179.667 150.1 179.46 154.297 178.828C155.076 178.705 155.85 179.135 156.165 179.865C157.223 182.317 158.539 184.8 159.346 185.928C161.299 184.238 165.954 178.584 169.699 173.597C170.279 172.824 171.376 172.668 172.149 173.248C172.922 173.828 173.078 174.925 172.498 175.698C163.326 187.915 160.53 189.849 159.138 189.849Z" fill="#6E2B72"/>
<path d="M180.973 189.85C179.581 189.85 176.787 187.916 167.615 175.698C167.034 174.925 167.191 173.828 167.964 173.248C168.738 172.669 169.835 172.823 170.414 173.597C174.159 178.585 178.814 184.238 180.767 185.928C181.574 184.8 182.891 182.318 183.948 179.865C184.262 179.136 185.028 178.702 185.815 178.828C190.013 179.459 194.419 179.663 195.822 179.321C196.032 177.199 194.575 169.631 192.986 163.341C192.749 162.404 193.317 161.452 194.254 161.215C195.188 160.978 196.142 161.545 196.38 162.483C200.698 179.563 199.078 181.184 198.468 181.795C197.126 183.135 193.143 183.363 186.62 182.478C185.208 185.581 183.38 188.931 181.81 189.628C181.565 189.736 181.31 189.85 180.973 189.85Z" fill="#6E2B72"/>
<path d="M117.377 177.075C116.968 177.075 116.557 176.932 116.225 176.642C115.498 176.005 115.424 174.9 116.06 174.172C125.337 163.567 153.575 158.964 154.772 158.773C155.73 158.619 156.624 159.272 156.775 160.226C156.927 161.18 156.277 162.078 155.322 162.229C155.041 162.274 127.139 166.82 118.694 176.476C118.348 176.872 117.863 177.075 117.377 177.075Z" fill="#6E2B72"/>
<path d="M58.3733 236.74C57.8753 236.74 57.3813 236.529 57.0353 236.119C45.1163 222.007 42.2883 204.837 49.4683 190.19C56.7853 175.265 72.7363 166.479 91.0793 167.247C92.0453 167.288 92.7943 168.104 92.7543 169.069C92.7143 170.034 91.8873 170.783 90.9323 170.743C73.9943 170.028 59.3073 178.07 52.6113 191.729C46.0613 205.091 48.7143 220.84 59.7093 233.86C60.3333 234.598 60.2403 235.703 59.5013 236.326C59.1733 236.604 58.7713 236.74 58.3733 236.74Z" fill="#E08C4C"/>
<path d="M91.0055 267.662C71.1865 267.662 55.0625 247.079 55.0625 221.778C55.0625 220.811 55.8465 220.028 56.8125 220.028C57.7785 220.028 58.5625 220.811 58.5625 221.778C58.5625 245.148 73.1165 264.162 91.0055 264.162C108.895 264.162 123.449 245.148 123.449 221.778C123.449 220.811 124.233 220.028 125.199 220.028C126.165 220.028 126.949 220.811 126.949 221.778C126.95 247.079 110.826 267.662 91.0055 267.662Z" fill="#E08C4C"/>
<path d="M123.639 236.739C123.24 236.739 122.839 236.603 122.511 236.326C121.772 235.703 121.679 234.598 122.303 233.86C133.298 220.84 135.951 205.091 129.401 191.73C122.705 178.071 108.014 170.03 91.0804 170.743C90.1094 170.778 89.2984 170.034 89.2584 169.069C89.2184 168.103 89.9674 167.288 90.9334 167.247C109.288 166.49 125.228 175.265 132.544 190.19C139.725 204.836 136.896 222.006 124.978 236.119C124.63 236.528 124.136 236.739 123.639 236.739Z" fill="#E08C4C"/>
<path d="M127.913 216.962C127.29 216.962 115.892 216.677 114.004 196.946C109.885 197.791 100.091 199.579 91.0066 199.579C81.9226 199.579 72.1286 197.791 68.0096 196.946C66.1216 216.675 54.7256 216.962 54.1006 216.962C54.0976 216.962 54.0936 216.962 54.0906 216.962C53.1246 216.957 52.3446 216.169 52.3496 215.203C52.3546 214.239 53.1376 213.462 54.0996 213.462C54.1026 213.462 54.1056 213.462 54.1086 213.462C54.4756 213.454 63.5946 213.067 64.6706 194.711C64.7006 194.196 64.9566 193.722 65.3696 193.412C65.7826 193.102 66.3106 192.991 66.8126 193.108C66.9406 193.138 79.7756 196.079 91.0056 196.079C102.236 196.079 115.072 193.139 115.2 193.108C115.702 192.991 116.23 193.102 116.643 193.412C117.056 193.722 117.311 194.196 117.342 194.711C118.418 213.067 127.537 213.454 127.925 213.462C128.883 213.48 129.659 214.266 129.652 215.225C129.645 216.183 128.881 216.957 127.922 216.962C127.92 216.962 127.916 216.962 127.913 216.962Z" fill="#E08C4C"/>
<path d="M30.2462 305.076C29.2892 305.076 28.5072 304.305 28.4972 303.345C28.4152 295.89 28.4372 292.044 28.4622 287.59C28.4762 285.173 28.4912 282.568 28.4912 279.095C28.4912 246.639 59.6372 242.153 59.9522 242.111C60.9042 241.986 61.7892 242.659 61.9162 243.617C62.0422 244.576 61.3682 245.455 60.4102 245.582C59.2522 245.737 31.9912 249.745 31.9912 279.096C31.9912 282.577 31.9762 285.188 31.9622 287.612C31.9372 292.05 31.9152 295.882 31.9972 303.307C32.0082 304.274 31.2332 305.066 30.2662 305.077C30.2592 305.076 30.2532 305.076 30.2462 305.076Z" fill="#E08C4C"/>
<path d="M55.3965 303.881C54.4305 303.881 53.6465 303.098 53.6465 302.131V285.435C53.6465 284.468 54.4305 283.685 55.3965 283.685C56.3625 283.685 57.1465 284.468 57.1465 285.435V302.131C57.1465 303.097 56.3625 303.881 55.3965 303.881Z" fill="#E08C4C"/>
<path d="M149.916 339.232C148.95 339.232 148.166 338.449 148.166 337.482V279.095C148.166 251.464 122.565 245.787 121.476 245.559C120.531 245.362 119.924 244.435 120.12 243.49C120.316 242.546 121.241 241.936 122.186 242.133C122.481 242.194 151.666 248.576 151.666 279.096V337.483C151.666 338.449 150.883 339.232 149.916 339.232Z" fill="#E08C4C"/>
<path d="M127.374 339.232C126.408 339.232 125.624 338.449 125.624 337.482V285.434C125.624 284.467 126.408 283.684 127.374 283.684C128.34 283.684 129.124 284.467 129.124 285.434V337.482C129.124 338.449 128.34 339.232 127.374 339.232Z" fill="#E08C4C"/>
<path d="M75.4541 237.243C68.3551 237.243 62.5811 230.975 62.5811 223.272C62.5811 215.568 68.3561 209.3 75.4541 209.3C82.5531 209.3 88.3281 215.568 88.3281 223.272C88.3271 230.975 82.5521 237.243 75.4541 237.243ZM75.4541 212.801C70.2861 212.801 66.0811 217.498 66.0811 223.273C66.0811 229.046 70.2861 233.744 75.4541 233.744C80.6231 233.744 84.8281 229.047 84.8281 223.273C84.8271 217.498 80.6221 212.801 75.4541 212.801Z" fill="#E08C4C"/>
<path d="M107.688 237.243C100.589 237.243 94.8145 230.975 94.8145 223.272C94.8145 215.568 100.589 209.3 107.688 209.3C114.787 209.3 120.562 215.568 120.562 223.272C120.562 230.975 114.787 237.243 107.688 237.243ZM107.688 212.801C102.519 212.801 98.3145 217.498 98.3145 223.273C98.3145 229.046 102.519 233.744 107.688 233.744C112.857 233.744 117.062 229.047 117.062 223.273C117.062 217.498 112.857 212.801 107.688 212.801Z" fill="#E08C4C"/>
<path d="M96.5646 225.022C96.1576 225.022 95.7476 224.88 95.4166 224.591C91.7246 221.377 88.1186 224.26 87.7196 224.598C86.9866 225.22 85.8836 225.14 85.2556 224.41C84.6276 223.68 84.7026 222.585 85.4286 221.953C87.5526 220.101 92.8566 217.72 97.7156 221.953C98.4446 222.587 98.5206 223.692 97.8856 224.422C97.5386 224.819 97.0526 225.022 96.5646 225.022Z" fill="#E08C4C"/>
<path d="M93.0898 275.668C93.0898 276.818 92.1568 277.751 91.0068 277.751C89.8568 277.751 88.9238 276.818 88.9238 275.668C88.9238 274.518 89.8568 273.585 91.0068 273.585C92.1568 273.585 93.0898 274.518 93.0898 275.668Z" fill="#E08C4C"/>
<path d="M93.0898 286.431C93.0898 287.581 92.1568 288.514 91.0068 288.514C89.8568 288.514 88.9238 287.581 88.9238 286.431C88.9238 285.281 89.8568 284.348 91.0068 284.348C92.1568 284.348 93.0898 285.281 93.0898 286.431Z" fill="#E08C4C"/>
<path d="M93.0898 297.192C93.0898 298.342 92.1568 299.275 91.0068 299.275C89.8568 299.275 88.9238 298.342 88.9238 297.192C88.9238 296.042 89.8568 295.109 91.0068 295.109C92.1568 295.109 93.0898 296.042 93.0898 297.192Z" fill="#E08C4C"/>
<path d="M43.0287 320.051C33.1607 320.051 25.4307 315.141 25.4307 308.873C25.4307 302.604 33.1607 297.694 43.0287 297.694C52.8967 297.694 60.6267 302.604 60.6267 308.873C60.6267 315.141 52.8967 320.051 43.0287 320.051ZM43.0287 301.195C35.3867 301.195 28.9307 304.712 28.9307 308.874C28.9307 313.036 35.3867 316.552 43.0287 316.552C50.6707 316.552 57.1267 313.036 57.1267 308.874C57.1267 304.712 50.6707 301.195 43.0287 301.195Z" fill="#E08C4C"/>
<path d="M50.0178 339.231C49.0518 339.231 48.2678 338.448 48.2678 337.481V322.045C48.2678 320.801 48.0528 319.979 47.4448 318.903C46.9688 318.061 47.2658 316.994 48.1068 316.518C48.9478 316.043 50.0158 316.338 50.4918 317.18C51.3988 318.784 51.7678 320.193 51.7678 322.044V337.48C51.7678 338.448 50.9838 339.231 50.0178 339.231Z" fill="#E08C4C"/>
<path d="M32.0967 329.537C31.1307 329.537 30.3467 328.754 30.3467 327.787V322.045C30.3467 319.667 31.1097 317.415 32.5537 315.532C33.1427 314.763 34.2397 314.621 35.0077 315.208C35.7747 315.796 35.9197 316.894 35.3317 317.661C34.3607 318.928 33.8477 320.443 33.8477 322.045V327.787C33.8467 328.754 33.0637 329.537 32.0967 329.537Z" fill="#E08C4C"/>
<path d="M109.235 172.256C108.908 172.256 108.577 172.164 108.282 171.973C107.472 171.446 107.242 170.362 107.769 169.552C108.675 168.16 109.134 166.691 109.134 165.187C109.134 158.806 101.002 153.615 91.0059 153.615C81.0099 153.615 72.8779 158.806 72.8779 165.187C72.8779 167.069 73.1969 168.111 74.1929 169.475C74.7629 170.256 74.5919 171.35 73.8109 171.92C73.0309 172.492 71.9359 172.319 71.3659 171.538C69.7159 169.278 69.3779 167.365 69.3779 165.187C69.3779 156.876 79.0799 150.115 91.0059 150.115C102.932 150.115 112.634 156.876 112.634 165.187C112.634 167.38 111.985 169.491 110.704 171.46C110.369 171.974 109.808 172.256 109.235 172.256Z" fill="#E08C4C"/>
<path d="M77.7395 272.524C68.7735 272.524 61.4795 265.23 61.4795 256.264C61.4795 254.112 61.8945 252.02 62.7115 250.045C63.0815 249.152 64.1065 248.727 64.9975 249.098C65.8905 249.468 66.3145 250.491 65.9445 251.385C65.3035 252.932 64.9795 254.574 64.9795 256.264C64.9795 263.3 70.7035 269.024 77.7395 269.024C81.2305 269.024 84.4895 267.641 86.9165 265.13C87.5885 264.437 88.6965 264.416 89.3915 265.089C90.0865 265.76 90.1055 266.868 89.4335 267.564C86.3405 270.763 82.1875 272.524 77.7395 272.524Z" fill="#E08C4C"/>
<path d="M104.273 272.524C100.219 272.524 96.3365 271.024 93.3395 268.3C92.6245 267.65 92.5715 266.543 93.2215 265.828C93.8715 265.112 94.9775 265.059 95.6935 265.71C98.0445 267.847 101.091 269.024 104.272 269.024C111.308 269.024 117.032 263.3 117.032 256.264C117.032 254.574 116.707 252.932 116.066 251.384C115.696 250.491 116.12 249.467 117.013 249.097C117.905 248.731 118.93 249.152 119.299 250.044C120.117 252.02 120.531 254.111 120.531 256.264C120.532 265.23 113.238 272.524 104.273 272.524Z" fill="#E08C4C"/>
<path d="M395.996 339.231C395.03 339.231 394.246 338.448 394.246 337.481V284.967C394.246 269.815 381.918 257.487 366.766 257.487H355.418C355.731 260.005 355.709 264.184 353.095 267.697C350.252 271.517 345.202 273.455 338.085 273.455C330.968 273.455 325.917 271.517 323.074 267.697C320.46 264.184 320.439 260.006 320.751 257.487H309.403C294.25 257.487 281.923 269.815 281.923 284.967V337.481C281.923 338.448 281.139 339.231 280.173 339.231C279.207 339.231 278.423 338.448 278.423 337.481V284.967C278.423 267.884 292.321 253.987 309.403 253.987H322.867C323.42 253.987 323.941 254.249 324.271 254.692C324.602 255.136 324.702 255.71 324.543 256.24C324.528 256.289 322.979 261.732 325.896 265.627C328.047 268.499 332.147 269.955 338.085 269.955C344.035 269.955 348.141 268.492 350.287 265.607C353.209 261.68 351.641 256.293 351.625 256.24C351.466 255.71 351.567 255.137 351.897 254.692C352.227 254.249 352.748 253.987 353.301 253.987H366.765C383.848 253.987 397.745 267.884 397.745 284.967V337.481C397.746 338.448 396.963 339.231 395.996 339.231Z" fill="#6AADED"/>
<path d="M338.084 280.876C327.576 280.876 320.137 278.096 315.972 272.613C310.429 265.316 312.911 256.085 313.019 255.696C313.279 254.764 314.244 254.217 315.174 254.479C316.105 254.738 316.65 255.703 316.391 256.633C316.371 256.709 314.277 264.624 318.777 270.519C322.25 275.069 328.746 277.375 338.085 277.375C347.352 277.375 353.714 275.106 356.995 270.631C361.308 264.751 358.864 256.774 358.839 256.695C358.549 255.774 359.058 254.791 359.978 254.499C360.899 254.207 361.88 254.712 362.174 255.632C362.3 256.025 365.192 265.34 359.838 272.675C355.864 278.116 348.545 280.876 338.084 280.876Z" fill="#6AADED"/>
<path d="M304.071 339.232C303.105 339.232 302.321 338.449 302.321 337.482V292.126C302.321 291.159 303.105 290.376 304.071 290.376C305.037 290.376 305.821 291.159 305.821 292.126V337.482C305.821 338.449 305.037 339.232 304.071 339.232Z" fill="#6AADED"/>
<path d="M372.098 339.232C371.132 339.232 370.348 338.449 370.348 337.482V292.126C370.348 291.159 371.132 290.376 372.098 290.376C373.064 290.376 373.848 291.159 373.848 292.126V337.482C373.848 338.449 373.065 339.232 372.098 339.232Z" fill="#6AADED"/>
<path d="M307.816 235.683C307.446 235.683 307.074 235.567 306.757 235.326C306.181 234.887 292.673 224.385 294.102 206.742C294.862 197.361 299.645 187.764 307.225 180.41C315.599 172.286 326.558 167.812 338.083 167.812C339.049 167.812 339.833 168.596 339.833 169.562C339.833 170.529 339.049 171.312 338.083 171.312C319.924 171.312 299.32 185.662 297.589 207.024C296.313 222.78 308.75 232.445 308.876 232.541C309.645 233.127 309.794 234.225 309.208 234.994C308.865 235.446 308.343 235.683 307.816 235.683Z" fill="#6AADED"/>
<path d="M364.794 214.367C350.735 214.369 341.646 204.517 338.252 200.06C331.024 209.646 322.494 212.734 316.434 213.605C309.4 214.615 304.174 212.953 303.955 212.881C303.036 212.582 302.533 211.595 302.833 210.676C303.131 209.758 304.118 209.256 305.035 209.552C305.804 209.798 323.899 215.32 336.81 196.05C337.144 195.551 337.714 195.23 338.312 195.276C338.913 195.293 339.463 195.617 339.769 196.133C340.227 196.901 351.255 214.96 371.616 210.024C372.555 209.798 373.501 210.374 373.729 211.313C373.957 212.251 373.38 213.198 372.441 213.426C369.75 214.079 367.198 214.367 364.794 214.367Z" fill="#6AADED"/>
<path d="M338.084 261.13C318.675 261.13 304.039 243.28 304.039 219.609C304.039 218.642 304.823 217.859 305.789 217.859C306.755 217.859 307.539 218.642 307.539 219.609C307.539 241.284 320.67 257.63 338.084 257.63C355.498 257.63 368.629 241.284 368.629 219.609C368.629 218.642 369.413 217.859 370.379 217.859C371.345 217.859 372.129 218.642 372.129 219.609C372.129 243.28 357.493 261.13 338.084 261.13Z" fill="#6AADED"/>
<path d="M368.354 235.683C367.826 235.683 367.305 235.446 366.961 234.993C366.375 234.223 366.524 233.126 367.293 232.54C367.417 232.445 379.85 222.721 378.579 207.024C377.182 189.778 360.577 171.312 338.085 171.312C337.119 171.312 336.335 170.528 336.335 169.562C336.335 168.596 337.119 167.812 338.085 167.812C349.61 167.812 360.57 172.286 368.944 180.409C376.524 187.763 381.308 197.36 382.068 206.741C383.497 224.384 369.989 234.887 369.414 235.325C369.096 235.567 368.723 235.683 368.354 235.683Z" fill="#6AADED"/>
<path d="M263.944 339.231C262.978 339.231 262.194 338.448 262.194 337.481V310.09C262.194 298.009 252.365 288.18 240.283 288.18H229.26C228.693 294.409 223.441 299.304 217.067 299.304C210.693 299.304 205.441 294.409 204.874 288.18H193.851C181.769 288.18 171.94 298.009 171.94 310.09V337.481C171.94 338.448 171.156 339.231 170.19 339.231C169.224 339.231 168.44 338.448 168.44 337.481V310.09C168.44 296.079 179.839 284.68 193.851 284.68H206.574C207.54 284.68 208.324 285.463 208.324 286.43V287.06C208.324 291.881 212.246 295.804 217.068 295.804C221.89 295.804 225.812 291.881 225.812 287.06V286.43C225.812 285.463 226.596 284.68 227.562 284.68H240.285C254.297 284.68 265.696 296.079 265.696 310.09V337.481C265.694 338.448 264.911 339.231 263.944 339.231Z" fill="#E06979"/>
<path d="M191.884 339.231C190.918 339.231 190.134 338.448 190.134 337.481V317.894C190.134 316.927 190.918 316.144 191.884 316.144C192.85 316.144 193.634 316.927 193.634 317.894V337.481C193.634 338.448 192.85 339.231 191.884 339.231Z" fill="#E06979"/>
<path d="M242.253 339.231C241.287 339.231 240.503 338.448 240.503 337.481V317.894C240.503 316.927 241.287 316.144 242.253 316.144C243.219 316.144 244.003 316.927 244.003 317.894V337.481C244.003 338.448 243.219 339.231 242.253 339.231Z" fill="#E06979"/>
<path d="M177.025 295.235C176.67 295.235 176.311 295.13 176.002 294.913C174.837 294.096 164.952 285.807 176.669 247.019C185.104 219.097 198.92 213.375 217.07 213.375C218.036 213.375 218.82 214.158 218.82 215.125C218.82 216.092 218.036 216.875 217.07 216.875C193.953 216.875 185.98 228.299 180.02 248.03C169.026 284.425 177.96 292.003 178.052 292.075C178.843 292.631 179.015 293.707 178.461 294.499C178.121 294.981 177.577 295.235 177.025 295.235Z" fill="#E06979"/>
<path d="M238.065 252.232C228.032 252.233 220.338 244.289 217.175 240.402C206.482 255.504 189.549 250.572 189.371 250.517C188.447 250.236 187.925 249.258 188.207 248.333C188.489 247.41 189.464 246.891 190.387 247.167C191.039 247.362 206.451 251.769 215.565 236.459C215.874 235.941 216.428 235.619 217.032 235.606C217.62 235.584 218.203 235.892 218.534 236.397C218.643 236.564 229.653 253.056 243.923 247.618C244.826 247.273 245.837 247.727 246.181 248.631C246.525 249.534 246.072 250.545 245.169 250.89C242.698 251.83 240.322 252.232 238.065 252.232Z" fill="#E06979"/>
<path d="M217.069 289.579C201.168 289.579 189.177 275.143 189.177 256.001C189.177 255.034 189.961 254.251 190.927 254.251C191.893 254.251 192.677 255.034 192.677 256.001C192.677 273.148 203.163 286.079 217.069 286.079C230.974 286.079 241.461 273.148 241.461 256.001C241.461 255.034 242.245 254.251 243.211 254.251C244.177 254.251 244.961 255.034 244.961 256.001C244.96 275.143 232.969 289.579 217.069 289.579Z" fill="#E06979"/>
<path d="M257.131 295.23C256.58 295.23 256.037 294.97 255.697 294.485C255.142 293.694 255.334 292.602 256.125 292.047C256.177 292.003 265.111 284.425 254.118 248.03C248.158 228.299 240.184 216.875 217.068 216.875C216.102 216.875 215.318 216.092 215.318 215.125C215.318 214.158 216.102 213.375 217.068 213.375C235.218 213.375 249.034 219.097 257.469 247.019C269.185 285.806 259.301 294.095 258.136 294.913C257.829 295.128 257.479 295.23 257.131 295.23Z" fill="#E06979"/>
<path d="M207.26 308.338C204.612 308.338 202.095 307.358 200.08 305.524C197.371 303.058 195.754 299.215 195.754 295.243C195.754 291.258 197.544 287.545 200.664 285.059C201.419 284.457 202.52 284.58 203.124 285.336C203.726 286.092 203.602 287.193 202.846 287.795C200.564 289.614 199.255 292.329 199.255 295.243C199.255 298.247 200.444 301.122 202.437 302.935C203.522 303.922 205.362 305.042 207.952 304.804C214.377 304.198 215.297 297.618 215.332 297.338C215.455 296.382 216.326 295.702 217.285 295.821C218.241 295.94 218.922 296.807 218.806 297.764C218.405 301.099 215.689 307.589 208.28 308.288C207.939 308.321 207.598 308.338 207.26 308.338Z" fill="#E06979"/>
<path d="M226.876 308.337C226.538 308.337 226.198 308.321 225.857 308.289C218.447 307.59 215.732 301.099 215.331 297.764C215.215 296.804 215.9 295.933 216.859 295.818C217.825 295.703 218.687 296.384 218.805 297.34C218.844 297.641 219.771 304.199 226.186 304.805C228.776 305.041 230.615 303.923 231.7 302.936C233.693 301.122 234.882 298.247 234.882 295.243C234.882 292.329 233.573 289.615 231.291 287.796C230.535 287.194 230.411 286.093 231.013 285.337C231.616 284.58 232.717 284.457 233.473 285.06C236.593 287.546 238.383 291.258 238.383 295.243C238.383 299.216 236.766 303.06 234.057 305.525C232.041 307.357 229.523 308.337 226.876 308.337Z" fill="#E06979"/>
<path d="M380.463 248.548C380.084 248.548 379.702 248.425 379.38 248.172C378.621 247.574 378.491 246.474 379.089 245.715C394.221 226.517 406.839 201.688 414.619 175.803C425.296 140.276 418.807 94.0072 398.087 57.9282C382.618 30.9922 360.864 12.9722 336.831 7.18618C295.499 -2.76582 264.882 9.34418 246.478 21.2542C225.521 34.8172 214.474 51.4942 213.167 54.2152C212.875 54.8222 212.262 55.2082 211.589 55.2082C210.916 55.2082 210.303 54.8222 210.011 54.2152C208.704 51.4942 197.657 34.8172 176.7 21.2542C158.295 9.34318 127.68 -2.76482 86.3461 7.18618C62.3131 12.9732 40.5591 30.9932 25.0901 57.9282C4.37213 94.0062 -2.11786 140.275 8.55914 175.802C15.9061 200.247 27.4551 223.684 41.0801 241.794C41.6611 242.566 41.5061 243.663 40.7341 244.244C39.9611 244.825 38.8641 244.669 38.2831 243.897C24.4171 225.465 12.6701 201.64 5.20813 176.809C-5.73187 140.404 0.881134 93.0562 22.0561 56.1832C38.0091 28.4052 60.5501 9.79518 85.5281 3.78218C128.069 -6.46082 159.623 6.03118 178.602 18.3142C196.641 29.9872 207.548 43.8062 211.589 50.0172C215.631 43.8062 226.538 29.9882 244.576 18.3142C263.555 6.03218 295.109 -6.45982 337.65 3.78218C362.628 9.79618 385.169 28.4052 401.122 56.1832C422.297 93.0562 428.911 140.404 417.97 176.809C410.067 203.104 397.235 228.344 381.838 247.879C381.493 248.319 380.98 248.548 380.463 248.548Z" fill="#E06979"/>
</svg>
