<svg xmlns="http://www.w3.org/2000/svg" xmlns:xlink="http://www.w3.org/1999/xlink" width="335.711" height="64.148" viewBox="0 0 335.711 64.148">
  <defs>
    <linearGradient id="linear-gradient" x1="0.5" x2="0.5" y2="1" gradientUnits="objectBoundingBox">
      <stop offset="0" stop-color="#0f6432"/>
      <stop offset="0.569" stop-color="#73a935"/>
      <stop offset="1" stop-color="#80b235"/>
    </linearGradient>
    <linearGradient id="linear-gradient-2" x1="0.5" x2="0.5" y2="0.703" gradientUnits="objectBoundingBox">
      <stop offset="0" stop-color="#499848"/>
      <stop offset="1" stop-color="#396c8c"/>
    </linearGradient>
    <linearGradient id="linear-gradient-3" x1="0.5" x2="0.5" y2="1" gradientUnits="objectBoundingBox">
      <stop offset="0" stop-color="#217032"/>
      <stop offset="0.331" stop-color="#2b7732"/>
      <stop offset="0.646" stop-color="#76ab34"/>
      <stop offset="1" stop-color="#8bb935"/>
    </linearGradient>
  </defs>
  <g id="Group_4" data-name="Group 4" transform="translate(-710 -512)">
    <g id="Group_1" data-name="Group 1" transform="translate(710 512)">
      <path id="Path_1" data-name="Path 1" d="M37.12,22.209a11.583,11.583,0,0,1,3.122-1.189L40.2,17.951a15.8,15.8,0,0,0-4.7,1.63,6.333,6.333,0,0,0-2.189.655c-1.734.941-2.7,2.524-2.152,3.539s2.4,1.064,4.132.125A5.639,5.639,0,0,0,37.12,22.209ZM47.308,45.43c0-1.769-1.726-2.666-3.723-3.474l-.028,2.215c.928.421,1.542.848,1.542,1.4,0,1.583-.992,2.49-2.244,3.232l.187-15.162c-.3.16-.6.319-.89.47l-1.1.606.183,14.956c-1.756.906-3.452,1.889-3.452,4.1,0,4.414,7.967,4.981,7.967,4.981a14.39,14.39,0,0,1-3.008-1.021l.074-5.918c-.566.358-1.1.7-1.538,1.034l.047,4.045a3.588,3.588,0,0,1-1.7-2.838C39.627,51.677,47.308,50.175,47.308,45.43ZM43.881,17.748,43.843,20.8c1.984.256,3.452,1.234,3.452,2.988,0,2.46-1.9,4.167-4.2,5.647l.174-14.15a2.81,2.81,0,1,0-2.452,0L41,30.691c-3.034,1.75-6.025,3.384-6.025,5.953,0,3.482,2.855,5.153,5.534,6.289l-.029-2.265c-1.613-.794-2.881-1.813-2.881-3.56C37.6,33.6,50.47,32.5,50.47,23.535,50.471,19.859,47.522,18.029,43.881,17.748ZM41.372,60.4s.1.618.668.618.671-.618.671-.618l.019-1.529c-.445-.117-.91-.26-1.386-.436Z" transform="translate(-8.676 -2.788)" fill="url(#linear-gradient)"/>
      <path id="Path_2" data-name="Path 2" d="M6.937,17.1A32.7,32.7,0,0,1,46.906,3.64,32.071,32.071,0,0,0,9.81,55.16a44.268,44.268,0,0,1-2.759-15.8c0-11.849,4.156-21.98,10.029-26.07-5.225,4.044-8.873,13.207-8.873,23.865a39.015,39.015,0,0,0,3.693,17.2,16.85,16.85,0,0,1,2.717-8.191c11.707-19.312-2.626-22.314,3.837-32.975A22.337,22.337,0,0,1,29.018,4.494,31.393,31.393,0,0,0,4.154,45.166,32.621,32.621,0,0,1,6.937,17.1Z" transform="translate(0)" fill="url(#linear-gradient-2)"/>
      <path id="Path_3" data-name="Path 3" d="M63.91,50.537A32.7,32.7,0,0,1,23.941,64a32.073,32.073,0,0,0,37.1-51.523,44.293,44.293,0,0,1,2.759,15.8c0,11.849-4.156,21.98-10.029,26.07,5.225-4.044,8.872-13.208,8.872-23.866a39.009,39.009,0,0,0-3.693-17.2,16.853,16.853,0,0,1-2.717,8.192c-11.706,19.312,2.625,22.314-3.837,32.977a22.334,22.334,0,0,1-10.562,8.687A31.393,31.393,0,0,0,66.693,22.471,32.619,32.619,0,0,1,63.91,50.537Z" transform="translate(-6.698 -3.49)" fill="url(#linear-gradient-3)"/>
    </g>
    <g id="Group_2" data-name="Group 2" transform="translate(681 509)">
      <path id="Path_4" data-name="Path 4" d="M130.354,43.015H136.8a15.034,15.034,0,0,1-2.062,6.622,12.3,12.3,0,0,1-4.922,4.543,16.438,16.438,0,0,1-7.708,1.662,15.183,15.183,0,0,1-6.264-1.246,13.745,13.745,0,0,1-4.768-3.583,16.24,16.24,0,0,1-3.042-5.634A24.671,24.671,0,0,1,107,38V34.863a24.1,24.1,0,0,1,1.057-7.374,16.328,16.328,0,0,1,3.094-5.634,13.374,13.374,0,0,1,4.82-3.609A15.662,15.662,0,0,1,122.338,17a15.845,15.845,0,0,1,7.577,1.661,11.945,11.945,0,0,1,4.794,4.6,16.333,16.333,0,0,1,2.113,6.725H130.38a12.094,12.094,0,0,0-1.134-4.18,5.867,5.867,0,0,0-2.527-2.648,8.956,8.956,0,0,0-4.382-.935,8.489,8.489,0,0,0-3.867.831,7.309,7.309,0,0,0-2.758,2.441,11.811,11.811,0,0,0-1.676,3.972,23.869,23.869,0,0,0-.54,5.348V38a25.394,25.394,0,0,0,.489,5.192,12.781,12.781,0,0,0,1.546,3.973,7.5,7.5,0,0,0,2.681,2.57,7.864,7.864,0,0,0,3.892.908,9.706,9.706,0,0,0,4.46-.882,5.864,5.864,0,0,0,2.6-2.571A11.837,11.837,0,0,0,130.354,43.015ZM158.836,48.7V27.23h6.238V55.323H159.2Zm.877-5.842,2.088-.052a20.81,20.81,0,0,1-.618,5.219,12.162,12.162,0,0,1-1.908,4.128,8.949,8.949,0,0,1-3.3,2.726,12.306,12.306,0,0,1-8.556.364,7.658,7.658,0,0,1-2.94-1.843,8.408,8.408,0,0,1-1.881-3.245,15.108,15.108,0,0,1-.67-4.777V27.23h6.213v18.2A7.882,7.882,0,0,0,148.5,48a4.347,4.347,0,0,0,.98,1.637,3.487,3.487,0,0,0,1.443.882,5.818,5.818,0,0,0,1.753.259,7.324,7.324,0,0,0,4.176-1.038,5.743,5.743,0,0,0,2.191-2.856A11.437,11.437,0,0,0,159.712,42.859Zm17.967-10.281V55.323h-6.213V27.23h5.928Zm8.532-5.53-.052,5.816a12.131,12.131,0,0,0-1.237-.155c-.43-.035-.859-.052-1.29-.052a7.778,7.778,0,0,0-2.808.467,5.3,5.3,0,0,0-2.037,1.3,5.724,5.724,0,0,0-1.236,2.025,9.111,9.111,0,0,0-.517,2.675l-1.416.1a22.05,22.05,0,0,1,.515-4.907,13.417,13.417,0,0,1,1.548-3.972,7.951,7.951,0,0,1,2.628-2.675,7.016,7.016,0,0,1,3.686-.961,7.64,7.64,0,0,1,1.212.1A5.137,5.137,0,0,1,186.212,27.048Zm15.67,28.793a14.77,14.77,0,0,1-5.592-1.013,12.338,12.338,0,0,1-4.228-2.881,12.784,12.784,0,0,1-2.655-4.337,15.268,15.268,0,0,1-.928-5.374V41.2a17.686,17.686,0,0,1,.953-5.971,13.6,13.6,0,0,1,2.655-4.57,11.4,11.4,0,0,1,4.022-2.933,12.418,12.418,0,0,1,5.025-1.013,12.593,12.593,0,0,1,5.231,1.013,9.831,9.831,0,0,1,3.713,2.855,11.887,11.887,0,0,1,2.218,4.337,19.516,19.516,0,0,1,.747,5.556v2.674H191.495V38.655h15.414v-.494a8.8,8.8,0,0,0-.67-3.167,5.4,5.4,0,0,0-1.83-2.389,5.451,5.451,0,0,0-3.3-.909,5.559,5.559,0,0,0-2.758.676,5.467,5.467,0,0,0-1.985,1.9,10.026,10.026,0,0,0-1.237,3.012,17.078,17.078,0,0,0-.413,3.921v1.039a11.553,11.553,0,0,0,.491,3.426,8.2,8.2,0,0,0,1.5,2.726,7.085,7.085,0,0,0,2.371,1.843,7.419,7.419,0,0,0,3.171.649,8.551,8.551,0,0,0,4-.908,9.184,9.184,0,0,0,3.041-2.57l3.273,3.193a12.808,12.808,0,0,1-2.346,2.544,11.693,11.693,0,0,1-3.531,1.947A13.92,13.92,0,0,1,201.882,55.842Z" transform="translate(0 -0.383)" fill="#479e71"/>
      <path id="Path_5" data-name="Path 5" d="M290.625,16.99h5.763L307.22,46.258,318.028,16.99h5.762L309.483,54.937H304.9Zm-2.625,0h5.482l.951,25.332V54.937H288Zm32.934,0h5.505V54.937h-6.457V42.322Zm24.828,38.468a14.7,14.7,0,0,1-5.583-1.016,12.327,12.327,0,0,1-4.22-2.893A12.866,12.866,0,0,1,333.31,47.2a15.394,15.394,0,0,1-.927-5.395V40.759a17.832,17.832,0,0,1,.953-5.994,13.638,13.638,0,0,1,2.65-4.586A11.4,11.4,0,0,1,340,27.233a12.352,12.352,0,0,1,5.017-1.017,12.515,12.515,0,0,1,5.223,1.017,9.841,9.841,0,0,1,3.705,2.866,11.924,11.924,0,0,1,2.211,4.353,19.6,19.6,0,0,1,.748,5.577v2.684h-21.51V38.206H350.78v-.5a8.918,8.918,0,0,0-.67-3.179,5.037,5.037,0,0,0-5.119-3.311,5.391,5.391,0,0,0-4.736,2.581,10.068,10.068,0,0,0-1.233,3.023,17.1,17.1,0,0,0-.412,3.935V41.8a11.659,11.659,0,0,0,.489,3.44,8.217,8.217,0,0,0,1.492,2.737,7.063,7.063,0,0,0,2.368,1.85,7.36,7.36,0,0,0,3.165.652,8.5,8.5,0,0,0,3.987-.912,9.166,9.166,0,0,0,3.036-2.581l3.269,3.207a12.976,12.976,0,0,1-2.343,2.554,11.729,11.729,0,0,1-3.524,1.954A13.866,13.866,0,0,1,345.762,55.458Zm28.74-28.72v4.586h-15.7V26.738Zm-11.167-6.907h6.2V47.144a4.522,4.522,0,0,0,.358,2.007,1.935,1.935,0,0,0,1.056.911,4.744,4.744,0,0,0,1.571.236,9.606,9.606,0,0,0,1.235-.078q.59-.079.951-.157l.025,4.8a15.333,15.333,0,0,1-1.8.417,13.1,13.1,0,0,1-2.314.182,8.962,8.962,0,0,1-3.782-.756,5.6,5.6,0,0,1-2.573-2.527,9.931,9.931,0,0,1-.926-4.639v-27.7Zm22.179,12.275v22.83h-6.2v-28.2h5.918Zm8.516-5.551-.052,5.838a12.158,12.158,0,0,0-1.234-.157q-.644-.052-1.285-.052a7.709,7.709,0,0,0-2.8.469,5.26,5.26,0,0,0-2.033,1.3,5.727,5.727,0,0,0-1.235,2.033,9.215,9.215,0,0,0-.515,2.684l-1.415.1a22.173,22.173,0,0,1,.515-4.925,13.542,13.542,0,0,1,1.543-3.988,7.976,7.976,0,0,1,2.625-2.685,6.975,6.975,0,0,1,3.679-.964,7.566,7.566,0,0,1,1.21.1A5.035,5.035,0,0,1,394.03,26.555Zm10.524.183v28.2h-6.226v-28.2Zm-6.638-7.4a3.235,3.235,0,0,1,.927-2.371,4.016,4.016,0,0,1,5.223,0,3.4,3.4,0,0,1,0,4.716,4.1,4.1,0,0,1-5.223,0A3.2,3.2,0,0,1,397.916,19.336Zm24.8,31.118a6.034,6.034,0,0,0,2.728-.6,5.184,5.184,0,0,0,1.982-1.72,4.73,4.73,0,0,0,.848-2.527h5.841a8.889,8.889,0,0,1-1.6,4.978,11.109,11.109,0,0,1-4.09,3.57,12.2,12.2,0,0,1-5.635,1.3,13.155,13.155,0,0,1-5.558-1.094,11.01,11.01,0,0,1-3.936-3.076,13.574,13.574,0,0,1-2.367-4.509,18.847,18.847,0,0,1-.772-5.472v-.913a18.835,18.835,0,0,1,.772-5.472,13.529,13.529,0,0,1,2.367-4.535,10.745,10.745,0,0,1,3.936-3.049,12.8,12.8,0,0,1,5.533-1.121,12.2,12.2,0,0,1,5.866,1.355A9.924,9.924,0,0,1,432.6,31.3a10.629,10.629,0,0,1,1.519,5.525h-5.841a6.358,6.358,0,0,0-.771-2.814,5.148,5.148,0,0,0-1.9-2.033,5.372,5.372,0,0,0-2.908-.756,5.719,5.719,0,0,0-3.113.782,5.242,5.242,0,0,0-1.93,2.085,10.272,10.272,0,0,0-1,2.945,19.467,19.467,0,0,0-.282,3.362v.912a19.907,19.907,0,0,0,.282,3.388,9.72,9.72,0,0,0,.978,2.945,5.729,5.729,0,0,0,1.955,2.059A5.923,5.923,0,0,0,422.719,50.454Z" transform="translate(-69.407)" fill="#1f3f66"/>
    </g>
  </g>
</svg>
