<svg width="454" height="500" viewBox="0 0 454 500" fill="none" xmlns="http://www.w3.org/2000/svg">
<path d="M89.0004 401.8C82.5004 401.8 82.5004 392 89.0004 392H306.9C307.6 377.5 312 361.8 317.8 347.5C317 346.1 317 344.3 317.9 342.8L378.8 237.3V186.2C378.8 170.9 366.5 158.6 351.2 158.6H288.3L300.9 170.9C308.2 178.1 306 190.3 296.7 194.5L279.7 202.2C277.8 203.1 276.7 204.9 277 207L278.8 225.6L300.6 278.2C302.2 282.1 298.4 286.2 294.2 284.6L269.7 275.4L259.2 298C257.4 301.8 251.8 301.9 250.1 297.6L229.8 248.6C227.3 252.2 225.4 255.8 221.4 257.9C215 261.3 206.9 259.4 202.6 253.2L199.4 248.6L179.1 297.6C177.4 301.9 171.8 301.8 170.1 298L159.7 275.4L135.2 284.6C131.1 286.2 127.2 282.1 128.9 278.2L150.6 225.6L152.4 207.1C152.5 206.1 152.3 205.1 151.8 204.2C151.3 203.3 150.6 202.7 149.6 202.3L132.6 194.6C123.3 190.4 121.1 178.2 128.5 171L141 158.7H60.6004V402.5C60.6004 405.2 58.4004 407.4 55.7004 407.4H33.4004C21.4004 407.4 10.7004 413.2 10.7004 425.6C10.7004 430.7 13.5004 435 18.1004 438.1C23.6004 441.8 31.3004 443.9 39.9004 443.9H318.7H350C360.4 444 371.1 446.8 378.7 452.8V324.2L355.4 364.5C354.5 366 353 366.9 351.3 366.9C340.9 380.3 327.7 393.4 313.9 401.1C312.8 401.7 311.7 401.7 310.6 401.7H89.0004V401.8ZM89.0004 375.8C82.5004 375.8 82.5004 366 89.0004 366H280.9C287.3 366 287.3 375.8 280.9 375.8H89.0004ZM89.0004 349.8C82.5004 349.8 82.5004 340 89.0004 340H280.9C287.3 340 287.3 349.8 280.9 349.8H89.0004ZM187 170.7C183.8 165.1 192.2 160.2 195.4 165.8L203.6 179.9L234.7 148.8C239.3 144.2 246.2 151.2 241.6 155.7L206 191.4C203.8 193.7 199.9 193.2 198.3 190.4L187 170.7ZM214.6 123C240.7 123 261.8 144.1 261.8 170.2C261.8 196.3 240.7 217.4 214.6 217.4C188.5 217.4 167.4 196.3 167.4 170.2C167.5 144.1 188.6 123 214.6 123ZM241.1 143.7C226.5 129.1 202.8 129.1 188.2 143.7C173.6 158.3 173.6 182 188.2 196.6C202.8 211.2 226.5 211.2 241.1 196.6C255.7 182 255.7 158.3 241.1 143.7ZM219.3 3.40039L225.7 23.2004H246.5C251.2 23.2004 253.2 29.3004 249.4 32.0004L232.5 44.2004L239 64.0004C240.4 68.4004 235.3 72.5004 231.2 69.2004L214.7 57.1004L197.9 69.4004C194.1 72.2004 188.9 68.4004 190.4 64.0004L196.9 44.2004L179.9 32.0004C176.1 29.2004 177.9 23.0004 183.1 23.2004H203.6L210 3.40039C211.4 -1.09961 217.9 -1.09961 219.3 3.40039ZM217.5 29.6004L214.7 20.8004L211.8 29.6004C211.2 31.6004 209.3 33.0004 207.2 33.0004H198C209.8 41.5004 208.9 38.9004 204.4 52.7004C216.1 44.1004 213.3 44.1004 225.1 52.7004C220.6 38.9004 219.7 41.5004 231.5 33.0004H222.5C220.2 33.1004 218.2 31.7004 217.5 29.6004ZM332.4 62.3004L338.8 82.1004L359.6 82.0004C364.3 82.0004 366.3 88.1004 362.5 90.8004L345.6 103L352.1 122.8C353.5 127.3 348.4 131.3 344.3 128L327.8 116L311 128.3C307.2 131.1 302 127.3 303.5 122.8L310 103L293 90.9004C289.2 88.2004 291 81.9004 296.2 82.1004L316.7 82.2004L323.1 62.4004C324.6 57.8004 331 57.8004 332.4 62.3004ZM330.6 88.5004L327.8 79.7004L325 88.5004C324.4 90.5004 322.5 91.9004 320.4 91.9004H311C322.8 100.4 321.9 97.8004 317.4 111.6C329.1 103 326.4 103 338.1 111.6C333.6 97.8004 332.7 100.4 344.5 91.9004H335.5C333.3 92.0004 331.3 90.6004 330.6 88.5004ZM106.2 62.3004L112.6 82.1004L133.4 82.0004C138.1 82.0004 140.1 88.1004 136.3 90.8004L119.4 103L125.9 122.8C127.3 127.3 122.2 131.3 118.1 128L101.6 116L84.8004 128.3C81.0004 131.1 75.8004 127.3 77.3004 122.8L83.8004 103L66.8004 90.9004C63.0004 88.2004 64.8004 81.9004 70.0004 82.1004L90.5004 82.2004L96.9004 62.4004C98.3004 57.8004 104.7 57.8004 106.2 62.3004ZM104.4 88.5004L101.6 79.7004L98.8004 88.5004C98.2004 90.5004 96.3004 91.9004 94.2004 91.9004H84.9004C96.7004 100.4 95.8004 97.8004 91.3004 111.6C103 103 100.3 103 112 111.6C107.5 97.8004 106.6 100.4 118.4 91.9004H109.4C107.1 92.0004 105 90.6004 104.4 88.5004ZM218.6 247.7L229.1 232.3C232.6 227.1 238.9 224.8 245 226.5L262.9 231.5C266.1 232.4 269.3 229.9 268.9 226.5L267.1 207.9C266.5 201.7 269.8 195.9 275.5 193.3L292.7 185.5C295.4 184.3 296.4 180.3 293.9 177.9L280.6 164.8C276 160.3 275 153.8 277.7 148.2L285.8 131.4C287.2 128.4 285.3 124.9 281.9 124.6L263.3 123.2C257 122.7 251.9 118.4 250.3 112.3L245.7 94.3004C244.9 91.1004 241.1 89.6004 238.3 91.6004L223.1 102.4C218 106.1 211.4 106.1 206.2 102.4L191 91.5004C188.2 89.5004 184.4 91.0004 183.6 94.2004L179 112.2C177.4 118.3 172.3 122.6 166 123.1L147.4 124.5C144 124.8 142 128.3 143.5 131.3L151.6 148.1C154.3 153.7 153.2 160.3 148.7 164.7L135.4 177.8C133.1 180.1 133.6 184 136.8 185.5L153.8 193.2C156.6 194.5 158.9 196.6 160.4 199.2C161.9 201.8 162.6 204.8 162.2 207.9L160.4 226.8C160.3 230.1 163.4 232.4 166.4 231.5L184.3 226.5C190.4 224.8 196.6 227.1 200.2 232.3L210.8 247.7C212.6 250.5 216.7 250.4 218.6 247.7ZM237.2 237.8L236.4 238.9L254.9 283.7L262.5 267.1C263.5 264.8 266.2 263.7 268.6 264.6L287 271.5L273.3 238.2C269.6 241.2 264.9 242.2 260.3 240.9L242.3 235.9C240.4 235.4 238.4 236.1 237.2 237.8ZM192.9 238.9C191.6 236.9 190.1 235 186.9 235.9L169 240.9C164.4 242.2 159.7 241.2 156 238.2L142.2 271.5L160.6 264.6C163 263.7 165.7 264.8 166.8 267.1L174.4 283.7L192.9 238.9ZM141 148.7L134.7 135.5C130.3 126.3 136.5 115.5 146.7 114.8L165.3 113.4C167.4 113.2 169 111.9 169.5 109.9L174.2 91.8004C176.8 81.9004 188.4 77.7004 196.7 83.6004L211.9 94.4004C213.6 95.6004 215.8 95.6004 217.4 94.4004L232.6 83.6004C240.9 77.7004 252.5 81.8004 255.1 91.8004L259.7 109.9C260.2 111.9 261.9 113.3 263.9 113.4L282.5 114.8C292.7 115.6 298.9 126.3 294.5 135.5L288.2 148.7H351.1C371.8 148.7 388.5 165.5 388.5 186.1V220.3L408.5 185.8C409.8 183.4 412.8 182.7 415.2 184L417.5 185.3L428 167.1C429.4 164.7 432.4 163.9 434.9 165.5L450.7 174.6C453.1 176 453.8 179 452.5 181.3L442 199.5L444.3 200.8C446.7 202.2 447.5 205.2 445.9 207.7L388.5 307.1V471.8C388.5 480.6 384 487.7 376.3 492.6C369.1 497.2 359.1 499.8 347.6 499.8H318.6C315.9 499.8 313.7 497.6 313.7 494.9V453.5H39.9004C21.7004 453.5 0.900391 444.4 0.900391 425.4V130.4C0.900391 112.5 15.9004 102.4 33.4004 102.4H55.7004C58.4004 102.4 60.6004 104.6 60.6004 107.3V148.7H141ZM432.9 205.6L414.5 195L328.8 343.5L349.5 355.4L435.2 206.9L432.9 205.6ZM441.6 180.7L434 176.3L425.9 190.2L433.5 194.6L441.6 180.7ZM319.4 374.2C318.3 378.9 317.5 383.4 317 387.6C326.2 380.9 334.9 371.9 342.4 362.5L326 353C323.2 360.4 320.9 367.5 319.4 374.2ZM50.7004 153.7V112.3H33.4004C21.4004 112.3 10.7004 118.1 10.7004 130.5V404.8C16.5004 400.2 24.4004 397.6 33.4004 397.6H50.7004V153.7ZM378.7 472C378.7 459.3 362.7 454.3 352.2 453.7L349.5 453.6H323.5V490.1H347.6C357.2 490.1 365.4 488.1 371 484.5C375.9 481.5 378.7 477.2 378.7 472Z" fill="#F08686"/>
</svg>
