<svg width="347" height="292" viewBox="0 0 347 292" fill="none" xmlns="http://www.w3.org/2000/svg">
<path d="M73.678 291.129C73.602 291.129 73.525 291.11 73.453 291.073C73.218 290.948 73.128 290.656 73.252 290.421C82.676 272.592 94.144 255.819 107.338 240.567C107.512 240.366 107.816 240.343 108.018 240.517C108.219 240.692 108.242 240.996 108.067 241.198C94.92 256.394 83.494 273.107 74.104 290.872C74.018 291.035 73.851 291.129 73.678 291.129Z" fill="black"/>
<path d="M61.6778 281.65C61.5828 281.65 61.4878 281.624 61.4038 281.566C61.1848 281.414 61.1308 281.114 61.2818 280.894C71.3958 266.292 82.9358 252.564 95.5818 240.093C95.7718 239.905 96.0768 239.908 96.2638 240.097C96.4508 240.287 96.4488 240.593 96.2598 240.781C83.6558 253.21 72.1548 266.89 62.0748 281.443C61.9798 281.578 61.8308 281.65 61.6778 281.65Z" fill="black"/>
<path d="M1.03453 249.14C0.800529 249.14 0.596529 248.97 0.558529 248.732C0.517529 248.468 0.698529 248.222 0.961529 248.181C32.3465 243.321 62.4595 233.258 90.4615 218.274C90.6955 218.148 90.9885 218.236 91.1135 218.471C91.2395 218.705 91.1515 218.998 90.9165 219.123C62.8175 234.16 32.6015 244.257 1.10853 249.134C1.08353 249.138 1.05853 249.14 1.03453 249.14Z" fill="black"/>
<path d="M4.12472 281.65C3.96372 281.65 3.80572 281.569 3.71472 281.422C3.57472 281.195 3.64472 280.899 3.87072 280.758L89.5187 227.734C89.7457 227.594 90.0427 227.664 90.1827 227.89C90.3227 228.116 90.2527 228.413 90.0267 228.554L4.37972 281.577C4.29972 281.628 4.21172 281.65 4.12472 281.65Z" fill="black"/>
<path d="M124.408 124.369C125.911 124.369 127.128 123.151 127.128 121.649C127.128 120.146 125.911 118.929 124.408 118.929C122.906 118.929 121.688 120.146 121.688 121.649C121.688 123.151 122.906 124.369 124.408 124.369Z" fill="white"/>
<path d="M124.408 124.85C122.642 124.85 121.206 123.414 121.206 121.649C121.206 119.883 122.643 118.447 124.408 118.447C126.173 118.447 127.61 119.884 127.61 121.649C127.61 123.414 126.174 124.85 124.408 124.85ZM124.408 119.411C123.174 119.411 122.17 120.415 122.17 121.649C122.17 122.882 123.174 123.886 124.408 123.886C125.641 123.886 126.645 122.882 126.645 121.649C126.646 120.415 125.642 119.411 124.408 119.411Z" fill="black"/>
<path d="M239.814 66.4761C241.316 66.4761 242.534 65.2583 242.534 63.7561C242.534 62.2539 241.316 61.0361 239.814 61.0361C238.312 61.0361 237.094 62.2539 237.094 63.7561C237.094 65.2583 238.312 66.4761 239.814 66.4761Z" fill="white"/>
<path d="M239.813 66.9577C238.047 66.9577 236.611 65.5217 236.611 63.7557C236.611 61.9897 238.048 60.5537 239.813 60.5537C241.578 60.5537 243.014 61.9897 243.014 63.7557C243.014 65.5217 241.579 66.9577 239.813 66.9577ZM239.813 61.5187C238.58 61.5187 237.576 62.5217 237.576 63.7557C237.576 64.9897 238.58 65.9937 239.813 65.9937C241.046 65.9937 242.05 64.9897 242.05 63.7557C242.05 62.5217 241.047 61.5187 239.813 61.5187Z" fill="black"/>
<path d="M248.209 220.513C250.741 220.513 252.793 218.46 252.793 215.929C252.793 213.397 250.741 211.345 248.209 211.345C245.677 211.345 243.625 213.397 243.625 215.929C243.625 218.46 245.677 220.513 248.209 220.513Z" fill="white"/>
<path d="M248.209 220.994C245.415 220.994 243.143 218.722 243.143 215.928C243.143 213.135 245.415 210.862 248.209 210.862C251.003 210.862 253.275 213.135 253.275 215.928C253.275 218.722 251.003 220.994 248.209 220.994ZM248.209 211.826C245.947 211.826 244.106 213.666 244.106 215.928C244.106 218.19 245.947 220.031 248.209 220.031C250.471 220.031 252.311 218.19 252.311 215.928C252.311 213.666 250.471 211.826 248.209 211.826Z" fill="black"/>
<path d="M331.208 162.389C309.738 162.93 288.269 163.471 266.798 164.012C260.846 164.162 254.276 164.106 249.791 160.262C244.701 155.899 244.646 147.103 249.684 142.701C254.72 138.299 263.644 139.341 267.501 144.783C267.377 135.983 276.407 128.663 285.392 128.998C294.376 129.332 302.304 136.061 305.548 144.274C304.915 138.744 311.581 134.261 317.073 135.704C322.564 137.147 326.067 142.865 326.303 148.424C330.337 142.679 340.607 142.97 344.32 148.936C345.307 150.523 345.857 152.403 345.668 154.249C345.262 158.189 341.555 161.181 337.627 162.127C333.699 163.073 329.572 162.415 331.208 162.389Z" fill="white"/>
<path d="M264.139 164.532C258.707 164.532 253.344 163.941 249.478 160.628C246.941 158.453 245.475 155.118 245.457 151.481C245.439 147.857 246.864 144.524 249.365 142.338C251.875 140.145 255.427 139.138 259.113 139.574C262.294 139.951 265.123 141.352 267.065 143.477C267.363 140.008 269.024 136.652 271.83 133.911C275.473 130.352 280.549 128.333 285.41 128.516C293.408 128.813 301.269 134.346 305.158 142.209C305.496 140.504 306.471 138.884 307.983 137.574C310.542 135.357 314.158 134.44 317.195 135.238C322.742 136.696 326.04 142.146 326.681 147.191C328.747 144.957 331.934 143.701 335.437 143.806C339.424 143.916 342.898 145.739 344.729 148.681C345.833 150.456 346.337 152.452 346.147 154.298C345.692 158.717 341.47 161.696 337.74 162.596C335.203 163.207 331.65 163.262 330.685 162.885L266.81 164.495C265.922 164.517 265.029 164.532 264.139 164.532ZM257.43 140.438C254.595 140.438 251.949 141.361 250 143.063C247.71 145.065 246.405 148.131 246.422 151.475C246.438 154.833 247.78 157.902 250.106 159.895C254.35 163.533 260.417 163.69 266.787 163.53L331.053 161.91C331.104 161.907 331.153 161.907 331.201 161.906C331.344 161.896 331.499 161.976 331.589 162.092C332.654 162.189 335.077 162.244 337.515 161.657C340.926 160.835 344.783 158.15 345.19 154.198C345.358 152.562 344.905 150.783 343.913 149.189C342.253 146.522 339.075 144.87 335.413 144.769C331.754 144.672 328.5 146.137 326.7 148.7C326.582 148.869 326.369 148.944 326.17 148.886C325.972 148.828 325.833 148.65 325.824 148.444C325.611 143.447 322.496 137.627 316.952 136.17C314.214 135.45 310.942 136.287 308.616 138.302C306.728 139.937 305.786 142.094 306.028 144.219C306.056 144.46 305.901 144.683 305.667 144.742C305.432 144.8 305.19 144.677 305.102 144.451C301.742 135.943 293.63 129.786 285.376 129.48C280.764 129.304 275.962 131.223 272.506 134.601C269.539 137.501 267.934 141.115 267.985 144.777C267.988 144.988 267.853 145.177 267.653 145.242C267.452 145.307 267.232 145.235 267.109 145.063C265.354 142.587 262.398 140.936 259.001 140.534C258.472 140.469 257.947 140.438 257.43 140.438Z" fill="black"/>
<g opacity="0.1294">
<path d="M342.888 156.499C342.88 156.507 342.877 156.51 342.872 156.515C341.868 157.273 341.944 157.439 340.53 158.138C339.608 158.556 337.555 159.042 335.694 159.094C333.655 159.208 331.63 158.824 329.59 158.818C324.116 158.797 318.644 158.96 313.171 158.881C306.135 158.976 299.099 159.062 292.064 159.216C289.598 159.312 287.142 159.559 284.68 159.726C281.831 159.903 278.979 160 276.129 160.164C271.859 160.256 267.581 160.587 263.316 160.279C262.624 160.217 261.831 159.989 261.295 160.569C260.455 161.384 261.06 162.927 262.261 162.901C265.229 163.266 268.228 163.194 271.21 163.112C272.361 163.093 273.513 163.062 274.663 163.025C274.81 163.286 275.078 163.476 275.415 163.464C278.909 163.749 282.421 163.599 285.922 163.718C294.15 163.993 302.382 163.892 310.599 163.405C313.646 163.239 316.696 163.14 319.745 163.016C320.816 162.967 321.889 162.916 322.96 162.865C323.28 162.855 323.631 162.858 323.865 162.604C324.025 162.451 324.097 162.242 324.1 162.032C326.064 162.052 328.028 162.06 329.993 162.03C330.471 162.027 330.979 162.023 331.509 162.011C331.504 162.297 331.631 162.586 331.902 162.735C332.2 162.92 332.557 162.814 332.885 162.799C333.472 162.744 334.057 162.673 334.641 162.595C335.661 162.458 336.662 162.214 337.658 161.96C338.084 161.811 338.58 161.774 338.954 161.518C339.172 161.364 339.27 161.15 339.282 160.931C340.902 160.389 342.375 159.577 343.485 158.36C343.816 157.977 344.359 157.665 344.364 157.109C344.379 156.367 343.403 155.956 342.888 156.499Z" fill="black"/>
</g>
<path d="M217.192 283.175C229.513 283.365 241.842 283.066 254.139 282.276C255.736 282.173 257.378 282.05 258.815 281.344C262.453 279.556 263.287 273.963 260.502 271.017C257.718 268.07 252.35 268.401 249.739 271.503C249.494 266.952 245.962 262.484 241.415 262.17C238.507 261.968 235.66 263.426 233.638 265.526C231.617 267.628 230.317 270.317 229.28 273.043C228.933 271.105 226.975 269.758 225.014 269.576C223.054 269.393 221.123 270.145 219.397 271.092C217.047 272.379 214.805 274.196 213.926 276.727C213.048 279.258 213.981 283.125 217.192 283.175Z" fill="white"/>
<path d="M224.313 283.712C221.932 283.712 219.556 283.693 217.184 283.656C215.899 283.636 214.83 283.07 214.095 282.02C213.104 280.604 212.847 278.363 213.47 276.569C214.261 274.291 216.177 272.305 219.164 270.669C221.422 269.432 223.293 268.932 225.058 269.096C226.673 269.246 228.442 270.16 229.297 271.687C230.17 269.577 231.399 267.159 233.289 265.193C235.588 262.804 238.639 261.494 241.448 261.689C245.696 261.984 249.399 265.809 250.111 270.435C251.459 269.251 253.266 268.559 255.215 268.502C257.422 268.438 259.48 269.234 260.851 270.686C262.311 272.23 262.932 274.538 262.513 276.858C262.111 279.093 260.839 280.886 259.027 281.777C257.464 282.546 255.637 282.663 254.17 282.756C244.278 283.392 234.265 283.712 224.313 283.712ZM217.2 282.692C229.456 282.881 241.875 282.58 254.109 281.794C255.563 281.7 257.212 281.595 258.602 280.911C260.137 280.156 261.217 278.617 261.566 276.686C261.93 274.665 261.401 272.669 260.152 271.347C258.968 270.095 257.175 269.412 255.245 269.465C253.216 269.524 251.296 270.402 250.108 271.813C249.98 271.964 249.774 272.022 249.587 271.959C249.399 271.896 249.269 271.726 249.258 271.527C249.01 266.916 245.477 262.933 241.382 262.649C238.857 262.473 236.088 263.674 233.986 265.86C231.849 268.08 230.59 270.956 229.731 273.213C229.654 273.416 229.449 273.542 229.235 273.522C229.019 273.501 228.843 273.34 228.805 273.126C228.484 271.333 226.589 270.205 224.97 270.055C223.408 269.909 221.71 270.373 219.629 271.514C216.857 273.033 215.092 274.839 214.382 276.884C213.854 278.405 214.062 280.288 214.886 281.466C215.444 282.265 216.223 282.677 217.2 282.692Z" fill="black"/>
<g opacity="0.1294">
<path d="M262.24 276.377C262.193 275.632 261.254 275.197 260.633 275.587C260.464 275.695 260.331 275.837 260.237 276.003C260.219 276.026 260.201 276.05 260.185 276.075C259.796 276.583 259.574 277.156 258.737 277.615C257.966 278.151 252.736 279.153 252.008 279.167C249.442 279.35 246.865 279.609 244.29 279.474C242.94 279.408 241.591 279.482 240.24 279.484C238.757 279.478 237.272 279.406 235.79 279.489C231.968 279.607 228.157 279.919 224.34 280.141C222.506 280.164 220.673 280.231 218.839 280.291C218.23 280.308 217.62 280.338 217.011 280.366C216.679 280.364 216.361 280.501 216.127 280.732C215.349 281.465 215.929 282.901 217.011 282.866C219.963 282.717 222.921 282.79 225.874 282.69C229.049 282.555 232.216 282.307 235.395 282.296C237.191 282.214 238.984 282.365 240.779 282.394C242.633 282.366 244.487 282.393 246.341 282.376C248.906 282.243 251.107 281.966 253.062 281.693C253.208 282.204 253.707 282.616 254.359 282.441C255.716 282.259 257.094 282.068 258.362 281.528C258.936 281.274 259.571 280.999 259.945 280.478C260.128 280.158 260.132 279.838 260.027 279.566C260.245 279.42 260.463 279.26 260.689 279.081C261.339 278.475 261.977 277.749 262.206 276.871C262.212 276.851 262.214 276.831 262.219 276.811C262.22 276.809 262.22 276.809 262.222 276.806C262.266 276.664 262.272 276.521 262.24 276.377Z" fill="black"/>
</g>
<path d="M108.588 13.9037C107.834 14.1077 107.423 12.9897 108.092 12.5867C108.108 12.5777 108.123 12.5687 108.139 12.5597C110.133 11.4147 116.51 10.4827 117.406 10.4027C118.432 10.3107 119.459 10.2197 120.345 10.1117C117.845 9.07869 113.945 6.51969 111.202 6.45869C110.525 6.48769 110.246 5.57969 110.835 5.24269C110.901 5.20469 110.97 5.17069 111.04 5.14069C111.603 4.90169 112.235 4.89069 112.848 4.89769C116.075 4.93369 119.183 6.87269 122.307 7.66869C122.902 7.82069 124.837 8.40669 125.502 8.46269C125.55 5.72069 125.81 3.59369 126.773 1.32769C127.121 0.506689 128.3 0.545691 128.597 1.38669L128.607 1.41569C128.635 3.29869 128.189 4.01969 129.059 7.89269C129.314 9.02869 130.778 10.2517 131.264 11.3107C131.952 12.8097 132.103 14.4887 132.541 16.0767C133.241 18.6187 134.707 20.9497 136.703 22.6967C136.55 23.3687 135.179 24.6017 133.583 24.9327C131.887 22.2667 128.999 20.4137 126.13 19.0777C124.863 18.4867 123.511 17.9487 122.111 18.0147C121.19 18.0587 120.305 18.3617 119.41 18.5807C116.895 19.1957 112.942 20.2487 112.942 20.2487C111.914 20.0527 112.551 19.1997 112.932 19.0987L116.404 17.4497C117.433 17.1777 118.832 16.6147 119.494 15.7287C117.54 14.8087 113.444 16.4577 109.699 17.1347C108.473 17.3567 108.643 16.4277 108.974 15.9337C110.032 14.7687 118.242 13.4637 119.877 12.8977C119.88 12.8997 111.675 13.0687 108.588 13.9037Z" fill="white"/>
<path d="M133.584 25.4176C133.421 25.4176 133.267 25.3346 133.177 25.1936C131.78 22.9956 129.408 21.1386 125.927 19.5166C124.527 18.8636 123.343 18.4396 122.135 18.4986C121.491 18.5286 120.861 18.6986 120.193 18.8776C119.971 18.9376 119.748 18.9966 119.526 19.0516C117.045 19.6576 113.108 20.7066 113.068 20.7166C112.999 20.7356 112.925 20.7376 112.854 20.7246C112.021 20.5656 111.912 20.0386 111.905 19.8196C111.887 19.3046 112.331 18.7946 112.759 18.6516L116.199 17.0166C116.226 17.0036 116.254 16.9936 116.282 16.9866C117.207 16.7416 118.008 16.3816 118.561 15.9706C117.261 15.8086 115.304 16.3016 113.251 16.8196C112.114 17.1066 110.938 17.4036 109.787 17.6116C108.967 17.7606 108.586 17.4736 108.412 17.2086C108.095 16.7246 108.302 16.0756 108.576 15.6676C108.589 15.6476 108.604 15.6296 108.62 15.6116C109.245 14.9236 111.497 14.3076 114.533 13.6286C112.351 13.7786 110.036 14.0126 108.714 14.3696C108.162 14.5196 107.61 14.2436 107.378 13.6986C107.134 13.1256 107.33 12.4846 107.845 12.1746L107.902 12.1416C110.08 10.8906 116.718 9.98057 117.364 9.92357C117.763 9.88757 118.167 9.85157 118.564 9.81457C118.246 9.65557 117.918 9.48758 117.583 9.31658C115.438 8.22258 113.007 6.98257 111.194 6.94157C110.685 6.96357 110.23 6.63157 110.08 6.11257C109.933 5.60357 110.141 5.08557 110.598 4.82457C110.681 4.77657 110.766 4.73458 110.854 4.69758C111.495 4.42458 112.194 4.40757 112.855 4.41657C114.974 4.43957 117.026 5.24357 119.011 6.02057C120.136 6.46057 121.299 6.91557 122.428 7.20357C122.581 7.24257 122.82 7.30957 123.104 7.38957C123.648 7.54157 124.461 7.76957 125.035 7.89557C125.107 5.48357 125.382 3.37557 126.331 1.14157C126.567 0.583572 127.109 0.236574 127.719 0.254574C128.327 0.273574 128.851 0.655573 129.053 1.22857C129.071 1.27757 129.09 1.35857 129.091 1.41057C129.098 1.92957 129.071 2.36357 129.046 2.78257C128.975 3.92857 128.908 5.01157 129.532 7.78957C129.654 8.33257 130.164 8.97157 130.658 9.58857C131.077 10.1126 131.473 10.6076 131.705 11.1126C132.177 12.1406 132.407 13.2416 132.629 14.3066C132.743 14.8516 132.86 15.4156 133.008 15.9526C133.68 18.3926 135.106 20.6606 137.023 22.3376C137.156 22.4546 137.215 22.6346 137.176 22.8066C136.969 23.7176 135.399 25.0526 133.684 25.4086C133.649 25.4146 133.616 25.4176 133.584 25.4176ZM122.346 17.5296C123.745 17.5296 125.088 18.0616 126.335 18.6426C129.835 20.2746 132.281 22.1556 133.798 24.3846C134.918 24.0566 135.808 23.2856 136.119 22.8226C134.197 21.0486 132.766 18.7126 132.076 16.2066C131.92 15.6406 131.799 15.0616 131.682 14.5016C131.461 13.4426 131.252 12.4426 130.826 11.5136C130.643 11.1166 130.284 10.6656 129.902 10.1896C129.34 9.48657 128.759 8.76057 128.589 8.00057C127.935 5.08857 128.009 3.88557 128.082 2.72257C128.106 2.32857 128.129 1.95557 128.126 1.51357C128.001 1.24657 127.762 1.22057 127.688 1.21757C127.615 1.21457 127.34 1.22857 127.217 1.51757C126.256 3.78057 126.029 5.93457 125.985 8.47257C125.983 8.60657 125.925 8.73258 125.826 8.82258C125.727 8.91258 125.596 8.95657 125.462 8.94557C124.962 8.90357 123.937 8.62457 122.842 8.31857C122.568 8.24157 122.336 8.17657 122.188 8.13857C121.001 7.83557 119.81 7.36957 118.658 6.91857C116.754 6.17357 114.785 5.40257 112.843 5.38157C112.261 5.37457 111.7 5.38558 111.229 5.58658C111.176 5.60858 111.125 5.63457 111.074 5.66357C111.005 5.70357 110.981 5.76457 111.005 5.84657C111.02 5.89857 111.058 5.98857 111.183 5.97957C113.248 6.02457 115.783 7.31757 118.02 8.45857C118.936 8.92557 119.802 9.36757 120.53 9.66857C120.733 9.75157 120.853 9.96157 120.823 10.1796C120.793 10.3976 120.621 10.5666 120.403 10.5936C119.51 10.7016 118.464 10.7946 117.452 10.8856C116.534 10.9676 110.266 11.8966 108.38 12.9806L108.341 12.9996C108.176 13.0986 108.255 13.2966 108.264 13.3186C108.33 13.4736 108.426 13.4476 108.462 13.4376C111.57 12.5966 119.532 12.4236 119.87 12.4166C119.873 12.4166 119.877 12.4166 119.88 12.4166C120.113 12.4166 120.314 12.5836 120.355 12.8136C120.397 13.0466 120.262 13.2766 120.038 13.3546C119.48 13.5466 118.292 13.8016 116.788 14.1226C114.258 14.6636 110.045 15.5636 109.356 16.2346C109.236 16.4276 109.204 16.6226 109.22 16.6796C109.224 16.6766 109.262 16.6866 109.349 16.6866C109.411 16.6866 109.497 16.6816 109.614 16.6596C110.733 16.4566 111.893 16.1646 113.015 15.8816C115.788 15.1816 118.183 14.5776 119.701 15.2926C119.832 15.3546 119.929 15.4716 119.964 15.6116C119.999 15.7516 119.969 15.9016 119.882 16.0166C119.048 17.1336 117.322 17.7016 116.572 17.9036L113.14 19.5346C113.113 19.5476 113.085 19.5566 113.057 19.5646C113.01 19.5846 112.93 19.6686 112.89 19.7356C112.903 19.7406 112.918 19.7456 112.936 19.7516C113.611 19.5726 117.047 18.6626 119.296 18.1126C119.512 18.0596 119.728 18.0026 119.943 17.9446C120.631 17.7596 121.341 17.5696 122.089 17.5336C122.175 17.5316 122.261 17.5296 122.346 17.5296Z" fill="black"/>
<path d="M187.255 111.027C188.387 110.675 189.603 110.764 190.783 110.856C194.008 111.108 197.232 111.36 200.456 111.613C202.331 111.759 204.444 112.032 205.562 113.543C206.309 114.551 206.417 115.937 206.056 117.139C205.695 118.34 204.912 119.376 204.014 120.252C203.067 121.177 201.941 121.969 200.652 122.275C197.971 122.912 195.285 121.355 193.099 119.675C191.363 118.341 189.718 116.884 188.183 115.321C187.638 114.766 187.087 114.164 186.887 113.412C186.602 112.341 187.086 111.229 187.255 111.027Z" fill="#ACD4F7"/>
<path d="M199.392 122.903C196.841 122.903 194.464 121.333 192.805 120.058C191.057 118.714 189.386 117.234 187.839 115.66C187.247 115.057 186.65 114.396 186.421 113.537C186.096 112.316 186.612 111.043 186.883 110.718C186.943 110.646 187.022 110.593 187.111 110.566C188.347 110.182 189.662 110.285 190.821 110.376L200.494 111.132C202.488 111.288 204.72 111.594 205.95 113.256C206.742 114.326 206.955 115.829 206.518 117.277C206.173 118.425 205.464 119.511 204.351 120.597C203.187 121.733 201.98 122.455 200.764 122.744C200.303 122.854 199.844 122.903 199.392 122.903ZM187.566 111.438C187.414 111.746 187.154 112.544 187.352 113.289C187.521 113.922 188.003 114.452 188.527 114.984C190.042 116.527 191.679 117.977 193.392 119.293C195.189 120.674 197.883 122.438 200.539 121.806C201.583 121.558 202.639 120.919 203.676 119.907C204.669 118.939 205.296 117.988 205.593 117C205.937 115.859 205.776 114.645 205.173 113.831C204.184 112.495 202.199 112.234 200.417 112.095L190.744 111.339C189.68 111.254 188.579 111.167 187.566 111.438Z" fill="black"/>
<path d="M162.425 112.362C166.944 97.4299 170.314 82.1509 171.667 65.9319C162.669 59.1559 144.263 57.0699 140.334 48.5689C135.15 37.3569 130.26 28.6769 128.605 20.8749C128.605 20.8749 136.191 18.3959 135.93 18.3359C137.948 24.2629 144.791 34.2589 150.592 42.5499C153.381 46.5359 167.227 46.2749 175.729 48.7739C191.78 53.8759 200.101 50.8499 208.175 64.4299C213.328 73.0959 212.87 87.6499 228.167 108.528C225.883 110.845 223.43 112.995 220.769 114.673C218.156 111.106 215.541 107.539 212.928 103.971C210.964 101.292 208.992 98.5989 207.478 95.6429C205.846 92.4619 204.772 89.0309 203.706 85.6189C202.736 82.5189 201.768 79.4189 200.461 76.0459C196.302 90.6069 194.302 106.969 185.648 118.97C177.613 117.333 169.141 115.479 162.425 112.362Z" fill="white"/>
<path d="M185.648 119.452C185.616 119.452 185.584 119.449 185.551 119.442C177.422 117.786 168.924 115.909 162.222 112.799C162.004 112.698 161.894 112.452 161.964 112.222C166.911 95.8737 169.922 80.8027 171.164 66.1587C167.541 63.5057 162.36 61.5477 157.346 59.6537C149.608 56.7307 142.298 53.9687 139.895 48.7707C138.608 45.9867 137.349 43.3787 136.131 40.8577C132.513 33.3647 129.387 26.8937 128.131 20.9747C128.08 20.7337 128.219 20.4937 128.453 20.4167C130.944 19.6027 134.974 18.2567 135.609 17.9737C135.724 17.8727 135.883 17.8307 136.035 17.8657C136.223 17.9087 136.37 18.0627 136.407 18.2477C138.407 24.0487 144.978 33.6877 150.985 42.2737C152.601 44.5847 158.788 45.4417 164.772 46.2707C168.631 46.8057 172.622 47.3587 175.862 48.3117C180.385 49.7497 184.298 50.5407 187.751 51.2387C196.744 53.0577 202.686 54.2587 208.587 64.1837C210.406 67.2437 211.546 71.0537 212.866 75.4647C215.428 84.0257 218.615 94.6807 228.554 108.243C228.694 108.434 228.674 108.698 228.508 108.867C225.887 111.526 223.438 113.558 221.023 115.081C220.808 115.216 220.527 115.162 220.377 114.958L212.535 104.256C210.592 101.604 208.582 98.8607 207.045 95.8627C205.392 92.6367 204.299 89.1417 203.241 85.7627C202.419 83.1327 201.575 80.4337 200.525 77.5907C199.639 80.8177 198.835 84.1577 198.054 87.4027C195.355 98.6087 192.565 110.197 186.035 119.253C185.947 119.379 185.801 119.452 185.648 119.452ZM163.009 112.099C169.473 115.024 177.612 116.837 185.437 118.435C191.727 109.569 194.468 98.1867 197.119 87.1767C198.017 83.4467 198.946 79.5897 199.996 75.9137C200.053 75.7147 200.231 75.5737 200.438 75.5647C200.647 75.5577 200.834 75.6797 200.909 75.8727C202.22 79.2557 203.207 82.4127 204.161 85.4637C205.21 88.8167 206.29 92.2717 207.906 95.4237C209.408 98.3537 211.395 101.065 213.316 103.687L220.889 114.023C223.031 112.626 225.212 110.807 227.535 108.481C217.688 94.9357 214.372 83.8517 211.944 75.7417C210.643 71.3917 209.519 67.6347 207.76 64.6777C202.077 55.1207 196.303 53.9527 187.562 52.1857C184.085 51.4827 180.145 50.6857 175.583 49.2357C172.421 48.3067 168.466 47.7587 164.642 47.2287C158.169 46.3317 152.055 45.4837 150.197 42.8287C144.297 34.3957 137.854 24.9457 135.651 18.9937C134.791 19.3517 132.977 19.9547 129.17 21.2007C130.46 26.8937 133.498 33.1847 137.002 40.4417C138.221 42.9667 139.482 45.5777 140.773 48.3697C143.01 53.2097 150.14 55.9027 157.689 58.7547C162.866 60.7107 168.218 62.7327 171.959 65.5497C172.091 65.6497 172.163 65.8097 172.149 65.9747C170.924 80.6477 167.935 95.7397 163.009 112.099Z" fill="black"/>
<path d="M191.166 42.5681C189.603 45.9591 187.776 49.2281 185.429 52.5821C186.051 54.7921 187.03 56.9381 188.321 58.9231C188.677 59.4701 189.107 60.0441 189.745 60.2601C190.489 60.5121 191.257 60.1991 191.93 59.8911C193.641 59.1081 195.453 58.2341 196.293 56.6371C196.657 55.9431 196.81 55.1581 196.957 54.3841C197.52 51.4501 198.081 48.5161 198.643 45.5821C196.936 44.7391 195.229 43.8961 193.522 43.0531C192.756 42.6771 191.943 42.2881 191.166 42.5681Z" fill="white"/>
<path d="M190.314 60.8348C190.075 60.8348 189.833 60.7998 189.589 60.7168C188.825 60.4578 188.333 59.8278 187.915 59.1858C186.594 57.1548 185.601 54.9768 184.963 52.7118C184.925 52.5728 184.949 52.4228 185.032 52.3048C187.226 49.1708 189.09 45.9188 190.727 42.3658C190.781 42.2488 190.879 42.1578 191.001 42.1138C191.984 41.7588 192.954 42.2368 193.732 42.6208L198.853 45.1498C199.047 45.2458 199.153 45.4598 199.113 45.6728L197.427 54.4748C197.275 55.2738 197.116 56.0998 196.716 56.8618C195.84 58.5288 194.119 59.4188 192.126 60.3308C191.577 60.5838 190.958 60.8348 190.314 60.8348ZM185.955 52.6698C186.568 54.7618 187.499 56.7768 188.725 58.6608C189.048 59.1578 189.414 59.6398 189.9 59.8048C190.463 59.9948 191.112 59.7368 191.728 59.4538C193.557 58.6178 195.13 57.8108 195.865 56.4128C196.2 55.7778 196.344 55.0228 196.483 54.2938L198.099 45.8528L193.307 43.4858C192.724 43.1978 192.07 42.8768 191.51 42.9738C189.903 46.4298 188.084 49.6058 185.955 52.6698Z" fill="black"/>
<path d="M154.453 157.546L118.089 146.52L77.042 188.852L137.509 178.458L154.453 157.546Z" fill="white"/>
<path d="M77.0416 189.333C76.8646 189.333 76.6996 189.236 76.6156 189.076C76.5176 188.891 76.5506 188.665 76.6956 188.515L117.743 146.184C117.869 146.054 118.056 146.006 118.229 146.058L154.592 157.083C154.746 157.13 154.866 157.25 154.913 157.403C154.96 157.556 154.928 157.723 154.827 157.848L137.884 178.76C137.811 178.851 137.706 178.911 137.591 178.932L77.1236 189.325C77.0966 189.331 77.0686 189.333 77.0416 189.333ZM118.231 147.067L78.4176 188.125L137.249 178.014L153.627 157.799L118.231 147.067Z" fill="black"/>
<path d="M192.493 203.231L188.694 241.039L133.836 262.659L166.675 210.834L192.493 203.231Z" fill="white"/>
<path d="M133.836 263.142C133.695 263.142 133.558 263.079 133.464 262.967C133.331 262.806 133.317 262.577 133.428 262.402L166.266 210.577C166.329 210.477 166.425 210.405 166.537 210.372L192.356 202.769C192.51 202.724 192.676 202.758 192.799 202.861C192.923 202.964 192.987 203.121 192.971 203.28L189.172 241.088C189.154 241.268 189.037 241.422 188.869 241.488L134.011 263.108C133.956 263.131 133.896 263.142 133.836 263.142ZM166.985 211.245L135.035 261.668L188.243 240.697L191.941 203.896L166.985 211.245Z" fill="black"/>
<path d="M146.195 217.389C136.366 226.082 134.042 231.485 130.368 236.685C118.911 226.242 110.519 214.114 105.588 200.699C115.339 199.024 121.63 196.335 129.089 192.803C134.42 201.645 141.019 209.531 146.195 217.389Z" fill="white"/>
<path d="M130.368 237.166C130.248 237.166 130.133 237.121 130.043 237.04C118.457 226.477 110.077 214.306 105.135 200.863C105.086 200.728 105.099 200.579 105.17 200.455C105.242 200.331 105.365 200.246 105.506 200.222C115.367 198.529 121.669 195.782 128.882 192.366C129.105 192.261 129.373 192.341 129.501 192.553C132.605 197.7 136.152 202.54 139.582 207.221C142.08 210.628 144.438 213.846 146.597 217.123C146.729 217.323 146.693 217.59 146.514 217.749C138.855 224.523 135.771 229.305 133.051 233.521C132.284 234.709 131.56 235.833 130.761 236.962C130.681 237.075 130.557 237.149 130.42 237.163C130.402 237.165 130.385 237.166 130.368 237.166ZM106.242 201.072C111.096 213.997 119.181 225.728 130.288 235.956C130.955 234.991 131.582 234.019 132.241 232.998C134.958 228.786 138.033 224.02 145.563 217.305C143.48 214.167 141.207 211.066 138.806 207.79C135.446 203.204 131.973 198.468 128.903 193.423C121.922 196.719 115.718 199.383 106.242 201.072Z" fill="black"/>
<path d="M127.039 198.52C129.722 204.306 133.354 209.599 137.798 214.16C141.926 218.396 146.742 222.078 152.076 224.975C153.493 225.744 153.404 225.109 154.893 225.77C172.533 221.221 244.158 175.045 264.648 160.427C307.372 129.948 319.409 73.5654 319.409 73.5654C319.409 73.5654 262.178 66.5994 219.454 97.0784C198.078 112.328 132.137 167.18 122.229 182.907C123.146 188.366 124.767 193.619 127.039 198.52Z" fill="white"/>
<path d="M154.894 226.254C154.827 226.254 154.76 226.24 154.699 226.213C154.068 225.932 153.78 225.916 153.476 225.899C153.085 225.877 152.681 225.854 151.847 225.401C146.533 222.514 141.69 218.846 137.453 214.499C132.974 209.902 129.324 204.596 126.602 198.726C124.308 193.778 122.677 188.483 121.754 182.99C121.734 182.874 121.758 182.754 121.821 182.653C131.73 166.924 197.197 112.367 219.174 96.6887C241.329 80.8827 267.418 75.3087 285.403 73.4157C304.881 71.3657 319.324 73.0727 319.467 73.0897C319.602 73.1057 319.723 73.1777 319.802 73.2877C319.88 73.3977 319.908 73.5367 319.881 73.6687C319.851 73.8107 316.764 88.0227 308.487 105.773C300.844 122.163 287.084 145.017 264.928 160.823C245.308 174.82 173.112 221.573 155.013 226.24C154.974 226.249 154.934 226.254 154.894 226.254ZM122.736 183.011C123.65 188.354 125.245 193.503 127.477 198.319C130.152 204.09 133.741 209.307 138.143 213.825C142.312 218.104 147.078 221.714 152.306 224.554C152.951 224.904 153.207 224.919 153.53 224.937C153.848 224.956 154.239 224.978 154.931 225.264C172.425 220.586 243.547 174.892 264.368 160.037C286.345 144.359 300.01 121.665 307.602 105.388C314.948 89.6397 318.183 76.6997 318.818 73.9877C316.047 73.7047 302.758 72.5537 285.478 74.3757C267.616 76.2587 241.71 81.7937 219.734 97.4727C197.873 113.068 132.922 167.163 122.736 183.011Z" fill="black"/>
<path d="M153.183 216.35C146.28 211.35 140.585 204.615 136.094 197.412C133.575 193.373 131.521 189.116 129.867 184.653C129.015 182.353 128.272 180.005 127.705 177.617C127.607 177.206 127.514 176.791 127.423 176.376C125.1 178.96 123.323 181.173 122.229 182.908C123.146 188.367 124.767 193.62 127.039 198.521C129.722 204.307 133.354 209.6 137.798 214.161C141.926 218.397 146.742 222.079 152.076 224.976C153.493 225.745 153.404 225.11 154.893 225.771C157.147 225.19 160.285 223.927 164.083 222.139C160.189 220.754 156.532 218.775 153.183 216.35Z" fill="white"/>
<path d="M154.894 226.253C154.827 226.253 154.76 226.239 154.699 226.212C154.068 225.932 153.78 225.915 153.476 225.898C153.085 225.876 152.681 225.853 151.847 225.4C146.533 222.513 141.69 218.845 137.453 214.498C132.974 209.901 129.324 204.595 126.602 198.725C124.309 193.777 122.677 188.482 121.754 182.989C121.734 182.873 121.758 182.753 121.821 182.652C122.892 180.952 124.656 178.732 127.065 176.054C127.186 175.919 127.372 175.865 127.547 175.91C127.722 175.957 127.857 176.097 127.895 176.273C127.984 176.685 128.078 177.097 128.174 177.506C128.703 179.735 129.405 182.019 130.319 184.485C131.987 188.987 134.067 193.25 136.502 197.156C141.419 205.041 147.126 211.367 153.465 215.959C156.871 218.426 160.498 220.353 164.245 221.685C164.429 221.75 164.555 221.92 164.565 222.116C164.575 222.31 164.465 222.493 164.289 222.576C160.331 224.44 157.21 225.673 155.015 226.238C154.974 226.248 154.934 226.253 154.894 226.253ZM122.736 183.01C123.65 188.354 125.245 193.502 127.477 198.318C130.152 204.089 133.741 209.306 138.143 213.824C142.312 218.103 147.078 221.713 152.306 224.553C152.951 224.903 153.207 224.918 153.53 224.936C153.848 224.955 154.239 224.977 154.931 225.263C156.862 224.747 159.515 223.715 162.833 222.19C159.386 220.853 156.049 219.023 152.899 216.742C146.458 212.076 140.666 205.659 135.683 197.668C133.213 193.708 131.104 189.386 129.414 184.822C128.486 182.318 127.773 179.998 127.235 177.729C127.209 177.62 127.183 177.508 127.158 177.399C125.175 179.643 123.689 181.527 122.736 183.01Z" fill="black"/>
<path d="M248.282 97.6651C251.024 102.714 253.91 107.681 257.024 112.497C260.128 117.299 263.461 121.954 267.102 126.367C270.695 130.72 274.588 134.835 278.85 138.596C280.526 140.075 282.263 141.484 284.05 142.838C311.152 112.236 319.407 73.5681 319.407 73.5681C319.407 73.5681 279.613 68.7251 241.619 84.7881C243.773 89.1171 245.978 93.4201 248.282 97.6651Z" fill="white"/>
<path d="M284.051 143.319C283.949 143.319 283.847 143.287 283.76 143.221C281.907 141.817 280.15 140.382 278.533 138.956C274.47 135.372 270.501 131.239 266.732 126.672C263.263 122.468 259.956 117.917 256.62 112.757C253.727 108.282 250.861 103.421 247.859 97.8928C245.766 94.0398 243.647 89.9428 241.189 84.9988C241.129 84.8798 241.122 84.7408 241.168 84.6168C241.214 84.4918 241.31 84.3918 241.433 84.3398C261.123 76.0158 281.287 73.3988 294.736 72.6698C309.307 71.8788 319.367 73.0738 319.466 73.0868C319.601 73.1028 319.722 73.1748 319.801 73.2848C319.879 73.3948 319.907 73.5338 319.88 73.6658C319.859 73.7628 317.744 83.5288 312.34 96.9048C307.352 109.251 298.457 127.296 284.411 143.155C284.317 143.264 284.185 143.319 284.051 143.319ZM248.707 97.4348C251.697 102.94 254.551 107.781 257.431 112.235C260.745 117.363 264.032 121.884 267.477 126.059C271.213 130.587 275.148 134.683 279.171 138.233C280.665 139.552 282.283 140.879 283.986 142.181C297.764 126.513 306.513 108.748 311.438 96.5658C316.108 85.0108 318.307 76.1728 318.818 73.9868C316.568 73.7568 307.369 72.9498 294.766 73.6348C281.507 74.3548 261.685 76.9208 242.282 85.0308C244.638 89.7588 246.686 93.7118 248.707 97.4348Z" fill="black"/>
<path d="M284.062 128.808C280.71 125.225 277.529 121.483 274.527 117.602C271.507 113.697 268.66 109.659 266.022 105.486C263.406 101.347 260.975 97.0874 258.784 92.7094C256.784 88.7164 254.957 84.6354 253.307 80.4844C249.422 81.7184 245.513 83.1414 241.621 84.7864C243.774 89.1174 245.978 93.4204 248.283 97.6644C251.025 102.713 253.911 107.679 257.025 112.496C260.129 117.298 263.462 121.953 267.103 126.366C270.696 130.719 274.589 134.834 278.851 138.595C280.527 140.074 282.264 141.483 284.051 142.837C286.273 140.328 288.362 137.763 290.336 135.171C288.18 133.114 286.092 130.98 284.062 128.808Z" fill="white"/>
<path d="M284.051 143.319C283.949 143.319 283.847 143.287 283.76 143.221C281.907 141.817 280.15 140.382 278.533 138.956C274.47 135.372 270.501 131.239 266.732 126.672C263.263 122.468 259.956 117.917 256.62 112.757C253.727 108.282 250.861 103.421 247.859 97.8929C245.766 94.0399 243.647 89.9429 241.189 84.9989C241.129 84.8799 241.122 84.7409 241.168 84.6169C241.214 84.4919 241.31 84.3919 241.433 84.3399C245.172 82.7589 249.119 81.3059 253.16 80.0219C253.401 79.9449 253.661 80.0679 253.754 80.3039C255.394 84.4279 257.231 88.5289 259.214 92.4909C261.324 96.7069 263.752 100.991 266.429 105.227C268.988 109.274 271.84 113.338 274.908 117.306C277.896 121.17 281.095 124.929 284.413 128.478C286.611 130.828 288.658 132.903 290.67 134.82C290.848 134.989 290.869 135.266 290.721 135.462C288.657 138.17 286.534 140.759 284.412 143.155C284.317 143.264 284.185 143.319 284.051 143.319ZM242.282 85.0309C244.637 89.7599 246.685 93.7119 248.707 97.4339C251.697 102.939 254.551 107.78 257.431 112.234C260.745 117.362 264.032 121.883 267.477 126.058C271.213 130.586 275.148 134.682 279.171 138.232C280.665 139.551 282.283 140.878 283.986 142.18C285.904 139.998 287.821 137.66 289.691 135.22C287.767 133.373 285.806 131.379 283.709 129.137C280.369 125.566 277.151 121.784 274.145 117.896C271.059 113.904 268.189 109.815 265.614 105.742C262.921 101.48 260.477 97.1669 258.352 92.9229C256.423 89.0699 254.632 85.0879 253.026 81.0779C249.331 82.2669 245.721 83.5939 242.282 85.0309Z" fill="black"/>
<path d="M223.699 162.88C234.272 162.88 242.844 154.308 242.844 143.735C242.844 133.161 234.272 124.59 223.699 124.59C213.125 124.59 204.554 133.161 204.554 143.735C204.554 154.308 213.125 162.88 223.699 162.88Z" fill="white"/>
<path d="M223.741 163.367C222.652 163.367 221.555 163.276 220.461 163.094C215.29 162.229 210.766 159.403 207.721 155.134C204.676 150.866 203.476 145.668 204.34 140.497C205.205 135.326 208.032 130.802 212.3 127.757C216.568 124.712 221.766 123.51 226.938 124.376C232.108 125.241 236.633 128.068 239.677 132.336C242.723 136.604 243.923 141.802 243.058 146.973C242.194 152.144 239.367 156.668 235.098 159.713C231.734 162.113 227.792 163.367 223.741 163.367ZM223.659 125.067C219.806 125.067 216.059 126.259 212.86 128.542C208.801 131.437 206.114 135.74 205.291 140.656C204.469 145.573 205.61 150.516 208.506 154.574C211.401 158.632 215.703 161.32 220.62 162.142C225.537 162.965 230.48 161.823 234.538 158.928C238.597 156.032 241.284 151.73 242.106 146.813C242.928 141.896 241.787 136.953 238.892 132.895C235.996 128.836 231.694 126.149 226.778 125.326C225.737 125.153 224.694 125.067 223.659 125.067Z" fill="black"/>
<path d="M223.699 157.438C231.268 157.438 237.403 151.303 237.403 143.734C237.403 136.166 231.268 130.03 223.699 130.03C216.131 130.03 209.995 136.166 209.995 143.734C209.995 151.303 216.131 157.438 223.699 157.438Z" fill="white"/>
<path d="M223.729 157.923C222.942 157.923 222.15 157.858 221.358 157.725C217.621 157.1 214.351 155.057 212.151 151.973C209.95 148.888 209.082 145.131 209.708 141.394C210.333 137.657 212.376 134.387 215.46 132.186C221.827 127.643 230.705 129.128 235.247 135.496C237.447 138.581 238.315 142.338 237.69 146.075C237.065 149.812 235.022 153.082 231.937 155.282C229.506 157.017 226.657 157.923 223.729 157.923ZM216.021 132.971C213.146 135.022 211.242 138.07 210.659 141.553C210.077 145.036 210.886 148.538 212.936 151.412C214.988 154.287 218.035 156.191 221.518 156.774C225 157.356 228.503 156.547 231.378 154.497C234.252 152.446 236.156 149.398 236.739 145.915C237.322 142.432 236.513 138.93 234.462 136.056C230.229 130.121 221.955 128.738 216.021 132.971Z" fill="black"/>
<path d="M168.993 196.403C177.939 196.403 185.191 189.151 185.191 180.205C185.191 171.259 177.939 164.007 168.993 164.007C160.047 164.007 152.795 171.259 152.795 180.205C152.795 189.151 160.047 196.403 168.993 196.403Z" fill="white"/>
<path d="M169.016 196.879C163.804 196.879 158.666 194.448 155.415 189.892C152.827 186.265 151.807 181.847 152.542 177.454C153.277 173.059 155.68 169.214 159.306 166.627C162.933 164.039 167.35 163.02 171.745 163.754C176.139 164.489 179.984 166.892 182.572 170.519C185.159 174.146 186.179 178.563 185.445 182.957C184.71 187.352 182.307 191.196 178.68 193.784C175.75 195.874 172.368 196.879 169.016 196.879ZM168.96 164.485C165.716 164.485 162.56 165.489 159.866 167.411C156.449 169.849 154.185 173.472 153.493 177.612C152.801 181.752 153.762 185.914 156.2 189.331C161.233 196.386 171.066 198.03 178.121 192.998C181.538 190.56 183.801 186.937 184.495 182.797C185.187 178.656 184.225 174.495 181.788 171.077C179.35 167.66 175.727 165.396 171.587 164.704C170.709 164.558 169.832 164.485 168.96 164.485Z" fill="black"/>
<path d="M168.993 191.798C175.397 191.798 180.587 186.608 180.587 180.204C180.587 173.801 175.397 168.61 168.993 168.61C162.59 168.61 157.399 173.801 157.399 180.204C157.399 186.608 162.59 191.798 168.993 191.798Z" fill="white"/>
<path d="M169.019 192.282C168.35 192.282 167.675 192.226 167.001 192.113C163.82 191.582 161.036 189.842 159.163 187.217C155.296 181.796 156.561 174.24 161.981 170.373C164.606 168.5 167.803 167.761 170.986 168.293C174.167 168.825 176.951 170.564 178.824 173.19C180.697 175.815 181.436 179.013 180.904 182.195C180.372 185.377 178.632 188.16 176.006 190.034C173.937 191.511 171.511 192.282 169.019 192.282ZM168.97 169.089C166.677 169.089 164.445 169.799 162.541 171.157C157.553 174.716 156.39 181.669 159.948 186.656C161.672 189.073 164.233 190.673 167.16 191.162C170.089 191.651 173.03 190.973 175.446 189.249C177.863 187.525 179.463 184.964 179.953 182.036C180.442 179.109 179.763 176.166 178.039 173.75C176.315 171.334 173.754 169.733 170.827 169.244C170.207 169.141 169.586 169.089 168.97 169.089Z" fill="black"/>
<path d="M187.622 63.8761C185.082 67.0181 182.313 70.0381 178.947 72.2711C175.581 74.5051 171.545 75.9121 167.52 75.5621C162.92 75.1631 158.605 72.5321 154 72.8651C149.794 73.1691 146.111 75.9061 141.935 76.7751C144.827 78.5771 147.72 80.3791 150.612 82.1821C152.047 83.0761 153.503 83.9801 155.118 84.4781C157.07 85.0801 159.16 85.0591 161.194 84.8651C172.464 83.7891 183.087 77.2591 189.136 67.6881C189.61 66.9391 190.071 66.1201 190.049 65.2331C190.027 64.3461 189.323 63.4201 187.622 63.8761Z" fill="white"/>
<path d="M158.888 85.4699C157.64 85.4699 156.29 85.3439 154.976 84.9389C153.289 84.4189 151.798 83.4899 150.356 82.5909L141.678 77.1839C141.511 77.0799 141.424 76.8839 141.458 76.6899C141.492 76.4959 141.642 76.3419 141.834 76.3019C143.621 75.9299 145.362 75.1879 147.045 74.4699C149.247 73.5309 151.524 72.5599 153.963 72.3829C156.668 72.1879 159.285 72.9839 161.815 73.7539C163.688 74.3239 165.625 74.9129 167.559 75.0819C171.137 75.3909 175.087 74.2519 178.678 71.8689C182.233 69.5109 185.123 66.1969 187.243 63.5729C187.307 63.4929 187.395 63.4369 187.494 63.4099C188.66 63.0969 189.373 63.3809 189.765 63.6739C190.235 64.0259 190.513 64.5899 190.529 65.2199C190.554 66.2519 190.032 67.1669 189.541 67.9439C183.444 77.5909 172.599 84.2579 161.238 85.3429C160.53 85.4129 159.732 85.4699 158.888 85.4699ZM143.157 76.9689L150.866 81.7729C152.256 82.6389 153.693 83.5339 155.26 84.0169C157.301 84.6459 159.479 84.5439 161.148 84.3849C172.218 83.3279 182.786 76.8309 188.729 67.4309C189.164 66.7429 189.586 66.0079 189.568 65.2449C189.559 64.9119 189.422 64.6209 189.19 64.4479C188.899 64.2299 188.452 64.1809 187.894 64.3059C185.739 66.9629 182.821 70.2809 179.213 72.6739C175.441 75.1759 171.277 76.3749 167.478 76.0439C165.443 75.8669 163.457 75.2629 161.537 74.6779C158.979 73.8999 156.561 73.1649 154.036 73.3469C151.757 73.5119 149.654 74.4089 147.427 75.3589C146.046 75.9459 144.63 76.5499 143.157 76.9689Z" fill="black"/>
<path d="M201.631 171.402C200.024 174.446 198.278 177.418 196.658 181.094C198.574 182.274 200.49 183.453 202.405 184.633C205.243 186.381 208.11 188.143 211.402 189.003C211.685 186.796 210.394 184.701 208.957 183.002C207.52 181.303 205.839 179.711 205.073 177.621C204.662 176.496 204.54 175.282 204.157 174.147C203.774 173.013 203.036 171.892 201.631 171.402Z" fill="white"/>
<path d="M211.402 189.487C211.362 189.487 211.321 189.482 211.28 189.471C207.907 188.589 204.982 186.787 202.153 185.045L196.405 181.505C196.2 181.379 196.12 181.12 196.217 180.901C197.429 178.151 198.708 175.797 199.945 173.519C200.371 172.735 200.793 171.958 201.206 171.177C201.316 170.967 201.564 170.868 201.79 170.948C203.122 171.412 204.1 172.465 204.615 173.995C204.804 174.557 204.932 175.134 205.055 175.692C205.192 176.31 205.321 176.894 205.527 177.457C206.108 179.045 207.293 180.382 208.439 181.676C208.738 182.014 209.037 182.351 209.326 182.693C211.297 185.023 212.133 187.108 211.882 189.067C211.864 189.205 211.788 189.328 211.674 189.406C211.592 189.459 211.498 189.487 211.402 189.487ZM197.271 180.906L202.659 184.224C205.266 185.829 207.956 187.486 210.961 188.38C210.958 186.856 210.178 185.192 208.59 183.315C208.306 182.978 208.012 182.647 207.717 182.314C206.512 180.954 205.266 179.547 204.622 177.789C204.393 177.166 204.252 176.522 204.114 175.9C203.991 175.342 203.874 174.815 203.702 174.302C203.331 173.203 202.71 172.436 201.852 172.016C201.503 172.669 201.15 173.322 200.792 173.979C199.623 176.133 198.416 178.354 197.271 180.906Z" fill="black"/>
<path d="M162.442 112.142C161.237 118.828 160.504 123.969 164.95 129.105C169.599 134.477 177.333 134.078 192.745 134.078C193.726 134.078 198.324 134.366 199.143 134.906C200.408 135.739 199.629 160.022 198.93 174.45C201.88 175.017 204.83 175.585 207.604 175.204C219.627 122.429 216.003 126.576 212.091 122.324C206.997 116.789 192.509 115.148 188.946 114.725C185.961 114.371 182.966 114.017 179.959 114.031C173.667 114.06 166.354 115.359 162.442 112.142Z" fill="#ACD4F7"/>
<path d="M205.705 175.81C203.445 175.81 201.113 175.361 198.841 174.924C198.605 174.878 198.439 174.666 198.45 174.427C199.313 156.599 199.738 136.914 198.837 135.283C198.089 134.887 194.087 134.561 192.746 134.561C191.719 134.561 190.725 134.563 189.764 134.564C176.421 134.588 169.07 134.601 164.586 129.421C159.83 123.925 160.868 118.16 161.968 112.056C161.998 111.888 162.116 111.748 162.276 111.689C162.438 111.63 162.617 111.661 162.749 111.77C165.66 114.164 170.764 113.924 175.701 113.691C177.112 113.625 178.57 113.556 179.959 113.549C182.984 113.526 186.051 113.897 189.006 114.247L189.164 114.266C201.201 115.689 209.035 118.29 212.447 121.998C212.834 122.419 213.222 122.757 213.597 123.084C217.14 126.17 218.918 127.719 208.076 175.312C208.031 175.507 207.87 175.655 207.672 175.682C207.024 175.771 206.368 175.81 205.705 175.81ZM199.434 174.056C202.051 174.557 204.735 175.036 207.211 174.767C217.843 128.056 216.004 126.459 212.965 123.811C212.569 123.467 212.16 123.111 211.737 122.651C209.502 120.222 203.752 116.961 189.05 115.223L188.891 115.204C185.966 114.858 182.937 114.497 179.963 114.513C178.594 114.519 177.146 114.587 175.745 114.653C170.957 114.879 166.016 115.111 162.78 112.987C161.608 119.666 161.309 124.162 165.314 128.788C169.509 133.635 176.282 133.62 189.761 133.598C190.723 133.597 191.717 133.595 192.745 133.595C193.192 133.595 198.362 133.812 199.409 134.502C199.809 134.766 200.479 135.208 200.256 149.586C200.151 156.369 199.845 165.485 199.434 174.056Z" fill="black"/>
<path d="M182.609 15.4512C182.791 19.2422 183.061 22.6472 183.826 27.6462C184.189 30.0242 184.97 32.6982 185.976 34.9352C186.45 35.9872 186.848 36.5162 187.953 37.1782C188.121 36.1792 189.219 35.7892 189.484 34.8062C189.811 33.5982 189.133 32.4332 189.986 31.4212C191.609 29.4932 192.804 27.3182 193.496 25.0302C194.064 23.1522 194.286 21.1372 193.566 19.2742C192.845 17.4112 191.036 15.7352 188.718 15.3362C186.952 15.0332 184.122 14.4722 182.609 15.4512Z" fill="#ACD4F7"/>
<path d="M187.953 37.6607C187.867 37.6607 187.781 37.6377 187.705 37.5927C186.469 36.8507 186.02 36.2087 185.536 35.1337C184.522 32.8797 183.724 30.1767 183.349 27.7197C182.578 22.6737 182.31 19.2927 182.127 15.4737C182.119 15.3027 182.203 15.1397 182.347 15.0457C183.941 14.0137 186.699 14.4947 188.522 14.8137L188.8 14.8617C191.127 15.2627 193.175 16.9277 194.015 19.1007C194.686 20.8367 194.667 22.8227 193.957 25.1707C193.242 27.5347 192.029 29.7427 190.353 31.7327C189.965 32.1937 189.997 32.7087 190.037 33.3607C190.066 33.8367 190.1 34.3747 189.949 34.9327C189.789 35.5227 189.406 35.9247 189.068 36.2797C188.758 36.6047 188.491 36.8857 188.427 37.2587C188.401 37.4157 188.298 37.5497 188.154 37.6167C188.091 37.6457 188.022 37.6607 187.953 37.6607ZM183.105 15.7247C183.286 19.3927 183.557 22.7007 184.302 27.5737C184.665 29.9487 185.436 32.5597 186.415 34.7377C186.771 35.5287 187.061 35.9747 187.709 36.4447C187.891 36.1177 188.141 35.8567 188.371 35.6147C188.667 35.3037 188.923 35.0357 189.018 34.6817C189.127 34.2767 189.101 33.8607 189.075 33.4207C189.03 32.6927 188.978 31.8687 189.616 31.1117C191.207 29.2227 192.357 27.1307 193.034 24.8927C193.68 22.7577 193.706 20.9777 193.115 19.4497C192.394 17.5857 190.636 16.1577 188.636 15.8127L188.356 15.7637C186.778 15.4877 184.438 15.0797 183.105 15.7247Z" fill="black"/>
<path d="M210.174 24.1958C209.842 27.5048 210.351 30.8468 210.211 34.1688C210.07 37.4908 209.174 40.9578 206.507 43.3708C204.159 45.4958 200.535 46.5638 197.088 46.1488C193.64 45.7328 190.459 43.8438 188.82 41.2388C187.279 38.7888 187.222 33.6018 187.092 31.0008C185.542 31.1648 183.856 30.6058 182.976 29.5018C182.096 28.3978 182.18 26.7808 183.289 25.8668C184.399 24.9518 185.763 24.8668 187.241 26.3798C187.237 24.2428 187.702 22.1778 187.911 21.2278C188.478 18.6508 188.712 14.7968 190.573 13.7758C191.628 13.1978 193.814 12.7538 195.04 12.4958C197.156 12.0518 200.001 13.5148 202.189 13.6128C204.378 13.7108 206.567 14.8618 208.28 16.0368C210.329 17.4428 210.422 21.7198 210.174 24.1958Z" fill="white"/>
<path d="M198.577 46.7197C198.06 46.7197 197.544 46.6897 197.03 46.6277C193.432 46.1937 190.131 44.2277 188.412 41.4957C186.962 39.1887 186.774 34.8027 186.651 31.8997C186.645 31.7667 186.639 31.6367 186.634 31.5107C185.025 31.5337 183.456 30.8787 182.599 29.8027C181.522 28.4517 181.691 26.5597 182.983 25.4947C183.712 24.8927 185.101 24.1727 186.791 25.3567C186.895 23.6017 187.244 22.0177 187.428 21.1877L187.442 21.1247C187.557 20.5987 187.659 20.0207 187.766 19.4097C188.188 17.0027 188.665 14.2737 190.343 13.3537C191.421 12.7627 193.538 12.3187 194.803 12.0537L194.942 12.0247C196.305 11.7387 197.873 12.1587 199.389 12.5647C200.407 12.8367 201.368 13.0947 202.213 13.1317C204.12 13.2177 206.254 14.0617 208.554 15.6397C211.192 17.4507 210.766 23.1257 210.654 24.2447C210.47 26.0777 210.551 27.9707 210.63 29.8007C210.692 31.2377 210.755 32.7227 210.693 34.1907C210.517 38.3597 209.218 41.5697 206.832 43.7307C204.728 45.6317 201.669 46.7197 198.577 46.7197ZM187.094 30.5187C187.208 30.5187 187.32 30.5597 187.407 30.6347C187.507 30.7207 187.568 30.8447 187.575 30.9767C187.588 31.2457 187.6 31.5407 187.614 31.8577C187.726 34.4877 187.914 38.8917 189.228 40.9817C190.795 43.4737 193.83 45.2707 197.145 45.6697C200.468 46.0697 203.929 45.0517 206.183 43.0127C208.371 41.0327 209.564 38.0497 209.728 34.1477C209.789 32.7207 209.725 31.2557 209.665 29.8397C209.586 27.9757 209.503 26.0487 209.694 24.1467C209.977 21.3167 209.706 17.5987 208.007 16.4337C205.858 14.9587 203.894 14.1717 202.168 14.0947C201.219 14.0517 200.161 13.7687 199.139 13.4947C197.731 13.1187 196.275 12.7277 195.139 12.9667L195 12.9957C193.788 13.2497 191.758 13.6747 190.806 14.1977C189.535 14.8947 189.099 17.3807 188.714 19.5737C188.606 20.1967 188.502 20.7837 188.382 21.3297L188.368 21.3937C188.157 22.3497 187.719 24.3387 187.723 26.3767C187.723 26.5727 187.605 26.7497 187.423 26.8237C187.242 26.8977 187.033 26.8547 186.896 26.7147C185.731 25.5227 184.652 25.3677 183.595 26.2367C182.713 26.9637 182.607 28.2647 183.352 29.1987C184.092 30.1277 185.609 30.6717 187.041 30.5187C187.06 30.5197 187.076 30.5187 187.094 30.5187Z" fill="black"/>
<path d="M200.351 18.2662C200.524 19.7622 202.58 22.0622 203.992 22.3552C205.403 22.6482 206.007 22.0452 206.722 20.7332C207.872 21.9882 208.702 23.2322 209.945 23.8582C211.841 24.8142 214.413 23.8292 215.282 21.8142C216.152 19.7982 215.152 17.1402 213.207 16.2952C214.523 16.7582 216.013 15.5292 216.189 14.0852C216.365 12.6412 215.488 11.2262 214.308 10.4612C213.127 9.69622 211.7 9.47421 210.323 9.12821C210.995 7.77921 210.503 6.02222 209.432 5.00222C208.361 3.98222 206.845 3.60822 205.395 3.63622C204.442 3.65422 203.465 3.84022 202.659 4.37622C201.853 4.91222 201.247 5.84622 201.178 6.90722C200.089 5.19722 198.179 3.92521 196.226 4.18421C194.273 4.44421 192.594 6.62622 192.285 8.21722C191.475 6.98122 190.36 5.91822 188.924 5.84722C186.074 5.70622 185.186 8.05221 186.14 11.2882C184.708 10.3882 182.393 10.8052 181.449 12.9262C180.746 14.5052 181.076 17.1682 182.08 18.5652C183.085 19.9612 186.981 21.4682 189.994 19.7512C191.668 18.7962 192.563 17.3512 193.165 15.9682C193.847 17.4822 194.353 18.5272 196.361 19.4262C197.824 20.0802 199.69 19.6622 200.351 18.2662Z" fill="#ACD4F7"/>
<path d="M211.537 24.7069C210.899 24.7069 210.278 24.5669 209.725 24.2889C208.706 23.7749 207.956 22.8989 207.163 21.9719C207.045 21.8329 206.924 21.6919 206.801 21.5499C206.207 22.4759 205.435 23.1469 203.892 22.8269C202.579 22.5549 200.864 20.8539 200.169 19.3209C199.196 20.2439 197.593 20.5049 196.16 19.8639C194.425 19.0879 193.7 18.1519 193.154 17.0869C192.589 18.1329 191.707 19.3249 190.228 20.1679C186.94 22.0429 182.768 20.3539 181.683 18.8449C180.564 17.2879 180.246 14.4289 181.003 12.7279C181.49 11.6329 182.354 10.8489 183.434 10.5199C184.093 10.3189 184.795 10.3069 185.438 10.4719C185.111 8.7999 185.313 7.4109 186.028 6.5019C186.472 5.9389 187.336 5.2819 188.943 5.3629C190.104 5.4209 191.167 6.0259 192.109 7.1669C192.803 5.5549 194.399 3.9379 196.159 3.7039C197.846 3.4799 199.636 4.2789 200.936 5.7799C201.217 5.0539 201.722 4.4159 202.389 3.9729C203.173 3.4519 204.18 3.1749 205.382 3.1529C207.153 3.1189 208.711 3.6519 209.761 4.6519C210.91 5.7459 211.37 7.4029 210.967 8.7879C211.044 8.8059 211.12 8.8239 211.196 8.8419C212.345 9.1099 213.534 9.3869 214.566 10.0559C216.005 10.9889 216.848 12.6309 216.665 14.1429C216.551 15.0699 215.975 15.9589 215.159 16.4649C214.993 16.5679 214.823 16.6519 214.651 16.7159C215.97 18.0369 216.489 20.2259 215.72 22.0049C215.243 23.1119 214.284 23.9959 213.09 24.4299C212.582 24.6139 212.054 24.7069 211.537 24.7069ZM206.721 20.2509C206.855 20.2509 206.985 20.3069 207.076 20.4079C207.367 20.7259 207.637 21.0409 207.897 21.3449C208.657 22.2339 209.313 23.0009 210.16 23.4279C210.923 23.8119 211.871 23.8469 212.764 23.5229C213.709 23.1799 214.465 22.4869 214.838 21.6229C215.603 19.8509 214.716 17.4769 213.014 16.7369C212.776 16.6329 212.662 16.3599 212.757 16.1189C212.852 15.8769 213.122 15.7539 213.365 15.8399C213.765 15.9809 214.223 15.9129 214.653 15.6459C215.216 15.2959 215.632 14.6609 215.709 14.0269C215.872 12.6939 214.99 11.4789 214.044 10.8659C213.153 10.2889 212.097 10.0419 210.98 9.7819C210.72 9.7219 210.461 9.6609 210.204 9.5959C210.062 9.5599 209.944 9.4629 209.884 9.3299C209.822 9.1969 209.825 9.0439 209.891 8.9129C210.431 7.8279 210.091 6.2959 209.099 5.3509C208.234 4.5269 206.917 4.0929 205.404 4.1179C204.388 4.1379 203.554 4.3589 202.926 4.7769C202.199 5.2599 201.713 6.0889 201.657 6.9389C201.643 7.1469 201.498 7.3229 201.296 7.3749C201.093 7.4269 200.882 7.3429 200.77 7.1669C199.666 5.4309 197.904 4.4469 196.289 4.6629C194.52 4.8979 193.017 6.9799 192.758 8.3099C192.72 8.5019 192.57 8.6529 192.377 8.6909C192.183 8.7279 191.988 8.6459 191.881 8.4819C190.98 7.1069 189.977 6.3829 188.9 6.3299C187.943 6.2839 187.23 6.5419 186.79 7.1019C186.151 7.9149 186.083 9.3909 186.602 11.1539C186.66 11.3459 186.591 11.5539 186.431 11.6749C186.271 11.7959 186.053 11.8049 185.883 11.6979C185.273 11.3139 184.464 11.2199 183.72 11.4459C182.911 11.6919 182.261 12.2879 181.889 13.1229C181.263 14.5299 181.54 16.9899 182.471 18.2849C183.281 19.4109 186.872 20.9759 189.754 19.3329C191.448 18.3669 192.259 16.8409 192.722 15.7769C192.798 15.6019 192.971 15.4879 193.161 15.4869H193.164C193.353 15.4869 193.526 15.5979 193.604 15.7709C194.247 17.1999 194.671 18.1429 196.557 18.9869C197.722 19.5079 199.35 19.2609 199.916 18.0629C200.008 17.8689 200.217 17.7569 200.431 17.7929C200.643 17.8279 200.806 17.9999 200.831 18.2129C200.979 19.5039 202.868 21.6309 204.09 21.8849C205.128 22.1009 205.583 21.8169 206.299 20.5049C206.374 20.3679 206.51 20.2759 206.664 20.2569C206.682 20.2519 206.701 20.2509 206.721 20.2509Z" fill="black"/>
<path d="M205.695 29.2392C206.119 29.3323 206.535 29.0819 206.623 28.68C206.711 28.2781 206.439 27.8768 206.015 27.7838C205.591 27.6907 205.176 27.941 205.087 28.343C204.999 28.7449 205.271 29.1461 205.695 29.2392Z" fill="black"/>
<path d="M194.742 28.6972C195.166 28.7903 195.582 28.5399 195.67 28.138C195.758 27.7361 195.486 27.3348 195.062 27.2418C194.638 27.1487 194.222 27.3991 194.134 27.801C194.046 28.2029 194.318 28.6041 194.742 28.6972Z" fill="black"/>
<path d="M197.995 41.4903C196.601 41.4903 195.224 40.7923 194.428 39.6383C194.277 39.4193 194.331 39.1183 194.551 38.9673C194.77 38.8163 195.07 38.8703 195.222 39.0903C195.921 40.1043 197.264 40.6793 198.477 40.4883C198.742 40.4473 198.988 40.6273 199.029 40.8903C199.07 41.1533 198.89 41.4003 198.627 41.4413C198.417 41.4743 198.205 41.4903 197.995 41.4903Z" fill="black"/>
<path d="M200.281 37.5835C199.922 37.5835 199.579 37.5415 199.256 37.4565C198.394 37.2305 197.684 36.6955 197.308 35.9875C197.183 35.7525 197.273 35.4605 197.508 35.3355C197.743 35.2105 198.034 35.2995 198.159 35.5355C198.405 35.9985 198.906 36.3685 199.5 36.5235C200.038 36.6645 200.661 36.6495 201.354 36.4795C201.575 36.4245 201.822 36.3495 201.975 36.2065C202.158 36.0355 202.245 35.7235 202.207 35.3715C202.173 35.0465 202.051 34.7185 201.921 34.3715L201.858 34.2015C201.08 32.0705 200.797 29.7515 201.043 27.4965C201.071 27.2315 201.305 27.0395 201.574 27.0695C201.839 27.0985 202.03 27.3365 202.001 27.6005C201.772 29.7085 202.036 31.8765 202.765 33.8705L202.826 34.0345C202.971 34.4225 203.12 34.8245 203.167 35.2705C203.236 35.9305 203.043 36.5285 202.636 36.9105C202.32 37.2065 201.927 37.3325 201.585 37.4165C201.129 37.5275 200.694 37.5835 200.281 37.5835Z" fill="black"/>
<path d="M187.242 28.5615C186.982 28.5615 186.767 28.3546 186.761 28.0926C186.736 27.1716 186.741 26.6796 186.751 25.7876C186.753 25.5226 186.969 25.3105 187.232 25.3105C187.234 25.3105 187.236 25.3105 187.238 25.3105C187.504 25.3135 187.717 25.5316 187.715 25.7986C187.705 26.7066 187.7 27.1626 187.725 28.0656C187.733 28.3326 187.523 28.5535 187.256 28.5615C187.252 28.5615 187.247 28.5615 187.242 28.5615Z" fill="black"/>
<path d="M185.3 17.8529C185.214 17.8529 185.126 17.8299 185.048 17.7819C183.614 16.8999 182.833 15.0669 183.191 13.4229C183.247 13.1629 183.504 12.9979 183.764 13.0539C184.024 13.1109 184.189 13.3669 184.133 13.6279C183.86 14.8849 184.457 16.2869 185.553 16.9609C185.78 17.1009 185.851 17.3979 185.711 17.6249C185.62 17.7709 185.462 17.8529 185.3 17.8529Z" fill="black"/>
<g opacity="0.1294">
<path d="M193.437 15.9363C193.594 16.1753 193.761 16.4093 193.934 16.6383C193.948 16.6873 193.974 16.7633 194.036 16.9363C194.136 17.1743 194.256 17.4023 194.383 17.6263C194.893 18.3833 195.413 18.8863 195.938 19.2623C196.062 19.0923 196.298 19.0023 196.504 19.1163C196.537 19.1313 196.57 19.1443 196.604 19.1583C196.62 19.1623 196.638 19.1683 196.663 19.1743C197.062 19.2483 197.453 19.3793 197.86 19.4013C197.816 19.3983 197.773 19.3953 197.729 19.3913C197.856 19.4273 198.479 19.3883 198.973 19.3003C199.001 19.2943 199.057 19.2823 199.109 19.2713C199.211 19.2373 199.323 19.2403 199.423 19.2733C199.449 19.2673 199.474 19.2593 199.501 19.2553C199.506 19.2483 199.513 19.2363 199.525 19.2173C199.529 19.2093 199.533 19.2003 199.536 19.1923C199.533 19.1473 199.532 19.1013 199.537 19.0553C199.568 18.7173 199.957 18.4513 200.278 18.5653C200.61 18.6373 200.766 19.0013 200.746 19.3223C200.795 19.4363 200.85 19.5473 200.911 19.6553C201.174 20.0593 201.478 20.4373 201.781 20.8133C201.839 20.8863 202.004 21.0683 202.03 21.1023C202.044 21.1173 202.057 21.1313 202.071 21.1453C202.418 21.4993 203.134 22.0973 203.828 22.3173C203.833 22.3183 203.835 22.3193 203.839 22.3203C204.005 22.3573 204.174 22.3743 204.343 22.3793C204.389 22.3763 204.447 22.3713 204.498 22.3623C204.521 22.3543 204.547 22.3483 204.57 22.3383C204.63 22.3143 204.686 22.2863 204.743 22.2563C204.755 22.2483 204.769 22.2383 204.787 22.2273C204.808 22.2123 204.827 22.1963 204.848 22.1823C205.037 22.1833 205.231 22.1413 205.394 22.0533C205.58 22.0083 205.739 21.9183 205.881 21.7833C205.958 21.7103 206.02 21.6253 206.079 21.5373C206.087 21.5253 206.095 21.5123 206.102 21.4993C206.106 21.4973 206.127 21.4753 206.135 21.4673C206.163 21.4353 206.192 21.4033 206.22 21.3713C206.409 21.1543 206.574 20.9223 206.705 20.6683C206.71 20.6683 206.715 20.6683 206.721 20.6693C206.928 20.7003 207.129 20.8433 207.209 21.0413C207.237 21.1313 207.274 21.2183 207.316 21.3033C207.328 21.3273 207.341 21.3503 207.354 21.3743C207.359 21.3813 207.368 21.3953 207.383 21.4233L207.381 21.4213C207.385 21.4283 207.389 21.4353 207.393 21.4413C207.544 21.6173 207.661 21.8233 207.821 21.9923C207.884 22.0593 207.948 22.1223 208.013 22.1863C208.031 22.2033 208.051 22.2233 208.072 22.2443C208.081 22.2523 208.09 22.2603 208.099 22.2703C208.429 22.5913 208.797 22.8723 209.178 23.1303C209.437 23.3373 209.806 23.4443 209.981 23.7343C210.363 24.3363 209.579 25.0333 209.015 24.5953C208.208 24.0883 207.451 23.4923 206.868 22.7323C206.77 22.6083 206.68 22.4813 206.595 22.3483C206.186 22.8433 205.705 23.2843 205.134 23.5683C204.27 23.9353 203.275 23.6683 202.513 23.1803C201.77 22.7103 201.515 22.3913 201.122 21.9783C200.743 21.5433 200.394 21.0813 200.108 20.5793C199.86 20.8533 199.566 21.0873 199.234 21.2483C198.774 21.4543 198.242 21.5373 197.747 21.4283C197.768 21.4343 197.792 21.4403 197.81 21.4463C197.76 21.4403 197.71 21.4323 197.662 21.4243C197.032 21.3053 196.454 21.0133 195.908 20.6853C195.113 20.2033 194.386 19.5913 193.829 18.8433C193.492 18.3653 193.192 17.8483 193.03 17.2823C192.999 17.1413 193.02 17.2663 193.047 17.3403C192.969 17.1313 192.908 16.9163 192.852 16.7003C192.818 16.5753 192.773 16.4403 192.826 16.3143C192.895 16.0093 193.182 15.8903 193.437 15.9363Z" fill="black"/>
</g>
<g opacity="0.1294">
<path d="M182.873 20.1053C183.133 19.7573 183.531 19.9543 183.852 20.0883C184.33 20.2823 184.83 20.4083 185.311 20.5893C185.665 20.7273 186.013 20.8803 186.381 20.9773C186.377 20.9763 186.374 20.9753 186.37 20.9753C186.484 21.0063 186.573 21.0323 186.372 20.9773C186.564 21.0393 186.775 21.0593 186.963 21.1333C187.023 21.0503 187.098 20.9793 187.201 20.9373C187.658 20.7233 188.177 21.2363 187.968 21.6963C187.813 22.0473 187.651 22.3993 187.543 22.7683C187.451 23.3203 187.266 24.1913 186.516 23.9203C186.369 23.8583 186.268 23.7393 186.189 23.6073C186.202 23.6553 185.895 23.2823 185.812 23.2113C185.481 22.8573 184.836 22.2953 184.201 21.7353C183.869 21.4573 183.527 21.1913 183.172 20.9433C183.144 20.9253 183.114 20.9093 183.086 20.8923C183.062 20.8783 183.024 20.8573 182.987 20.8333C182.754 20.6723 182.7 20.3323 182.873 20.1053Z" fill="black"/>
</g>
<path d="M192 59.8884C191.304 58.7314 189.729 58.4744 188.644 59.2794L187.538 60.1014C186.924 60.5584 186.252 61.1164 186.215 61.8814C186.185 62.5054 186.595 63.0544 186.985 63.5434C187.561 64.2664 188.237 65.0464 189.157 65.1424C189.788 65.2074 190.397 64.9304 190.97 64.6604C191.335 64.4884 191.709 64.3094 191.986 64.0144C192.369 63.6064 192.513 63.0274 192.556 62.4694C192.623 61.5874 192.465 60.6744 192.015 59.9124C192.009 59.9034 192.005 59.8954 192 59.8884Z" fill="white"/>
<path d="M189.348 65.6327C189.269 65.6327 189.188 65.6287 189.107 65.6207C187.926 65.4977 187.101 64.4617 186.608 63.8427C186.243 63.3857 185.693 62.6957 185.734 61.8577C185.784 60.8037 186.739 60.0947 187.252 59.7137L188.358 58.8917C189.003 58.4127 189.824 58.2277 190.612 58.3847C191.379 58.5357 192.019 58.9817 192.415 59.6397C192.418 59.6447 192.423 59.6517 192.424 59.6537C192.908 60.4737 193.117 61.4547 193.037 62.5047C192.976 63.2947 192.741 63.9137 192.339 64.3427C191.995 64.7087 191.561 64.9137 191.176 65.0947C190.661 65.3377 190.035 65.6327 189.348 65.6327ZM190.06 59.2947C189.657 59.2947 189.26 59.4227 188.933 59.6667L187.826 60.4887C187.294 60.8837 186.723 61.3517 186.697 61.9047C186.676 62.3437 186.999 62.7877 187.362 63.2427C187.902 63.9197 188.489 64.5877 189.207 64.6627C189.684 64.7127 190.174 64.5027 190.765 64.2237C191.086 64.0727 191.418 63.9157 191.635 63.6837C191.884 63.4177 192.032 62.9967 192.076 62.4317C192.139 61.5927 191.971 60.7847 191.6 60.1577L192.001 59.8897L191.588 60.1387C191.334 59.7167 190.921 59.4307 190.425 59.3317C190.304 59.3067 190.181 59.2947 190.06 59.2947Z" fill="black"/>
<path d="M183.563 57.859C183.408 57.859 183.253 57.783 183.162 57.643C182.268 56.296 181.695 54.735 181.504 53.131C181.473 52.867 181.661 52.627 181.926 52.595C182.19 52.565 182.431 52.752 182.462 53.017C182.636 54.473 183.155 55.888 183.966 57.11C184.112 57.332 184.052 57.631 183.83 57.778C183.748 57.833 183.655 57.859 183.563 57.859Z" fill="black"/>
<path d="M181.514 59.3378C181.38 59.3378 181.246 59.2828 181.152 59.1748L179.918 57.7718C179.741 57.5718 179.762 57.2678 179.961 57.0918C180.161 56.9158 180.466 56.9358 180.642 57.1348L181.876 58.5368C182.052 58.7368 182.032 59.0418 181.833 59.2178C181.74 59.2988 181.626 59.3378 181.514 59.3378Z" fill="black"/>
<path d="M173.316 112.039C173.295 112.039 173.273 112.038 173.251 112.035C170.234 111.624 167.285 110.808 164.484 109.612C164.239 109.508 164.126 109.224 164.23 108.979C164.334 108.734 164.618 108.621 164.863 108.725C167.584 109.888 170.449 110.68 173.381 111.079C173.645 111.115 173.83 111.358 173.794 111.622C173.76 111.863 173.553 112.039 173.316 112.039Z" fill="black"/>
<g opacity="0.1294">
<path d="M219.331 94.5346C218.779 94.5476 218.344 94.9576 217.881 95.2116C217.152 95.6976 216.416 96.1746 215.697 96.6736C214.032 97.8986 212.304 99.0576 210.816 100.501C209.82 101.547 211.316 103.044 212.367 102.052C214.283 100.379 215.178 99.7126 217.123 98.3396C217.805 97.9146 218.475 97.4686 219.16 97.0486C219.497 96.7956 219.962 96.6856 220.211 96.3346C220.809 95.6556 220.223 94.5086 219.331 94.5346Z" fill="black"/>
</g>
<path d="M165.449 186.526C165.445 186.526 165.44 186.526 165.435 186.525C165.347 186.517 165.281 186.44 165.289 186.351L166.437 173.238C166.445 173.15 166.522 173.088 166.611 173.092C166.699 173.1 166.765 173.178 166.757 173.266L165.609 186.379C165.602 186.463 165.531 186.526 165.449 186.526Z" fill="black"/>
<path d="M170.65 188.337C170.65 188.337 170.647 188.337 170.645 188.337C170.556 188.334 170.487 188.26 170.49 188.171L171.037 171.809C171.04 171.722 171.111 171.654 171.198 171.654C171.198 171.654 171.201 171.654 171.203 171.654C171.292 171.657 171.361 171.731 171.358 171.82L170.811 188.182C170.808 188.269 170.737 188.337 170.65 188.337Z" fill="black"/>
<path d="M220.53 147.3C220.527 147.3 220.525 147.3 220.523 147.3C220.434 147.297 220.366 147.221 220.369 147.133L220.669 139.925C220.673 139.836 220.744 139.771 220.836 139.771C220.925 139.774 220.993 139.85 220.99 139.938L220.69 147.146C220.687 147.232 220.615 147.3 220.53 147.3Z" fill="black"/>
<path d="M225.165 153.222C225.076 153.222 225.004 153.149 225.005 153.06C225.038 146.549 225.23 139.952 225.574 133.453C225.579 133.364 225.658 133.294 225.743 133.301C225.832 133.305 225.9 133.381 225.895 133.47C225.55 139.964 225.359 146.556 225.326 153.062C225.326 153.15 225.254 153.222 225.165 153.222Z" fill="black"/>
<path d="M199.164 180.435C199.149 180.435 199.135 180.433 199.119 180.429C199.034 180.404 198.985 180.315 199.01 180.23C199.422 178.817 199.994 177.45 200.711 176.167C200.754 176.089 200.853 176.062 200.93 176.104C201.007 176.148 201.035 176.246 200.992 176.323C200.288 177.586 199.724 178.93 199.32 180.319C199.298 180.39 199.234 180.435 199.164 180.435Z" fill="black"/>
<path d="M200.39 181.776C200.379 181.776 200.369 181.775 200.358 181.772C200.271 181.754 200.214 181.669 200.233 181.583C200.47 180.433 200.853 179.315 201.373 178.261C201.412 178.182 201.509 178.15 201.588 178.188C201.668 178.228 201.701 178.324 201.661 178.404C201.154 179.433 200.779 180.525 200.548 181.649C200.531 181.724 200.465 181.776 200.39 181.776Z" fill="black"/>
<path d="M201.865 182.934H201.862C201.773 182.932 201.702 182.859 201.704 182.771C201.724 181.558 202.01 180.338 202.53 179.243C202.568 179.163 202.665 179.129 202.744 179.167C202.824 179.205 202.858 179.301 202.82 179.381C202.319 180.436 202.045 181.61 202.025 182.777C202.023 182.863 201.952 182.934 201.865 182.934Z" fill="black"/>
<path d="M203.497 183.822H203.494C203.405 183.82 203.334 183.747 203.336 183.658C203.356 182.565 203.515 181.475 203.809 180.421C203.833 180.336 203.921 180.286 204.007 180.31C204.093 180.334 204.143 180.422 204.118 180.508C203.831 181.536 203.676 182.599 203.657 183.664C203.656 183.752 203.584 183.822 203.497 183.822Z" fill="black"/>
<path d="M205.287 185.021C205.198 185.021 205.127 184.95 205.126 184.861C205.12 183.728 205.195 182.584 205.35 181.461C205.363 181.373 205.445 181.313 205.532 181.323C205.62 181.336 205.681 181.417 205.669 181.505C205.517 182.613 205.442 183.742 205.448 184.859C205.448 184.948 205.377 185.02 205.287 185.021Z" fill="black"/>
<path d="M207.001 185.778C206.915 185.778 206.845 185.711 206.84 185.625C206.796 184.7 206.819 183.766 206.91 182.846C206.919 182.757 206.999 182.697 207.086 182.701C207.175 182.71 207.239 182.789 207.231 182.877C207.142 183.781 207.119 184.701 207.162 185.609C207.166 185.698 207.098 185.773 207.009 185.777C207.006 185.778 207.003 185.778 207.001 185.778Z" fill="black"/>
<path d="M208.668 187.072C208.589 187.072 208.52 187.013 208.509 186.932C208.406 186.168 208.394 185.392 208.472 184.624C208.481 184.535 208.563 184.469 208.648 184.479C208.736 184.488 208.8 184.567 208.792 184.655C208.717 185.398 208.729 186.15 208.828 186.888C208.841 186.976 208.778 187.057 208.69 187.069C208.683 187.072 208.676 187.072 208.668 187.072Z" fill="black"/>
<path d="M148.322 79.0102C148.276 79.0102 148.23 78.9902 148.198 78.9512C147.583 78.2032 147.005 77.4132 146.479 76.6032C146.431 76.5292 146.452 76.4292 146.526 76.3812C146.6 76.3332 146.7 76.3542 146.748 76.4282C147.268 77.2282 147.839 78.0092 148.446 78.7462C148.502 78.8152 148.492 78.9162 148.424 78.9732C148.394 78.9982 148.358 79.0102 148.322 79.0102Z" fill="black"/>
<path d="M153.007 82.3162C152.96 82.3162 152.913 82.2952 152.882 82.2552C151.226 80.1752 149.612 78.0182 148.086 75.8432C148.035 75.7712 148.052 75.6702 148.126 75.6192C148.198 75.5682 148.298 75.5852 148.35 75.6582C149.873 77.8272 151.483 79.9792 153.135 82.0542C153.19 82.1242 153.178 82.2242 153.11 82.2802C153.078 82.3052 153.042 82.3162 153.007 82.3162Z" fill="black"/>
<path d="M156.562 83.3476C156.515 83.3476 156.469 83.3266 156.437 83.2886C154.273 80.6376 152.188 77.8696 150.238 75.0616C150.187 74.9886 150.205 74.8886 150.278 74.8376C150.351 74.7866 150.451 74.8046 150.502 74.8786C152.448 77.6786 154.528 80.4406 156.687 83.0856C156.743 83.1536 156.733 83.2556 156.664 83.3116C156.633 83.3356 156.597 83.3476 156.562 83.3476Z" fill="black"/>
<path d="M159.136 83.8805C159.091 83.8805 159.045 83.8605 159.013 83.8235C156.629 81.0065 154.426 77.9935 152.465 74.8665C152.418 74.7915 152.441 74.6915 152.516 74.6445C152.592 74.5975 152.691 74.6205 152.738 74.6955C154.691 77.8085 156.884 80.8105 159.259 83.6155C159.316 83.6835 159.308 83.7845 159.24 83.8425C159.21 83.8675 159.173 83.8805 159.136 83.8805Z" fill="black"/>
<path d="M161.573 83.6405C161.528 83.6405 161.482 83.6215 161.45 83.5835C159.03 80.7385 156.737 77.7305 154.636 74.6435C154.586 74.5705 154.605 74.4705 154.678 74.4205C154.751 74.3705 154.851 74.3895 154.901 74.4625C156.996 77.5405 159.281 80.5385 161.694 83.3755C161.752 83.4425 161.743 83.5445 161.676 83.6025C161.647 83.6275 161.61 83.6405 161.573 83.6405Z" fill="black"/>
<path d="M164.02 83.3877C163.977 83.3877 163.934 83.3697 163.902 83.3357C161.407 80.6357 159.097 77.7217 157.038 74.6747C156.988 74.6007 157.008 74.5007 157.081 74.4517C157.155 74.4017 157.254 74.4207 157.304 74.4947C159.355 77.5277 161.654 80.4287 164.138 83.1177C164.198 83.1827 164.194 83.2847 164.129 83.3457C164.098 83.3737 164.059 83.3877 164.02 83.3877Z" fill="black"/>
<path d="M166.069 82.9003C166.026 82.9003 165.983 82.8833 165.951 82.8493C163.727 80.4533 161.604 77.9093 159.642 75.2903C159.589 75.2193 159.603 75.1183 159.674 75.0653C159.745 75.0123 159.845 75.0263 159.899 75.0973C161.855 77.7073 163.97 80.2423 166.186 82.6303C166.247 82.6953 166.243 82.7973 166.178 82.8573C166.147 82.8863 166.108 82.9003 166.069 82.9003Z" fill="black"/>
<path d="M168.202 82.3122C168.16 82.3122 168.118 82.2952 168.086 82.2632C166.054 80.1532 164.065 77.9492 162.171 75.7112C162.113 75.6432 162.122 75.5422 162.19 75.4842C162.258 75.4272 162.36 75.4352 162.417 75.5032C164.306 77.7352 166.291 79.9342 168.318 82.0392C168.38 82.1032 168.378 82.2052 168.314 82.2672C168.283 82.2972 168.242 82.3122 168.202 82.3122Z" fill="black"/>
<path d="M170.273 81.5183C170.233 81.5183 170.194 81.5033 170.163 81.4743C168.597 79.9923 167.066 78.4333 165.612 76.8403C165.552 76.7743 165.557 76.6733 165.623 76.6133C165.688 76.5533 165.79 76.5583 165.85 76.6233C167.299 78.2103 168.824 79.7643 170.385 81.2403C170.449 81.3013 170.452 81.4033 170.391 81.4673C170.358 81.5013 170.316 81.5183 170.273 81.5183Z" fill="black"/>
<path d="M172.264 80.8171C172.225 80.8171 172.187 80.8031 172.157 80.7761C170.891 79.6311 169.656 78.4211 168.487 77.1771C168.426 77.1121 168.429 77.0101 168.494 76.9491C168.558 76.8881 168.66 76.8911 168.721 76.9561C169.885 78.1931 171.113 79.3981 172.372 80.5371C172.438 80.5971 172.443 80.6981 172.384 80.7641C172.352 80.8001 172.308 80.8171 172.264 80.8171Z" fill="black"/>
<path d="M173.854 79.7841C173.814 79.7841 173.774 79.7691 173.743 79.7401L170.783 76.9141C170.719 76.8531 170.716 76.7511 170.778 76.6871C170.839 76.6231 170.941 76.6211 171.005 76.6821L173.965 79.5081C174.029 79.5701 174.032 79.6711 173.97 79.7361C173.939 79.7681 173.896 79.7841 173.854 79.7841Z" fill="black"/>
<path d="M175.888 79.0653C175.848 79.0653 175.809 79.0503 175.778 79.0213L173.037 76.4303C172.973 76.3693 172.97 76.2673 173.031 76.2033C173.092 76.1393 173.194 76.1363 173.258 76.1973L176 78.7883C176.064 78.8493 176.067 78.9513 176.006 79.0153C175.973 79.0483 175.931 79.0653 175.888 79.0653Z" fill="black"/>
<path d="M177.302 78.0873C177.267 78.0873 177.232 78.0763 177.202 78.0523C176.412 77.4263 175.662 76.7363 174.973 76.0023C174.912 75.9373 174.915 75.8353 174.98 75.7743C175.044 75.7133 175.146 75.7163 175.207 75.7813C175.886 76.5043 176.624 77.1833 177.401 77.8003C177.471 77.8553 177.483 77.9563 177.427 78.0263C177.396 78.0663 177.35 78.0873 177.302 78.0873Z" fill="black"/>
<path d="M178.667 77.0983C178.627 77.0983 178.587 77.0833 178.556 77.0533L176.647 75.2253C176.583 75.1633 176.581 75.0623 176.642 74.9973C176.704 74.9343 176.806 74.9313 176.87 74.9923L178.779 76.8203C178.843 76.8823 178.845 76.9833 178.784 77.0473C178.752 77.0813 178.71 77.0983 178.667 77.0983Z" fill="black"/>
<path d="M180.191 76.1154C180.152 76.1154 180.114 76.1014 180.083 76.0734C179.463 75.5104 178.802 74.9774 178.12 74.4904C178.048 74.4384 178.032 74.3384 178.083 74.2664C178.134 74.1944 178.235 74.1774 178.307 74.2294C178.999 74.7244 179.669 75.2644 180.299 75.8364C180.364 75.8964 180.37 75.9974 180.311 76.0634C180.278 76.0974 180.234 76.1154 180.191 76.1154Z" fill="black"/>
<path d="M181.54 74.9388C181.509 74.9388 181.477 74.9298 181.449 74.9108C180.81 74.4708 180.199 73.9798 179.632 73.4528C179.568 73.3918 179.564 73.2908 179.624 73.2258C179.684 73.1608 179.786 73.1578 179.852 73.2178C180.408 73.7348 181.006 74.2158 181.632 74.6468C181.705 74.6968 181.723 74.7978 181.673 74.8708C181.642 74.9148 181.591 74.9388 181.54 74.9388Z" fill="black"/>
<path d="M182.914 73.5187C182.881 73.5187 182.848 73.5087 182.818 73.4867L181.222 72.3027C181.151 72.2497 181.136 72.1497 181.189 72.0777C181.242 72.0057 181.342 71.9917 181.414 72.0447L183.01 73.2287C183.081 73.2817 183.097 73.3817 183.043 73.4537C183.012 73.4957 182.964 73.5187 182.914 73.5187Z" fill="black"/>
<path d="M184.134 72.0356C184.099 72.0356 184.065 72.0246 184.035 72.0016L182.95 71.1566C182.88 71.1026 182.867 71.0016 182.922 70.9306C182.977 70.8596 183.077 70.8476 183.148 70.9026L184.233 71.7466C184.303 71.8016 184.316 71.9026 184.261 71.9726C184.229 72.0136 184.182 72.0356 184.134 72.0356Z" fill="black"/>
<path d="M185.455 71.023C185.418 71.023 185.381 71.01 185.351 70.984L184.218 70.008C184.152 69.95 184.144 69.849 184.201 69.781C184.259 69.714 184.361 69.707 184.428 69.764L185.56 70.74C185.627 70.798 185.635 70.9 185.578 70.967C185.545 71.004 185.5 71.023 185.455 71.023Z" fill="black"/>
<path d="M186.488 69.683C186.46 69.683 186.43 69.676 186.405 69.66C186.02 69.426 185.638 69.175 185.269 68.913C185.197 68.862 185.179 68.761 185.231 68.689C185.283 68.616 185.383 68.6 185.455 68.65C185.818 68.907 186.194 69.154 186.572 69.385C186.647 69.431 186.672 69.53 186.626 69.606C186.596 69.656 186.542 69.683 186.488 69.683Z" fill="black"/>
<path d="M187.561 68.3578C187.532 68.3578 187.501 68.3498 187.475 68.3328L186.291 67.5838C186.216 67.5368 186.194 67.4368 186.241 67.3618C186.289 67.2868 186.388 67.2648 186.463 67.3118L187.647 68.0608C187.722 68.1078 187.745 68.2078 187.697 68.2828C187.666 68.3318 187.613 68.3578 187.561 68.3578Z" fill="black"/>
<path d="M188.506 66.9289C188.481 66.9289 188.455 66.9229 188.432 66.9109L187.375 66.3609C187.297 66.3199 187.266 66.2229 187.307 66.1439C187.349 66.0649 187.447 66.0349 187.525 66.0759L188.581 66.6259C188.66 66.6669 188.69 66.7639 188.649 66.8429C188.62 66.8969 188.563 66.9289 188.506 66.9289Z" fill="black"/>
<path d="M190.197 63.8871C190.17 63.8871 190.142 63.8801 190.117 63.8661C189.324 63.4101 188.561 62.8881 187.85 62.3131C187.781 62.2571 187.771 62.1561 187.827 62.0871C187.883 62.0181 187.983 62.0071 188.053 62.0631C188.75 62.6271 189.499 63.1401 190.278 63.5871C190.355 63.6311 190.382 63.7291 190.338 63.8061C190.308 63.8571 190.253 63.8871 190.197 63.8871Z" fill="black"/>
<path d="M191.318 62.7669C191.295 62.7669 191.271 62.7619 191.249 62.7509C190.682 62.4819 190.123 62.1769 189.592 61.8449C189.517 61.7979 189.493 61.6989 189.541 61.6239C189.588 61.5479 189.687 61.5249 189.762 61.5729C190.283 61.8989 190.83 62.1979 191.387 62.4609C191.467 62.4989 191.501 62.5949 191.463 62.6749C191.436 62.7319 191.378 62.7669 191.318 62.7669Z" fill="black"/>
<path d="M245.349 88.4102C245.337 88.4102 245.327 88.4092 245.315 88.4072C245.228 88.3882 245.173 88.3032 245.191 88.2162L245.959 84.5942C245.978 84.5072 246.065 84.4522 246.149 84.4702C246.236 84.4892 246.292 84.5742 246.273 84.6602L245.506 88.2832C245.489 88.3582 245.423 88.4102 245.349 88.4102Z" fill="black"/>
<path d="M247.378 92.8987C247.371 92.8987 247.364 92.8987 247.357 92.8977C247.269 92.8867 247.207 92.8057 247.217 92.7177C247.604 89.6507 248.164 86.5707 248.883 83.5627C248.904 83.4767 248.989 83.4237 249.076 83.4437C249.163 83.4637 249.216 83.5507 249.195 83.6367C248.479 86.6337 247.921 89.7017 247.536 92.7567C247.526 92.8397 247.458 92.8987 247.378 92.8987Z" fill="black"/>
<path d="M249.456 96.8417C249.45 96.8417 249.444 96.8417 249.437 96.8407C249.349 96.8307 249.286 96.7507 249.295 96.6627C249.83 91.9687 250.492 87.2277 251.265 82.5747C251.279 82.4877 251.361 82.4277 251.45 82.4427C251.538 82.4577 251.596 82.5407 251.583 82.6277C250.812 87.2757 250.15 92.0107 249.616 96.6997C249.606 96.7807 249.537 96.8417 249.456 96.8417Z" fill="black"/>
<path d="M251.716 101.13C251.711 101.13 251.706 101.13 251.701 101.129C251.613 101.122 251.548 101.044 251.555 100.955C252.037 95.3146 252.628 89.6026 253.31 83.9776C253.321 83.8896 253.402 83.8296 253.489 83.8376C253.577 83.8486 253.64 83.9286 253.63 84.0166C252.948 89.6386 252.359 95.3466 251.876 100.982C251.868 101.067 251.798 101.13 251.716 101.13Z" fill="black"/>
<path d="M253.908 104.138C253.902 104.138 253.897 104.138 253.892 104.137C253.803 104.129 253.739 104.05 253.747 103.962L255.168 89.4541C255.177 89.3661 255.259 89.3021 255.344 89.3091C255.432 89.3181 255.496 89.3961 255.489 89.4851L254.068 103.993C254.06 104.076 253.99 104.138 253.908 104.138Z" fill="black"/>
<path d="M255.91 108.352C255.904 108.352 255.898 108.352 255.892 108.351C255.803 108.341 255.74 108.262 255.749 108.174L257.343 93.7337C257.353 93.6457 257.431 93.5827 257.521 93.5917C257.609 93.6017 257.672 93.6807 257.663 93.7687L256.069 108.209C256.061 108.291 255.99 108.352 255.91 108.352Z" fill="black"/>
<path d="M258.235 111.993C258.228 111.993 258.221 111.993 258.214 111.992C258.126 111.981 258.064 111.901 258.074 111.813C258.653 107.136 259.125 102.384 259.476 97.6894C259.483 97.6004 259.562 97.5354 259.648 97.5414C259.737 97.5484 259.803 97.6254 259.796 97.7134C259.444 102.413 258.972 107.17 258.392 111.852C258.384 111.933 258.314 111.993 258.235 111.993Z" fill="black"/>
<path d="M260.753 115.704C260.749 115.704 260.745 115.704 260.741 115.704C260.652 115.697 260.586 115.621 260.593 115.532L261.603 101.858C261.61 101.769 261.685 101.701 261.775 101.709C261.864 101.716 261.93 101.793 261.923 101.881L260.913 115.555C260.907 115.64 260.836 115.704 260.753 115.704Z" fill="black"/>
<path d="M263.329 119.258C263.327 119.258 263.327 119.258 263.325 119.258C263.236 119.256 263.166 119.182 263.168 119.094C263.265 114.571 263.481 109.994 263.813 105.49C263.819 105.402 263.902 105.333 263.985 105.342C264.073 105.348 264.139 105.425 264.133 105.514C263.803 110.013 263.586 114.584 263.489 119.101C263.487 119.188 263.416 119.258 263.329 119.258Z" fill="black"/>
<path d="M265.704 122.391C265.701 122.391 265.698 122.391 265.696 122.391C265.607 122.387 265.539 122.311 265.544 122.222L266.232 109.232C266.237 109.144 266.315 109.078 266.401 109.08C266.49 109.084 266.558 109.16 266.553 109.249L265.865 122.239C265.86 122.325 265.789 122.391 265.704 122.391Z" fill="black"/>
<path d="M267.739 124.808C267.735 124.808 267.73 124.808 267.726 124.807C267.637 124.8 267.572 124.723 267.579 124.634L268.545 112.528C268.553 112.44 268.63 112.375 268.719 112.381C268.807 112.388 268.873 112.465 268.865 112.554L267.899 124.66C267.893 124.744 267.822 124.808 267.739 124.808Z" fill="black"/>
<path d="M270.146 127.793C270.141 127.793 270.137 127.793 270.133 127.793C270.044 127.786 269.978 127.709 269.985 127.62C270.285 123.658 270.501 119.633 270.626 115.658C270.629 115.569 270.702 115.497 270.792 115.502C270.881 115.505 270.95 115.579 270.948 115.668C270.822 119.648 270.606 123.678 270.306 127.646C270.299 127.729 270.229 127.793 270.146 127.793Z" fill="black"/>
<path d="M272.522 130.442C272.518 130.442 272.514 130.442 272.51 130.442C272.422 130.436 272.355 130.359 272.361 130.271L273.181 118.357C273.187 118.269 273.264 118.199 273.353 118.208C273.441 118.214 273.508 118.291 273.502 118.379L272.682 130.293C272.677 130.377 272.605 130.442 272.522 130.442Z" fill="black"/>
<path d="M274.661 132.659C274.653 132.659 274.646 132.659 274.639 132.658C274.551 132.645 274.491 132.564 274.503 132.476C275.016 128.878 275.386 125.214 275.605 121.584C275.61 121.496 275.674 121.422 275.775 121.433C275.864 121.438 275.93 121.515 275.924 121.603C275.705 125.241 275.335 128.914 274.821 132.52C274.81 132.601 274.739 132.659 274.661 132.659Z" fill="black"/>
<path d="M277.58 136.112C277.577 136.112 277.574 136.112 277.572 136.112C277.483 136.108 277.415 136.032 277.42 135.944L277.982 124.478C277.986 124.39 278.061 124.314 278.15 124.325C278.239 124.329 278.307 124.405 278.302 124.493L277.74 135.959C277.736 136.045 277.665 136.112 277.58 136.112Z" fill="black"/>
<path d="M280.589 138.541C280.5 138.541 280.429 138.47 280.428 138.381L280.393 127.102C280.393 127.013 280.464 126.941 280.553 126.94C280.642 126.94 280.714 127.012 280.714 127.1L280.75 138.379C280.75 138.469 280.678 138.541 280.589 138.541Z" fill="black"/>
<path d="M283.268 140.243C283.18 140.243 283.109 140.174 283.107 140.086L282.875 129.823C282.874 129.734 282.944 129.66 283.032 129.658C283.125 129.666 283.195 129.726 283.197 129.815L283.428 140.078C283.43 140.167 283.36 140.241 283.272 140.243C283.27 140.243 283.268 140.243 283.268 140.243Z" fill="black"/>
<path d="M285.769 138.136C285.688 138.136 285.618 138.075 285.609 137.992C285.413 136.153 285.379 134.284 285.507 132.437C285.513 132.349 285.585 132.281 285.678 132.288C285.767 132.294 285.833 132.371 285.827 132.46C285.7 134.288 285.734 136.137 285.929 137.958C285.938 138.046 285.874 138.125 285.785 138.135C285.78 138.136 285.774 138.136 285.769 138.136Z" fill="black"/>
<path d="M123.471 185.104C123.456 185.104 123.441 185.102 123.426 185.098C123.341 185.073 123.292 184.984 123.317 184.899L124.255 181.697C124.279 181.612 124.368 181.563 124.454 181.588C124.539 181.613 124.588 181.702 124.563 181.787L123.626 184.989C123.604 185.059 123.541 185.104 123.471 185.104Z" fill="black"/>
<path d="M124.843 188.931C124.833 188.931 124.822 188.93 124.812 188.928C124.725 188.911 124.668 188.827 124.685 188.74C125.227 185.905 125.895 183.062 126.672 180.29C126.696 180.205 126.784 180.154 126.87 180.179C126.955 180.202 127.005 180.292 126.981 180.377C126.207 183.141 125.54 185.975 125.001 188.801C124.986 188.877 124.918 188.931 124.843 188.931Z" fill="black"/>
<path d="M126.529 193.641C126.522 193.641 126.515 193.64 126.508 193.639C126.42 193.628 126.358 193.547 126.369 193.459C126.781 190.324 127.332 187.17 128.007 184.082C128.026 183.995 128.111 183.94 128.198 183.959C128.285 183.979 128.34 184.063 128.321 184.15C127.648 187.229 127.099 190.375 126.688 193.501C126.677 193.581 126.608 193.641 126.529 193.641Z" fill="black"/>
<path d="M128.461 197.653C128.455 197.653 128.45 197.653 128.444 197.652C128.356 197.643 128.292 197.564 128.301 197.475C128.63 194.389 129.036 191.273 129.509 188.211C129.523 188.124 129.606 188.065 129.692 188.077C129.78 188.091 129.84 188.173 129.827 188.261C129.355 191.317 128.949 194.428 128.62 197.509C128.612 197.593 128.542 197.653 128.461 197.653Z" fill="black"/>
<path d="M130.317 201.751C130.312 201.751 130.306 201.75 130.301 201.75C130.213 201.741 130.148 201.662 130.156 201.574L131.12 191.737C131.129 191.649 131.209 191.588 131.296 191.592C131.384 191.601 131.449 191.68 131.441 191.768L130.477 201.605C130.469 201.688 130.399 201.751 130.317 201.751Z" fill="black"/>
<path d="M132.453 205.382C132.448 205.382 132.442 205.382 132.436 205.381C132.348 205.372 132.284 205.293 132.293 205.204L133.281 195.839C133.29 195.75 133.366 195.685 133.458 195.695C133.546 195.705 133.61 195.784 133.601 195.872L132.614 205.238C132.604 205.321 132.534 205.382 132.453 205.382Z" fill="black"/>
<path d="M135.044 208.874C135.04 208.874 135.035 208.874 135.031 208.874C134.942 208.867 134.876 208.79 134.883 208.701L135.56 199.805C135.567 199.716 135.655 199.652 135.733 199.657C135.821 199.664 135.888 199.741 135.881 199.83L135.204 208.726C135.197 208.811 135.127 208.874 135.044 208.874Z" fill="black"/>
<path d="M137.754 212.263C137.665 212.262 137.593 212.19 137.594 212.101C137.623 209.187 137.726 206.232 137.903 203.317C137.908 203.229 137.976 203.156 138.073 203.167C138.162 203.172 138.229 203.248 138.224 203.337C138.048 206.246 137.945 209.196 137.916 212.105C137.914 212.192 137.842 212.263 137.754 212.263Z" fill="black"/>
<path d="M140.749 215.025C140.664 215.025 140.592 214.958 140.589 214.872C140.462 212.075 140.406 209.237 140.423 206.437C140.424 206.348 140.496 206.277 140.584 206.277C140.673 206.278 140.745 206.35 140.744 206.438C140.726 209.233 140.782 212.066 140.909 214.857C140.913 214.946 140.845 215.021 140.756 215.025C140.753 215.025 140.751 215.025 140.749 215.025Z" fill="black"/>
<path d="M143.667 217.946C143.586 217.946 143.517 217.884 143.508 217.802C143.221 215.131 143.082 212.414 143.092 209.727C143.092 209.638 143.164 209.567 143.253 209.567C143.327 209.572 143.414 209.639 143.414 209.728C143.403 212.404 143.542 215.109 143.828 217.768C143.837 217.856 143.774 217.935 143.685 217.945C143.679 217.946 143.673 217.946 143.667 217.946Z" fill="black"/>
<path d="M146.697 220.159C146.618 220.159 146.55 220.101 146.538 220.021C146.191 217.632 145.924 215.198 145.745 212.784C145.739 212.695 145.805 212.618 145.893 212.611C145.98 212.604 146.059 212.672 146.065 212.76C146.244 215.166 146.51 217.594 146.856 219.975C146.868 220.063 146.808 220.144 146.72 220.158C146.712 220.159 146.705 220.159 146.697 220.159Z" fill="black"/>
<path d="M149.917 222.467C149.843 222.467 149.777 222.415 149.76 222.34C149.213 219.862 148.774 217.331 148.453 214.817C148.442 214.729 148.504 214.648 148.592 214.637C148.678 214.624 148.76 214.688 148.772 214.776C149.091 217.281 149.529 219.803 150.074 222.272C150.093 222.358 150.038 222.444 149.951 222.463C149.94 222.465 149.929 222.467 149.917 222.467Z" fill="black"/>
<path d="M152.898 224.066C152.825 224.066 152.759 224.016 152.742 223.942C152.203 221.677 151.719 219.367 151.303 217.075C151.287 216.988 151.345 216.904 151.433 216.888C151.516 216.873 151.603 216.929 151.62 217.017C152.035 219.304 152.518 221.609 153.056 223.868C153.077 223.955 153.023 224.041 152.937 224.061C152.923 224.064 152.91 224.066 152.898 224.066Z" fill="black"/>
<path d="M155.504 224.138C155.43 224.138 155.364 224.087 155.347 224.013L154.183 218.955C154.163 218.868 154.217 218.782 154.304 218.762C154.392 218.742 154.476 218.797 154.496 218.883L155.66 223.941C155.68 224.028 155.625 224.114 155.539 224.133C155.528 224.136 155.516 224.138 155.504 224.138Z" fill="black"/>
<path d="M158.071 223.338C158.068 223.338 158.065 223.338 158.062 223.338C158.02 223.335 157.913 223.313 157.865 223.159L157.119 220.755C157.093 220.67 157.14 220.58 157.224 220.554C157.31 220.528 157.399 220.575 157.426 220.659L158.145 222.979C158.169 222.988 158.191 223 158.208 223.018C158.261 223.073 158.273 223.159 158.24 223.231C158.213 223.289 158.136 223.338 158.071 223.338Z" fill="black"/>
<g opacity="0.1294">
<path d="M198.061 46.6074C197.502 46.1034 196.679 46.1124 195.985 45.9144C195.285 45.7454 194.612 45.4764 193.945 45.2064C193.579 45.0514 193.225 44.8714 192.882 44.6694C192.842 44.6414 192.805 44.6114 192.764 44.5844C192.584 44.4594 192.377 44.3244 192.158 44.2864C191.904 44.0384 191.637 43.8074 191.337 43.6294C190.441 43.2054 189.613 44.4434 190.327 45.1284C191.803 46.5534 193.253 48.0074 194.72 49.4444C195.408 50.0654 195.931 50.9464 196.783 51.3484C197.204 51.4714 197.709 51.2354 197.854 50.8164C197.99 50.4754 197.948 50.0814 197.96 49.7184C197.984 48.8834 197.958 49.1314 198.173 48.1654C198.349 47.6514 198.493 47.0374 198.061 46.6074Z" fill="black"/>
</g>
<g opacity="0.1294">
<path d="M188.771 68.5205C187.614 69.8965 186.496 71.3035 185.24 72.5975C184.651 73.2035 184.038 73.7915 183.416 74.3715C183.327 74.4695 183.236 74.5685 183.143 74.6695C182.505 75.3745 181.865 76.0785 181.206 76.7655C181.096 76.7005 180.971 76.6595 180.835 76.6505C180.417 77.0005 179.996 77.3475 179.572 77.6875C179.376 77.8445 179.141 77.8005 178.988 77.6755C178.986 77.6775 178.983 77.6785 178.981 77.6805C176.178 79.8575 172.949 81.5125 169.737 82.9555C169.689 82.9775 169.641 82.9875 169.595 82.9925C169.492 83.0605 169.39 83.1285 169.29 83.2005C168.824 83.6795 168.779 84.3985 168.678 85.0265C168.55 85.7875 168.519 86.8265 169.372 87.1595C170.063 87.4895 170.656 86.9175 171.226 86.5965C172.279 86.0105 173.281 85.3445 174.259 84.6405C177.05 82.8825 178.752 81.9305 181.102 79.6725C182.907 77.9625 184.565 76.1025 186.181 74.2145C186.599 73.7025 186.98 73.1645 187.343 72.6135C187.671 71.9045 187.989 71.1875 188.239 70.4465C188.451 69.8165 188.613 69.1715 188.785 68.5285C188.78 68.5255 188.775 68.5235 188.771 68.5205Z" fill="black"/>
</g>
<g opacity="0.1294">
<path d="M199.742 135.096C199.146 134.53 198.255 134.668 197.502 134.552C195.356 134.265 193.188 134.187 191.023 134.246C190.087 134.275 189.152 134.276 188.216 134.28C187.802 134.316 187.347 134.198 186.961 134.374C186.821 134.428 186.707 134.503 186.614 134.592C185.173 134.523 183.73 134.463 182.289 134.384C179.275 134.171 176.069 133.942 173.794 133.503C172.606 133.192 172.096 134.968 173.292 135.324C174.798 135.679 176.352 135.791 177.883 136C179.728 136.256 182.365 136.553 184.943 136.734C187.749 136.937 190.541 137.291 193.349 137.455C195.24 137.565 197.151 137.5 199.016 137.16C199.992 137.043 200.466 135.791 199.742 135.096Z" fill="black"/>
</g>
<g opacity="0.1294">
<path d="M212.694 185.822C212.711 185.851 212.718 185.883 212.732 185.913C212.776 186.018 212.799 186.069 212.694 185.822Z" fill="black"/>
</g>
<g opacity="0.1294">
<path d="M214.692 148.34C214.335 147.688 213.268 147.816 213.09 148.549C212.094 152.056 211.85 155.723 211.147 159.293C210.786 161.127 210.306 162.937 209.975 164.777C209.55 167.374 209.063 169.964 208.265 172.475C207.888 173.688 207.574 174.626 207.275 175.194C207.243 175.254 207.203 175.307 207.166 175.363C207.156 175.366 207.147 175.369 207.137 175.372C206.872 175.388 206.608 175.373 206.342 175.378C205.065 175.314 204.463 176.51 204.926 177.618C205.523 179.566 207.883 182.401 208.452 183.156C209.743 184.761 211.157 187.409 211.198 187.874C211.343 188.348 211.452 188.831 211.559 189.314C211.582 189.561 211.679 189.798 211.858 189.974C212.484 190.639 213.704 190.117 213.642 189.198C213.489 188.136 213.195 187.098 212.797 186.101C212.783 186.037 212.76 185.974 212.733 185.913C212.717 185.876 212.699 185.833 212.682 185.793C212.538 185.445 212.037 184.275 212.258 184.793C211.789 183.718 211.174 182.198 210.549 180.518C210.14 179.447 209.747 178.37 209.312 177.309C209.166 177.031 209.082 176.694 208.929 176.41C210.088 174.169 210.634 171.64 211.218 169.199C211.767 166.147 212.318 163.1 213.009 160.077C213.421 157.689 213.928 153.361 214.012 152.912C214.165 151.818 214.355 150.728 214.607 149.653C214.701 149.221 214.954 148.759 214.692 148.34Z" fill="black"/>
</g>
<g opacity="0.1294">
<path d="M297.179 125.808C296.839 125.519 296.541 125.496 296.272 125.616C296.004 125.561 295.714 125.62 295.486 125.859C294.165 127.261 292.902 128.7 291.679 130.157C290.932 129.994 290.513 130.662 290.101 131.29C289.648 131.945 289.194 132.599 288.702 133.226C288.486 133.506 288.265 133.782 288.043 134.056C284.516 137.201 280.77 140.105 277.189 143.187C270.641 148.495 264.067 153.806 257.7 158.748C257.442 158.926 257.184 159.103 256.927 159.281C252.636 162.193 248.248 164.961 243.971 167.894C235.105 174.02 226.39 180.368 217.286 186.143C213.214 188.772 209.079 191.3 204.985 193.895C202.275 195.583 199.459 197.089 196.708 198.708C192.548 201.233 188.46 203.876 184.241 206.306C180.548 208.63 176.718 210.72 172.863 212.76C169.423 214.733 166.02 216.77 162.666 218.886C161.674 219.493 160.687 220.111 159.687 220.703C159.271 220.967 158.748 221.151 158.536 221.608C157.837 221.937 157.169 222.23 156.548 222.467C155.975 222.612 155.601 223.263 155.773 223.831C155.928 224.403 156.565 224.775 157.137 224.606C157.427 224.497 157.715 224.383 158.002 224.266C156.929 224.864 157.504 226.687 158.876 226.353C167.129 224.46 175.337 222.337 183.672 220.812C185.828 220.449 186.702 220.335 188.423 220.148C189.681 220.085 190.482 219.996 191.026 219.085C191.134 217.658 191.281 216.234 191.446 214.821C191.726 212.434 192.072 210.054 192.474 207.684C192.495 207.514 192.515 207.344 192.536 207.173C192.366 206.993 192.144 206.875 191.905 206.832C192.846 206.234 193.78 205.624 194.697 204.988C195.339 204.471 196.176 204.134 196.471 203.591C198.121 202.743 199.774 201.901 201.435 201.075C203.833 199.899 206.071 198.435 208.354 197.056C212.715 194.514 216.841 191.613 220.994 188.749C224.577 186.276 228.241 183.926 231.886 181.546C235.235 179.306 238.846 177.496 242.2 175.268C245.474 173.067 248.704 170.799 251.995 168.622C254.745 166.747 257.585 165.003 260.294 163.067C261.226 162.4 262.114 161.682 262.987 160.943C264.417 159.971 265.813 158.946 267.213 157.931C269.098 156.558 270.987 155.189 272.752 153.661C277.114 149.896 281.429 146.047 285.232 141.706C285.531 141.316 285.951 140.994 286.17 140.554C286.281 140.335 286.273 140.085 286.186 139.863C287.1 138.702 287.996 137.554 288.915 136.386C289.269 135.974 289.613 135.555 289.953 135.133C291.231 133.937 292.47 132.699 293.638 131.391C294.805 130.112 295.895 128.766 296.931 127.38C297.004 127.283 297.182 127.045 297.224 126.986C297.36 126.828 297.438 126.629 297.438 126.42C297.439 126.192 297.337 125.972 297.179 125.808ZM161.406 223.43C160.363 223.68 159.319 223.923 158.272 224.154C159.285 223.73 160.277 223.261 161.262 222.774C161.323 222.94 161.426 223.09 161.558 223.207C161.497 223.275 161.446 223.351 161.406 223.43ZM188.756 208.86C188.11 209.302 184.878 211.589 183.275 212.51C181.065 213.739 178.833 214.849 176.579 215.926C178.362 214.928 180.127 213.9 181.862 212.815C184.332 211.344 186.833 209.923 189.297 208.442C189.124 208.582 188.946 208.722 188.756 208.86Z" fill="black"/>
</g>
<g opacity="0.1294">
<path d="M173.137 190.781C173.115 190.791 173.093 190.802 173.071 190.811C173.4 190.677 173.312 190.707 173.137 190.781Z" fill="black"/>
</g>
<g opacity="0.1294">
<path d="M179.596 177.41C179.214 177.512 178.928 177.887 178.932 178.282C178.945 178.539 178.965 178.797 178.941 179.053C178.937 179.11 178.93 179.166 178.923 179.223C178.744 180.53 178.066 182.813 177.86 183.121C175.034 188.885 169.994 190.224 164.198 188.678C163.667 188.532 163.105 188.172 162.574 188.519C161.867 188.915 161.859 190.018 162.574 190.414C164.608 191.286 166.875 191.551 169.072 191.602C170.394 191.569 171.722 191.356 172.953 190.862C173.016 190.834 173.081 190.805 173.137 190.782C175.679 189.683 177.695 187.59 179.105 185.242C179.993 183.824 180.36 182.163 180.614 180.529C180.723 179.519 181.292 177.169 179.596 177.41Z" fill="black"/>
</g>
<g opacity="0.1294">
<path d="M237.874 141.775C237.818 140.348 235.737 140.451 235.806 141.884C235.793 142.539 235.562 143.73 235.162 145.025C235.151 145.054 235.141 145.083 235.129 145.111C234.84 145.751 234.517 146.374 234.195 146.997C233.006 149.24 232.34 149.958 230.249 151.656C230.04 151.813 229.794 152.041 228.923 152.569C227.91 153.161 226.313 153.962 226.169 153.984C226.914 153.691 225.303 154.3 224.968 154.358C223.993 154.642 222.534 154.922 222.465 154.883C221.59 154.94 220.714 154.896 219.846 154.779C219.402 154.719 218.933 154.551 218.525 154.811C217.724 155.244 217.889 156.55 218.78 156.764C220.271 157.017 221.794 157.24 223.308 157.151C223.343 157.148 223.377 157.143 223.412 157.139C223.559 157.428 223.843 157.646 224.231 157.637C225.886 157.683 227.581 157.47 229.13 156.869C230.142 156.442 231.049 155.803 231.961 155.198C233.216 154.411 234.306 153.415 235.107 152.161C235.382 151.677 235.962 151.22 235.804 150.61C235.749 150.384 235.604 150.218 235.421 150.117C236.267 148.831 236.914 147.41 237.368 145.941C237.528 145.417 237.6 144.869 237.671 144.326C237.623 144.692 237.636 144.592 237.679 144.292C237.789 143.46 237.926 142.619 237.874 141.775Z" fill="black"/>
</g>
<g opacity="0.1294">
<path d="M142.748 218.558C142.491 218.477 142.248 218.53 142.014 218.623C141.621 218.649 141.269 218.898 140.914 219.074C140.157 219.479 139.404 219.895 138.683 220.363C135.961 222.16 133.524 224.337 131.217 226.633C129.395 228.5 128.409 229.351 127.147 231.249C126.869 231.73 126.837 232.381 127.164 232.815C127.259 233.014 127.389 233.198 127.57 233.325C127.686 233.406 127.932 233.579 128.026 233.64C128.03 233.645 128.035 233.648 128.04 233.652C128.144 233.737 128.295 233.907 128.369 233.991C128.832 234.625 128.946 235.512 129.644 235.951C130.293 236.304 131.177 236.027 131.574 235.422C131.655 235.298 131.702 235.155 131.756 235.017C131.79 234.943 131.848 234.815 131.9 234.711C132.401 233.576 133.023 232.502 133.638 231.427C135.942 227.595 137.694 225.09 141.061 222.18C141.921 221.391 143.062 220.567 143.312 220.264C143.803 219.698 143.465 218.738 142.748 218.558Z" fill="black"/>
</g>
<path d="M39.496 84.9615C56.79 86.9045 74.248 86.7655 91.645 86.2965C95.842 86.1835 100.385 85.9245 103.61 83.2175C108.254 79.3195 107.703 70.9495 102.777 67.4235C97.851 63.8975 90.114 65.8175 87.062 71.0705C87.447 64.5935 82.214 58.2875 75.814 57.5135C69.414 56.7395 62.841 61.6185 61.685 68.0015C61.362 63.6255 55.204 61.6595 51.574 64.0915C47.944 66.5245 46.818 71.4935 47.373 75.8465C45.795 71.6665 39.253 71.1045 36.404 74.5375C33.555 77.9725 34.409 84.3905 39.496 84.9615Z" fill="white"/>
<path d="M58.8863 86.8332C52.2793 86.5932 45.8643 86.1512 39.4443 85.4302C37.2813 85.1872 35.6423 83.9422 34.8303 81.9262C33.8353 79.4592 34.3343 76.2972 36.0423 74.2382C37.5693 72.3982 40.2553 71.4942 42.8853 71.9342C44.4743 72.2002 45.8313 72.9262 46.7713 73.9732C46.7193 70.2282 47.8733 66.0062 51.3133 63.7022C53.3673 62.3262 56.3713 62.1942 58.7903 63.3722C60.1373 64.0282 61.1333 65.0032 61.6833 66.1672C63.6573 60.4552 69.8653 56.3172 75.8723 57.0462C81.9753 57.7842 87.0883 63.4392 87.5243 69.5662C89.1663 67.5092 91.5893 66.0342 94.3733 65.4362C97.5193 64.7592 100.684 65.3442 103.052 67.0402C105.557 68.8332 107.132 71.9502 107.264 75.3762C107.391 78.6942 106.17 81.6842 103.912 83.5782C100.664 86.3052 96.2623 86.6422 91.6573 86.7662C79.8043 87.0872 69.1173 87.2032 58.8863 86.8332ZM39.5493 84.4932C55.8563 86.3262 72.1633 86.3512 91.6323 85.8252C96.0643 85.7052 100.291 85.3882 103.307 82.8572C105.34 81.1512 106.439 78.4382 106.322 75.4132C106.201 72.2752 104.774 69.4322 102.503 67.8072C100.351 66.2662 97.4593 65.7372 94.5703 66.3582C91.5023 67.0172 88.9143 68.8212 87.4703 71.3082C87.3603 71.4962 87.1373 71.5852 86.9273 71.5222C86.7183 71.4592 86.5803 71.2612 86.5933 71.0432C86.9623 64.8282 81.9003 58.7252 75.7593 57.9822C69.6223 57.2412 63.2603 61.9612 62.1503 68.0862C62.1083 68.3192 61.9083 68.4802 61.6623 68.4732C61.4253 68.4602 61.2343 68.2742 61.2173 68.0372C61.0983 66.4322 60.0633 65.0402 58.3773 64.2182C56.2503 63.1822 53.6223 63.2882 51.8373 64.4832C48.1393 66.9612 47.3743 72.1212 47.8413 75.7872C47.8713 76.0242 47.7193 76.2462 47.4873 76.3042C47.2533 76.3622 47.0173 76.2372 46.9333 76.0132C46.3063 74.3532 44.7743 73.2052 42.7283 72.8632C40.4243 72.4772 38.0833 73.2532 36.7663 74.8402C35.2693 76.6442 34.8323 79.4132 35.7033 81.5742C36.3803 83.2532 37.7463 84.2912 39.5493 84.4932Z" fill="black"/>
<g opacity="0.1294">
<path d="M104.794 81.1827C104.773 80.6627 104.299 80.2516 103.791 80.2296C103.402 80.2016 103.101 80.4587 102.776 80.6287C102.387 80.8437 101.989 81.0476 101.577 81.2146C100.096 81.7306 98.6031 82.2946 97.0311 82.4386C96.8841 82.4516 96.7361 82.4636 96.5891 82.4796C97.2321 82.4176 96.6541 82.4657 96.3161 82.4627C89.1541 82.2687 82.0031 82.7866 74.8411 82.7896C71.5721 82.7916 68.3041 82.9196 65.0351 82.9146C59.6041 82.8426 54.1731 82.7976 48.7421 82.7336C47.3711 82.6656 45.9971 82.6106 44.6331 82.4666C42.3761 82.1826 40.1331 81.7536 37.8601 81.6126C36.1521 81.5826 36.0061 84.1326 37.7641 84.2496C41.2441 84.5726 41.5401 84.9576 45.9391 85.4796C49.3191 85.8526 52.7251 85.7296 56.1181 85.8616C59.5351 85.9676 62.9501 86.1286 66.3671 86.2426C69.1601 86.2976 71.9541 86.2396 74.7481 86.2556C74.8411 86.2556 74.9341 86.2537 75.0271 86.2537C78.8921 86.4707 82.7711 86.4856 86.6391 86.4206C88.2971 86.3696 89.9551 86.4486 91.6131 86.4246C93.0931 86.3506 93.6091 86.2556 94.5711 86.1876C96.4671 86.0646 98.4051 85.9606 100.171 85.1886C100.704 84.9546 101.307 84.7436 101.72 84.3256C101.879 84.1586 101.945 83.9356 101.934 83.7146C102.461 83.4566 102.972 83.1697 103.456 82.8377C103.632 82.7067 104.157 82.3397 103.705 82.6567C103.931 82.5007 104.15 82.3336 104.356 82.1516C104.66 81.9376 104.858 81.5537 104.794 81.1827Z" fill="black"/>
</g>
</svg>
